<?xml version="1.0" encoding="utf-8"?>
<svg xmlns="http://www.w3.org/2000/svg" xmlns:xlink="http://www.w3.org/1999/xlink" width="600" height="400" viewBox="0 0 2400 1600">
<defs>
  <clipPath id="clip370">
    <rect x="0" y="0" width="2400" height="1600"/>
  </clipPath>
</defs>
<path clip-path="url(#clip370)" d="M0 1600 L2400 1600 L2400 0 L0 0  Z" fill="#ffffff" fill-rule="evenodd" fill-opacity="1"/>
<defs>
  <clipPath id="clip371">
    <rect x="480" y="0" width="1681" height="1600"/>
  </clipPath>
</defs>
<path clip-path="url(#clip370)" d="M219.866 1423.18 L2352.76 1423.18 L2352.76 123.472 L219.866 123.472  Z" fill="#ffffff" fill-rule="evenodd" fill-opacity="1"/>
<defs>
  <clipPath id="clip372">
    <rect x="219" y="123" width="2134" height="1301"/>
  </clipPath>
</defs>
<polyline clip-path="url(#clip370)" style="stroke:#000000; stroke-linecap:round; stroke-linejoin:round; stroke-width:4; stroke-opacity:1; fill:none" points="219.866,1423.18 2352.76,1423.18 "/>
<polyline clip-path="url(#clip370)" style="stroke:#000000; stroke-linecap:round; stroke-linejoin:round; stroke-width:4; stroke-opacity:1; fill:none" points="280.231,1423.18 280.231,1404.28 "/>
<polyline clip-path="url(#clip370)" style="stroke:#000000; stroke-linecap:round; stroke-linejoin:round; stroke-width:4; stroke-opacity:1; fill:none" points="950.951,1423.18 950.951,1404.28 "/>
<polyline clip-path="url(#clip370)" style="stroke:#000000; stroke-linecap:round; stroke-linejoin:round; stroke-width:4; stroke-opacity:1; fill:none" points="1621.67,1423.18 1621.67,1404.28 "/>
<polyline clip-path="url(#clip370)" style="stroke:#000000; stroke-linecap:round; stroke-linejoin:round; stroke-width:4; stroke-opacity:1; fill:none" points="2292.39,1423.18 2292.39,1404.28 "/>
<path clip-path="url(#clip370)" d="M280.231 1454.1 Q276.62 1454.1 274.791 1457.66 Q272.986 1461.2 272.986 1468.33 Q272.986 1475.44 274.791 1479.01 Q276.62 1482.55 280.231 1482.55 Q283.865 1482.55 285.671 1479.01 Q287.5 1475.44 287.5 1468.33 Q287.5 1461.2 285.671 1457.66 Q283.865 1454.1 280.231 1454.1 M280.231 1450.39 Q286.041 1450.39 289.097 1455 Q292.175 1459.58 292.175 1468.33 Q292.175 1477.06 289.097 1481.67 Q286.041 1486.25 280.231 1486.25 Q274.421 1486.25 271.342 1481.67 Q268.287 1477.06 268.287 1468.33 Q268.287 1459.58 271.342 1455 Q274.421 1450.39 280.231 1450.39 Z" fill="#000000" fill-rule="nonzero" fill-opacity="1" /><path clip-path="url(#clip370)" d="M910.558 1481.64 L918.197 1481.64 L918.197 1455.28 L909.886 1456.95 L909.886 1452.69 L918.15 1451.02 L922.826 1451.02 L922.826 1481.64 L930.465 1481.64 L930.465 1485.58 L910.558 1485.58 L910.558 1481.64 Z" fill="#000000" fill-rule="nonzero" fill-opacity="1" /><path clip-path="url(#clip370)" d="M949.909 1454.1 Q946.298 1454.1 944.47 1457.66 Q942.664 1461.2 942.664 1468.33 Q942.664 1475.44 944.47 1479.01 Q946.298 1482.55 949.909 1482.55 Q953.544 1482.55 955.349 1479.01 Q957.178 1475.44 957.178 1468.33 Q957.178 1461.2 955.349 1457.66 Q953.544 1454.1 949.909 1454.1 M949.909 1450.39 Q955.72 1450.39 958.775 1455 Q961.854 1459.58 961.854 1468.33 Q961.854 1477.06 958.775 1481.67 Q955.72 1486.25 949.909 1486.25 Q944.099 1486.25 941.021 1481.67 Q937.965 1477.06 937.965 1468.33 Q937.965 1459.58 941.021 1455 Q944.099 1450.39 949.909 1450.39 Z" fill="#000000" fill-rule="nonzero" fill-opacity="1" /><path clip-path="url(#clip370)" d="M980.071 1454.1 Q976.46 1454.1 974.632 1457.66 Q972.826 1461.2 972.826 1468.33 Q972.826 1475.44 974.632 1479.01 Q976.46 1482.55 980.071 1482.55 Q983.706 1482.55 985.511 1479.01 Q987.34 1475.44 987.34 1468.33 Q987.34 1461.2 985.511 1457.66 Q983.706 1454.1 980.071 1454.1 M980.071 1450.39 Q985.881 1450.39 988.937 1455 Q992.016 1459.58 992.016 1468.33 Q992.016 1477.06 988.937 1481.67 Q985.881 1486.25 980.071 1486.25 Q974.261 1486.25 971.182 1481.67 Q968.127 1477.06 968.127 1468.33 Q968.127 1459.58 971.182 1455 Q974.261 1450.39 980.071 1450.39 Z" fill="#000000" fill-rule="nonzero" fill-opacity="1" /><path clip-path="url(#clip370)" d="M1585.36 1481.64 L1601.68 1481.64 L1601.68 1485.58 L1579.74 1485.58 L1579.74 1481.64 Q1582.4 1478.89 1586.98 1474.26 Q1591.59 1469.61 1592.77 1468.27 Q1595.02 1465.74 1595.9 1464.01 Q1596.8 1462.25 1596.8 1460.56 Q1596.8 1457.8 1594.85 1456.07 Q1592.93 1454.33 1589.83 1454.33 Q1587.63 1454.33 1585.18 1455.09 Q1582.75 1455.86 1579.97 1457.41 L1579.97 1452.69 Q1582.79 1451.55 1585.25 1450.97 Q1587.7 1450.39 1589.74 1450.39 Q1595.11 1450.39 1598.3 1453.08 Q1601.5 1455.77 1601.5 1460.26 Q1601.5 1462.39 1600.69 1464.31 Q1599.9 1466.2 1597.79 1468.8 Q1597.22 1469.47 1594.11 1472.69 Q1591.01 1475.88 1585.36 1481.64 Z" fill="#000000" fill-rule="nonzero" fill-opacity="1" /><path clip-path="url(#clip370)" d="M1621.5 1454.1 Q1617.89 1454.1 1616.06 1457.66 Q1614.25 1461.2 1614.25 1468.33 Q1614.25 1475.44 1616.06 1479.01 Q1617.89 1482.55 1621.5 1482.55 Q1625.13 1482.55 1626.94 1479.01 Q1628.77 1475.44 1628.77 1468.33 Q1628.77 1461.2 1626.94 1457.66 Q1625.13 1454.1 1621.5 1454.1 M1621.5 1450.39 Q1627.31 1450.39 1630.36 1455 Q1633.44 1459.58 1633.44 1468.33 Q1633.44 1477.06 1630.36 1481.67 Q1627.31 1486.25 1621.5 1486.25 Q1615.69 1486.25 1612.61 1481.67 Q1609.55 1477.06 1609.55 1468.33 Q1609.55 1459.58 1612.61 1455 Q1615.69 1450.39 1621.5 1450.39 Z" fill="#000000" fill-rule="nonzero" fill-opacity="1" /><path clip-path="url(#clip370)" d="M1651.66 1454.1 Q1648.05 1454.1 1646.22 1457.66 Q1644.41 1461.2 1644.41 1468.33 Q1644.41 1475.44 1646.22 1479.01 Q1648.05 1482.55 1651.66 1482.55 Q1655.29 1482.55 1657.1 1479.01 Q1658.93 1475.44 1658.93 1468.33 Q1658.93 1461.2 1657.1 1457.66 Q1655.29 1454.1 1651.66 1454.1 M1651.66 1450.39 Q1657.47 1450.39 1660.53 1455 Q1663.6 1459.58 1663.6 1468.33 Q1663.6 1477.06 1660.53 1481.67 Q1657.47 1486.25 1651.66 1486.25 Q1645.85 1486.25 1642.77 1481.67 Q1639.71 1477.06 1639.71 1468.33 Q1639.71 1459.58 1642.77 1455 Q1645.85 1450.39 1651.66 1450.39 Z" fill="#000000" fill-rule="nonzero" fill-opacity="1" /><path clip-path="url(#clip370)" d="M2266.15 1466.95 Q2269.51 1467.66 2271.38 1469.93 Q2273.28 1472.2 2273.28 1475.53 Q2273.28 1480.65 2269.76 1483.45 Q2266.25 1486.25 2259.76 1486.25 Q2257.59 1486.25 2255.27 1485.81 Q2252.98 1485.39 2250.53 1484.54 L2250.53 1480.02 Q2252.47 1481.16 2254.79 1481.74 Q2257.1 1482.32 2259.63 1482.32 Q2264.02 1482.32 2266.31 1480.58 Q2268.63 1478.84 2268.63 1475.53 Q2268.63 1472.48 2266.48 1470.77 Q2264.35 1469.03 2260.53 1469.03 L2256.5 1469.03 L2256.5 1465.19 L2260.71 1465.19 Q2264.16 1465.19 2265.99 1463.82 Q2267.82 1462.43 2267.82 1459.84 Q2267.82 1457.18 2265.92 1455.77 Q2264.05 1454.33 2260.53 1454.33 Q2258.61 1454.33 2256.41 1454.75 Q2254.21 1455.16 2251.57 1456.04 L2251.57 1451.88 Q2254.23 1451.14 2256.55 1450.77 Q2258.88 1450.39 2260.94 1450.39 Q2266.27 1450.39 2269.37 1452.83 Q2272.47 1455.23 2272.47 1459.35 Q2272.47 1462.22 2270.83 1464.21 Q2269.19 1466.18 2266.15 1466.95 Z" fill="#000000" fill-rule="nonzero" fill-opacity="1" /><path clip-path="url(#clip370)" d="M2292.15 1454.1 Q2288.54 1454.1 2286.71 1457.66 Q2284.9 1461.2 2284.9 1468.33 Q2284.9 1475.44 2286.71 1479.01 Q2288.54 1482.55 2292.15 1482.55 Q2295.78 1482.55 2297.59 1479.01 Q2299.42 1475.44 2299.42 1468.33 Q2299.42 1461.2 2297.59 1457.66 Q2295.78 1454.1 2292.15 1454.1 M2292.15 1450.39 Q2297.96 1450.39 2301.01 1455 Q2304.09 1459.58 2304.09 1468.33 Q2304.09 1477.06 2301.01 1481.67 Q2297.96 1486.25 2292.15 1486.25 Q2286.34 1486.25 2283.26 1481.67 Q2280.2 1477.06 2280.2 1468.33 Q2280.2 1459.58 2283.26 1455 Q2286.34 1450.39 2292.15 1450.39 Z" fill="#000000" fill-rule="nonzero" fill-opacity="1" /><path clip-path="url(#clip370)" d="M2322.31 1454.1 Q2318.7 1454.1 2316.87 1457.66 Q2315.06 1461.2 2315.06 1468.33 Q2315.06 1475.44 2316.87 1479.01 Q2318.7 1482.55 2322.31 1482.55 Q2325.94 1482.55 2327.75 1479.01 Q2329.58 1475.44 2329.58 1468.33 Q2329.58 1461.2 2327.75 1457.66 Q2325.94 1454.1 2322.31 1454.1 M2322.31 1450.39 Q2328.12 1450.39 2331.18 1455 Q2334.25 1459.58 2334.25 1468.33 Q2334.25 1477.06 2331.18 1481.67 Q2328.12 1486.25 2322.31 1486.25 Q2316.5 1486.25 2313.42 1481.67 Q2310.37 1477.06 2310.37 1468.33 Q2310.37 1459.58 2313.42 1455 Q2316.5 1450.39 2322.31 1450.39 Z" fill="#000000" fill-rule="nonzero" fill-opacity="1" /><path clip-path="url(#clip370)" d="M1077.98 1520.52 L1118.18 1520.52 L1118.18 1525.93 L1101.31 1525.93 L1101.31 1568.04 L1094.85 1568.04 L1094.85 1525.93 L1077.98 1525.93 L1077.98 1520.52 Z" fill="#000000" fill-rule="nonzero" fill-opacity="1" /><path clip-path="url(#clip370)" d="M1122.12 1532.4 L1127.98 1532.4 L1127.98 1568.04 L1122.12 1568.04 L1122.12 1532.4 M1122.12 1518.52 L1127.98 1518.52 L1127.98 1525.93 L1122.12 1525.93 L1122.12 1518.52 Z" fill="#000000" fill-rule="nonzero" fill-opacity="1" /><path clip-path="url(#clip370)" d="M1167.99 1539.24 Q1170.18 1535.29 1173.24 1533.41 Q1176.3 1531.54 1180.43 1531.54 Q1186 1531.54 1189.03 1535.45 Q1192.05 1539.33 1192.05 1546.53 L1192.05 1568.04 L1186.16 1568.04 L1186.16 1546.72 Q1186.16 1541.59 1184.35 1539.11 Q1182.53 1536.63 1178.81 1536.63 Q1174.26 1536.63 1171.62 1539.65 Q1168.98 1542.68 1168.98 1547.9 L1168.98 1568.04 L1163.09 1568.04 L1163.09 1546.72 Q1163.09 1541.56 1161.27 1539.11 Q1159.46 1536.63 1155.67 1536.63 Q1151.18 1536.63 1148.54 1539.68 Q1145.9 1542.71 1145.9 1547.9 L1145.9 1568.04 L1140.01 1568.04 L1140.01 1532.4 L1145.9 1532.4 L1145.9 1537.93 Q1147.9 1534.66 1150.71 1533.1 Q1153.51 1531.54 1157.36 1531.54 Q1161.24 1531.54 1163.95 1533.51 Q1166.68 1535.48 1167.99 1539.24 Z" fill="#000000" fill-rule="nonzero" fill-opacity="1" /><path clip-path="url(#clip370)" d="M1234.22 1548.76 L1234.22 1551.62 L1207.3 1551.62 Q1207.68 1557.67 1210.93 1560.85 Q1214.2 1564 1220.03 1564 Q1223.4 1564 1226.55 1563.17 Q1229.74 1562.35 1232.86 1560.69 L1232.86 1566.23 Q1229.7 1567.57 1226.39 1568.27 Q1223.08 1568.97 1219.68 1568.97 Q1211.15 1568.97 1206.15 1564 Q1201.19 1559.04 1201.19 1550.57 Q1201.19 1541.82 1205.9 1536.69 Q1210.64 1531.54 1218.66 1531.54 Q1225.85 1531.54 1230.02 1536.18 Q1234.22 1540.8 1234.22 1548.76 M1228.37 1547.04 Q1228.3 1542.23 1225.66 1539.37 Q1223.05 1536.5 1218.72 1536.5 Q1213.82 1536.5 1210.86 1539.27 Q1207.93 1542.04 1207.49 1547.07 L1228.37 1547.04 Z" fill="#000000" fill-rule="nonzero" fill-opacity="1" /><path clip-path="url(#clip370)" d="M1278.62 1518.58 Q1274.36 1525.9 1272.29 1533.06 Q1270.22 1540.23 1270.22 1547.58 Q1270.22 1554.93 1272.29 1562.16 Q1274.39 1569.35 1278.62 1576.64 L1273.53 1576.64 Q1268.76 1569.16 1266.37 1561.93 Q1264.02 1554.71 1264.02 1547.58 Q1264.02 1540.48 1266.37 1533.29 Q1268.73 1526.09 1273.53 1518.58 L1278.62 1518.58 Z" fill="#000000" fill-rule="nonzero" fill-opacity="1" /><path clip-path="url(#clip370)" d="M1290.24 1520.52 L1296.67 1520.52 L1296.67 1540 L1320.03 1540 L1320.03 1520.52 L1326.46 1520.52 L1326.46 1568.04 L1320.03 1568.04 L1320.03 1545.41 L1296.67 1545.41 L1296.67 1568.04 L1290.24 1568.04 L1290.24 1520.52 Z" fill="#000000" fill-rule="nonzero" fill-opacity="1" /><path clip-path="url(#clip370)" d="M1352.82 1536.5 Q1348.11 1536.5 1345.37 1540.19 Q1342.63 1543.85 1342.63 1550.25 Q1342.63 1556.65 1345.34 1560.34 Q1348.07 1564 1352.82 1564 Q1357.5 1564 1360.23 1560.31 Q1362.97 1556.62 1362.97 1550.25 Q1362.97 1543.92 1360.23 1540.23 Q1357.5 1536.5 1352.82 1536.5 M1352.82 1531.54 Q1360.46 1531.54 1364.82 1536.5 Q1369.18 1541.47 1369.18 1550.25 Q1369.18 1559 1364.82 1564 Q1360.46 1568.97 1352.82 1568.97 Q1345.15 1568.97 1340.79 1564 Q1336.46 1559 1336.46 1550.25 Q1336.46 1541.47 1340.79 1536.5 Q1345.15 1531.54 1352.82 1531.54 Z" fill="#000000" fill-rule="nonzero" fill-opacity="1" /><path clip-path="url(#clip370)" d="M1378.28 1553.98 L1378.28 1532.4 L1384.14 1532.4 L1384.14 1553.75 Q1384.14 1558.81 1386.11 1561.36 Q1388.08 1563.87 1392.03 1563.87 Q1396.77 1563.87 1399.51 1560.85 Q1402.28 1557.83 1402.28 1552.61 L1402.28 1532.4 L1408.13 1532.4 L1408.13 1568.04 L1402.28 1568.04 L1402.28 1562.57 Q1400.15 1565.82 1397.31 1567.41 Q1394.51 1568.97 1390.79 1568.97 Q1384.65 1568.97 1381.46 1565.15 Q1378.28 1561.33 1378.28 1553.98 M1393.02 1531.54 L1393.02 1531.54 Z" fill="#000000" fill-rule="nonzero" fill-opacity="1" /><path clip-path="url(#clip370)" d="M1440.85 1537.87 Q1439.87 1537.3 1438.69 1537.04 Q1437.54 1536.76 1436.14 1536.76 Q1431.18 1536.76 1428.51 1540 Q1425.86 1543.22 1425.86 1549.27 L1425.86 1568.04 L1419.98 1568.04 L1419.98 1532.4 L1425.86 1532.4 L1425.86 1537.93 Q1427.71 1534.69 1430.67 1533.13 Q1433.63 1531.54 1437.86 1531.54 Q1438.47 1531.54 1439.2 1531.63 Q1439.93 1531.7 1440.82 1531.85 L1440.85 1537.87 Z" fill="#000000" fill-rule="nonzero" fill-opacity="1" /><path clip-path="url(#clip370)" d="M1469.72 1533.45 L1469.72 1538.98 Q1467.24 1537.71 1464.57 1537.07 Q1461.89 1536.44 1459.03 1536.44 Q1454.67 1536.44 1452.47 1537.77 Q1450.31 1539.11 1450.31 1541.79 Q1450.31 1543.82 1451.87 1545 Q1453.43 1546.15 1458.14 1547.2 L1460.14 1547.64 Q1466.38 1548.98 1468.99 1551.43 Q1471.63 1553.85 1471.63 1558.21 Q1471.63 1563.17 1467.69 1566.07 Q1463.77 1568.97 1456.9 1568.97 Q1454.03 1568.97 1450.91 1568.39 Q1447.82 1567.85 1444.39 1566.74 L1444.39 1560.69 Q1447.63 1562.38 1450.79 1563.24 Q1453.94 1564.07 1457.02 1564.07 Q1461.16 1564.07 1463.39 1562.66 Q1465.62 1561.23 1465.62 1558.65 Q1465.62 1556.27 1463.99 1554.99 Q1462.4 1553.72 1456.96 1552.54 L1454.92 1552.07 Q1449.48 1550.92 1447.06 1548.56 Q1444.64 1546.18 1444.64 1542.04 Q1444.64 1537.01 1448.21 1534.27 Q1451.77 1531.54 1458.33 1531.54 Q1461.57 1531.54 1464.44 1532.01 Q1467.3 1532.49 1469.72 1533.45 Z" fill="#000000" fill-rule="nonzero" fill-opacity="1" /><path clip-path="url(#clip370)" d="M1480.04 1518.58 L1485.13 1518.58 Q1489.9 1526.09 1492.26 1533.29 Q1494.64 1540.48 1494.64 1547.58 Q1494.64 1554.71 1492.26 1561.93 Q1489.9 1569.16 1485.13 1576.64 L1480.04 1576.64 Q1484.27 1569.35 1486.34 1562.16 Q1488.44 1554.93 1488.44 1547.58 Q1488.44 1540.23 1486.34 1533.06 Q1484.27 1525.9 1480.04 1518.58 Z" fill="#000000" fill-rule="nonzero" fill-opacity="1" /><polyline clip-path="url(#clip370)" style="stroke:#000000; stroke-linecap:round; stroke-linejoin:round; stroke-width:4; stroke-opacity:1; fill:none" points="219.866,1423.18 219.866,123.472 "/>
<polyline clip-path="url(#clip370)" style="stroke:#000000; stroke-linecap:round; stroke-linejoin:round; stroke-width:4; stroke-opacity:1; fill:none" points="219.866,1423.18 238.764,1423.18 "/>
<polyline clip-path="url(#clip370)" style="stroke:#000000; stroke-linecap:round; stroke-linejoin:round; stroke-width:4; stroke-opacity:1; fill:none" points="219.866,1163.24 238.764,1163.24 "/>
<polyline clip-path="url(#clip370)" style="stroke:#000000; stroke-linecap:round; stroke-linejoin:round; stroke-width:4; stroke-opacity:1; fill:none" points="219.866,903.297 238.764,903.297 "/>
<polyline clip-path="url(#clip370)" style="stroke:#000000; stroke-linecap:round; stroke-linejoin:round; stroke-width:4; stroke-opacity:1; fill:none" points="219.866,643.355 238.764,643.355 "/>
<polyline clip-path="url(#clip370)" style="stroke:#000000; stroke-linecap:round; stroke-linejoin:round; stroke-width:4; stroke-opacity:1; fill:none" points="219.866,383.414 238.764,383.414 "/>
<polyline clip-path="url(#clip370)" style="stroke:#000000; stroke-linecap:round; stroke-linejoin:round; stroke-width:4; stroke-opacity:1; fill:none" points="219.866,123.472 238.764,123.472 "/>
<path clip-path="url(#clip370)" d="M126.691 1408.98 Q123.08 1408.98 121.251 1412.54 Q119.445 1416.08 119.445 1423.21 Q119.445 1430.32 121.251 1433.89 Q123.08 1437.43 126.691 1437.43 Q130.325 1437.43 132.13 1433.89 Q133.959 1430.32 133.959 1423.21 Q133.959 1416.08 132.13 1412.54 Q130.325 1408.98 126.691 1408.98 M126.691 1405.27 Q132.501 1405.27 135.556 1409.88 Q138.635 1414.46 138.635 1423.21 Q138.635 1431.94 135.556 1436.55 Q132.501 1441.13 126.691 1441.13 Q120.88 1441.13 117.802 1436.55 Q114.746 1431.94 114.746 1423.21 Q114.746 1414.46 117.802 1409.88 Q120.88 1405.27 126.691 1405.27 Z" fill="#000000" fill-rule="nonzero" fill-opacity="1" /><path clip-path="url(#clip370)" d="M146.853 1434.58 L151.737 1434.58 L151.737 1440.46 L146.853 1440.46 L146.853 1434.58 Z" fill="#000000" fill-rule="nonzero" fill-opacity="1" /><path clip-path="url(#clip370)" d="M171.922 1408.98 Q168.311 1408.98 166.482 1412.54 Q164.677 1416.08 164.677 1423.21 Q164.677 1430.32 166.482 1433.89 Q168.311 1437.43 171.922 1437.43 Q175.556 1437.43 177.362 1433.89 Q179.19 1430.32 179.19 1423.21 Q179.19 1416.08 177.362 1412.54 Q175.556 1408.98 171.922 1408.98 M171.922 1405.27 Q177.732 1405.27 180.788 1409.88 Q183.866 1414.46 183.866 1423.21 Q183.866 1431.94 180.788 1436.55 Q177.732 1441.13 171.922 1441.13 Q166.112 1441.13 163.033 1436.55 Q159.978 1431.94 159.978 1423.21 Q159.978 1414.46 163.033 1409.88 Q166.112 1405.27 171.922 1405.27 Z" fill="#000000" fill-rule="nonzero" fill-opacity="1" /><path clip-path="url(#clip370)" d="M128.288 1149.04 Q124.677 1149.04 122.848 1152.6 Q121.043 1156.14 121.043 1163.27 Q121.043 1170.38 122.848 1173.94 Q124.677 1177.49 128.288 1177.49 Q131.922 1177.49 133.728 1173.94 Q135.556 1170.38 135.556 1163.27 Q135.556 1156.14 133.728 1152.6 Q131.922 1149.04 128.288 1149.04 M128.288 1145.33 Q134.098 1145.33 137.154 1149.94 Q140.232 1154.52 140.232 1163.27 Q140.232 1172 137.154 1176.61 Q134.098 1181.19 128.288 1181.19 Q122.478 1181.19 119.399 1176.61 Q116.343 1172 116.343 1163.27 Q116.343 1154.52 119.399 1149.94 Q122.478 1145.33 128.288 1145.33 Z" fill="#000000" fill-rule="nonzero" fill-opacity="1" /><path clip-path="url(#clip370)" d="M148.45 1174.64 L153.334 1174.64 L153.334 1180.52 L148.45 1180.52 L148.45 1174.64 Z" fill="#000000" fill-rule="nonzero" fill-opacity="1" /><path clip-path="url(#clip370)" d="M167.547 1176.58 L183.866 1176.58 L183.866 1180.52 L161.922 1180.52 L161.922 1176.58 Q164.584 1173.83 169.167 1169.2 Q173.774 1164.55 174.954 1163.2 Q177.2 1160.68 178.079 1158.94 Q178.982 1157.19 178.982 1155.5 Q178.982 1152.74 177.038 1151 Q175.116 1149.27 172.014 1149.27 Q169.815 1149.27 167.362 1150.03 Q164.931 1150.8 162.153 1152.35 L162.153 1147.62 Q164.977 1146.49 167.431 1145.91 Q169.885 1145.33 171.922 1145.33 Q177.292 1145.33 180.487 1148.02 Q183.681 1150.7 183.681 1155.19 Q183.681 1157.32 182.871 1159.25 Q182.084 1161.14 179.977 1163.74 Q179.399 1164.41 176.297 1167.62 Q173.195 1170.82 167.547 1176.58 Z" fill="#000000" fill-rule="nonzero" fill-opacity="1" /><path clip-path="url(#clip370)" d="M126.205 889.095 Q122.593 889.095 120.765 892.66 Q118.959 896.202 118.959 903.331 Q118.959 910.438 120.765 914.003 Q122.593 917.544 126.205 917.544 Q129.839 917.544 131.644 914.003 Q133.473 910.438 133.473 903.331 Q133.473 896.202 131.644 892.66 Q129.839 889.095 126.205 889.095 M126.205 885.392 Q132.015 885.392 135.07 889.998 Q138.149 894.582 138.149 903.331 Q138.149 912.058 135.07 916.665 Q132.015 921.248 126.205 921.248 Q120.394 921.248 117.316 916.665 Q114.26 912.058 114.26 903.331 Q114.26 894.582 117.316 889.998 Q120.394 885.392 126.205 885.392 Z" fill="#000000" fill-rule="nonzero" fill-opacity="1" /><path clip-path="url(#clip370)" d="M146.366 914.697 L151.251 914.697 L151.251 920.577 L146.366 920.577 L146.366 914.697 Z" fill="#000000" fill-rule="nonzero" fill-opacity="1" /><path clip-path="url(#clip370)" d="M174.283 890.091 L162.477 908.54 L174.283 908.54 L174.283 890.091 M173.056 886.017 L178.936 886.017 L178.936 908.54 L183.866 908.54 L183.866 912.429 L178.936 912.429 L178.936 920.577 L174.283 920.577 L174.283 912.429 L158.681 912.429 L158.681 907.915 L173.056 886.017 Z" fill="#000000" fill-rule="nonzero" fill-opacity="1" /><path clip-path="url(#clip370)" d="M126.529 629.154 Q122.918 629.154 121.089 632.719 Q119.283 636.26 119.283 643.39 Q119.283 650.496 121.089 654.061 Q122.918 657.603 126.529 657.603 Q130.163 657.603 131.968 654.061 Q133.797 650.496 133.797 643.39 Q133.797 636.26 131.968 632.719 Q130.163 629.154 126.529 629.154 M126.529 625.45 Q132.339 625.45 135.394 630.057 Q138.473 634.64 138.473 643.39 Q138.473 652.117 135.394 656.723 Q132.339 661.307 126.529 661.307 Q120.718 661.307 117.64 656.723 Q114.584 652.117 114.584 643.39 Q114.584 634.64 117.64 630.057 Q120.718 625.45 126.529 625.45 Z" fill="#000000" fill-rule="nonzero" fill-opacity="1" /><path clip-path="url(#clip370)" d="M146.691 654.756 L151.575 654.756 L151.575 660.635 L146.691 660.635 L146.691 654.756 Z" fill="#000000" fill-rule="nonzero" fill-opacity="1" /><path clip-path="url(#clip370)" d="M172.339 641.492 Q169.19 641.492 167.339 643.645 Q165.51 645.797 165.51 649.547 Q165.51 653.274 167.339 655.45 Q169.19 657.603 172.339 657.603 Q175.487 657.603 177.315 655.45 Q179.167 653.274 179.167 649.547 Q179.167 645.797 177.315 643.645 Q175.487 641.492 172.339 641.492 M181.621 626.839 L181.621 631.098 Q179.862 630.265 178.056 629.825 Q176.274 629.385 174.514 629.385 Q169.885 629.385 167.431 632.51 Q165.001 635.635 164.653 641.955 Q166.019 639.941 168.079 638.876 Q170.139 637.788 172.616 637.788 Q177.825 637.788 180.834 640.959 Q183.866 644.108 183.866 649.547 Q183.866 654.871 180.718 658.089 Q177.57 661.307 172.339 661.307 Q166.343 661.307 163.172 656.723 Q160.001 652.117 160.001 643.39 Q160.001 635.196 163.89 630.334 Q167.778 625.45 174.329 625.45 Q176.089 625.45 177.871 625.797 Q179.676 626.145 181.621 626.839 Z" fill="#000000" fill-rule="nonzero" fill-opacity="1" /><path clip-path="url(#clip370)" d="M126.783 369.212 Q123.172 369.212 121.343 372.777 Q119.538 376.319 119.538 383.448 Q119.538 390.555 121.343 394.12 Q123.172 397.661 126.783 397.661 Q130.417 397.661 132.223 394.12 Q134.052 390.555 134.052 383.448 Q134.052 376.319 132.223 372.777 Q130.417 369.212 126.783 369.212 M126.783 365.509 Q132.593 365.509 135.649 370.115 Q138.728 374.698 138.728 383.448 Q138.728 392.175 135.649 396.782 Q132.593 401.365 126.783 401.365 Q120.973 401.365 117.894 396.782 Q114.839 392.175 114.839 383.448 Q114.839 374.698 117.894 370.115 Q120.973 365.509 126.783 365.509 Z" fill="#000000" fill-rule="nonzero" fill-opacity="1" /><path clip-path="url(#clip370)" d="M146.945 394.814 L151.829 394.814 L151.829 400.694 L146.945 400.694 L146.945 394.814 Z" fill="#000000" fill-rule="nonzero" fill-opacity="1" /><path clip-path="url(#clip370)" d="M172.014 384.282 Q168.681 384.282 166.76 386.064 Q164.862 387.847 164.862 390.971 Q164.862 394.096 166.76 395.879 Q168.681 397.661 172.014 397.661 Q175.348 397.661 177.269 395.879 Q179.19 394.073 179.19 390.971 Q179.19 387.847 177.269 386.064 Q175.371 384.282 172.014 384.282 M167.339 382.291 Q164.329 381.55 162.64 379.49 Q160.973 377.43 160.973 374.467 Q160.973 370.323 163.913 367.916 Q166.876 365.509 172.014 365.509 Q177.176 365.509 180.116 367.916 Q183.056 370.323 183.056 374.467 Q183.056 377.43 181.366 379.49 Q179.7 381.55 176.714 382.291 Q180.093 383.078 181.968 385.37 Q183.866 387.661 183.866 390.971 Q183.866 395.995 180.788 398.68 Q177.732 401.365 172.014 401.365 Q166.297 401.365 163.218 398.68 Q160.163 395.995 160.163 390.971 Q160.163 387.661 162.061 385.37 Q163.959 383.078 167.339 382.291 M165.626 374.907 Q165.626 377.592 167.292 379.097 Q168.982 380.601 172.014 380.601 Q175.024 380.601 176.714 379.097 Q178.426 377.592 178.426 374.907 Q178.426 372.222 176.714 370.717 Q175.024 369.212 172.014 369.212 Q168.982 369.212 167.292 370.717 Q165.626 372.222 165.626 374.907 Z" fill="#000000" fill-rule="nonzero" fill-opacity="1" /><path clip-path="url(#clip370)" d="M117.501 136.817 L125.14 136.817 L125.14 110.451 L116.83 112.118 L116.83 107.859 L125.093 106.192 L129.769 106.192 L129.769 136.817 L137.408 136.817 L137.408 140.752 L117.501 140.752 L117.501 136.817 Z" fill="#000000" fill-rule="nonzero" fill-opacity="1" /><path clip-path="url(#clip370)" d="M146.853 134.873 L151.737 134.873 L151.737 140.752 L146.853 140.752 L146.853 134.873 Z" fill="#000000" fill-rule="nonzero" fill-opacity="1" /><path clip-path="url(#clip370)" d="M171.922 109.271 Q168.311 109.271 166.482 112.836 Q164.677 116.377 164.677 123.507 Q164.677 130.613 166.482 134.178 Q168.311 137.72 171.922 137.72 Q175.556 137.72 177.362 134.178 Q179.19 130.613 179.19 123.507 Q179.19 116.377 177.362 112.836 Q175.556 109.271 171.922 109.271 M171.922 105.567 Q177.732 105.567 180.788 110.174 Q183.866 114.757 183.866 123.507 Q183.866 132.234 180.788 136.84 Q177.732 141.423 171.922 141.423 Q166.112 141.423 163.033 136.84 Q159.978 132.234 159.978 123.507 Q159.978 114.757 163.033 110.174 Q166.112 105.567 171.922 105.567 Z" fill="#000000" fill-rule="nonzero" fill-opacity="1" /><path clip-path="url(#clip370)" d="M41.3104 899.144 L58.7206 899.144 L58.7206 888.832 Q58.7206 883.644 56.5881 881.161 Q54.4238 878.647 49.9996 878.647 Q45.5436 878.647 43.4429 881.161 Q41.3104 883.644 41.3104 888.832 L41.3104 899.144 M21.7677 899.144 L36.0905 899.144 L36.0905 889.627 Q36.0905 884.917 34.34 882.625 Q32.5576 880.302 28.9291 880.302 Q25.3325 880.302 23.5501 882.625 Q21.7677 884.917 21.7677 889.627 L21.7677 899.144 M16.4842 905.574 L16.4842 889.15 Q16.4842 881.798 19.5397 877.819 Q22.5952 873.84 28.2289 873.84 Q32.5894 873.84 35.1675 875.878 Q37.7456 877.915 38.3822 881.861 Q39.4007 877.119 42.6472 874.509 Q45.8619 871.867 50.6998 871.867 Q57.0655 871.867 60.5348 876.196 Q64.0042 880.524 64.0042 888.513 L64.0042 905.574 L16.4842 905.574 Z" fill="#000000" fill-rule="nonzero" fill-opacity="1" /><path clip-path="url(#clip370)" d="M28.3562 861.109 L28.3562 855.253 L64.0042 855.253 L64.0042 861.109 L28.3562 861.109 M14.479 861.109 L14.479 855.253 L21.895 855.253 L21.895 861.109 L14.479 861.109 Z" fill="#000000" fill-rule="nonzero" fill-opacity="1" /><path clip-path="url(#clip370)" d="M32.4621 829.185 Q32.4621 833.896 36.1542 836.633 Q39.8145 839.37 46.212 839.37 Q52.6095 839.37 56.3017 836.665 Q59.9619 833.928 59.9619 829.185 Q59.9619 824.506 56.2698 821.769 Q52.5777 819.032 46.212 819.032 Q39.8781 819.032 36.186 821.769 Q32.4621 824.506 32.4621 829.185 M27.4968 829.185 Q27.4968 821.546 32.4621 817.186 Q37.4273 812.825 46.212 812.825 Q54.9649 812.825 59.9619 817.186 Q64.9272 821.546 64.9272 829.185 Q64.9272 836.856 59.9619 841.216 Q54.9649 845.545 46.212 845.545 Q37.4273 845.545 32.4621 841.216 Q27.4968 836.856 27.4968 829.185 Z" fill="#000000" fill-rule="nonzero" fill-opacity="1" /><path clip-path="url(#clip370)" d="M35.1993 775.363 Q31.2526 773.167 29.3747 770.111 Q27.4968 767.056 27.4968 762.918 Q27.4968 757.348 31.4117 754.324 Q35.2948 751.301 42.4881 751.301 L64.0042 751.301 L64.0042 757.189 L42.679 757.189 Q37.5546 757.189 35.072 759.003 Q32.5894 760.817 32.5894 764.541 Q32.5894 769.093 35.6131 771.735 Q38.6368 774.376 43.8567 774.376 L64.0042 774.376 L64.0042 780.265 L42.679 780.265 Q37.5228 780.265 35.072 782.079 Q32.5894 783.893 32.5894 787.681 Q32.5894 792.168 35.6449 794.81 Q38.6686 797.452 43.8567 797.452 L64.0042 797.452 L64.0042 803.34 L28.3562 803.34 L28.3562 797.452 L33.8944 797.452 Q30.616 795.447 29.0564 792.646 Q27.4968 789.845 27.4968 785.994 Q27.4968 782.111 29.4702 779.405 Q31.4436 776.668 35.1993 775.363 Z" fill="#000000" fill-rule="nonzero" fill-opacity="1" /><path clip-path="url(#clip370)" d="M46.0847 723.419 Q46.0847 730.517 47.7079 733.254 Q49.3312 735.991 53.2461 735.991 Q56.3653 735.991 58.2114 733.954 Q60.0256 731.885 60.0256 728.352 Q60.0256 723.483 56.5881 720.554 Q53.1188 717.594 47.3897 717.594 L46.0847 717.594 L46.0847 723.419 M43.6657 711.738 L64.0042 711.738 L64.0042 717.594 L58.5933 717.594 Q61.8398 719.599 63.3994 722.591 Q64.9272 725.583 64.9272 729.912 Q64.9272 735.386 61.8716 738.633 Q58.7843 741.848 53.6281 741.848 Q47.6125 741.848 44.5569 737.837 Q41.5014 733.795 41.5014 725.806 L41.5014 717.594 L40.9285 717.594 Q36.8862 717.594 34.6901 720.268 Q32.4621 722.91 32.4621 727.716 Q32.4621 730.771 33.1941 733.668 Q33.9262 736.564 35.3903 739.238 L29.9795 739.238 Q28.7381 736.023 28.1334 732.999 Q27.4968 729.976 27.4968 727.111 Q27.4968 719.377 31.5072 715.557 Q35.5176 711.738 43.6657 711.738 Z" fill="#000000" fill-rule="nonzero" fill-opacity="1" /><path clip-path="url(#clip370)" d="M29.4065 676.949 L34.9447 676.949 Q33.6716 679.432 33.035 682.105 Q32.3984 684.779 32.3984 687.644 Q32.3984 692.004 33.7352 694.2 Q35.072 696.365 37.7456 696.365 Q39.7826 696.365 40.9603 694.805 Q42.1061 693.245 43.1565 688.535 L43.6021 686.53 Q44.9389 680.291 47.3897 677.681 Q49.8086 675.039 54.1691 675.039 Q59.1344 675.039 62.0308 678.986 Q64.9272 682.901 64.9272 689.776 Q64.9272 692.641 64.3543 695.76 Q63.8132 698.847 62.6992 702.285 L56.6518 702.285 Q58.3387 699.038 59.198 695.887 Q60.0256 692.736 60.0256 689.649 Q60.0256 685.511 58.6251 683.283 Q57.1929 681.055 54.6147 681.055 Q52.2276 681.055 50.9545 682.678 Q49.6813 684.27 48.5037 689.712 L48.0262 691.749 Q46.8804 697.192 44.5251 699.611 Q42.138 702.03 38.0002 702.03 Q32.9713 702.03 30.2341 698.465 Q27.4968 694.9 27.4968 688.344 Q27.4968 685.097 27.9743 682.233 Q28.4517 679.368 29.4065 676.949 Z" fill="#000000" fill-rule="nonzero" fill-opacity="1" /><path clip-path="url(#clip370)" d="M29.4065 642.988 L34.9447 642.988 Q33.6716 645.471 33.035 648.144 Q32.3984 650.818 32.3984 653.683 Q32.3984 658.043 33.7352 660.239 Q35.072 662.404 37.7456 662.404 Q39.7826 662.404 40.9603 660.844 Q42.1061 659.284 43.1565 654.574 L43.6021 652.569 Q44.9389 646.33 47.3897 643.72 Q49.8086 641.078 54.1691 641.078 Q59.1344 641.078 62.0308 645.025 Q64.9272 648.94 64.9272 655.815 Q64.9272 658.68 64.3543 661.799 Q63.8132 664.886 62.6992 668.324 L56.6518 668.324 Q58.3387 665.077 59.198 661.926 Q60.0256 658.775 60.0256 655.688 Q60.0256 651.55 58.6251 649.322 Q57.1929 647.094 54.6147 647.094 Q52.2276 647.094 50.9545 648.717 Q49.6813 650.309 48.5037 655.751 L48.0262 657.788 Q46.8804 663.231 44.5251 665.65 Q42.138 668.069 38.0002 668.069 Q32.9713 668.069 30.2341 664.504 Q27.4968 660.939 27.4968 654.383 Q27.4968 651.136 27.9743 648.272 Q28.4517 645.407 29.4065 642.988 Z" fill="#000000" fill-rule="nonzero" fill-opacity="1" /><path clip-path="url(#clip370)" d="M1179.14 18.8205 L1179.14 65.8515 L1189.03 65.8515 Q1201.55 65.8515 1207.34 60.1802 Q1213.17 54.509 1213.17 42.2752 Q1213.17 30.1225 1207.34 24.4918 Q1201.55 18.8205 1189.03 18.8205 L1179.14 18.8205 M1170.96 12.096 L1187.77 12.096 Q1205.35 12.096 1213.58 19.4281 Q1221.8 26.7198 1221.8 42.2752 Q1221.8 57.9117 1213.54 65.2439 Q1205.27 72.576 1187.77 72.576 L1170.96 72.576 L1170.96 12.096 Z" fill="#000000" fill-rule="nonzero" fill-opacity="1" /><path clip-path="url(#clip370)" d="M1243.03 18.8205 L1243.03 65.8515 L1252.91 65.8515 Q1265.43 65.8515 1271.22 60.1802 Q1277.05 54.509 1277.05 42.2752 Q1277.05 30.1225 1271.22 24.4918 Q1265.43 18.8205 1252.91 18.8205 L1243.03 18.8205 M1234.84 12.096 L1251.66 12.096 Q1269.24 12.096 1277.46 19.4281 Q1285.68 26.7198 1285.68 42.2752 Q1285.68 57.9117 1277.42 65.2439 Q1269.16 72.576 1251.66 72.576 L1234.84 72.576 L1234.84 12.096 Z" fill="#000000" fill-rule="nonzero" fill-opacity="1" /><path clip-path="url(#clip370)" d="M1323.28 17.6457 Q1314.36 17.6457 1309.1 24.2892 Q1303.87 30.9327 1303.87 42.3968 Q1303.87 53.8203 1309.1 60.4638 Q1314.36 67.1073 1323.28 67.1073 Q1332.19 67.1073 1337.37 60.4638 Q1342.6 53.8203 1342.6 42.3968 Q1342.6 30.9327 1337.37 24.2892 Q1332.19 17.6457 1323.28 17.6457 M1323.28 11.0023 Q1336 11.0023 1343.61 19.5497 Q1351.23 28.0566 1351.23 42.3968 Q1351.23 56.6965 1343.61 65.2439 Q1336 73.7508 1323.28 73.7508 Q1310.52 73.7508 1302.86 65.2439 Q1295.24 56.737 1295.24 42.3968 Q1295.24 28.0566 1302.86 19.5497 Q1310.52 11.0023 1323.28 11.0023 Z" fill="#000000" fill-rule="nonzero" fill-opacity="1" /><path clip-path="url(#clip370)" d="M1364.03 12.096 L1372.21 12.096 L1372.21 65.6895 L1401.66 65.6895 L1401.66 72.576 L1364.03 72.576 L1364.03 12.096 Z" fill="#000000" fill-rule="nonzero" fill-opacity="1" /><polyline clip-path="url(#clip372)" style="stroke:#d43d4f; stroke-linecap:round; stroke-linejoin:round; stroke-width:16; stroke-opacity:1; fill:none" points="280.231,1421.88 293.645,1419.88 307.06,1414.86 320.474,1402.44 333.889,1372.92 347.303,1309.07 360.717,1194.84 374.132,1044.54 387.546,906.274 400.961,809.019 414.375,746.86 427.789,704.108 441.204,670.849 454.618,642.224 468.033,615.968 481.447,591.196 494.861,567.62 508.276,545.048 521.69,523.487 535.105,502.907 548.519,483.309 561.933,464.709 575.348,447.081 588.762,430.411 602.177,414.701 615.591,399.925 629.005,386.031 642.42,372.994 655.834,360.815 669.249,349.463 682.663,338.865 696.077,328.912 709.492,319.643 722.906,311.128 736.321,303.322 749.735,296.055 763.149,289.019 776.564,282.391 789.978,276.639 803.393,271.737 816.807,267.146 830.221,261.976 843.636,257.008 857.05,253.437 870.465,250.965 883.879,247.798 897.293,243.569 910.708,240.569 924.122,239.082 937.537,237.131 950.951,233.964 964.365,231.773 977.78,230.714 991.194,229.125 1004.61,226.937 1018.02,225.509 1031.44,224.741 1044.85,223.443 1058.27,221.93 1071.68,221 1085.1,220.485 1098.51,219.508 1111.92,218.389 1125.34,217.756 1138.75,217.479 1152.17,216.804 1165.58,215.891 1179,215.416 1192.41,215.344 1205.82,214.965 1219.24,214.157 1232.65,213.731 1246.07,213.799 1259.48,213.714 1272.9,212.987 1286.31,212.542 1299.73,212.669 1313.14,212.822 1326.55,212.212 1339.97,211.729 1353.38,211.852 1366.8,212.154 1380.21,211.689 1393.63,211.186 1407.04,211.273 1420.46,211.648 1433.87,211.327 1447.28,210.822 1460.7,210.866 1474.11,211.267 1487.53,211.076 1500.94,210.579 1514.36,210.575 1527.77,210.98 1541.18,210.91 1554.6,210.419 1568.01,210.363 1581.43,210.758 1594.84,210.808 1608.26,210.323 1621.67,210.207 1635.09,210.58 1648.5,210.749 1661.91,210.277 1675.33,210.094 1688.74,210.432 1702.16,210.709 1715.57,210.27 1728.99,210.017 1742.4,210.305 1755.82,210.666 1769.23,210.291 1782.64,209.972 1796.06,210.198 1809.47,210.615 1822.89,210.33 1836.3,209.953 1849.72,210.108 1863.13,210.554 1876.54,210.377 1889.96,209.957 1903.37,210.035 1916.79,210.487 1930.2,210.427 1943.62,209.977 1957.03,209.976 1970.45,210.416 1983.86,210.475 1997.27,210.011 2010.69,209.932 2024.1,210.342 2037.52,210.517 2050.93,210.056 2064.35,209.901 2077.76,210.269 2091.18,210.547 2104.59,210.11 2118,209.883 2131.42,210.196 2144.83,210.554 2158.25,210.172 2171.66,209.877 2185.08,210.127 2198.49,210.54 2211.9,210.238 2225.32,209.884 2238.73,210.063 2252.15,210.507 2265.56,210.394 2278.98,210.266 2292.39,210.235 "/>
<polyline clip-path="url(#clip372)" style="stroke:#f46c43; stroke-linecap:round; stroke-linejoin:round; stroke-width:16; stroke-opacity:1; fill:none" points="280.231,1421.88 293.645,1419.88 307.06,1414.86 320.474,1402.44 333.889,1372.92 347.303,1309.07 360.717,1194.84 374.132,1044.54 387.546,906.274 400.961,809.019 414.375,746.86 427.789,704.108 441.204,670.849 454.618,642.224 468.033,615.968 481.447,591.196 494.861,567.62 508.276,545.048 521.69,523.487 535.105,502.907 548.519,483.309 561.933,464.709 575.348,447.081 588.762,430.411 602.177,414.701 615.591,399.925 629.005,386.031 642.42,372.994 655.834,360.815 669.249,349.463 682.663,338.865 696.077,328.912 709.492,319.643 722.906,311.128 736.321,303.322 749.735,296.055 763.149,289.019 776.564,282.391 789.978,276.639 803.393,271.737 816.807,267.146 830.221,261.976 843.636,257.008 857.05,253.437 870.465,250.965 883.879,247.798 897.293,243.569 910.708,240.569 924.122,239.082 937.537,237.131 950.951,233.964 964.365,231.773 977.78,230.714 991.194,229.125 1004.61,226.937 1018.02,225.509 1031.44,224.741 1044.85,223.443 1058.27,221.93 1071.68,221 1085.1,220.485 1098.51,219.508 1111.92,218.389 1125.34,217.756 1138.75,217.479 1152.17,216.804 1165.58,215.891 1179,215.416 1192.41,215.344 1205.82,214.965 1219.24,214.157 1232.65,213.731 1246.07,213.799 1259.48,213.714 1272.9,212.987 1286.31,212.542 1299.73,212.669 1313.14,212.822 1326.55,212.212 1339.97,211.729 1353.38,211.852 1366.8,212.154 1380.21,211.689 1393.63,211.186 1407.04,211.273 1420.46,211.648 1433.87,211.327 1447.28,210.822 1460.7,210.866 1474.11,211.267 1487.53,211.076 1500.94,210.579 1514.36,210.575 1527.77,210.98 1541.18,210.91 1554.6,210.419 1568.01,210.363 1581.43,210.758 1594.84,210.808 1608.26,210.323 1621.67,210.207 1635.09,210.58 1648.5,210.749 1661.91,210.277 1675.33,210.094 1688.74,210.432 1702.16,210.709 1715.57,210.27 1728.99,210.017 1742.4,210.305 1755.82,210.666 1769.23,210.291 1782.64,209.972 1796.06,210.198 1809.47,210.615 1822.89,210.33 1836.3,209.953 1849.72,210.108 1863.13,210.554 1876.54,210.377 1889.96,209.957 1903.37,210.035 1916.79,210.487 1930.2,210.427 1943.62,209.977 1957.03,209.976 1970.45,210.416 1983.86,210.475 1997.27,210.011 2010.69,209.932 2024.1,210.342 2037.52,210.517 2050.93,210.056 2064.35,209.901 2077.76,210.269 2091.18,210.547 2104.59,210.11 2118,209.883 2131.42,210.196 2144.83,210.554 2158.25,210.172 2171.66,209.877 2185.08,210.127 2198.49,210.54 2211.9,210.238 2225.32,209.884 2238.73,210.063 2252.15,210.507 2265.56,210.394 2278.98,210.266 2292.39,210.235 "/>
<path clip-path="url(#clip370)" d="M1853.53 322.316 L2281.66 322.316 L2281.66 166.796 L1853.53 166.796  Z" fill="#ffffff" fill-rule="evenodd" fill-opacity="1"/>
<polyline clip-path="url(#clip370)" style="stroke:#000000; stroke-linecap:round; stroke-linejoin:round; stroke-width:4; stroke-opacity:1; fill:none" points="1853.53,322.316 2281.66,322.316 2281.66,166.796 1853.53,166.796 1853.53,322.316 "/>
<polyline clip-path="url(#clip370)" style="stroke:#d43d4f; stroke-linecap:round; stroke-linejoin:round; stroke-width:16; stroke-opacity:1; fill:none" points="1877.23,218.636 2019.43,218.636 "/>
<path clip-path="url(#clip370)" d="M2043.12 201.356 L2050.09 201.356 L2058.91 224.874 L2067.78 201.356 L2074.74 201.356 L2074.74 235.916 L2070.18 235.916 L2070.18 205.569 L2061.27 229.272 L2056.57 229.272 L2047.66 205.569 L2047.66 235.916 L2043.12 235.916 L2043.12 201.356 Z" fill="#000000" fill-rule="nonzero" fill-opacity="1" /><path clip-path="url(#clip370)" d="M2093.89 212.976 Q2090.46 212.976 2088.47 215.661 Q2086.48 218.323 2086.48 222.976 Q2086.48 227.629 2088.45 230.314 Q2090.44 232.976 2093.89 232.976 Q2097.29 232.976 2099.28 230.291 Q2101.27 227.606 2101.27 222.976 Q2101.27 218.37 2099.28 215.684 Q2097.29 212.976 2093.89 212.976 M2093.89 209.365 Q2099.44 209.365 2102.61 212.976 Q2105.79 216.587 2105.79 222.976 Q2105.79 229.342 2102.61 232.976 Q2099.44 236.587 2093.89 236.587 Q2088.31 236.587 2085.14 232.976 Q2081.99 229.342 2081.99 222.976 Q2081.99 216.587 2085.14 212.976 Q2088.31 209.365 2093.89 209.365 Z" fill="#000000" fill-rule="nonzero" fill-opacity="1" /><path clip-path="url(#clip370)" d="M2129.91 213.925 L2129.91 199.897 L2134.17 199.897 L2134.17 235.916 L2129.91 235.916 L2129.91 232.027 Q2128.56 234.342 2126.5 235.476 Q2124.47 236.587 2121.6 236.587 Q2116.9 236.587 2113.93 232.837 Q2110.99 229.087 2110.99 222.976 Q2110.99 216.865 2113.93 213.115 Q2116.9 209.365 2121.6 209.365 Q2124.47 209.365 2126.5 210.499 Q2128.56 211.61 2129.91 213.925 M2115.39 222.976 Q2115.39 227.675 2117.31 230.36 Q2119.26 233.022 2122.64 233.022 Q2126.02 233.022 2127.96 230.36 Q2129.91 227.675 2129.91 222.976 Q2129.91 218.277 2127.96 215.615 Q2126.02 212.93 2122.64 212.93 Q2119.26 212.93 2117.31 215.615 Q2115.39 218.277 2115.39 222.976 Z" fill="#000000" fill-rule="nonzero" fill-opacity="1" /><path clip-path="url(#clip370)" d="M2142.5 225.684 L2142.5 209.99 L2146.76 209.99 L2146.76 225.522 Q2146.76 229.203 2148.19 231.055 Q2149.63 232.883 2152.5 232.883 Q2155.95 232.883 2157.94 230.684 Q2159.95 228.485 2159.95 224.689 L2159.95 209.99 L2164.21 209.99 L2164.21 235.916 L2159.95 235.916 L2159.95 231.934 Q2158.4 234.295 2156.34 235.453 Q2154.3 236.587 2151.6 236.587 Q2147.13 236.587 2144.81 233.809 Q2142.5 231.031 2142.5 225.684 M2153.22 209.365 L2153.22 209.365 Z" fill="#000000" fill-rule="nonzero" fill-opacity="1" /><path clip-path="url(#clip370)" d="M2172.98 199.897 L2177.24 199.897 L2177.24 235.916 L2172.98 235.916 L2172.98 199.897 Z" fill="#000000" fill-rule="nonzero" fill-opacity="1" /><path clip-path="url(#clip370)" d="M2208.33 221.888 L2208.33 223.971 L2188.75 223.971 Q2189.03 228.369 2191.39 230.684 Q2193.77 232.976 2198.01 232.976 Q2200.46 232.976 2202.75 232.374 Q2205.07 231.772 2207.34 230.569 L2207.34 234.596 Q2205.04 235.568 2202.64 236.078 Q2200.23 236.587 2197.75 236.587 Q2191.55 236.587 2187.91 232.976 Q2184.3 229.365 2184.3 223.207 Q2184.3 216.842 2187.73 213.115 Q2191.18 209.365 2197.01 209.365 Q2202.24 209.365 2205.28 212.745 Q2208.33 216.101 2208.33 221.888 M2204.07 220.638 Q2204.03 217.143 2202.1 215.059 Q2200.21 212.976 2197.06 212.976 Q2193.49 212.976 2191.34 214.99 Q2189.21 217.004 2188.89 220.661 L2204.07 220.638 Z" fill="#000000" fill-rule="nonzero" fill-opacity="1" /><path clip-path="url(#clip370)" d="M2242.13 205.962 L2235.79 223.161 L2248.49 223.161 L2242.13 205.962 M2239.49 201.356 L2244.79 201.356 L2257.96 235.916 L2253.1 235.916 L2249.95 227.05 L2234.37 227.05 L2231.22 235.916 L2226.29 235.916 L2239.49 201.356 Z" fill="#000000" fill-rule="nonzero" fill-opacity="1" /><polyline clip-path="url(#clip370)" style="stroke:#f46c43; stroke-linecap:round; stroke-linejoin:round; stroke-width:16; stroke-opacity:1; fill:none" points="1877.23,270.476 2019.43,270.476 "/>
<path clip-path="url(#clip370)" d="M2043.12 253.196 L2050.09 253.196 L2058.91 276.714 L2067.78 253.196 L2074.74 253.196 L2074.74 287.756 L2070.18 287.756 L2070.18 257.409 L2061.27 281.112 L2056.57 281.112 L2047.66 257.409 L2047.66 287.756 L2043.12 287.756 L2043.12 253.196 Z" fill="#000000" fill-rule="nonzero" fill-opacity="1" /><path clip-path="url(#clip370)" d="M2093.89 264.816 Q2090.46 264.816 2088.47 267.501 Q2086.48 270.163 2086.48 274.816 Q2086.48 279.469 2088.45 282.154 Q2090.44 284.816 2093.89 284.816 Q2097.29 284.816 2099.28 282.131 Q2101.27 279.446 2101.27 274.816 Q2101.27 270.21 2099.28 267.524 Q2097.29 264.816 2093.89 264.816 M2093.89 261.205 Q2099.44 261.205 2102.61 264.816 Q2105.79 268.427 2105.79 274.816 Q2105.79 281.182 2102.61 284.816 Q2099.44 288.427 2093.89 288.427 Q2088.31 288.427 2085.14 284.816 Q2081.99 281.182 2081.99 274.816 Q2081.99 268.427 2085.14 264.816 Q2088.31 261.205 2093.89 261.205 Z" fill="#000000" fill-rule="nonzero" fill-opacity="1" /><path clip-path="url(#clip370)" d="M2129.91 265.765 L2129.91 251.737 L2134.17 251.737 L2134.17 287.756 L2129.91 287.756 L2129.91 283.867 Q2128.56 286.182 2126.5 287.316 Q2124.47 288.427 2121.6 288.427 Q2116.9 288.427 2113.93 284.677 Q2110.99 280.927 2110.99 274.816 Q2110.99 268.705 2113.93 264.955 Q2116.9 261.205 2121.6 261.205 Q2124.47 261.205 2126.5 262.339 Q2128.56 263.45 2129.91 265.765 M2115.39 274.816 Q2115.39 279.515 2117.31 282.2 Q2119.26 284.862 2122.64 284.862 Q2126.02 284.862 2127.96 282.2 Q2129.91 279.515 2129.91 274.816 Q2129.91 270.117 2127.96 267.455 Q2126.02 264.77 2122.64 264.77 Q2119.26 264.77 2117.31 267.455 Q2115.39 270.117 2115.39 274.816 Z" fill="#000000" fill-rule="nonzero" fill-opacity="1" /><path clip-path="url(#clip370)" d="M2142.5 277.524 L2142.5 261.83 L2146.76 261.83 L2146.76 277.362 Q2146.76 281.043 2148.19 282.895 Q2149.63 284.723 2152.5 284.723 Q2155.95 284.723 2157.94 282.524 Q2159.95 280.325 2159.95 276.529 L2159.95 261.83 L2164.21 261.83 L2164.21 287.756 L2159.95 287.756 L2159.95 283.774 Q2158.4 286.135 2156.34 287.293 Q2154.3 288.427 2151.6 288.427 Q2147.13 288.427 2144.81 285.649 Q2142.5 282.871 2142.5 277.524 M2153.22 261.205 L2153.22 261.205 Z" fill="#000000" fill-rule="nonzero" fill-opacity="1" /><path clip-path="url(#clip370)" d="M2172.98 251.737 L2177.24 251.737 L2177.24 287.756 L2172.98 287.756 L2172.98 251.737 Z" fill="#000000" fill-rule="nonzero" fill-opacity="1" /><path clip-path="url(#clip370)" d="M2208.33 273.728 L2208.33 275.811 L2188.75 275.811 Q2189.03 280.209 2191.39 282.524 Q2193.77 284.816 2198.01 284.816 Q2200.46 284.816 2202.75 284.214 Q2205.07 283.612 2207.34 282.409 L2207.34 286.436 Q2205.04 287.408 2202.64 287.918 Q2200.23 288.427 2197.75 288.427 Q2191.55 288.427 2187.91 284.816 Q2184.3 281.205 2184.3 275.047 Q2184.3 268.682 2187.73 264.955 Q2191.18 261.205 2197.01 261.205 Q2202.24 261.205 2205.28 264.585 Q2208.33 267.941 2208.33 273.728 M2204.07 272.478 Q2204.03 268.983 2202.1 266.899 Q2200.21 264.816 2197.06 264.816 Q2193.49 264.816 2191.34 266.83 Q2189.21 268.844 2188.89 272.501 L2204.07 272.478 Z" fill="#000000" fill-rule="nonzero" fill-opacity="1" /><path clip-path="url(#clip370)" d="M2235.25 271.251 L2235.25 283.913 L2242.75 283.913 Q2246.53 283.913 2248.33 282.362 Q2250.16 280.788 2250.16 277.571 Q2250.16 274.33 2248.33 272.802 Q2246.53 271.251 2242.75 271.251 L2235.25 271.251 M2235.25 257.038 L2235.25 267.455 L2242.17 267.455 Q2245.6 267.455 2247.27 266.182 Q2248.96 264.885 2248.96 262.247 Q2248.96 259.631 2247.27 258.335 Q2245.6 257.038 2242.17 257.038 L2235.25 257.038 M2230.58 253.196 L2242.52 253.196 Q2247.87 253.196 2250.76 255.418 Q2253.66 257.64 2253.66 261.737 Q2253.66 264.909 2252.17 266.784 Q2250.69 268.659 2247.82 269.122 Q2251.27 269.862 2253.17 272.223 Q2255.09 274.561 2255.09 278.08 Q2255.09 282.709 2251.94 285.233 Q2248.79 287.756 2242.98 287.756 L2230.58 287.756 L2230.58 253.196 Z" fill="#000000" fill-rule="nonzero" fill-opacity="1" /></svg>
