<?xml version="1.0" encoding="utf-8"?>
<svg xmlns="http://www.w3.org/2000/svg" xmlns:xlink="http://www.w3.org/1999/xlink" width="600" height="400" viewBox="0 0 2400 1600">
<defs>
  <clipPath id="clip810">
    <rect x="0" y="0" width="2400" height="1600"/>
  </clipPath>
</defs>
<path clip-path="url(#clip810)" d="M0 1600 L2400 1600 L2400 0 L0 0  Z" fill="#ffffff" fill-rule="evenodd" fill-opacity="1"/>
<defs>
  <clipPath id="clip811">
    <rect x="480" y="0" width="1681" height="1600"/>
  </clipPath>
</defs>
<path clip-path="url(#clip810)" d="M219.866 1423.18 L2352.76 1423.18 L2352.76 123.472 L219.866 123.472  Z" fill="#ffffff" fill-rule="evenodd" fill-opacity="1"/>
<defs>
  <clipPath id="clip812">
    <rect x="219" y="123" width="2134" height="1301"/>
  </clipPath>
</defs>
<polyline clip-path="url(#clip810)" style="stroke:#000000; stroke-linecap:round; stroke-linejoin:round; stroke-width:4; stroke-opacity:1; fill:none" points="219.866,1423.18 2352.76,1423.18 "/>
<polyline clip-path="url(#clip810)" style="stroke:#000000; stroke-linecap:round; stroke-linejoin:round; stroke-width:4; stroke-opacity:1; fill:none" points="280.231,1423.18 280.231,1404.28 "/>
<polyline clip-path="url(#clip810)" style="stroke:#000000; stroke-linecap:round; stroke-linejoin:round; stroke-width:4; stroke-opacity:1; fill:none" points="783.271,1423.18 783.271,1404.28 "/>
<polyline clip-path="url(#clip810)" style="stroke:#000000; stroke-linecap:round; stroke-linejoin:round; stroke-width:4; stroke-opacity:1; fill:none" points="1286.31,1423.18 1286.31,1404.28 "/>
<polyline clip-path="url(#clip810)" style="stroke:#000000; stroke-linecap:round; stroke-linejoin:round; stroke-width:4; stroke-opacity:1; fill:none" points="1789.35,1423.18 1789.35,1404.28 "/>
<polyline clip-path="url(#clip810)" style="stroke:#000000; stroke-linecap:round; stroke-linejoin:round; stroke-width:4; stroke-opacity:1; fill:none" points="2292.39,1423.18 2292.39,1404.28 "/>
<path clip-path="url(#clip810)" d="M227.454 1454.1 Q223.842 1454.1 222.014 1457.66 Q220.208 1461.2 220.208 1468.33 Q220.208 1475.44 222.014 1479.01 Q223.842 1482.55 227.454 1482.55 Q231.088 1482.55 232.893 1479.01 Q234.722 1475.44 234.722 1468.33 Q234.722 1461.2 232.893 1457.66 Q231.088 1454.1 227.454 1454.1 M227.454 1450.39 Q233.264 1450.39 236.319 1455 Q239.398 1459.58 239.398 1468.33 Q239.398 1477.06 236.319 1481.67 Q233.264 1486.25 227.454 1486.25 Q221.643 1486.25 218.565 1481.67 Q215.509 1477.06 215.509 1468.33 Q215.509 1459.58 218.565 1455 Q221.643 1450.39 227.454 1450.39 Z" fill="#000000" fill-rule="nonzero" fill-opacity="1" /><path clip-path="url(#clip810)" d="M247.616 1479.7 L252.5 1479.7 L252.5 1485.58 L247.616 1485.58 L247.616 1479.7 Z" fill="#000000" fill-rule="nonzero" fill-opacity="1" /><path clip-path="url(#clip810)" d="M272.685 1454.1 Q269.074 1454.1 267.245 1457.66 Q265.439 1461.2 265.439 1468.33 Q265.439 1475.44 267.245 1479.01 Q269.074 1482.55 272.685 1482.55 Q276.319 1482.55 278.125 1479.01 Q279.953 1475.44 279.953 1468.33 Q279.953 1461.2 278.125 1457.66 Q276.319 1454.1 272.685 1454.1 M272.685 1450.39 Q278.495 1450.39 281.551 1455 Q284.629 1459.58 284.629 1468.33 Q284.629 1477.06 281.551 1481.67 Q278.495 1486.25 272.685 1486.25 Q266.875 1486.25 263.796 1481.67 Q260.74 1477.06 260.74 1468.33 Q260.74 1459.58 263.796 1455 Q266.875 1450.39 272.685 1450.39 Z" fill="#000000" fill-rule="nonzero" fill-opacity="1" /><path clip-path="url(#clip810)" d="M302.847 1454.1 Q299.236 1454.1 297.407 1457.66 Q295.601 1461.2 295.601 1468.33 Q295.601 1475.44 297.407 1479.01 Q299.236 1482.55 302.847 1482.55 Q306.481 1482.55 308.286 1479.01 Q310.115 1475.44 310.115 1468.33 Q310.115 1461.2 308.286 1457.66 Q306.481 1454.1 302.847 1454.1 M302.847 1450.39 Q308.657 1450.39 311.712 1455 Q314.791 1459.58 314.791 1468.33 Q314.791 1477.06 311.712 1481.67 Q308.657 1486.25 302.847 1486.25 Q297.037 1486.25 293.958 1481.67 Q290.902 1477.06 290.902 1468.33 Q290.902 1459.58 293.958 1455 Q297.037 1450.39 302.847 1450.39 Z" fill="#000000" fill-rule="nonzero" fill-opacity="1" /><path clip-path="url(#clip810)" d="M333.009 1454.1 Q329.397 1454.1 327.569 1457.66 Q325.763 1461.2 325.763 1468.33 Q325.763 1475.44 327.569 1479.01 Q329.397 1482.55 333.009 1482.55 Q336.643 1482.55 338.448 1479.01 Q340.277 1475.44 340.277 1468.33 Q340.277 1461.2 338.448 1457.66 Q336.643 1454.1 333.009 1454.1 M333.009 1450.39 Q338.819 1450.39 341.874 1455 Q344.953 1459.58 344.953 1468.33 Q344.953 1477.06 341.874 1481.67 Q338.819 1486.25 333.009 1486.25 Q327.198 1486.25 324.12 1481.67 Q321.064 1477.06 321.064 1468.33 Q321.064 1459.58 324.12 1455 Q327.198 1450.39 333.009 1450.39 Z" fill="#000000" fill-rule="nonzero" fill-opacity="1" /><path clip-path="url(#clip810)" d="M730.991 1454.1 Q727.38 1454.1 725.551 1457.66 Q723.746 1461.2 723.746 1468.33 Q723.746 1475.44 725.551 1479.01 Q727.38 1482.55 730.991 1482.55 Q734.626 1482.55 736.431 1479.01 Q738.26 1475.44 738.26 1468.33 Q738.26 1461.2 736.431 1457.66 Q734.626 1454.1 730.991 1454.1 M730.991 1450.39 Q736.801 1450.39 739.857 1455 Q742.936 1459.58 742.936 1468.33 Q742.936 1477.06 739.857 1481.67 Q736.801 1486.25 730.991 1486.25 Q725.181 1486.25 722.102 1481.67 Q719.047 1477.06 719.047 1468.33 Q719.047 1459.58 722.102 1455 Q725.181 1450.39 730.991 1450.39 Z" fill="#000000" fill-rule="nonzero" fill-opacity="1" /><path clip-path="url(#clip810)" d="M751.153 1479.7 L756.037 1479.7 L756.037 1485.58 L751.153 1485.58 L751.153 1479.7 Z" fill="#000000" fill-rule="nonzero" fill-opacity="1" /><path clip-path="url(#clip810)" d="M776.223 1454.1 Q772.611 1454.1 770.783 1457.66 Q768.977 1461.2 768.977 1468.33 Q768.977 1475.44 770.783 1479.01 Q772.611 1482.55 776.223 1482.55 Q779.857 1482.55 781.662 1479.01 Q783.491 1475.44 783.491 1468.33 Q783.491 1461.2 781.662 1457.66 Q779.857 1454.1 776.223 1454.1 M776.223 1450.39 Q782.033 1450.39 785.088 1455 Q788.167 1459.58 788.167 1468.33 Q788.167 1477.06 785.088 1481.67 Q782.033 1486.25 776.223 1486.25 Q770.412 1486.25 767.334 1481.67 Q764.278 1477.06 764.278 1468.33 Q764.278 1459.58 767.334 1455 Q770.412 1450.39 776.223 1450.39 Z" fill="#000000" fill-rule="nonzero" fill-opacity="1" /><path clip-path="url(#clip810)" d="M800.412 1481.64 L816.732 1481.64 L816.732 1485.58 L794.787 1485.58 L794.787 1481.64 Q797.449 1478.89 802.033 1474.26 Q806.639 1469.61 807.82 1468.27 Q810.065 1465.74 810.945 1464.01 Q811.847 1462.25 811.847 1460.56 Q811.847 1457.8 809.903 1456.07 Q807.982 1454.33 804.88 1454.33 Q802.681 1454.33 800.227 1455.09 Q797.796 1455.86 795.019 1457.41 L795.019 1452.69 Q797.843 1451.55 800.296 1450.97 Q802.75 1450.39 804.787 1450.39 Q810.158 1450.39 813.352 1453.08 Q816.546 1455.77 816.546 1460.26 Q816.546 1462.39 815.736 1464.31 Q814.949 1466.2 812.843 1468.8 Q812.264 1469.47 809.162 1472.69 Q806.06 1475.88 800.412 1481.64 Z" fill="#000000" fill-rule="nonzero" fill-opacity="1" /><path clip-path="url(#clip810)" d="M826.593 1451.02 L844.949 1451.02 L844.949 1454.96 L830.875 1454.96 L830.875 1463.43 Q831.894 1463.08 832.912 1462.92 Q833.931 1462.73 834.949 1462.73 Q840.736 1462.73 844.116 1465.9 Q847.495 1469.08 847.495 1474.49 Q847.495 1480.07 844.023 1483.17 Q840.551 1486.25 834.231 1486.25 Q832.056 1486.25 829.787 1485.88 Q827.542 1485.51 825.134 1484.77 L825.134 1480.07 Q827.218 1481.2 829.44 1481.76 Q831.662 1482.32 834.139 1482.32 Q838.143 1482.32 840.481 1480.21 Q842.819 1478.1 842.819 1474.49 Q842.819 1470.88 840.481 1468.77 Q838.143 1466.67 834.139 1466.67 Q832.264 1466.67 830.389 1467.08 Q828.537 1467.5 826.593 1468.38 L826.593 1451.02 Z" fill="#000000" fill-rule="nonzero" fill-opacity="1" /><path clip-path="url(#clip810)" d="M1233.53 1454.1 Q1229.92 1454.1 1228.09 1457.66 Q1226.29 1461.2 1226.29 1468.33 Q1226.29 1475.44 1228.09 1479.01 Q1229.92 1482.55 1233.53 1482.55 Q1237.17 1482.55 1238.97 1479.01 Q1240.8 1475.44 1240.8 1468.33 Q1240.8 1461.2 1238.97 1457.66 Q1237.17 1454.1 1233.53 1454.1 M1233.53 1450.39 Q1239.34 1450.39 1242.4 1455 Q1245.48 1459.58 1245.48 1468.33 Q1245.48 1477.06 1242.4 1481.67 Q1239.34 1486.25 1233.53 1486.25 Q1227.72 1486.25 1224.64 1481.67 Q1221.59 1477.06 1221.59 1468.33 Q1221.59 1459.58 1224.64 1455 Q1227.72 1450.39 1233.53 1450.39 Z" fill="#000000" fill-rule="nonzero" fill-opacity="1" /><path clip-path="url(#clip810)" d="M1253.7 1479.7 L1258.58 1479.7 L1258.58 1485.58 L1253.7 1485.58 L1253.7 1479.7 Z" fill="#000000" fill-rule="nonzero" fill-opacity="1" /><path clip-path="url(#clip810)" d="M1278.76 1454.1 Q1275.15 1454.1 1273.33 1457.66 Q1271.52 1461.2 1271.52 1468.33 Q1271.52 1475.44 1273.33 1479.01 Q1275.15 1482.55 1278.76 1482.55 Q1282.4 1482.55 1284.2 1479.01 Q1286.03 1475.44 1286.03 1468.33 Q1286.03 1461.2 1284.2 1457.66 Q1282.4 1454.1 1278.76 1454.1 M1278.76 1450.39 Q1284.57 1450.39 1287.63 1455 Q1290.71 1459.58 1290.71 1468.33 Q1290.71 1477.06 1287.63 1481.67 Q1284.57 1486.25 1278.76 1486.25 Q1272.95 1486.25 1269.88 1481.67 Q1266.82 1477.06 1266.82 1468.33 Q1266.82 1459.58 1269.88 1455 Q1272.95 1450.39 1278.76 1450.39 Z" fill="#000000" fill-rule="nonzero" fill-opacity="1" /><path clip-path="url(#clip810)" d="M1298.97 1451.02 L1317.33 1451.02 L1317.33 1454.96 L1303.26 1454.96 L1303.26 1463.43 Q1304.27 1463.08 1305.29 1462.92 Q1306.31 1462.73 1307.33 1462.73 Q1313.12 1462.73 1316.5 1465.9 Q1319.88 1469.08 1319.88 1474.49 Q1319.88 1480.07 1316.4 1483.17 Q1312.93 1486.25 1306.61 1486.25 Q1304.44 1486.25 1302.17 1485.88 Q1299.92 1485.51 1297.51 1484.77 L1297.51 1480.07 Q1299.6 1481.2 1301.82 1481.76 Q1304.04 1482.32 1306.52 1482.32 Q1310.52 1482.32 1312.86 1480.21 Q1315.2 1478.1 1315.2 1474.49 Q1315.2 1470.88 1312.86 1468.77 Q1310.52 1466.67 1306.52 1466.67 Q1304.64 1466.67 1302.77 1467.08 Q1300.92 1467.5 1298.97 1468.38 L1298.97 1451.02 Z" fill="#000000" fill-rule="nonzero" fill-opacity="1" /><path clip-path="url(#clip810)" d="M1339.09 1454.1 Q1335.48 1454.1 1333.65 1457.66 Q1331.84 1461.2 1331.84 1468.33 Q1331.84 1475.44 1333.65 1479.01 Q1335.48 1482.55 1339.09 1482.55 Q1342.72 1482.55 1344.53 1479.01 Q1346.36 1475.44 1346.36 1468.33 Q1346.36 1461.2 1344.53 1457.66 Q1342.72 1454.1 1339.09 1454.1 M1339.09 1450.39 Q1344.9 1450.39 1347.95 1455 Q1351.03 1459.58 1351.03 1468.33 Q1351.03 1477.06 1347.95 1481.67 Q1344.9 1486.25 1339.09 1486.25 Q1333.28 1486.25 1330.2 1481.67 Q1327.14 1477.06 1327.14 1468.33 Q1327.14 1459.58 1330.2 1455 Q1333.28 1450.39 1339.09 1450.39 Z" fill="#000000" fill-rule="nonzero" fill-opacity="1" /><path clip-path="url(#clip810)" d="M1737.07 1454.1 Q1733.46 1454.1 1731.63 1457.66 Q1729.83 1461.2 1729.83 1468.33 Q1729.83 1475.44 1731.63 1479.01 Q1733.46 1482.55 1737.07 1482.55 Q1740.71 1482.55 1742.51 1479.01 Q1744.34 1475.44 1744.34 1468.33 Q1744.34 1461.2 1742.51 1457.66 Q1740.71 1454.1 1737.07 1454.1 M1737.07 1450.39 Q1742.88 1450.39 1745.94 1455 Q1749.02 1459.58 1749.02 1468.33 Q1749.02 1477.06 1745.94 1481.67 Q1742.88 1486.25 1737.07 1486.25 Q1731.26 1486.25 1728.18 1481.67 Q1725.13 1477.06 1725.13 1468.33 Q1725.13 1459.58 1728.18 1455 Q1731.26 1450.39 1737.07 1450.39 Z" fill="#000000" fill-rule="nonzero" fill-opacity="1" /><path clip-path="url(#clip810)" d="M1757.23 1479.7 L1762.12 1479.7 L1762.12 1485.58 L1757.23 1485.58 L1757.23 1479.7 Z" fill="#000000" fill-rule="nonzero" fill-opacity="1" /><path clip-path="url(#clip810)" d="M1782.3 1454.1 Q1778.69 1454.1 1776.86 1457.66 Q1775.06 1461.2 1775.06 1468.33 Q1775.06 1475.44 1776.86 1479.01 Q1778.69 1482.55 1782.3 1482.55 Q1785.94 1482.55 1787.74 1479.01 Q1789.57 1475.44 1789.57 1468.33 Q1789.57 1461.2 1787.74 1457.66 Q1785.94 1454.1 1782.3 1454.1 M1782.3 1450.39 Q1788.11 1450.39 1791.17 1455 Q1794.25 1459.58 1794.25 1468.33 Q1794.25 1477.06 1791.17 1481.67 Q1788.11 1486.25 1782.3 1486.25 Q1776.49 1486.25 1773.41 1481.67 Q1770.36 1477.06 1770.36 1468.33 Q1770.36 1459.58 1773.41 1455 Q1776.49 1450.39 1782.3 1450.39 Z" fill="#000000" fill-rule="nonzero" fill-opacity="1" /><path clip-path="url(#clip810)" d="M1801.28 1451.02 L1823.51 1451.02 L1823.51 1453.01 L1810.96 1485.58 L1806.08 1485.58 L1817.88 1454.96 L1801.28 1454.96 L1801.28 1451.02 Z" fill="#000000" fill-rule="nonzero" fill-opacity="1" /><path clip-path="url(#clip810)" d="M1832.67 1451.02 L1851.03 1451.02 L1851.03 1454.96 L1836.96 1454.96 L1836.96 1463.43 Q1837.97 1463.08 1838.99 1462.92 Q1840.01 1462.73 1841.03 1462.73 Q1846.82 1462.73 1850.2 1465.9 Q1853.58 1469.08 1853.58 1474.49 Q1853.58 1480.07 1850.1 1483.17 Q1846.63 1486.25 1840.31 1486.25 Q1838.14 1486.25 1835.87 1485.88 Q1833.62 1485.51 1831.21 1484.77 L1831.21 1480.07 Q1833.3 1481.2 1835.52 1481.76 Q1837.74 1482.32 1840.22 1482.32 Q1844.22 1482.32 1846.56 1480.21 Q1848.9 1478.1 1848.9 1474.49 Q1848.9 1470.88 1846.56 1468.77 Q1844.22 1466.67 1840.22 1466.67 Q1838.34 1466.67 1836.47 1467.08 Q1834.62 1467.5 1832.67 1468.38 L1832.67 1451.02 Z" fill="#000000" fill-rule="nonzero" fill-opacity="1" /><path clip-path="url(#clip810)" d="M2239.61 1454.1 Q2236 1454.1 2234.17 1457.66 Q2232.37 1461.2 2232.37 1468.33 Q2232.37 1475.44 2234.17 1479.01 Q2236 1482.55 2239.61 1482.55 Q2243.25 1482.55 2245.05 1479.01 Q2246.88 1475.44 2246.88 1468.33 Q2246.88 1461.2 2245.05 1457.66 Q2243.25 1454.1 2239.61 1454.1 M2239.61 1450.39 Q2245.42 1450.39 2248.48 1455 Q2251.56 1459.58 2251.56 1468.33 Q2251.56 1477.06 2248.48 1481.67 Q2245.42 1486.25 2239.61 1486.25 Q2233.8 1486.25 2230.72 1481.67 Q2227.67 1477.06 2227.67 1468.33 Q2227.67 1459.58 2230.72 1455 Q2233.8 1450.39 2239.61 1450.39 Z" fill="#000000" fill-rule="nonzero" fill-opacity="1" /><path clip-path="url(#clip810)" d="M2259.78 1479.7 L2264.66 1479.7 L2264.66 1485.58 L2259.78 1485.58 L2259.78 1479.7 Z" fill="#000000" fill-rule="nonzero" fill-opacity="1" /><path clip-path="url(#clip810)" d="M2275.66 1481.64 L2283.29 1481.64 L2283.29 1455.28 L2274.98 1456.95 L2274.98 1452.69 L2283.25 1451.02 L2287.92 1451.02 L2287.92 1481.64 L2295.56 1481.64 L2295.56 1485.58 L2275.66 1485.58 L2275.66 1481.64 Z" fill="#000000" fill-rule="nonzero" fill-opacity="1" /><path clip-path="url(#clip810)" d="M2315.01 1454.1 Q2311.4 1454.1 2309.57 1457.66 Q2307.76 1461.2 2307.76 1468.33 Q2307.76 1475.44 2309.57 1479.01 Q2311.4 1482.55 2315.01 1482.55 Q2318.64 1482.55 2320.45 1479.01 Q2322.28 1475.44 2322.28 1468.33 Q2322.28 1461.2 2320.45 1457.66 Q2318.64 1454.1 2315.01 1454.1 M2315.01 1450.39 Q2320.82 1450.39 2323.87 1455 Q2326.95 1459.58 2326.95 1468.33 Q2326.95 1477.06 2323.87 1481.67 Q2320.82 1486.25 2315.01 1486.25 Q2309.2 1486.25 2306.12 1481.67 Q2303.06 1477.06 2303.06 1468.33 Q2303.06 1459.58 2306.12 1455 Q2309.2 1450.39 2315.01 1450.39 Z" fill="#000000" fill-rule="nonzero" fill-opacity="1" /><path clip-path="url(#clip810)" d="M2345.17 1454.1 Q2341.56 1454.1 2339.73 1457.66 Q2337.92 1461.2 2337.92 1468.33 Q2337.92 1475.44 2339.73 1479.01 Q2341.56 1482.55 2345.17 1482.55 Q2348.8 1482.55 2350.61 1479.01 Q2352.44 1475.44 2352.44 1468.33 Q2352.44 1461.2 2350.61 1457.66 Q2348.8 1454.1 2345.17 1454.1 M2345.17 1450.39 Q2350.98 1450.39 2354.03 1455 Q2357.11 1459.58 2357.11 1468.33 Q2357.11 1477.06 2354.03 1481.67 Q2350.98 1486.25 2345.17 1486.25 Q2339.36 1486.25 2336.28 1481.67 Q2333.22 1477.06 2333.22 1468.33 Q2333.22 1459.58 2336.28 1455 Q2339.36 1450.39 2345.17 1450.39 Z" fill="#000000" fill-rule="nonzero" fill-opacity="1" /><path clip-path="url(#clip810)" d="M1071.8 1520.52 L1112 1520.52 L1112 1525.93 L1095.13 1525.93 L1095.13 1568.04 L1088.67 1568.04 L1088.67 1525.93 L1071.8 1525.93 L1071.8 1520.52 Z" fill="#000000" fill-rule="nonzero" fill-opacity="1" /><path clip-path="url(#clip810)" d="M1129.03 1537.87 Q1128.04 1537.3 1126.87 1537.04 Q1125.72 1536.76 1124.32 1536.76 Q1119.35 1536.76 1116.68 1540 Q1114.04 1543.22 1114.04 1549.27 L1114.04 1568.04 L1108.15 1568.04 L1108.15 1532.4 L1114.04 1532.4 L1114.04 1537.93 Q1115.89 1534.69 1118.85 1533.13 Q1121.81 1531.54 1126.04 1531.54 Q1126.64 1531.54 1127.38 1531.63 Q1128.11 1531.7 1129 1531.85 L1129.03 1537.87 Z" fill="#000000" fill-rule="nonzero" fill-opacity="1" /><path clip-path="url(#clip810)" d="M1151.37 1550.12 Q1144.28 1550.12 1141.54 1551.75 Q1138.8 1553.37 1138.8 1557.29 Q1138.8 1560.4 1140.84 1562.25 Q1142.91 1564.07 1146.44 1564.07 Q1151.31 1564.07 1154.24 1560.63 Q1157.2 1557.16 1157.2 1551.43 L1157.2 1550.12 L1151.37 1550.12 M1163.06 1547.71 L1163.06 1568.04 L1157.2 1568.04 L1157.2 1562.63 Q1155.19 1565.88 1152.2 1567.44 Q1149.21 1568.97 1144.88 1568.97 Q1139.41 1568.97 1136.16 1565.91 Q1132.95 1562.82 1132.95 1557.67 Q1132.95 1551.65 1136.96 1548.6 Q1141 1545.54 1148.99 1545.54 L1157.2 1545.54 L1157.2 1544.97 Q1157.2 1540.93 1154.53 1538.73 Q1151.88 1536.5 1147.08 1536.5 Q1144.02 1536.5 1141.13 1537.23 Q1138.23 1537.97 1135.56 1539.43 L1135.56 1534.02 Q1138.77 1532.78 1141.79 1532.17 Q1144.82 1531.54 1147.68 1531.54 Q1155.42 1531.54 1159.24 1535.55 Q1163.06 1539.56 1163.06 1547.71 Z" fill="#000000" fill-rule="nonzero" fill-opacity="1" /><path clip-path="url(#clip810)" d="M1204.75 1546.53 L1204.75 1568.04 L1198.89 1568.04 L1198.89 1546.72 Q1198.89 1541.66 1196.92 1539.14 Q1194.95 1536.63 1191 1536.63 Q1186.26 1536.63 1183.52 1539.65 Q1180.78 1542.68 1180.78 1547.9 L1180.78 1568.04 L1174.9 1568.04 L1174.9 1532.4 L1180.78 1532.4 L1180.78 1537.93 Q1182.88 1534.72 1185.72 1533.13 Q1188.58 1531.54 1192.31 1531.54 Q1198.45 1531.54 1201.6 1535.36 Q1204.75 1539.14 1204.75 1546.53 Z" fill="#000000" fill-rule="nonzero" fill-opacity="1" /><path clip-path="url(#clip810)" d="M1239.16 1533.45 L1239.16 1538.98 Q1236.67 1537.71 1234 1537.07 Q1231.33 1536.44 1228.46 1536.44 Q1224.1 1536.44 1221.91 1537.77 Q1219.74 1539.11 1219.74 1541.79 Q1219.74 1543.82 1221.3 1545 Q1222.86 1546.15 1227.57 1547.2 L1229.58 1547.64 Q1235.82 1548.98 1238.43 1551.43 Q1241.07 1553.85 1241.07 1558.21 Q1241.07 1563.17 1237.12 1566.07 Q1233.21 1568.97 1226.33 1568.97 Q1223.47 1568.97 1220.35 1568.39 Q1217.26 1567.85 1213.82 1566.74 L1213.82 1560.69 Q1217.07 1562.38 1220.22 1563.24 Q1223.37 1564.07 1226.46 1564.07 Q1230.6 1564.07 1232.82 1562.66 Q1235.05 1561.23 1235.05 1558.65 Q1235.05 1556.27 1233.43 1554.99 Q1231.84 1553.72 1226.39 1552.54 L1224.36 1552.07 Q1218.91 1550.92 1216.5 1548.56 Q1214.08 1546.18 1214.08 1542.04 Q1214.08 1537.01 1217.64 1534.27 Q1221.21 1531.54 1227.76 1531.54 Q1231.01 1531.54 1233.87 1532.01 Q1236.74 1532.49 1239.16 1533.45 Z" fill="#000000" fill-rule="nonzero" fill-opacity="1" /><path clip-path="url(#clip810)" d="M1268.44 1518.52 L1268.44 1523.39 L1262.84 1523.39 Q1259.69 1523.39 1258.45 1524.66 Q1257.24 1525.93 1257.24 1529.24 L1257.24 1532.4 L1266.88 1532.4 L1266.88 1536.95 L1257.24 1536.95 L1257.24 1568.04 L1251.35 1568.04 L1251.35 1536.95 L1245.75 1536.95 L1245.75 1532.4 L1251.35 1532.4 L1251.35 1529.91 Q1251.35 1523.96 1254.12 1521.26 Q1256.89 1518.52 1262.9 1518.52 L1268.44 1518.52 Z" fill="#000000" fill-rule="nonzero" fill-opacity="1" /><path clip-path="url(#clip810)" d="M1303.83 1548.76 L1303.83 1551.62 L1276.91 1551.62 Q1277.29 1557.67 1280.53 1560.85 Q1283.81 1564 1289.64 1564 Q1293.01 1564 1296.16 1563.17 Q1299.34 1562.35 1302.46 1560.69 L1302.46 1566.23 Q1299.31 1567.57 1296 1568.27 Q1292.69 1568.97 1289.29 1568.97 Q1280.76 1568.97 1275.76 1564 Q1270.79 1559.04 1270.79 1550.57 Q1270.79 1541.82 1275.51 1536.69 Q1280.25 1531.54 1288.27 1531.54 Q1295.46 1531.54 1299.63 1536.18 Q1303.83 1540.8 1303.83 1548.76 M1297.98 1547.04 Q1297.91 1542.23 1295.27 1539.37 Q1292.66 1536.5 1288.33 1536.5 Q1283.43 1536.5 1280.47 1539.27 Q1277.54 1542.04 1277.1 1547.07 L1297.98 1547.04 Z" fill="#000000" fill-rule="nonzero" fill-opacity="1" /><path clip-path="url(#clip810)" d="M1334.1 1537.87 Q1333.11 1537.3 1331.94 1537.04 Q1330.79 1536.76 1329.39 1536.76 Q1324.43 1536.76 1321.75 1540 Q1319.11 1543.22 1319.11 1549.27 L1319.11 1568.04 L1313.22 1568.04 L1313.22 1532.4 L1319.11 1532.4 L1319.11 1537.93 Q1320.96 1534.69 1323.92 1533.13 Q1326.88 1531.54 1331.11 1531.54 Q1331.71 1531.54 1332.45 1531.63 Q1333.18 1531.7 1334.07 1531.85 L1334.1 1537.87 Z" fill="#000000" fill-rule="nonzero" fill-opacity="1" /><path clip-path="url(#clip810)" d="M1383.75 1545.76 Q1385.82 1546.46 1387.76 1548.76 Q1389.74 1551.05 1391.71 1555.06 L1398.24 1568.04 L1391.33 1568.04 L1385.25 1555.85 Q1382.89 1551.08 1380.67 1549.52 Q1378.47 1547.96 1374.65 1547.96 L1367.65 1547.96 L1367.65 1568.04 L1361.22 1568.04 L1361.22 1520.52 L1375.73 1520.52 Q1383.88 1520.52 1387.89 1523.93 Q1391.9 1527.34 1391.9 1534.21 Q1391.9 1538.7 1389.8 1541.66 Q1387.73 1544.62 1383.75 1545.76 M1367.65 1525.81 L1367.65 1542.68 L1375.73 1542.68 Q1380.38 1542.68 1382.74 1540.54 Q1385.12 1538.38 1385.12 1534.21 Q1385.12 1530.04 1382.74 1527.94 Q1380.38 1525.81 1375.73 1525.81 L1367.65 1525.81 Z" fill="#000000" fill-rule="nonzero" fill-opacity="1" /><path clip-path="url(#clip810)" d="M1421.03 1550.12 Q1413.93 1550.12 1411.19 1551.75 Q1408.45 1553.37 1408.45 1557.29 Q1408.45 1560.4 1410.49 1562.25 Q1412.56 1564.07 1416.09 1564.07 Q1420.96 1564.07 1423.89 1560.63 Q1426.85 1557.16 1426.85 1551.43 L1426.85 1550.12 L1421.03 1550.12 M1432.71 1547.71 L1432.71 1568.04 L1426.85 1568.04 L1426.85 1562.63 Q1424.84 1565.88 1421.85 1567.44 Q1418.86 1568.97 1414.53 1568.97 Q1409.06 1568.97 1405.81 1565.91 Q1402.6 1562.82 1402.6 1557.67 Q1402.6 1551.65 1406.61 1548.6 Q1410.65 1545.54 1418.64 1545.54 L1426.85 1545.54 L1426.85 1544.97 Q1426.85 1540.93 1424.18 1538.73 Q1421.53 1536.5 1416.73 1536.5 Q1413.67 1536.5 1410.78 1537.23 Q1407.88 1537.97 1405.21 1539.43 L1405.21 1534.02 Q1408.42 1532.78 1411.44 1532.17 Q1414.47 1531.54 1417.33 1531.54 Q1425.07 1531.54 1428.89 1535.55 Q1432.71 1539.56 1432.71 1547.71 Z" fill="#000000" fill-rule="nonzero" fill-opacity="1" /><path clip-path="url(#clip810)" d="M1450.56 1522.27 L1450.56 1532.4 L1462.63 1532.4 L1462.63 1536.95 L1450.56 1536.95 L1450.56 1556.3 Q1450.56 1560.66 1451.74 1561.9 Q1452.95 1563.14 1456.61 1563.14 L1462.63 1563.14 L1462.63 1568.04 L1456.61 1568.04 Q1449.83 1568.04 1447.25 1565.53 Q1444.67 1562.98 1444.67 1556.3 L1444.67 1536.95 L1440.38 1536.95 L1440.38 1532.4 L1444.67 1532.4 L1444.67 1522.27 L1450.56 1522.27 Z" fill="#000000" fill-rule="nonzero" fill-opacity="1" /><path clip-path="url(#clip810)" d="M1500.82 1548.76 L1500.82 1551.62 L1473.89 1551.62 Q1474.27 1557.67 1477.52 1560.85 Q1480.8 1564 1486.62 1564 Q1490 1564 1493.15 1563.17 Q1496.33 1562.35 1499.45 1560.69 L1499.45 1566.23 Q1496.3 1567.57 1492.99 1568.27 Q1489.68 1568.97 1486.27 1568.97 Q1477.74 1568.97 1472.75 1564 Q1467.78 1559.04 1467.78 1550.57 Q1467.78 1541.82 1472.49 1536.69 Q1477.23 1531.54 1485.26 1531.54 Q1492.45 1531.54 1496.62 1536.18 Q1500.82 1540.8 1500.82 1548.76 M1494.96 1547.04 Q1494.9 1542.23 1492.26 1539.37 Q1489.65 1536.5 1485.32 1536.5 Q1480.42 1536.5 1477.46 1539.27 Q1474.53 1542.04 1474.08 1547.07 L1494.96 1547.04 Z" fill="#000000" fill-rule="nonzero" fill-opacity="1" /><polyline clip-path="url(#clip810)" style="stroke:#000000; stroke-linecap:round; stroke-linejoin:round; stroke-width:4; stroke-opacity:1; fill:none" points="219.866,1423.18 219.866,123.472 "/>
<polyline clip-path="url(#clip810)" style="stroke:#000000; stroke-linecap:round; stroke-linejoin:round; stroke-width:4; stroke-opacity:1; fill:none" points="219.866,1423.18 238.764,1423.18 "/>
<polyline clip-path="url(#clip810)" style="stroke:#000000; stroke-linecap:round; stroke-linejoin:round; stroke-width:4; stroke-opacity:1; fill:none" points="219.866,1163.24 238.764,1163.24 "/>
<polyline clip-path="url(#clip810)" style="stroke:#000000; stroke-linecap:round; stroke-linejoin:round; stroke-width:4; stroke-opacity:1; fill:none" points="219.866,903.297 238.764,903.297 "/>
<polyline clip-path="url(#clip810)" style="stroke:#000000; stroke-linecap:round; stroke-linejoin:round; stroke-width:4; stroke-opacity:1; fill:none" points="219.866,643.355 238.764,643.355 "/>
<polyline clip-path="url(#clip810)" style="stroke:#000000; stroke-linecap:round; stroke-linejoin:round; stroke-width:4; stroke-opacity:1; fill:none" points="219.866,383.414 238.764,383.414 "/>
<polyline clip-path="url(#clip810)" style="stroke:#000000; stroke-linecap:round; stroke-linejoin:round; stroke-width:4; stroke-opacity:1; fill:none" points="219.866,123.472 238.764,123.472 "/>
<path clip-path="url(#clip810)" d="M126.691 1408.98 Q123.08 1408.98 121.251 1412.54 Q119.445 1416.08 119.445 1423.21 Q119.445 1430.32 121.251 1433.89 Q123.08 1437.43 126.691 1437.43 Q130.325 1437.43 132.13 1433.89 Q133.959 1430.32 133.959 1423.21 Q133.959 1416.08 132.13 1412.54 Q130.325 1408.98 126.691 1408.98 M126.691 1405.27 Q132.501 1405.27 135.556 1409.88 Q138.635 1414.46 138.635 1423.21 Q138.635 1431.94 135.556 1436.55 Q132.501 1441.13 126.691 1441.13 Q120.88 1441.13 117.802 1436.55 Q114.746 1431.94 114.746 1423.21 Q114.746 1414.46 117.802 1409.88 Q120.88 1405.27 126.691 1405.27 Z" fill="#000000" fill-rule="nonzero" fill-opacity="1" /><path clip-path="url(#clip810)" d="M146.853 1434.58 L151.737 1434.58 L151.737 1440.46 L146.853 1440.46 L146.853 1434.58 Z" fill="#000000" fill-rule="nonzero" fill-opacity="1" /><path clip-path="url(#clip810)" d="M171.922 1408.98 Q168.311 1408.98 166.482 1412.54 Q164.677 1416.08 164.677 1423.21 Q164.677 1430.32 166.482 1433.89 Q168.311 1437.43 171.922 1437.43 Q175.556 1437.43 177.362 1433.89 Q179.19 1430.32 179.19 1423.21 Q179.19 1416.08 177.362 1412.54 Q175.556 1408.98 171.922 1408.98 M171.922 1405.27 Q177.732 1405.27 180.788 1409.88 Q183.866 1414.46 183.866 1423.21 Q183.866 1431.94 180.788 1436.55 Q177.732 1441.13 171.922 1441.13 Q166.112 1441.13 163.033 1436.55 Q159.978 1431.94 159.978 1423.21 Q159.978 1414.46 163.033 1409.88 Q166.112 1405.27 171.922 1405.27 Z" fill="#000000" fill-rule="nonzero" fill-opacity="1" /><path clip-path="url(#clip810)" d="M128.288 1149.04 Q124.677 1149.04 122.848 1152.6 Q121.043 1156.14 121.043 1163.27 Q121.043 1170.38 122.848 1173.94 Q124.677 1177.49 128.288 1177.49 Q131.922 1177.49 133.728 1173.94 Q135.556 1170.38 135.556 1163.27 Q135.556 1156.14 133.728 1152.6 Q131.922 1149.04 128.288 1149.04 M128.288 1145.33 Q134.098 1145.33 137.154 1149.94 Q140.232 1154.52 140.232 1163.27 Q140.232 1172 137.154 1176.61 Q134.098 1181.19 128.288 1181.19 Q122.478 1181.19 119.399 1176.61 Q116.343 1172 116.343 1163.27 Q116.343 1154.52 119.399 1149.94 Q122.478 1145.33 128.288 1145.33 Z" fill="#000000" fill-rule="nonzero" fill-opacity="1" /><path clip-path="url(#clip810)" d="M148.45 1174.64 L153.334 1174.64 L153.334 1180.52 L148.45 1180.52 L148.45 1174.64 Z" fill="#000000" fill-rule="nonzero" fill-opacity="1" /><path clip-path="url(#clip810)" d="M167.547 1176.58 L183.866 1176.58 L183.866 1180.52 L161.922 1180.52 L161.922 1176.58 Q164.584 1173.83 169.167 1169.2 Q173.774 1164.55 174.954 1163.2 Q177.2 1160.68 178.079 1158.94 Q178.982 1157.19 178.982 1155.5 Q178.982 1152.74 177.038 1151 Q175.116 1149.27 172.014 1149.27 Q169.815 1149.27 167.362 1150.03 Q164.931 1150.8 162.153 1152.35 L162.153 1147.62 Q164.977 1146.49 167.431 1145.91 Q169.885 1145.33 171.922 1145.33 Q177.292 1145.33 180.487 1148.02 Q183.681 1150.7 183.681 1155.19 Q183.681 1157.32 182.871 1159.25 Q182.084 1161.14 179.977 1163.74 Q179.399 1164.41 176.297 1167.62 Q173.195 1170.82 167.547 1176.58 Z" fill="#000000" fill-rule="nonzero" fill-opacity="1" /><path clip-path="url(#clip810)" d="M126.205 889.095 Q122.593 889.095 120.765 892.66 Q118.959 896.202 118.959 903.331 Q118.959 910.438 120.765 914.003 Q122.593 917.544 126.205 917.544 Q129.839 917.544 131.644 914.003 Q133.473 910.438 133.473 903.331 Q133.473 896.202 131.644 892.66 Q129.839 889.095 126.205 889.095 M126.205 885.392 Q132.015 885.392 135.07 889.998 Q138.149 894.582 138.149 903.331 Q138.149 912.058 135.07 916.665 Q132.015 921.248 126.205 921.248 Q120.394 921.248 117.316 916.665 Q114.26 912.058 114.26 903.331 Q114.26 894.582 117.316 889.998 Q120.394 885.392 126.205 885.392 Z" fill="#000000" fill-rule="nonzero" fill-opacity="1" /><path clip-path="url(#clip810)" d="M146.366 914.697 L151.251 914.697 L151.251 920.577 L146.366 920.577 L146.366 914.697 Z" fill="#000000" fill-rule="nonzero" fill-opacity="1" /><path clip-path="url(#clip810)" d="M174.283 890.091 L162.477 908.54 L174.283 908.54 L174.283 890.091 M173.056 886.017 L178.936 886.017 L178.936 908.54 L183.866 908.54 L183.866 912.429 L178.936 912.429 L178.936 920.577 L174.283 920.577 L174.283 912.429 L158.681 912.429 L158.681 907.915 L173.056 886.017 Z" fill="#000000" fill-rule="nonzero" fill-opacity="1" /><path clip-path="url(#clip810)" d="M126.529 629.154 Q122.918 629.154 121.089 632.719 Q119.283 636.26 119.283 643.39 Q119.283 650.496 121.089 654.061 Q122.918 657.603 126.529 657.603 Q130.163 657.603 131.968 654.061 Q133.797 650.496 133.797 643.39 Q133.797 636.26 131.968 632.719 Q130.163 629.154 126.529 629.154 M126.529 625.45 Q132.339 625.45 135.394 630.057 Q138.473 634.64 138.473 643.39 Q138.473 652.117 135.394 656.723 Q132.339 661.307 126.529 661.307 Q120.718 661.307 117.64 656.723 Q114.584 652.117 114.584 643.39 Q114.584 634.64 117.64 630.057 Q120.718 625.45 126.529 625.45 Z" fill="#000000" fill-rule="nonzero" fill-opacity="1" /><path clip-path="url(#clip810)" d="M146.691 654.756 L151.575 654.756 L151.575 660.635 L146.691 660.635 L146.691 654.756 Z" fill="#000000" fill-rule="nonzero" fill-opacity="1" /><path clip-path="url(#clip810)" d="M172.339 641.492 Q169.19 641.492 167.339 643.645 Q165.51 645.797 165.51 649.547 Q165.51 653.274 167.339 655.45 Q169.19 657.603 172.339 657.603 Q175.487 657.603 177.315 655.45 Q179.167 653.274 179.167 649.547 Q179.167 645.797 177.315 643.645 Q175.487 641.492 172.339 641.492 M181.621 626.839 L181.621 631.098 Q179.862 630.265 178.056 629.825 Q176.274 629.385 174.514 629.385 Q169.885 629.385 167.431 632.51 Q165.001 635.635 164.653 641.955 Q166.019 639.941 168.079 638.876 Q170.139 637.788 172.616 637.788 Q177.825 637.788 180.834 640.959 Q183.866 644.108 183.866 649.547 Q183.866 654.871 180.718 658.089 Q177.57 661.307 172.339 661.307 Q166.343 661.307 163.172 656.723 Q160.001 652.117 160.001 643.39 Q160.001 635.196 163.89 630.334 Q167.778 625.45 174.329 625.45 Q176.089 625.45 177.871 625.797 Q179.676 626.145 181.621 626.839 Z" fill="#000000" fill-rule="nonzero" fill-opacity="1" /><path clip-path="url(#clip810)" d="M126.783 369.212 Q123.172 369.212 121.343 372.777 Q119.538 376.319 119.538 383.448 Q119.538 390.555 121.343 394.12 Q123.172 397.661 126.783 397.661 Q130.417 397.661 132.223 394.12 Q134.052 390.555 134.052 383.448 Q134.052 376.319 132.223 372.777 Q130.417 369.212 126.783 369.212 M126.783 365.509 Q132.593 365.509 135.649 370.115 Q138.728 374.698 138.728 383.448 Q138.728 392.175 135.649 396.782 Q132.593 401.365 126.783 401.365 Q120.973 401.365 117.894 396.782 Q114.839 392.175 114.839 383.448 Q114.839 374.698 117.894 370.115 Q120.973 365.509 126.783 365.509 Z" fill="#000000" fill-rule="nonzero" fill-opacity="1" /><path clip-path="url(#clip810)" d="M146.945 394.814 L151.829 394.814 L151.829 400.694 L146.945 400.694 L146.945 394.814 Z" fill="#000000" fill-rule="nonzero" fill-opacity="1" /><path clip-path="url(#clip810)" d="M172.014 384.282 Q168.681 384.282 166.76 386.064 Q164.862 387.847 164.862 390.971 Q164.862 394.096 166.76 395.879 Q168.681 397.661 172.014 397.661 Q175.348 397.661 177.269 395.879 Q179.19 394.073 179.19 390.971 Q179.19 387.847 177.269 386.064 Q175.371 384.282 172.014 384.282 M167.339 382.291 Q164.329 381.55 162.64 379.49 Q160.973 377.43 160.973 374.467 Q160.973 370.323 163.913 367.916 Q166.876 365.509 172.014 365.509 Q177.176 365.509 180.116 367.916 Q183.056 370.323 183.056 374.467 Q183.056 377.43 181.366 379.49 Q179.7 381.55 176.714 382.291 Q180.093 383.078 181.968 385.37 Q183.866 387.661 183.866 390.971 Q183.866 395.995 180.788 398.68 Q177.732 401.365 172.014 401.365 Q166.297 401.365 163.218 398.68 Q160.163 395.995 160.163 390.971 Q160.163 387.661 162.061 385.37 Q163.959 383.078 167.339 382.291 M165.626 374.907 Q165.626 377.592 167.292 379.097 Q168.982 380.601 172.014 380.601 Q175.024 380.601 176.714 379.097 Q178.426 377.592 178.426 374.907 Q178.426 372.222 176.714 370.717 Q175.024 369.212 172.014 369.212 Q168.982 369.212 167.292 370.717 Q165.626 372.222 165.626 374.907 Z" fill="#000000" fill-rule="nonzero" fill-opacity="1" /><path clip-path="url(#clip810)" d="M117.501 136.817 L125.14 136.817 L125.14 110.451 L116.83 112.118 L116.83 107.859 L125.093 106.192 L129.769 106.192 L129.769 136.817 L137.408 136.817 L137.408 140.752 L117.501 140.752 L117.501 136.817 Z" fill="#000000" fill-rule="nonzero" fill-opacity="1" /><path clip-path="url(#clip810)" d="M146.853 134.873 L151.737 134.873 L151.737 140.752 L146.853 140.752 L146.853 134.873 Z" fill="#000000" fill-rule="nonzero" fill-opacity="1" /><path clip-path="url(#clip810)" d="M171.922 109.271 Q168.311 109.271 166.482 112.836 Q164.677 116.377 164.677 123.507 Q164.677 130.613 166.482 134.178 Q168.311 137.72 171.922 137.72 Q175.556 137.72 177.362 134.178 Q179.19 130.613 179.19 123.507 Q179.19 116.377 177.362 112.836 Q175.556 109.271 171.922 109.271 M171.922 105.567 Q177.732 105.567 180.788 110.174 Q183.866 114.757 183.866 123.507 Q183.866 132.234 180.788 136.84 Q177.732 141.423 171.922 141.423 Q166.112 141.423 163.033 136.84 Q159.978 132.234 159.978 123.507 Q159.978 114.757 163.033 110.174 Q166.112 105.567 171.922 105.567 Z" fill="#000000" fill-rule="nonzero" fill-opacity="1" /><path clip-path="url(#clip810)" d="M21.7677 1072.63 L39.6235 1072.63 L39.6235 1064.54 Q39.6235 1060.05 37.3 1057.6 Q34.9765 1055.15 30.6797 1055.15 Q26.4147 1055.15 24.0912 1057.6 Q21.7677 1060.05 21.7677 1064.54 L21.7677 1072.63 M16.4842 1079.05 L16.4842 1064.54 Q16.4842 1056.55 20.1126 1052.48 Q23.7092 1048.37 30.6797 1048.37 Q37.7138 1048.37 41.3104 1052.48 Q44.907 1056.55 44.907 1064.54 L44.907 1072.63 L64.0042 1072.63 L64.0042 1079.05 L16.4842 1079.05 Z" fill="#000000" fill-rule="nonzero" fill-opacity="1" /><path clip-path="url(#clip810)" d="M32.4621 1028.51 Q32.4621 1033.22 36.1542 1035.96 Q39.8145 1038.7 46.212 1038.7 Q52.6095 1038.7 56.3017 1035.99 Q59.9619 1033.25 59.9619 1028.51 Q59.9619 1023.83 56.2698 1021.1 Q52.5777 1018.36 46.212 1018.36 Q39.8781 1018.36 36.186 1021.1 Q32.4621 1023.83 32.4621 1028.51 M27.4968 1028.51 Q27.4968 1020.87 32.4621 1016.51 Q37.4273 1012.15 46.212 1012.15 Q54.9649 1012.15 59.9619 1016.51 Q64.9272 1020.87 64.9272 1028.51 Q64.9272 1036.18 59.9619 1040.54 Q54.9649 1044.87 46.212 1044.87 Q37.4273 1044.87 32.4621 1040.54 Q27.4968 1036.18 27.4968 1028.51 Z" fill="#000000" fill-rule="nonzero" fill-opacity="1" /><path clip-path="url(#clip810)" d="M58.657 996.778 L77.5631 996.778 L77.5631 1002.67 L28.3562 1002.67 L28.3562 996.778 L33.7671 996.778 Q30.5842 994.932 29.0564 992.131 Q27.4968 989.298 27.4968 985.384 Q27.4968 978.891 32.6531 974.848 Q37.8093 970.774 46.212 970.774 Q54.6147 970.774 59.771 974.848 Q64.9272 978.891 64.9272 985.384 Q64.9272 989.298 63.3994 992.131 Q61.8398 994.932 58.657 996.778 M46.212 976.854 Q39.7508 976.854 36.0905 979.527 Q32.3984 982.169 32.3984 986.816 Q32.3984 991.463 36.0905 994.136 Q39.7508 996.778 46.212 996.778 Q52.6732 996.778 56.3653 994.136 Q60.0256 991.463 60.0256 986.816 Q60.0256 982.169 56.3653 979.527 Q52.6732 976.854 46.212 976.854 Z" fill="#000000" fill-rule="nonzero" fill-opacity="1" /><path clip-path="url(#clip810)" d="M49.9359 961.671 L28.3562 961.671 L28.3562 955.815 L49.7131 955.815 Q54.7739 955.815 57.3202 953.842 Q59.8346 951.868 59.8346 947.921 Q59.8346 943.179 56.8109 940.442 Q53.7872 937.673 48.5673 937.673 L28.3562 937.673 L28.3562 931.816 L64.0042 931.816 L64.0042 937.673 L58.5296 937.673 Q61.7762 939.805 63.3676 942.638 Q64.9272 945.439 64.9272 949.163 Q64.9272 955.306 61.1078 958.488 Q57.2883 961.671 49.9359 961.671 M27.4968 946.935 L27.4968 946.935 Z" fill="#000000" fill-rule="nonzero" fill-opacity="1" /><path clip-path="url(#clip810)" d="M14.479 919.753 L14.479 913.897 L64.0042 913.897 L64.0042 919.753 L14.479 919.753 Z" fill="#000000" fill-rule="nonzero" fill-opacity="1" /><path clip-path="url(#clip810)" d="M46.0847 885.442 Q46.0847 892.54 47.7079 895.277 Q49.3312 898.014 53.2461 898.014 Q56.3653 898.014 58.2114 895.977 Q60.0256 893.908 60.0256 890.375 Q60.0256 885.506 56.5881 882.577 Q53.1188 879.617 47.3897 879.617 L46.0847 879.617 L46.0847 885.442 M43.6657 873.761 L64.0042 873.761 L64.0042 879.617 L58.5933 879.617 Q61.8398 881.623 63.3994 884.614 Q64.9272 887.606 64.9272 891.935 Q64.9272 897.41 61.8716 900.656 Q58.7843 903.871 53.6281 903.871 Q47.6125 903.871 44.5569 899.86 Q41.5014 895.818 41.5014 887.829 L41.5014 879.617 L40.9285 879.617 Q36.8862 879.617 34.6901 882.291 Q32.4621 884.933 32.4621 889.739 Q32.4621 892.794 33.1941 895.691 Q33.9262 898.587 35.3903 901.261 L29.9795 901.261 Q28.7381 898.046 28.1334 895.022 Q27.4968 891.999 27.4968 889.134 Q27.4968 881.4 31.5072 877.58 Q35.5176 873.761 43.6657 873.761 Z" fill="#000000" fill-rule="nonzero" fill-opacity="1" /><path clip-path="url(#clip810)" d="M18.2347 855.905 L28.3562 855.905 L28.3562 843.842 L32.9077 843.842 L32.9077 855.905 L52.2594 855.905 Q56.6199 855.905 57.8613 854.727 Q59.1026 853.518 59.1026 849.858 L59.1026 843.842 L64.0042 843.842 L64.0042 849.858 Q64.0042 856.637 61.4897 859.215 Q58.9434 861.793 52.2594 861.793 L32.9077 861.793 L32.9077 866.09 L28.3562 866.09 L28.3562 861.793 L18.2347 861.793 L18.2347 855.905 Z" fill="#000000" fill-rule="nonzero" fill-opacity="1" /><path clip-path="url(#clip810)" d="M28.3562 836.14 L28.3562 830.283 L64.0042 830.283 L64.0042 836.14 L28.3562 836.14 M14.479 836.14 L14.479 830.283 L21.895 830.283 L21.895 836.14 L14.479 836.14 Z" fill="#000000" fill-rule="nonzero" fill-opacity="1" /><path clip-path="url(#clip810)" d="M32.4621 804.216 Q32.4621 808.926 36.1542 811.663 Q39.8145 814.401 46.212 814.401 Q52.6095 814.401 56.3017 811.695 Q59.9619 808.958 59.9619 804.216 Q59.9619 799.537 56.2698 796.8 Q52.5777 794.062 46.212 794.062 Q39.8781 794.062 36.186 796.8 Q32.4621 799.537 32.4621 804.216 M27.4968 804.216 Q27.4968 796.577 32.4621 792.216 Q37.4273 787.856 46.212 787.856 Q54.9649 787.856 59.9619 792.216 Q64.9272 796.577 64.9272 804.216 Q64.9272 811.886 59.9619 816.247 Q54.9649 820.575 46.212 820.575 Q37.4273 820.575 32.4621 816.247 Q27.4968 811.886 27.4968 804.216 Z" fill="#000000" fill-rule="nonzero" fill-opacity="1" /><path clip-path="url(#clip810)" d="M42.4881 748.516 L64.0042 748.516 L64.0042 754.372 L42.679 754.372 Q37.6183 754.372 35.1038 756.345 Q32.5894 758.319 32.5894 762.266 Q32.5894 767.008 35.6131 769.745 Q38.6368 772.483 43.8567 772.483 L64.0042 772.483 L64.0042 778.371 L28.3562 778.371 L28.3562 772.483 L33.8944 772.483 Q30.6797 770.382 29.0883 767.549 Q27.4968 764.685 27.4968 760.961 Q27.4968 754.818 31.3163 751.667 Q35.1038 748.516 42.4881 748.516 Z" fill="#000000" fill-rule="nonzero" fill-opacity="1" /><path clip-path="url(#clip810)" d="M16.4842 715.86 L16.4842 688.551 L21.895 688.551 L21.895 709.43 L35.8996 709.43 L35.8996 690.588 L41.3104 690.588 L41.3104 709.43 L64.0042 709.43 L64.0042 715.86 L16.4842 715.86 Z" fill="#000000" fill-rule="nonzero" fill-opacity="1" /><path clip-path="url(#clip810)" d="M33.8307 662.706 Q33.2578 663.693 33.0032 664.87 Q32.7167 666.016 32.7167 667.417 Q32.7167 672.382 35.9632 675.055 Q39.1779 677.697 45.2253 677.697 L64.0042 677.697 L64.0042 683.585 L28.3562 683.585 L28.3562 677.697 L33.8944 677.697 Q30.6479 675.851 29.0883 672.891 Q27.4968 669.931 27.4968 665.698 Q27.4968 665.093 27.5923 664.361 Q27.656 663.629 27.8151 662.738 L33.8307 662.706 Z" fill="#000000" fill-rule="nonzero" fill-opacity="1" /><path clip-path="url(#clip810)" d="M46.0847 640.362 Q46.0847 647.46 47.7079 650.197 Q49.3312 652.935 53.2461 652.935 Q56.3653 652.935 58.2114 650.898 Q60.0256 648.829 60.0256 645.296 Q60.0256 640.426 56.5881 637.498 Q53.1188 634.538 47.3897 634.538 L46.0847 634.538 L46.0847 640.362 M43.6657 628.681 L64.0042 628.681 L64.0042 634.538 L58.5933 634.538 Q61.8398 636.543 63.3994 639.535 Q64.9272 642.527 64.9272 646.855 Q64.9272 652.33 61.8716 655.576 Q58.7843 658.791 53.6281 658.791 Q47.6125 658.791 44.5569 654.781 Q41.5014 650.738 41.5014 642.749 L41.5014 634.538 L40.9285 634.538 Q36.8862 634.538 34.6901 637.211 Q32.4621 639.853 32.4621 644.659 Q32.4621 647.715 33.1941 650.611 Q33.9262 653.507 35.3903 656.181 L29.9795 656.181 Q28.7381 652.966 28.1334 649.943 Q27.4968 646.919 27.4968 644.054 Q27.4968 636.32 31.5072 632.501 Q35.5176 628.681 43.6657 628.681 Z" fill="#000000" fill-rule="nonzero" fill-opacity="1" /><path clip-path="url(#clip810)" d="M29.7248 590.964 L35.1993 590.964 Q33.8307 593.447 33.1623 595.961 Q32.4621 598.444 32.4621 600.99 Q32.4621 606.688 36.0905 609.839 Q39.6872 612.99 46.212 612.99 Q52.7369 612.99 56.3653 609.839 Q59.9619 606.688 59.9619 600.99 Q59.9619 598.444 59.2935 595.961 Q58.5933 593.447 57.2247 590.964 L62.6355 590.964 Q63.7814 593.415 64.3543 596.057 Q64.9272 598.667 64.9272 601.627 Q64.9272 609.68 59.8664 614.422 Q54.8057 619.164 46.212 619.164 Q37.491 619.164 32.4939 614.39 Q27.4968 609.584 27.4968 601.245 Q27.4968 598.54 28.0697 595.961 Q28.6108 593.383 29.7248 590.964 Z" fill="#000000" fill-rule="nonzero" fill-opacity="1" /><path clip-path="url(#clip810)" d="M18.2347 574.986 L28.3562 574.986 L28.3562 562.923 L32.9077 562.923 L32.9077 574.986 L52.2594 574.986 Q56.6199 574.986 57.8613 573.809 Q59.1026 572.599 59.1026 568.939 L59.1026 562.923 L64.0042 562.923 L64.0042 568.939 Q64.0042 575.719 61.4897 578.297 Q58.9434 580.875 52.2594 580.875 L32.9077 580.875 L32.9077 585.172 L28.3562 585.172 L28.3562 580.875 L18.2347 580.875 L18.2347 574.986 Z" fill="#000000" fill-rule="nonzero" fill-opacity="1" /><path clip-path="url(#clip810)" d="M28.3562 555.221 L28.3562 549.365 L64.0042 549.365 L64.0042 555.221 L28.3562 555.221 M14.479 555.221 L14.479 549.365 L21.895 549.365 L21.895 555.221 L14.479 555.221 Z" fill="#000000" fill-rule="nonzero" fill-opacity="1" /><path clip-path="url(#clip810)" d="M32.4621 523.297 Q32.4621 528.008 36.1542 530.745 Q39.8145 533.482 46.212 533.482 Q52.6095 533.482 56.3017 530.777 Q59.9619 528.039 59.9619 523.297 Q59.9619 518.618 56.2698 515.881 Q52.5777 513.144 46.212 513.144 Q39.8781 513.144 36.186 515.881 Q32.4621 518.618 32.4621 523.297 M27.4968 523.297 Q27.4968 515.658 32.4621 511.298 Q37.4273 506.937 46.212 506.937 Q54.9649 506.937 59.9619 511.298 Q64.9272 515.658 64.9272 523.297 Q64.9272 530.968 59.9619 535.328 Q54.9649 539.657 46.212 539.657 Q37.4273 539.657 32.4621 535.328 Q27.4968 530.968 27.4968 523.297 Z" fill="#000000" fill-rule="nonzero" fill-opacity="1" /><path clip-path="url(#clip810)" d="M42.4881 467.597 L64.0042 467.597 L64.0042 473.453 L42.679 473.453 Q37.6183 473.453 35.1038 475.427 Q32.5894 477.4 32.5894 481.347 Q32.5894 486.089 35.6131 488.827 Q38.6368 491.564 43.8567 491.564 L64.0042 491.564 L64.0042 497.452 L28.3562 497.452 L28.3562 491.564 L33.8944 491.564 Q30.6797 489.463 29.0883 486.63 Q27.4968 483.766 27.4968 480.042 Q27.4968 473.899 31.3163 470.748 Q35.1038 467.597 42.4881 467.597 Z" fill="#000000" fill-rule="nonzero" fill-opacity="1" /><path clip-path="url(#clip810)" d="M766.195 12.096 L800.952 12.096 L800.952 18.9825 L774.378 18.9825 L774.378 36.8065 L798.359 36.8065 L798.359 43.6931 L774.378 43.6931 L774.378 72.576 L766.195 72.576 L766.195 12.096 Z" fill="#000000" fill-rule="nonzero" fill-opacity="1" /><path clip-path="url(#clip810)" d="M833.845 34.1734 Q832.59 33.4443 831.091 33.1202 Q829.632 32.7556 827.85 32.7556 Q821.531 32.7556 818.128 36.8875 Q814.766 40.9789 814.766 48.6757 L814.766 72.576 L807.271 72.576 L807.271 27.2059 L814.766 27.2059 L814.766 34.2544 Q817.115 30.1225 820.882 28.1376 Q824.65 26.1121 830.037 26.1121 Q830.807 26.1121 831.739 26.2337 Q832.671 26.3147 833.805 26.5172 L833.845 34.1734 Z" fill="#000000" fill-rule="nonzero" fill-opacity="1" /><path clip-path="url(#clip810)" d="M862.283 49.7694 Q853.249 49.7694 849.765 51.8354 Q846.282 53.9013 846.282 58.8839 Q846.282 62.8538 848.874 65.2034 Q851.507 67.5124 856.004 67.5124 Q862.202 67.5124 865.929 63.1374 Q869.696 58.7219 869.696 51.4303 L869.696 49.7694 L862.283 49.7694 M877.15 46.6907 L877.15 72.576 L869.696 72.576 L869.696 65.6895 Q867.144 69.8214 863.336 71.8063 Q859.528 73.7508 854.019 73.7508 Q847.051 73.7508 842.919 69.8619 Q838.828 65.9325 838.828 59.3701 Q838.828 51.7138 843.932 47.825 Q849.077 43.9361 859.245 43.9361 L869.696 43.9361 L869.696 43.2069 Q869.696 38.0623 866.293 35.2672 Q862.931 32.4315 856.814 32.4315 Q852.925 32.4315 849.239 33.3632 Q845.552 34.295 842.15 36.1584 L842.15 29.2718 Q846.241 27.692 850.089 26.9223 Q853.938 26.1121 857.584 26.1121 Q867.427 26.1121 872.288 31.2163 Q877.15 36.3204 877.15 46.6907 Z" fill="#000000" fill-rule="nonzero" fill-opacity="1" /><path clip-path="url(#clip810)" d="M925.153 28.9478 L925.153 35.9153 Q921.993 34.1734 918.793 33.3227 Q915.633 32.4315 912.392 32.4315 Q905.141 32.4315 901.131 37.0496 Q897.12 41.6271 897.12 49.9314 Q897.12 58.2358 901.131 62.8538 Q905.141 67.4314 912.392 67.4314 Q915.633 67.4314 918.793 66.5807 Q921.993 65.6895 925.153 63.9476 L925.153 70.8341 Q922.034 72.2924 918.671 73.0216 Q915.35 73.7508 911.582 73.7508 Q901.333 73.7508 895.298 67.3098 Q889.262 60.8689 889.262 49.9314 Q889.262 38.832 895.338 32.472 Q901.455 26.1121 912.068 26.1121 Q915.512 26.1121 918.793 26.8413 Q922.074 27.5299 925.153 28.9478 Z" fill="#000000" fill-rule="nonzero" fill-opacity="1" /><path clip-path="url(#clip810)" d="M945.488 14.324 L945.488 27.2059 L960.841 27.2059 L960.841 32.9987 L945.488 32.9987 L945.488 57.6282 Q945.488 63.1779 946.987 64.7578 Q948.526 66.3376 953.185 66.3376 L960.841 66.3376 L960.841 72.576 L953.185 72.576 Q944.557 72.576 941.275 69.3758 Q937.994 66.1351 937.994 57.6282 L937.994 32.9987 L932.525 32.9987 L932.525 27.2059 L937.994 27.2059 L937.994 14.324 L945.488 14.324 Z" fill="#000000" fill-rule="nonzero" fill-opacity="1" /><path clip-path="url(#clip810)" d="M970.644 27.2059 L978.098 27.2059 L978.098 72.576 L970.644 72.576 L970.644 27.2059 M970.644 9.54393 L978.098 9.54393 L978.098 18.9825 L970.644 18.9825 L970.644 9.54393 Z" fill="#000000" fill-rule="nonzero" fill-opacity="1" /><path clip-path="url(#clip810)" d="M1011.27 32.4315 Q1005.28 32.4315 1001.8 37.1306 Q998.312 41.7891 998.312 49.9314 Q998.312 58.0738 1001.76 62.7728 Q1005.24 67.4314 1011.27 67.4314 Q1017.23 67.4314 1020.71 62.7323 Q1024.2 58.0333 1024.2 49.9314 Q1024.2 41.8701 1020.71 37.1711 Q1017.23 32.4315 1011.27 32.4315 M1011.27 26.1121 Q1021 26.1121 1026.55 32.4315 Q1032.1 38.7509 1032.1 49.9314 Q1032.1 61.0714 1026.55 67.4314 Q1021 73.7508 1011.27 73.7508 Q1001.51 73.7508 995.963 67.4314 Q990.453 61.0714 990.453 49.9314 Q990.453 38.7509 995.963 32.4315 Q1001.51 26.1121 1011.27 26.1121 Z" fill="#000000" fill-rule="nonzero" fill-opacity="1" /><path clip-path="url(#clip810)" d="M1082.17 45.1919 L1082.17 72.576 L1074.71 72.576 L1074.71 45.4349 Q1074.71 38.994 1072.2 35.7938 Q1069.69 32.5936 1064.67 32.5936 Q1058.63 32.5936 1055.15 36.4419 Q1051.66 40.2903 1051.66 46.9338 L1051.66 72.576 L1044.17 72.576 L1044.17 27.2059 L1051.66 27.2059 L1051.66 34.2544 Q1054.34 30.163 1057.94 28.1376 Q1061.59 26.1121 1066.33 26.1121 Q1074.14 26.1121 1078.16 30.9732 Q1082.17 35.7938 1082.17 45.1919 Z" fill="#000000" fill-rule="nonzero" fill-opacity="1" /><path clip-path="url(#clip810)" d="M1118.06 27.2059 L1125.96 27.2059 L1140.13 65.2844 L1154.31 27.2059 L1162.21 27.2059 L1145.2 72.576 L1135.07 72.576 L1118.06 27.2059 Z" fill="#000000" fill-rule="nonzero" fill-opacity="1" /><path clip-path="url(#clip810)" d="M1201.42 28.5427 L1201.42 35.5912 Q1198.26 33.9709 1194.86 33.1607 Q1191.46 32.3505 1187.81 32.3505 Q1182.26 32.3505 1179.47 34.0519 Q1176.71 35.7533 1176.71 39.156 Q1176.71 41.7486 1178.7 43.2475 Q1180.68 44.7058 1186.68 46.0426 L1189.23 46.6097 Q1197.17 48.3111 1200.49 51.4303 Q1203.85 54.509 1203.85 60.0587 Q1203.85 66.3781 1198.83 70.0644 Q1193.85 73.7508 1185.1 73.7508 Q1181.45 73.7508 1177.48 73.0216 Q1173.55 72.3329 1169.18 70.9151 L1169.18 63.2184 Q1173.31 65.3654 1177.32 66.4591 Q1181.33 67.5124 1185.26 67.5124 Q1190.53 67.5124 1193.36 65.73 Q1196.2 63.9071 1196.2 60.6258 Q1196.2 57.5877 1194.13 55.9673 Q1192.11 54.3469 1185.18 52.8481 L1182.59 52.2405 Q1175.66 50.7821 1172.58 47.7845 Q1169.5 44.7463 1169.5 39.4801 Q1169.5 33.0797 1174.04 29.5959 Q1178.58 26.1121 1186.92 26.1121 Q1191.05 26.1121 1194.7 26.7198 Q1198.35 27.3274 1201.42 28.5427 Z" fill="#000000" fill-rule="nonzero" fill-opacity="1" /><path clip-path="url(#clip810)" d="M1216.78 62.2867 L1225.32 62.2867 L1225.32 72.576 L1216.78 72.576 L1216.78 62.2867 Z" fill="#000000" fill-rule="nonzero" fill-opacity="1" /><path clip-path="url(#clip810)" d="M1260.41 12.096 L1311.57 12.096 L1311.57 18.9825 L1290.1 18.9825 L1290.1 72.576 L1281.88 72.576 L1281.88 18.9825 L1260.41 18.9825 L1260.41 12.096 Z" fill="#000000" fill-rule="nonzero" fill-opacity="1" /><path clip-path="url(#clip810)" d="M1333.24 34.1734 Q1331.99 33.4443 1330.49 33.1202 Q1329.03 32.7556 1327.25 32.7556 Q1320.93 32.7556 1317.52 36.8875 Q1314.16 40.9789 1314.16 48.6757 L1314.16 72.576 L1306.67 72.576 L1306.67 27.2059 L1314.16 27.2059 L1314.16 34.2544 Q1316.51 30.1225 1320.28 28.1376 Q1324.05 26.1121 1329.43 26.1121 Q1330.2 26.1121 1331.13 26.2337 Q1332.07 26.3147 1333.2 26.5172 L1333.24 34.1734 Z" fill="#000000" fill-rule="nonzero" fill-opacity="1" /><path clip-path="url(#clip810)" d="M1361.68 49.7694 Q1352.64 49.7694 1349.16 51.8354 Q1345.68 53.9013 1345.68 58.8839 Q1345.68 62.8538 1348.27 65.2034 Q1350.9 67.5124 1355.4 67.5124 Q1361.6 67.5124 1365.32 63.1374 Q1369.09 58.7219 1369.09 51.4303 L1369.09 49.7694 L1361.68 49.7694 M1376.54 46.6907 L1376.54 72.576 L1369.09 72.576 L1369.09 65.6895 Q1366.54 69.8214 1362.73 71.8063 Q1358.92 73.7508 1353.41 73.7508 Q1346.45 73.7508 1342.31 69.8619 Q1338.22 65.9325 1338.22 59.3701 Q1338.22 51.7138 1343.33 47.825 Q1348.47 43.9361 1358.64 43.9361 L1369.09 43.9361 L1369.09 43.2069 Q1369.09 38.0623 1365.69 35.2672 Q1362.33 32.4315 1356.21 32.4315 Q1352.32 32.4315 1348.63 33.3632 Q1344.95 34.295 1341.55 36.1584 L1341.55 29.2718 Q1345.64 27.692 1349.48 26.9223 Q1353.33 26.1121 1356.98 26.1121 Q1366.82 26.1121 1371.68 31.2163 Q1376.54 36.3204 1376.54 46.6907 Z" fill="#000000" fill-rule="nonzero" fill-opacity="1" /><path clip-path="url(#clip810)" d="M1429.61 45.1919 L1429.61 72.576 L1422.16 72.576 L1422.16 45.4349 Q1422.16 38.994 1419.65 35.7938 Q1417.14 32.5936 1412.11 32.5936 Q1406.08 32.5936 1402.59 36.4419 Q1399.11 40.2903 1399.11 46.9338 L1399.11 72.576 L1391.61 72.576 L1391.61 27.2059 L1399.11 27.2059 L1399.11 34.2544 Q1401.78 30.163 1405.39 28.1376 Q1409.03 26.1121 1413.77 26.1121 Q1421.59 26.1121 1425.6 30.9732 Q1429.61 35.7938 1429.61 45.1919 Z" fill="#000000" fill-rule="nonzero" fill-opacity="1" /><path clip-path="url(#clip810)" d="M1473.4 28.5427 L1473.4 35.5912 Q1470.24 33.9709 1466.84 33.1607 Q1463.44 32.3505 1459.79 32.3505 Q1454.24 32.3505 1451.45 34.0519 Q1448.69 35.7533 1448.69 39.156 Q1448.69 41.7486 1450.68 43.2475 Q1452.66 44.7058 1458.66 46.0426 L1461.21 46.6097 Q1469.15 48.3111 1472.47 51.4303 Q1475.83 54.509 1475.83 60.0587 Q1475.83 66.3781 1470.81 70.0644 Q1465.83 73.7508 1457.08 73.7508 Q1453.43 73.7508 1449.46 73.0216 Q1445.53 72.3329 1441.16 70.9151 L1441.16 63.2184 Q1445.29 65.3654 1449.3 66.4591 Q1453.31 67.5124 1457.24 67.5124 Q1462.51 67.5124 1465.34 65.73 Q1468.18 63.9071 1468.18 60.6258 Q1468.18 57.5877 1466.11 55.9673 Q1464.09 54.3469 1457.16 52.8481 L1454.57 52.2405 Q1447.64 50.7821 1444.56 47.7845 Q1441.48 44.7463 1441.48 39.4801 Q1441.48 33.0797 1446.02 29.5959 Q1450.55 26.1121 1458.9 26.1121 Q1463.03 26.1121 1466.68 26.7198 Q1470.32 27.3274 1473.4 28.5427 Z" fill="#000000" fill-rule="nonzero" fill-opacity="1" /><path clip-path="url(#clip810)" d="M1510.67 9.54393 L1510.67 15.7418 L1503.54 15.7418 Q1499.53 15.7418 1497.95 17.3622 Q1496.41 18.9825 1496.41 23.1955 L1496.41 27.2059 L1508.69 27.2059 L1508.69 32.9987 L1496.41 32.9987 L1496.41 72.576 L1488.92 72.576 L1488.92 32.9987 L1481.79 32.9987 L1481.79 27.2059 L1488.92 27.2059 L1488.92 24.0462 Q1488.92 16.471 1492.44 13.0277 Q1495.97 9.54393 1503.62 9.54393 L1510.67 9.54393 Z" fill="#000000" fill-rule="nonzero" fill-opacity="1" /><path clip-path="url(#clip810)" d="M1555.72 48.0275 L1555.72 51.6733 L1521.45 51.6733 Q1521.93 59.3701 1526.06 63.421 Q1530.24 67.4314 1537.65 67.4314 Q1541.94 67.4314 1545.95 66.3781 Q1550 65.3249 1553.97 63.2184 L1553.97 70.267 Q1549.96 71.9684 1545.75 72.8596 Q1541.54 73.7508 1537.2 73.7508 Q1526.35 73.7508 1519.99 67.4314 Q1513.67 61.1119 1513.67 50.3365 Q1513.67 39.1965 1519.66 32.6746 Q1525.7 26.1121 1535.91 26.1121 Q1545.06 26.1121 1550.37 32.0264 Q1555.72 37.9003 1555.72 48.0275 M1548.26 45.84 Q1548.18 39.7232 1544.82 36.0774 Q1541.5 32.4315 1535.99 32.4315 Q1529.75 32.4315 1525.98 35.9558 Q1522.26 39.4801 1521.69 45.8805 L1548.26 45.84 Z" fill="#000000" fill-rule="nonzero" fill-opacity="1" /><path clip-path="url(#clip810)" d="M1594.24 34.1734 Q1592.98 33.4443 1591.49 33.1202 Q1590.03 32.7556 1588.25 32.7556 Q1581.93 32.7556 1578.52 36.8875 Q1575.16 40.9789 1575.16 48.6757 L1575.16 72.576 L1567.67 72.576 L1567.67 27.2059 L1575.16 27.2059 L1575.16 34.2544 Q1577.51 30.1225 1581.28 28.1376 Q1585.05 26.1121 1590.43 26.1121 Q1591.2 26.1121 1592.13 26.2337 Q1593.07 26.3147 1594.2 26.5172 L1594.24 34.1734 Z" fill="#000000" fill-rule="nonzero" fill-opacity="1" /><path clip-path="url(#clip810)" d="M1657.43 44.2197 Q1660.07 45.1109 1662.54 48.0275 Q1665.05 50.9442 1667.56 56.0483 L1675.87 72.576 L1667.08 72.576 L1659.34 57.061 Q1656.34 50.9847 1653.51 48.9997 Q1650.71 47.0148 1645.85 47.0148 L1636.94 47.0148 L1636.94 72.576 L1628.75 72.576 L1628.75 12.096 L1647.23 12.096 Q1657.6 12.096 1662.7 16.4305 Q1667.8 20.7649 1667.8 29.5149 Q1667.8 35.2267 1665.13 38.994 Q1662.5 42.7613 1657.43 44.2197 M1636.94 18.8205 L1636.94 40.2903 L1647.23 40.2903 Q1653.14 40.2903 1656.14 37.5762 Q1659.18 34.8216 1659.18 29.5149 Q1659.18 24.2082 1656.14 21.5346 Q1653.14 18.8205 1647.23 18.8205 L1636.94 18.8205 Z" fill="#000000" fill-rule="nonzero" fill-opacity="1" /><path clip-path="url(#clip810)" d="M1704.87 49.7694 Q1695.84 49.7694 1692.35 51.8354 Q1688.87 53.9013 1688.87 58.8839 Q1688.87 62.8538 1691.46 65.2034 Q1694.1 67.5124 1698.59 67.5124 Q1704.79 67.5124 1708.52 63.1374 Q1712.28 58.7219 1712.28 51.4303 L1712.28 49.7694 L1704.87 49.7694 M1719.74 46.6907 L1719.74 72.576 L1712.28 72.576 L1712.28 65.6895 Q1709.73 69.8214 1705.92 71.8063 Q1702.12 73.7508 1696.61 73.7508 Q1689.64 73.7508 1685.51 69.8619 Q1681.42 65.9325 1681.42 59.3701 Q1681.42 51.7138 1686.52 47.825 Q1691.66 43.9361 1701.83 43.9361 L1712.28 43.9361 L1712.28 43.2069 Q1712.28 38.0623 1708.88 35.2672 Q1705.52 32.4315 1699.4 32.4315 Q1695.51 32.4315 1691.83 33.3632 Q1688.14 34.295 1684.74 36.1584 L1684.74 29.2718 Q1688.83 27.692 1692.68 26.9223 Q1696.53 26.1121 1700.17 26.1121 Q1710.02 26.1121 1714.88 31.2163 Q1719.74 36.3204 1719.74 46.6907 Z" fill="#000000" fill-rule="nonzero" fill-opacity="1" /><path clip-path="url(#clip810)" d="M1742.46 14.324 L1742.46 27.2059 L1757.82 27.2059 L1757.82 32.9987 L1742.46 32.9987 L1742.46 57.6282 Q1742.46 63.1779 1743.96 64.7578 Q1745.5 66.3376 1750.16 66.3376 L1757.82 66.3376 L1757.82 72.576 L1750.16 72.576 Q1741.53 72.576 1738.25 69.3758 Q1734.97 66.1351 1734.97 57.6282 L1734.97 32.9987 L1729.5 32.9987 L1729.5 27.2059 L1734.97 27.2059 L1734.97 14.324 L1742.46 14.324 Z" fill="#000000" fill-rule="nonzero" fill-opacity="1" /><path clip-path="url(#clip810)" d="M1806.43 48.0275 L1806.43 51.6733 L1772.16 51.6733 Q1772.64 59.3701 1776.77 63.421 Q1780.95 67.4314 1788.36 67.4314 Q1792.65 67.4314 1796.66 66.3781 Q1800.72 65.3249 1804.69 63.2184 L1804.69 70.267 Q1800.67 71.9684 1796.46 72.8596 Q1792.25 73.7508 1787.91 73.7508 Q1777.06 73.7508 1770.7 67.4314 Q1764.38 61.1119 1764.38 50.3365 Q1764.38 39.1965 1770.37 32.6746 Q1776.41 26.1121 1786.62 26.1121 Q1795.77 26.1121 1801.08 32.0264 Q1806.43 37.9003 1806.43 48.0275 M1798.97 45.84 Q1798.89 39.7232 1795.53 36.0774 Q1792.21 32.4315 1786.7 32.4315 Q1780.46 32.4315 1776.69 35.9558 Q1772.97 39.4801 1772.4 45.8805 L1798.97 45.84 Z" fill="#000000" fill-rule="nonzero" fill-opacity="1" /><polyline clip-path="url(#clip812)" style="stroke:#d6181c; stroke-linecap:round; stroke-linejoin:round; stroke-width:16; stroke-opacity:1; fill:none" points="280.231,188.784 320.474,188.662 360.717,189.118 400.961,194.867 441.204,534.144 481.447,896.22 521.69,1089.35 561.933,1199 602.177,1265.44 642.42,1308.14 682.663,1336.93 722.906,1357.13 763.149,1371.78 803.393,1382.67 843.636,1390.94 883.879,1397.31 924.122,1402.29 964.365,1406.21 1004.61,1409.32 1044.85,1411.81 1085.1,1413.8 1125.34,1415.41 1165.58,1416.7 1205.82,1417.75 1246.07,1418.6 1286.31,1419.29 1326.55,1419.85 1366.8,1420.32 1407.04,1420.7 1447.28,1421.02 1487.53,1421.28 1527.77,1421.5 1568.01,1421.69 1608.26,1421.85 1648.5,1421.99 1688.74,1422.11 1728.99,1422.21 1769.23,1422.3 1809.47,1422.38 1849.72,1422.44 1889.96,1422.5 1930.2,1422.56 1970.45,1422.6 2010.69,1422.65 2050.93,1422.68 2091.18,1422.72 2131.42,1422.75 2171.66,1422.78 2211.9,1422.8 2252.15,1422.82 2292.39,1422.84 "/>
<polyline clip-path="url(#clip812)" style="stroke:#fcad60; stroke-linecap:round; stroke-linejoin:round; stroke-width:16; stroke-opacity:1; fill:none" points="280.231,1423.18 320.474,1423.18 360.717,1423.18 400.961,1420.08 441.204,1258.5 481.447,1110.47 521.69,1054.03 561.933,1039.21 602.177,1044.1 642.42,1058.88 682.663,1078.63 722.906,1100.71 763.149,1123.88 803.393,1147.07 843.636,1169.83 883.879,1191.72 924.122,1212.55 964.365,1232.02 1004.61,1250.06 1044.85,1266.66 1085.1,1281.75 1125.34,1295.37 1165.58,1307.55 1205.82,1318.41 1246.07,1327.98 1286.31,1336.44 1326.55,1343.88 1366.8,1350.42 1407.04,1356.18 1447.28,1361.24 1487.53,1365.72 1527.77,1369.68 1568.01,1373.2 1608.26,1376.34 1648.5,1379.14 1688.74,1381.66 1728.99,1383.94 1769.23,1385.99 1809.47,1387.85 1849.72,1389.55 1889.96,1391.1 1930.2,1392.53 1970.45,1393.84 2010.69,1395.04 2050.93,1396.16 2091.18,1397.19 2131.42,1398.15 2171.66,1399.05 2211.9,1399.89 2252.15,1400.67 2292.39,1401.4 "/>
<polyline clip-path="url(#clip812)" style="stroke:#abdda3; stroke-linecap:round; stroke-linejoin:round; stroke-width:16; stroke-opacity:1; fill:none" points="280.231,1423.18 320.474,1423.18 360.717,1423.18 400.961,1420.08 441.204,1258.5 481.447,1110.47 521.69,1054.03 561.933,1039.21 602.177,1044.1 642.42,1058.88 682.663,1078.63 722.906,1100.71 763.149,1123.88 803.393,1147.07 843.636,1169.83 883.879,1191.72 924.122,1212.55 964.365,1232.02 1004.61,1250.06 1044.85,1266.66 1085.1,1281.75 1125.34,1295.37 1165.58,1307.55 1205.82,1318.41 1246.07,1327.98 1286.31,1336.44 1326.55,1343.88 1366.8,1350.42 1407.04,1356.18 1447.28,1361.24 1487.53,1365.72 1527.77,1369.68 1568.01,1373.2 1608.26,1376.34 1648.5,1379.14 1688.74,1381.66 1728.99,1383.94 1769.23,1385.99 1809.47,1387.85 1849.72,1389.55 1889.96,1391.1 1930.2,1392.53 1970.45,1393.84 2010.69,1395.04 2050.93,1396.16 2091.18,1397.19 2131.42,1398.15 2171.66,1399.05 2211.9,1399.89 2252.15,1400.67 2292.39,1401.4 "/>
<polyline clip-path="url(#clip812)" style="stroke:#2b83b9; stroke-linecap:round; stroke-linejoin:round; stroke-width:16; stroke-opacity:1; fill:none" points="280.231,1423.18 320.474,1423.18 360.717,1423.18 400.961,1423.18 441.204,1409.29 481.447,1347.13 521.69,1270.36 561.933,1193.45 602.177,1119.98 642.42,1050.55 682.663,984.985 722.906,923.014 763.149,864.682 803.393,809.788 843.636,758.47 883.879,710.682 924.122,666.549 964.365,625.887 1004.61,588.706 1044.85,555.046 1085.1,524.736 1125.34,497.693 1165.58,473.599 1205.82,452.447 1246.07,433.643 1286.31,417.218 1326.55,402.833 1366.8,390.243 1407.04,379.308 1447.28,369.54 1487.53,361.07 1527.77,353.449 1568.01,346.855 1608.26,340.881 1648.5,335.491 1688.74,330.801 1728.99,326.569 1769.23,322.657 1809.47,319.076 1849.72,315.888 1889.96,312.97 1930.2,310.414 1970.45,307.851 2010.69,305.565 2050.93,303.474 2091.18,301.542 2131.42,299.765 2171.66,298.184 2211.9,296.593 2252.15,295.072 2292.39,293.705 "/>
<path clip-path="url(#clip810)" d="M1984.55 920.33 L2281.66 920.33 L2281.66 661.13 L1984.55 661.13  Z" fill="#ffffff" fill-rule="evenodd" fill-opacity="1"/>
<polyline clip-path="url(#clip810)" style="stroke:#000000; stroke-linecap:round; stroke-linejoin:round; stroke-width:4; stroke-opacity:1; fill:none" points="1984.55,920.33 2281.66,920.33 2281.66,661.13 1984.55,661.13 1984.55,920.33 "/>
<polyline clip-path="url(#clip810)" style="stroke:#d6181c; stroke-linecap:round; stroke-linejoin:round; stroke-width:16; stroke-opacity:1; fill:none" points="2008.25,712.97 2150.44,712.97 "/>
<path clip-path="url(#clip810)" d="M2174.14 704.324 L2178.66 704.324 L2186.76 726.083 L2194.86 704.324 L2199.37 704.324 L2189.65 730.25 L2183.86 730.25 L2174.14 704.324 Z" fill="#000000" fill-rule="nonzero" fill-opacity="1" /><path clip-path="url(#clip810)" d="M2215.85 698.768 Q2212.24 698.768 2210.41 702.333 Q2208.61 705.875 2208.61 713.004 Q2208.61 720.111 2210.41 723.676 Q2212.24 727.217 2215.85 727.217 Q2219.49 727.217 2221.29 723.676 Q2223.12 720.111 2223.12 713.004 Q2223.12 705.875 2221.29 702.333 Q2219.49 698.768 2215.85 698.768 M2215.85 695.065 Q2221.66 695.065 2224.72 699.671 Q2227.8 704.254 2227.8 713.004 Q2227.8 721.731 2224.72 726.338 Q2221.66 730.921 2215.85 730.921 Q2210.04 730.921 2206.97 726.338 Q2203.91 721.731 2203.91 713.004 Q2203.91 704.254 2206.97 699.671 Q2210.04 695.065 2215.85 695.065 Z" fill="#000000" fill-rule="nonzero" fill-opacity="1" /><path clip-path="url(#clip810)" d="M2246.02 698.768 Q2242.41 698.768 2240.58 702.333 Q2238.77 705.875 2238.77 713.004 Q2238.77 720.111 2240.58 723.676 Q2242.41 727.217 2246.02 727.217 Q2249.65 727.217 2251.46 723.676 Q2253.28 720.111 2253.28 713.004 Q2253.28 705.875 2251.46 702.333 Q2249.65 698.768 2246.02 698.768 M2246.02 695.065 Q2251.83 695.065 2254.88 699.671 Q2257.96 704.254 2257.96 713.004 Q2257.96 721.731 2254.88 726.338 Q2251.83 730.921 2246.02 730.921 Q2240.21 730.921 2237.13 726.338 Q2234.07 721.731 2234.07 713.004 Q2234.07 704.254 2237.13 699.671 Q2240.21 695.065 2246.02 695.065 Z" fill="#000000" fill-rule="nonzero" fill-opacity="1" /><polyline clip-path="url(#clip810)" style="stroke:#fcad60; stroke-linecap:round; stroke-linejoin:round; stroke-width:16; stroke-opacity:1; fill:none" points="2008.25,764.81 2150.44,764.81 "/>
<path clip-path="url(#clip810)" d="M2174.14 756.164 L2178.66 756.164 L2186.76 777.923 L2194.86 756.164 L2199.37 756.164 L2189.65 782.09 L2183.86 782.09 L2174.14 756.164 Z" fill="#000000" fill-rule="nonzero" fill-opacity="1" /><path clip-path="url(#clip810)" d="M2206.66 778.154 L2214.3 778.154 L2214.3 751.789 L2205.99 753.455 L2205.99 749.196 L2214.26 747.53 L2218.93 747.53 L2218.93 778.154 L2226.57 778.154 L2226.57 782.09 L2206.66 782.09 L2206.66 778.154 Z" fill="#000000" fill-rule="nonzero" fill-opacity="1" /><path clip-path="url(#clip810)" d="M2246.02 750.608 Q2242.41 750.608 2240.58 754.173 Q2238.77 757.715 2238.77 764.844 Q2238.77 771.951 2240.58 775.516 Q2242.41 779.057 2246.02 779.057 Q2249.65 779.057 2251.46 775.516 Q2253.28 771.951 2253.28 764.844 Q2253.28 757.715 2251.46 754.173 Q2249.65 750.608 2246.02 750.608 M2246.02 746.905 Q2251.83 746.905 2254.88 751.511 Q2257.96 756.094 2257.96 764.844 Q2257.96 773.571 2254.88 778.178 Q2251.83 782.761 2246.02 782.761 Q2240.21 782.761 2237.13 778.178 Q2234.07 773.571 2234.07 764.844 Q2234.07 756.094 2237.13 751.511 Q2240.21 746.905 2246.02 746.905 Z" fill="#000000" fill-rule="nonzero" fill-opacity="1" /><polyline clip-path="url(#clip810)" style="stroke:#abdda3; stroke-linecap:round; stroke-linejoin:round; stroke-width:16; stroke-opacity:1; fill:none" points="2008.25,816.65 2150.44,816.65 "/>
<path clip-path="url(#clip810)" d="M2174.14 808.004 L2178.66 808.004 L2186.76 829.763 L2194.86 808.004 L2199.37 808.004 L2189.65 833.93 L2183.86 833.93 L2174.14 808.004 Z" fill="#000000" fill-rule="nonzero" fill-opacity="1" /><path clip-path="url(#clip810)" d="M2215.85 802.448 Q2212.24 802.448 2210.41 806.013 Q2208.61 809.555 2208.61 816.684 Q2208.61 823.791 2210.41 827.356 Q2212.24 830.897 2215.85 830.897 Q2219.49 830.897 2221.29 827.356 Q2223.12 823.791 2223.12 816.684 Q2223.12 809.555 2221.29 806.013 Q2219.49 802.448 2215.85 802.448 M2215.85 798.745 Q2221.66 798.745 2224.72 803.351 Q2227.8 807.934 2227.8 816.684 Q2227.8 825.411 2224.72 830.018 Q2221.66 834.601 2215.85 834.601 Q2210.04 834.601 2206.97 830.018 Q2203.91 825.411 2203.91 816.684 Q2203.91 807.934 2206.97 803.351 Q2210.04 798.745 2215.85 798.745 Z" fill="#000000" fill-rule="nonzero" fill-opacity="1" /><path clip-path="url(#clip810)" d="M2236.83 829.994 L2244.47 829.994 L2244.47 803.629 L2236.16 805.295 L2236.16 801.036 L2244.42 799.37 L2249.1 799.37 L2249.1 829.994 L2256.73 829.994 L2256.73 833.93 L2236.83 833.93 L2236.83 829.994 Z" fill="#000000" fill-rule="nonzero" fill-opacity="1" /><polyline clip-path="url(#clip810)" style="stroke:#2b83b9; stroke-linecap:round; stroke-linejoin:round; stroke-width:16; stroke-opacity:1; fill:none" points="2008.25,868.49 2150.44,868.49 "/>
<path clip-path="url(#clip810)" d="M2174.14 859.844 L2178.66 859.844 L2186.76 881.603 L2194.86 859.844 L2199.37 859.844 L2189.65 885.77 L2183.86 885.77 L2174.14 859.844 Z" fill="#000000" fill-rule="nonzero" fill-opacity="1" /><path clip-path="url(#clip810)" d="M2206.66 881.834 L2214.3 881.834 L2214.3 855.469 L2205.99 857.135 L2205.99 852.876 L2214.26 851.21 L2218.93 851.21 L2218.93 881.834 L2226.57 881.834 L2226.57 885.77 L2206.66 885.77 L2206.66 881.834 Z" fill="#000000" fill-rule="nonzero" fill-opacity="1" /><path clip-path="url(#clip810)" d="M2236.83 881.834 L2244.47 881.834 L2244.47 855.469 L2236.16 857.135 L2236.16 852.876 L2244.42 851.21 L2249.1 851.21 L2249.1 881.834 L2256.73 881.834 L2256.73 885.77 L2236.83 885.77 L2236.83 881.834 Z" fill="#000000" fill-rule="nonzero" fill-opacity="1" /></svg>
