<?xml version="1.0" encoding="utf-8"?>
<svg xmlns="http://www.w3.org/2000/svg" xmlns:xlink="http://www.w3.org/1999/xlink" width="600" height="400" viewBox="0 0 2400 1600">
<defs>
  <clipPath id="clip210">
    <rect x="0" y="0" width="2400" height="1600"/>
  </clipPath>
</defs>
<path clip-path="url(#clip210)" d="M0 1600 L2400 1600 L2400 0 L0 0  Z" fill="#ffffff" fill-rule="evenodd" fill-opacity="1"/>
<defs>
  <clipPath id="clip211">
    <rect x="480" y="0" width="1681" height="1600"/>
  </clipPath>
</defs>
<path clip-path="url(#clip210)" d="M219.866 1423.18 L2352.76 1423.18 L2352.76 123.472 L219.866 123.472  Z" fill="#ffffff" fill-rule="evenodd" fill-opacity="1"/>
<defs>
  <clipPath id="clip212">
    <rect x="219" y="123" width="2134" height="1301"/>
  </clipPath>
</defs>
<polyline clip-path="url(#clip210)" style="stroke:#000000; stroke-linecap:round; stroke-linejoin:round; stroke-width:4; stroke-opacity:1; fill:none" points="219.866,1423.18 2352.76,1423.18 "/>
<polyline clip-path="url(#clip210)" style="stroke:#000000; stroke-linecap:round; stroke-linejoin:round; stroke-width:4; stroke-opacity:1; fill:none" points="280.231,1423.18 280.231,1404.28 "/>
<polyline clip-path="url(#clip210)" style="stroke:#000000; stroke-linecap:round; stroke-linejoin:round; stroke-width:4; stroke-opacity:1; fill:none" points="783.271,1423.18 783.271,1404.28 "/>
<polyline clip-path="url(#clip210)" style="stroke:#000000; stroke-linecap:round; stroke-linejoin:round; stroke-width:4; stroke-opacity:1; fill:none" points="1286.31,1423.18 1286.31,1404.28 "/>
<polyline clip-path="url(#clip210)" style="stroke:#000000; stroke-linecap:round; stroke-linejoin:round; stroke-width:4; stroke-opacity:1; fill:none" points="1789.35,1423.18 1789.35,1404.28 "/>
<polyline clip-path="url(#clip210)" style="stroke:#000000; stroke-linecap:round; stroke-linejoin:round; stroke-width:4; stroke-opacity:1; fill:none" points="2292.39,1423.18 2292.39,1404.28 "/>
<path clip-path="url(#clip210)" d="M280.231 1454.1 Q276.62 1454.1 274.791 1457.66 Q272.986 1461.2 272.986 1468.33 Q272.986 1475.44 274.791 1479.01 Q276.62 1482.55 280.231 1482.55 Q283.865 1482.55 285.671 1479.01 Q287.5 1475.44 287.5 1468.33 Q287.5 1461.2 285.671 1457.66 Q283.865 1454.1 280.231 1454.1 M280.231 1450.39 Q286.041 1450.39 289.097 1455 Q292.175 1459.58 292.175 1468.33 Q292.175 1477.06 289.097 1481.67 Q286.041 1486.25 280.231 1486.25 Q274.421 1486.25 271.342 1481.67 Q268.287 1477.06 268.287 1468.33 Q268.287 1459.58 271.342 1455 Q274.421 1450.39 280.231 1450.39 Z" fill="#000000" fill-rule="nonzero" fill-opacity="1" /><path clip-path="url(#clip210)" d="M757.97 1451.02 L776.327 1451.02 L776.327 1454.96 L762.253 1454.96 L762.253 1463.43 Q763.271 1463.08 764.29 1462.92 Q765.308 1462.73 766.327 1462.73 Q772.114 1462.73 775.493 1465.9 Q778.873 1469.08 778.873 1474.49 Q778.873 1480.07 775.401 1483.17 Q771.929 1486.25 765.609 1486.25 Q763.433 1486.25 761.165 1485.88 Q758.919 1485.51 756.512 1484.77 L756.512 1480.07 Q758.595 1481.2 760.817 1481.76 Q763.04 1482.32 765.517 1482.32 Q769.521 1482.32 771.859 1480.21 Q774.197 1478.1 774.197 1474.49 Q774.197 1470.88 771.859 1468.77 Q769.521 1466.67 765.517 1466.67 Q763.642 1466.67 761.767 1467.08 Q759.915 1467.5 757.97 1468.38 L757.97 1451.02 Z" fill="#000000" fill-rule="nonzero" fill-opacity="1" /><path clip-path="url(#clip210)" d="M798.086 1454.1 Q794.475 1454.1 792.646 1457.66 Q790.84 1461.2 790.84 1468.33 Q790.84 1475.44 792.646 1479.01 Q794.475 1482.55 798.086 1482.55 Q801.72 1482.55 803.526 1479.01 Q805.354 1475.44 805.354 1468.33 Q805.354 1461.2 803.526 1457.66 Q801.72 1454.1 798.086 1454.1 M798.086 1450.39 Q803.896 1450.39 806.952 1455 Q810.03 1459.58 810.03 1468.33 Q810.03 1477.06 806.952 1481.67 Q803.896 1486.25 798.086 1486.25 Q792.276 1486.25 789.197 1481.67 Q786.141 1477.06 786.141 1468.33 Q786.141 1459.58 789.197 1455 Q792.276 1450.39 798.086 1450.39 Z" fill="#000000" fill-rule="nonzero" fill-opacity="1" /><path clip-path="url(#clip210)" d="M1245.92 1481.64 L1253.56 1481.64 L1253.56 1455.28 L1245.25 1456.95 L1245.25 1452.69 L1253.51 1451.02 L1258.19 1451.02 L1258.19 1481.64 L1265.83 1481.64 L1265.83 1485.58 L1245.92 1485.58 L1245.92 1481.64 Z" fill="#000000" fill-rule="nonzero" fill-opacity="1" /><path clip-path="url(#clip210)" d="M1285.27 1454.1 Q1281.66 1454.1 1279.83 1457.66 Q1278.02 1461.2 1278.02 1468.33 Q1278.02 1475.44 1279.83 1479.01 Q1281.66 1482.55 1285.27 1482.55 Q1288.9 1482.55 1290.71 1479.01 Q1292.54 1475.44 1292.54 1468.33 Q1292.54 1461.2 1290.71 1457.66 Q1288.9 1454.1 1285.27 1454.1 M1285.27 1450.39 Q1291.08 1450.39 1294.14 1455 Q1297.21 1459.58 1297.21 1468.33 Q1297.21 1477.06 1294.14 1481.67 Q1291.08 1486.25 1285.27 1486.25 Q1279.46 1486.25 1276.38 1481.67 Q1273.33 1477.06 1273.33 1468.33 Q1273.33 1459.58 1276.38 1455 Q1279.46 1450.39 1285.27 1450.39 Z" fill="#000000" fill-rule="nonzero" fill-opacity="1" /><path clip-path="url(#clip210)" d="M1315.43 1454.1 Q1311.82 1454.1 1309.99 1457.66 Q1308.19 1461.2 1308.19 1468.33 Q1308.19 1475.44 1309.99 1479.01 Q1311.82 1482.55 1315.43 1482.55 Q1319.07 1482.55 1320.87 1479.01 Q1322.7 1475.44 1322.7 1468.33 Q1322.7 1461.2 1320.87 1457.66 Q1319.07 1454.1 1315.43 1454.1 M1315.43 1450.39 Q1321.24 1450.39 1324.3 1455 Q1327.38 1459.58 1327.38 1468.33 Q1327.38 1477.06 1324.3 1481.67 Q1321.24 1486.25 1315.43 1486.25 Q1309.62 1486.25 1306.54 1481.67 Q1303.49 1477.06 1303.49 1468.33 Q1303.49 1459.58 1306.54 1455 Q1309.62 1450.39 1315.43 1450.39 Z" fill="#000000" fill-rule="nonzero" fill-opacity="1" /><path clip-path="url(#clip210)" d="M1748.96 1481.64 L1756.6 1481.64 L1756.6 1455.28 L1748.29 1456.95 L1748.29 1452.69 L1756.55 1451.02 L1761.23 1451.02 L1761.23 1481.64 L1768.87 1481.64 L1768.87 1485.58 L1748.96 1485.58 L1748.96 1481.64 Z" fill="#000000" fill-rule="nonzero" fill-opacity="1" /><path clip-path="url(#clip210)" d="M1778.36 1451.02 L1796.71 1451.02 L1796.71 1454.96 L1782.64 1454.96 L1782.64 1463.43 Q1783.66 1463.08 1784.68 1462.92 Q1785.69 1462.73 1786.71 1462.73 Q1792.5 1462.73 1795.88 1465.9 Q1799.26 1469.08 1799.26 1474.49 Q1799.26 1480.07 1795.79 1483.17 Q1792.31 1486.25 1785.99 1486.25 Q1783.82 1486.25 1781.55 1485.88 Q1779.3 1485.51 1776.9 1484.77 L1776.9 1480.07 Q1778.98 1481.2 1781.2 1481.76 Q1783.43 1482.32 1785.9 1482.32 Q1789.91 1482.32 1792.24 1480.21 Q1794.58 1478.1 1794.58 1474.49 Q1794.58 1470.88 1792.24 1468.77 Q1789.91 1466.67 1785.9 1466.67 Q1784.03 1466.67 1782.15 1467.08 Q1780.3 1467.5 1778.36 1468.38 L1778.36 1451.02 Z" fill="#000000" fill-rule="nonzero" fill-opacity="1" /><path clip-path="url(#clip210)" d="M1818.47 1454.1 Q1814.86 1454.1 1813.03 1457.66 Q1811.23 1461.2 1811.23 1468.33 Q1811.23 1475.44 1813.03 1479.01 Q1814.86 1482.55 1818.47 1482.55 Q1822.11 1482.55 1823.91 1479.01 Q1825.74 1475.44 1825.74 1468.33 Q1825.74 1461.2 1823.91 1457.66 Q1822.11 1454.1 1818.47 1454.1 M1818.47 1450.39 Q1824.28 1450.39 1827.34 1455 Q1830.42 1459.58 1830.42 1468.33 Q1830.42 1477.06 1827.34 1481.67 Q1824.28 1486.25 1818.47 1486.25 Q1812.66 1486.25 1809.58 1481.67 Q1806.53 1477.06 1806.53 1468.33 Q1806.53 1459.58 1809.58 1455 Q1812.66 1450.39 1818.47 1450.39 Z" fill="#000000" fill-rule="nonzero" fill-opacity="1" /><path clip-path="url(#clip210)" d="M2256.08 1481.64 L2272.4 1481.64 L2272.4 1485.58 L2250.46 1485.58 L2250.46 1481.64 Q2253.12 1478.89 2257.7 1474.26 Q2262.31 1469.61 2263.49 1468.27 Q2265.74 1465.74 2266.62 1464.01 Q2267.52 1462.25 2267.52 1460.56 Q2267.52 1457.8 2265.57 1456.07 Q2263.65 1454.33 2260.55 1454.33 Q2258.35 1454.33 2255.9 1455.09 Q2253.47 1455.86 2250.69 1457.41 L2250.69 1452.69 Q2253.51 1451.55 2255.97 1450.97 Q2258.42 1450.39 2260.46 1450.39 Q2265.83 1450.39 2269.02 1453.08 Q2272.22 1455.77 2272.22 1460.26 Q2272.22 1462.39 2271.41 1464.31 Q2270.62 1466.2 2268.51 1468.8 Q2267.94 1469.47 2264.83 1472.69 Q2261.73 1475.88 2256.08 1481.64 Z" fill="#000000" fill-rule="nonzero" fill-opacity="1" /><path clip-path="url(#clip210)" d="M2292.22 1454.1 Q2288.61 1454.1 2286.78 1457.66 Q2284.97 1461.2 2284.97 1468.33 Q2284.97 1475.44 2286.78 1479.01 Q2288.61 1482.55 2292.22 1482.55 Q2295.85 1482.55 2297.66 1479.01 Q2299.49 1475.44 2299.49 1468.33 Q2299.49 1461.2 2297.66 1457.66 Q2295.85 1454.1 2292.22 1454.1 M2292.22 1450.39 Q2298.03 1450.39 2301.08 1455 Q2304.16 1459.58 2304.16 1468.33 Q2304.16 1477.06 2301.08 1481.67 Q2298.03 1486.25 2292.22 1486.25 Q2286.41 1486.25 2283.33 1481.67 Q2280.27 1477.06 2280.27 1468.33 Q2280.27 1459.58 2283.33 1455 Q2286.41 1450.39 2292.22 1450.39 Z" fill="#000000" fill-rule="nonzero" fill-opacity="1" /><path clip-path="url(#clip210)" d="M2322.38 1454.1 Q2318.77 1454.1 2316.94 1457.66 Q2315.13 1461.2 2315.13 1468.33 Q2315.13 1475.44 2316.94 1479.01 Q2318.77 1482.55 2322.38 1482.55 Q2326.01 1482.55 2327.82 1479.01 Q2329.65 1475.44 2329.65 1468.33 Q2329.65 1461.2 2327.82 1457.66 Q2326.01 1454.1 2322.38 1454.1 M2322.38 1450.39 Q2328.19 1450.39 2331.25 1455 Q2334.32 1459.58 2334.32 1468.33 Q2334.32 1477.06 2331.25 1481.67 Q2328.19 1486.25 2322.38 1486.25 Q2316.57 1486.25 2313.49 1481.67 Q2310.43 1477.06 2310.43 1468.33 Q2310.43 1459.58 2313.49 1455 Q2316.57 1450.39 2322.38 1450.39 Z" fill="#000000" fill-rule="nonzero" fill-opacity="1" /><path clip-path="url(#clip210)" d="M1077.98 1520.52 L1118.18 1520.52 L1118.18 1525.93 L1101.31 1525.93 L1101.31 1568.04 L1094.85 1568.04 L1094.85 1525.93 L1077.98 1525.93 L1077.98 1520.52 Z" fill="#000000" fill-rule="nonzero" fill-opacity="1" /><path clip-path="url(#clip210)" d="M1122.12 1532.4 L1127.98 1532.4 L1127.98 1568.04 L1122.12 1568.04 L1122.12 1532.4 M1122.12 1518.52 L1127.98 1518.52 L1127.98 1525.93 L1122.12 1525.93 L1122.12 1518.52 Z" fill="#000000" fill-rule="nonzero" fill-opacity="1" /><path clip-path="url(#clip210)" d="M1167.99 1539.24 Q1170.18 1535.29 1173.24 1533.41 Q1176.3 1531.54 1180.43 1531.54 Q1186 1531.54 1189.03 1535.45 Q1192.05 1539.33 1192.05 1546.53 L1192.05 1568.04 L1186.16 1568.04 L1186.16 1546.72 Q1186.16 1541.59 1184.35 1539.11 Q1182.53 1536.63 1178.81 1536.63 Q1174.26 1536.63 1171.62 1539.65 Q1168.98 1542.68 1168.98 1547.9 L1168.98 1568.04 L1163.09 1568.04 L1163.09 1546.72 Q1163.09 1541.56 1161.27 1539.11 Q1159.46 1536.63 1155.67 1536.63 Q1151.18 1536.63 1148.54 1539.68 Q1145.9 1542.71 1145.9 1547.9 L1145.9 1568.04 L1140.01 1568.04 L1140.01 1532.4 L1145.9 1532.4 L1145.9 1537.93 Q1147.9 1534.66 1150.71 1533.1 Q1153.51 1531.54 1157.36 1531.54 Q1161.24 1531.54 1163.95 1533.51 Q1166.68 1535.48 1167.99 1539.24 Z" fill="#000000" fill-rule="nonzero" fill-opacity="1" /><path clip-path="url(#clip210)" d="M1234.22 1548.76 L1234.22 1551.62 L1207.3 1551.62 Q1207.68 1557.67 1210.93 1560.85 Q1214.2 1564 1220.03 1564 Q1223.4 1564 1226.55 1563.17 Q1229.74 1562.35 1232.86 1560.69 L1232.86 1566.23 Q1229.7 1567.57 1226.39 1568.27 Q1223.08 1568.97 1219.68 1568.97 Q1211.15 1568.97 1206.15 1564 Q1201.19 1559.04 1201.19 1550.57 Q1201.19 1541.82 1205.9 1536.69 Q1210.64 1531.54 1218.66 1531.54 Q1225.85 1531.54 1230.02 1536.18 Q1234.22 1540.8 1234.22 1548.76 M1228.37 1547.04 Q1228.3 1542.23 1225.66 1539.37 Q1223.05 1536.5 1218.72 1536.5 Q1213.82 1536.5 1210.86 1539.27 Q1207.93 1542.04 1207.49 1547.07 L1228.37 1547.04 Z" fill="#000000" fill-rule="nonzero" fill-opacity="1" /><path clip-path="url(#clip210)" d="M1278.62 1518.58 Q1274.36 1525.9 1272.29 1533.06 Q1270.22 1540.23 1270.22 1547.58 Q1270.22 1554.93 1272.29 1562.16 Q1274.39 1569.35 1278.62 1576.64 L1273.53 1576.64 Q1268.76 1569.16 1266.37 1561.93 Q1264.02 1554.71 1264.02 1547.58 Q1264.02 1540.48 1266.37 1533.29 Q1268.73 1526.09 1273.53 1518.58 L1278.62 1518.58 Z" fill="#000000" fill-rule="nonzero" fill-opacity="1" /><path clip-path="url(#clip210)" d="M1290.24 1520.52 L1296.67 1520.52 L1296.67 1540 L1320.03 1540 L1320.03 1520.52 L1326.46 1520.52 L1326.46 1568.04 L1320.03 1568.04 L1320.03 1545.41 L1296.67 1545.41 L1296.67 1568.04 L1290.24 1568.04 L1290.24 1520.52 Z" fill="#000000" fill-rule="nonzero" fill-opacity="1" /><path clip-path="url(#clip210)" d="M1352.82 1536.5 Q1348.11 1536.5 1345.37 1540.19 Q1342.63 1543.85 1342.63 1550.25 Q1342.63 1556.65 1345.34 1560.34 Q1348.07 1564 1352.82 1564 Q1357.5 1564 1360.23 1560.31 Q1362.97 1556.62 1362.97 1550.25 Q1362.97 1543.92 1360.23 1540.23 Q1357.5 1536.5 1352.82 1536.5 M1352.82 1531.54 Q1360.46 1531.54 1364.82 1536.5 Q1369.18 1541.47 1369.18 1550.25 Q1369.18 1559 1364.82 1564 Q1360.46 1568.97 1352.82 1568.97 Q1345.15 1568.97 1340.79 1564 Q1336.46 1559 1336.46 1550.25 Q1336.46 1541.47 1340.79 1536.5 Q1345.15 1531.54 1352.82 1531.54 Z" fill="#000000" fill-rule="nonzero" fill-opacity="1" /><path clip-path="url(#clip210)" d="M1378.28 1553.98 L1378.28 1532.4 L1384.14 1532.4 L1384.14 1553.75 Q1384.14 1558.81 1386.11 1561.36 Q1388.08 1563.87 1392.03 1563.87 Q1396.77 1563.87 1399.51 1560.85 Q1402.28 1557.83 1402.28 1552.61 L1402.28 1532.4 L1408.13 1532.4 L1408.13 1568.04 L1402.28 1568.04 L1402.28 1562.57 Q1400.15 1565.82 1397.31 1567.41 Q1394.51 1568.97 1390.79 1568.97 Q1384.65 1568.97 1381.46 1565.15 Q1378.28 1561.33 1378.28 1553.98 M1393.02 1531.54 L1393.02 1531.54 Z" fill="#000000" fill-rule="nonzero" fill-opacity="1" /><path clip-path="url(#clip210)" d="M1440.85 1537.87 Q1439.87 1537.3 1438.69 1537.04 Q1437.54 1536.76 1436.14 1536.76 Q1431.18 1536.76 1428.51 1540 Q1425.86 1543.22 1425.86 1549.27 L1425.86 1568.04 L1419.98 1568.04 L1419.98 1532.4 L1425.86 1532.4 L1425.86 1537.93 Q1427.71 1534.69 1430.67 1533.13 Q1433.63 1531.54 1437.86 1531.54 Q1438.47 1531.54 1439.2 1531.63 Q1439.93 1531.7 1440.82 1531.85 L1440.85 1537.87 Z" fill="#000000" fill-rule="nonzero" fill-opacity="1" /><path clip-path="url(#clip210)" d="M1469.72 1533.45 L1469.72 1538.98 Q1467.24 1537.71 1464.57 1537.07 Q1461.89 1536.44 1459.03 1536.44 Q1454.67 1536.44 1452.47 1537.77 Q1450.31 1539.11 1450.31 1541.79 Q1450.31 1543.82 1451.87 1545 Q1453.43 1546.15 1458.14 1547.2 L1460.14 1547.64 Q1466.38 1548.98 1468.99 1551.43 Q1471.63 1553.85 1471.63 1558.21 Q1471.63 1563.17 1467.69 1566.07 Q1463.77 1568.97 1456.9 1568.97 Q1454.03 1568.97 1450.91 1568.39 Q1447.82 1567.85 1444.39 1566.74 L1444.39 1560.69 Q1447.63 1562.38 1450.79 1563.24 Q1453.94 1564.07 1457.02 1564.07 Q1461.16 1564.07 1463.39 1562.66 Q1465.62 1561.23 1465.62 1558.65 Q1465.62 1556.27 1463.99 1554.99 Q1462.4 1553.72 1456.96 1552.54 L1454.92 1552.07 Q1449.48 1550.92 1447.06 1548.56 Q1444.64 1546.18 1444.64 1542.04 Q1444.64 1537.01 1448.21 1534.27 Q1451.77 1531.54 1458.33 1531.54 Q1461.57 1531.54 1464.44 1532.01 Q1467.3 1532.49 1469.72 1533.45 Z" fill="#000000" fill-rule="nonzero" fill-opacity="1" /><path clip-path="url(#clip210)" d="M1480.04 1518.58 L1485.13 1518.58 Q1489.9 1526.09 1492.26 1533.29 Q1494.64 1540.48 1494.64 1547.58 Q1494.64 1554.71 1492.26 1561.93 Q1489.9 1569.16 1485.13 1576.64 L1480.04 1576.64 Q1484.27 1569.35 1486.34 1562.16 Q1488.44 1554.93 1488.44 1547.58 Q1488.44 1540.23 1486.34 1533.06 Q1484.27 1525.9 1480.04 1518.58 Z" fill="#000000" fill-rule="nonzero" fill-opacity="1" /><polyline clip-path="url(#clip210)" style="stroke:#000000; stroke-linecap:round; stroke-linejoin:round; stroke-width:4; stroke-opacity:1; fill:none" points="219.866,1423.18 219.866,123.472 "/>
<polyline clip-path="url(#clip210)" style="stroke:#000000; stroke-linecap:round; stroke-linejoin:round; stroke-width:4; stroke-opacity:1; fill:none" points="219.866,1423.18 238.764,1423.18 "/>
<polyline clip-path="url(#clip210)" style="stroke:#000000; stroke-linecap:round; stroke-linejoin:round; stroke-width:4; stroke-opacity:1; fill:none" points="219.866,1163.24 238.764,1163.24 "/>
<polyline clip-path="url(#clip210)" style="stroke:#000000; stroke-linecap:round; stroke-linejoin:round; stroke-width:4; stroke-opacity:1; fill:none" points="219.866,903.297 238.764,903.297 "/>
<polyline clip-path="url(#clip210)" style="stroke:#000000; stroke-linecap:round; stroke-linejoin:round; stroke-width:4; stroke-opacity:1; fill:none" points="219.866,643.355 238.764,643.355 "/>
<polyline clip-path="url(#clip210)" style="stroke:#000000; stroke-linecap:round; stroke-linejoin:round; stroke-width:4; stroke-opacity:1; fill:none" points="219.866,383.414 238.764,383.414 "/>
<polyline clip-path="url(#clip210)" style="stroke:#000000; stroke-linecap:round; stroke-linejoin:round; stroke-width:4; stroke-opacity:1; fill:none" points="219.866,123.472 238.764,123.472 "/>
<path clip-path="url(#clip210)" d="M126.691 1408.98 Q123.08 1408.98 121.251 1412.54 Q119.445 1416.08 119.445 1423.21 Q119.445 1430.32 121.251 1433.89 Q123.08 1437.43 126.691 1437.43 Q130.325 1437.43 132.13 1433.89 Q133.959 1430.32 133.959 1423.21 Q133.959 1416.08 132.13 1412.54 Q130.325 1408.98 126.691 1408.98 M126.691 1405.27 Q132.501 1405.27 135.556 1409.88 Q138.635 1414.46 138.635 1423.21 Q138.635 1431.94 135.556 1436.55 Q132.501 1441.13 126.691 1441.13 Q120.88 1441.13 117.802 1436.55 Q114.746 1431.94 114.746 1423.21 Q114.746 1414.46 117.802 1409.88 Q120.88 1405.27 126.691 1405.27 Z" fill="#000000" fill-rule="nonzero" fill-opacity="1" /><path clip-path="url(#clip210)" d="M146.853 1434.58 L151.737 1434.58 L151.737 1440.46 L146.853 1440.46 L146.853 1434.58 Z" fill="#000000" fill-rule="nonzero" fill-opacity="1" /><path clip-path="url(#clip210)" d="M171.922 1408.98 Q168.311 1408.98 166.482 1412.54 Q164.677 1416.08 164.677 1423.21 Q164.677 1430.32 166.482 1433.89 Q168.311 1437.43 171.922 1437.43 Q175.556 1437.43 177.362 1433.89 Q179.19 1430.32 179.19 1423.21 Q179.19 1416.08 177.362 1412.54 Q175.556 1408.98 171.922 1408.98 M171.922 1405.27 Q177.732 1405.27 180.788 1409.88 Q183.866 1414.46 183.866 1423.21 Q183.866 1431.94 180.788 1436.55 Q177.732 1441.13 171.922 1441.13 Q166.112 1441.13 163.033 1436.55 Q159.978 1431.94 159.978 1423.21 Q159.978 1414.46 163.033 1409.88 Q166.112 1405.27 171.922 1405.27 Z" fill="#000000" fill-rule="nonzero" fill-opacity="1" /><path clip-path="url(#clip210)" d="M128.288 1149.04 Q124.677 1149.04 122.848 1152.6 Q121.043 1156.14 121.043 1163.27 Q121.043 1170.38 122.848 1173.94 Q124.677 1177.49 128.288 1177.49 Q131.922 1177.49 133.728 1173.94 Q135.556 1170.38 135.556 1163.27 Q135.556 1156.14 133.728 1152.6 Q131.922 1149.04 128.288 1149.04 M128.288 1145.33 Q134.098 1145.33 137.154 1149.94 Q140.232 1154.52 140.232 1163.27 Q140.232 1172 137.154 1176.61 Q134.098 1181.19 128.288 1181.19 Q122.478 1181.19 119.399 1176.61 Q116.343 1172 116.343 1163.27 Q116.343 1154.52 119.399 1149.94 Q122.478 1145.33 128.288 1145.33 Z" fill="#000000" fill-rule="nonzero" fill-opacity="1" /><path clip-path="url(#clip210)" d="M148.45 1174.64 L153.334 1174.64 L153.334 1180.52 L148.45 1180.52 L148.45 1174.64 Z" fill="#000000" fill-rule="nonzero" fill-opacity="1" /><path clip-path="url(#clip210)" d="M167.547 1176.58 L183.866 1176.58 L183.866 1180.52 L161.922 1180.52 L161.922 1176.58 Q164.584 1173.83 169.167 1169.2 Q173.774 1164.55 174.954 1163.2 Q177.2 1160.68 178.079 1158.94 Q178.982 1157.19 178.982 1155.5 Q178.982 1152.74 177.038 1151 Q175.116 1149.27 172.014 1149.27 Q169.815 1149.27 167.362 1150.03 Q164.931 1150.8 162.153 1152.35 L162.153 1147.62 Q164.977 1146.49 167.431 1145.91 Q169.885 1145.33 171.922 1145.33 Q177.292 1145.33 180.487 1148.02 Q183.681 1150.7 183.681 1155.19 Q183.681 1157.32 182.871 1159.25 Q182.084 1161.14 179.977 1163.74 Q179.399 1164.41 176.297 1167.62 Q173.195 1170.82 167.547 1176.58 Z" fill="#000000" fill-rule="nonzero" fill-opacity="1" /><path clip-path="url(#clip210)" d="M126.205 889.095 Q122.593 889.095 120.765 892.66 Q118.959 896.202 118.959 903.331 Q118.959 910.438 120.765 914.003 Q122.593 917.544 126.205 917.544 Q129.839 917.544 131.644 914.003 Q133.473 910.438 133.473 903.331 Q133.473 896.202 131.644 892.66 Q129.839 889.095 126.205 889.095 M126.205 885.392 Q132.015 885.392 135.07 889.998 Q138.149 894.582 138.149 903.331 Q138.149 912.058 135.07 916.665 Q132.015 921.248 126.205 921.248 Q120.394 921.248 117.316 916.665 Q114.26 912.058 114.26 903.331 Q114.26 894.582 117.316 889.998 Q120.394 885.392 126.205 885.392 Z" fill="#000000" fill-rule="nonzero" fill-opacity="1" /><path clip-path="url(#clip210)" d="M146.366 914.697 L151.251 914.697 L151.251 920.577 L146.366 920.577 L146.366 914.697 Z" fill="#000000" fill-rule="nonzero" fill-opacity="1" /><path clip-path="url(#clip210)" d="M174.283 890.091 L162.477 908.54 L174.283 908.54 L174.283 890.091 M173.056 886.017 L178.936 886.017 L178.936 908.54 L183.866 908.54 L183.866 912.429 L178.936 912.429 L178.936 920.577 L174.283 920.577 L174.283 912.429 L158.681 912.429 L158.681 907.915 L173.056 886.017 Z" fill="#000000" fill-rule="nonzero" fill-opacity="1" /><path clip-path="url(#clip210)" d="M126.529 629.154 Q122.918 629.154 121.089 632.719 Q119.283 636.26 119.283 643.39 Q119.283 650.496 121.089 654.061 Q122.918 657.603 126.529 657.603 Q130.163 657.603 131.968 654.061 Q133.797 650.496 133.797 643.39 Q133.797 636.26 131.968 632.719 Q130.163 629.154 126.529 629.154 M126.529 625.45 Q132.339 625.45 135.394 630.057 Q138.473 634.64 138.473 643.39 Q138.473 652.117 135.394 656.723 Q132.339 661.307 126.529 661.307 Q120.718 661.307 117.64 656.723 Q114.584 652.117 114.584 643.39 Q114.584 634.64 117.64 630.057 Q120.718 625.45 126.529 625.45 Z" fill="#000000" fill-rule="nonzero" fill-opacity="1" /><path clip-path="url(#clip210)" d="M146.691 654.756 L151.575 654.756 L151.575 660.635 L146.691 660.635 L146.691 654.756 Z" fill="#000000" fill-rule="nonzero" fill-opacity="1" /><path clip-path="url(#clip210)" d="M172.339 641.492 Q169.19 641.492 167.339 643.645 Q165.51 645.797 165.51 649.547 Q165.51 653.274 167.339 655.45 Q169.19 657.603 172.339 657.603 Q175.487 657.603 177.315 655.45 Q179.167 653.274 179.167 649.547 Q179.167 645.797 177.315 643.645 Q175.487 641.492 172.339 641.492 M181.621 626.839 L181.621 631.098 Q179.862 630.265 178.056 629.825 Q176.274 629.385 174.514 629.385 Q169.885 629.385 167.431 632.51 Q165.001 635.635 164.653 641.955 Q166.019 639.941 168.079 638.876 Q170.139 637.788 172.616 637.788 Q177.825 637.788 180.834 640.959 Q183.866 644.108 183.866 649.547 Q183.866 654.871 180.718 658.089 Q177.57 661.307 172.339 661.307 Q166.343 661.307 163.172 656.723 Q160.001 652.117 160.001 643.39 Q160.001 635.196 163.89 630.334 Q167.778 625.45 174.329 625.45 Q176.089 625.45 177.871 625.797 Q179.676 626.145 181.621 626.839 Z" fill="#000000" fill-rule="nonzero" fill-opacity="1" /><path clip-path="url(#clip210)" d="M126.783 369.212 Q123.172 369.212 121.343 372.777 Q119.538 376.319 119.538 383.448 Q119.538 390.555 121.343 394.12 Q123.172 397.661 126.783 397.661 Q130.417 397.661 132.223 394.12 Q134.052 390.555 134.052 383.448 Q134.052 376.319 132.223 372.777 Q130.417 369.212 126.783 369.212 M126.783 365.509 Q132.593 365.509 135.649 370.115 Q138.728 374.698 138.728 383.448 Q138.728 392.175 135.649 396.782 Q132.593 401.365 126.783 401.365 Q120.973 401.365 117.894 396.782 Q114.839 392.175 114.839 383.448 Q114.839 374.698 117.894 370.115 Q120.973 365.509 126.783 365.509 Z" fill="#000000" fill-rule="nonzero" fill-opacity="1" /><path clip-path="url(#clip210)" d="M146.945 394.814 L151.829 394.814 L151.829 400.694 L146.945 400.694 L146.945 394.814 Z" fill="#000000" fill-rule="nonzero" fill-opacity="1" /><path clip-path="url(#clip210)" d="M172.014 384.282 Q168.681 384.282 166.76 386.064 Q164.862 387.847 164.862 390.971 Q164.862 394.096 166.76 395.879 Q168.681 397.661 172.014 397.661 Q175.348 397.661 177.269 395.879 Q179.19 394.073 179.19 390.971 Q179.19 387.847 177.269 386.064 Q175.371 384.282 172.014 384.282 M167.339 382.291 Q164.329 381.55 162.64 379.49 Q160.973 377.43 160.973 374.467 Q160.973 370.323 163.913 367.916 Q166.876 365.509 172.014 365.509 Q177.176 365.509 180.116 367.916 Q183.056 370.323 183.056 374.467 Q183.056 377.43 181.366 379.49 Q179.7 381.55 176.714 382.291 Q180.093 383.078 181.968 385.37 Q183.866 387.661 183.866 390.971 Q183.866 395.995 180.788 398.68 Q177.732 401.365 172.014 401.365 Q166.297 401.365 163.218 398.68 Q160.163 395.995 160.163 390.971 Q160.163 387.661 162.061 385.37 Q163.959 383.078 167.339 382.291 M165.626 374.907 Q165.626 377.592 167.292 379.097 Q168.982 380.601 172.014 380.601 Q175.024 380.601 176.714 379.097 Q178.426 377.592 178.426 374.907 Q178.426 372.222 176.714 370.717 Q175.024 369.212 172.014 369.212 Q168.982 369.212 167.292 370.717 Q165.626 372.222 165.626 374.907 Z" fill="#000000" fill-rule="nonzero" fill-opacity="1" /><path clip-path="url(#clip210)" d="M117.501 136.817 L125.14 136.817 L125.14 110.451 L116.83 112.118 L116.83 107.859 L125.093 106.192 L129.769 106.192 L129.769 136.817 L137.408 136.817 L137.408 140.752 L117.501 140.752 L117.501 136.817 Z" fill="#000000" fill-rule="nonzero" fill-opacity="1" /><path clip-path="url(#clip210)" d="M146.853 134.873 L151.737 134.873 L151.737 140.752 L146.853 140.752 L146.853 134.873 Z" fill="#000000" fill-rule="nonzero" fill-opacity="1" /><path clip-path="url(#clip210)" d="M171.922 109.271 Q168.311 109.271 166.482 112.836 Q164.677 116.377 164.677 123.507 Q164.677 130.613 166.482 134.178 Q168.311 137.72 171.922 137.72 Q175.556 137.72 177.362 134.178 Q179.19 130.613 179.19 123.507 Q179.19 116.377 177.362 112.836 Q175.556 109.271 171.922 109.271 M171.922 105.567 Q177.732 105.567 180.788 110.174 Q183.866 114.757 183.866 123.507 Q183.866 132.234 180.788 136.84 Q177.732 141.423 171.922 141.423 Q166.112 141.423 163.033 136.84 Q159.978 132.234 159.978 123.507 Q159.978 114.757 163.033 110.174 Q166.112 105.567 171.922 105.567 Z" fill="#000000" fill-rule="nonzero" fill-opacity="1" /><path clip-path="url(#clip210)" d="M41.3104 899.144 L58.7206 899.144 L58.7206 888.832 Q58.7206 883.644 56.5881 881.161 Q54.4238 878.647 49.9996 878.647 Q45.5436 878.647 43.4429 881.161 Q41.3104 883.644 41.3104 888.832 L41.3104 899.144 M21.7677 899.144 L36.0905 899.144 L36.0905 889.627 Q36.0905 884.917 34.34 882.625 Q32.5576 880.302 28.9291 880.302 Q25.3325 880.302 23.5501 882.625 Q21.7677 884.917 21.7677 889.627 L21.7677 899.144 M16.4842 905.574 L16.4842 889.15 Q16.4842 881.798 19.5397 877.819 Q22.5952 873.84 28.2289 873.84 Q32.5894 873.84 35.1675 875.878 Q37.7456 877.915 38.3822 881.861 Q39.4007 877.119 42.6472 874.509 Q45.8619 871.867 50.6998 871.867 Q57.0655 871.867 60.5348 876.196 Q64.0042 880.524 64.0042 888.513 L64.0042 905.574 L16.4842 905.574 Z" fill="#000000" fill-rule="nonzero" fill-opacity="1" /><path clip-path="url(#clip210)" d="M28.3562 861.109 L28.3562 855.253 L64.0042 855.253 L64.0042 861.109 L28.3562 861.109 M14.479 861.109 L14.479 855.253 L21.895 855.253 L21.895 861.109 L14.479 861.109 Z" fill="#000000" fill-rule="nonzero" fill-opacity="1" /><path clip-path="url(#clip210)" d="M32.4621 829.185 Q32.4621 833.896 36.1542 836.633 Q39.8145 839.37 46.212 839.37 Q52.6095 839.37 56.3017 836.665 Q59.9619 833.928 59.9619 829.185 Q59.9619 824.506 56.2698 821.769 Q52.5777 819.032 46.212 819.032 Q39.8781 819.032 36.186 821.769 Q32.4621 824.506 32.4621 829.185 M27.4968 829.185 Q27.4968 821.546 32.4621 817.186 Q37.4273 812.825 46.212 812.825 Q54.9649 812.825 59.9619 817.186 Q64.9272 821.546 64.9272 829.185 Q64.9272 836.856 59.9619 841.216 Q54.9649 845.545 46.212 845.545 Q37.4273 845.545 32.4621 841.216 Q27.4968 836.856 27.4968 829.185 Z" fill="#000000" fill-rule="nonzero" fill-opacity="1" /><path clip-path="url(#clip210)" d="M35.1993 775.363 Q31.2526 773.167 29.3747 770.111 Q27.4968 767.056 27.4968 762.918 Q27.4968 757.348 31.4117 754.324 Q35.2948 751.301 42.4881 751.301 L64.0042 751.301 L64.0042 757.189 L42.679 757.189 Q37.5546 757.189 35.072 759.003 Q32.5894 760.817 32.5894 764.541 Q32.5894 769.093 35.6131 771.735 Q38.6368 774.376 43.8567 774.376 L64.0042 774.376 L64.0042 780.265 L42.679 780.265 Q37.5228 780.265 35.072 782.079 Q32.5894 783.893 32.5894 787.681 Q32.5894 792.168 35.6449 794.81 Q38.6686 797.452 43.8567 797.452 L64.0042 797.452 L64.0042 803.34 L28.3562 803.34 L28.3562 797.452 L33.8944 797.452 Q30.616 795.447 29.0564 792.646 Q27.4968 789.845 27.4968 785.994 Q27.4968 782.111 29.4702 779.405 Q31.4436 776.668 35.1993 775.363 Z" fill="#000000" fill-rule="nonzero" fill-opacity="1" /><path clip-path="url(#clip210)" d="M46.0847 723.419 Q46.0847 730.517 47.7079 733.254 Q49.3312 735.991 53.2461 735.991 Q56.3653 735.991 58.2114 733.954 Q60.0256 731.885 60.0256 728.352 Q60.0256 723.483 56.5881 720.554 Q53.1188 717.594 47.3897 717.594 L46.0847 717.594 L46.0847 723.419 M43.6657 711.738 L64.0042 711.738 L64.0042 717.594 L58.5933 717.594 Q61.8398 719.599 63.3994 722.591 Q64.9272 725.583 64.9272 729.912 Q64.9272 735.386 61.8716 738.633 Q58.7843 741.848 53.6281 741.848 Q47.6125 741.848 44.5569 737.837 Q41.5014 733.795 41.5014 725.806 L41.5014 717.594 L40.9285 717.594 Q36.8862 717.594 34.6901 720.268 Q32.4621 722.91 32.4621 727.716 Q32.4621 730.771 33.1941 733.668 Q33.9262 736.564 35.3903 739.238 L29.9795 739.238 Q28.7381 736.023 28.1334 732.999 Q27.4968 729.976 27.4968 727.111 Q27.4968 719.377 31.5072 715.557 Q35.5176 711.738 43.6657 711.738 Z" fill="#000000" fill-rule="nonzero" fill-opacity="1" /><path clip-path="url(#clip210)" d="M29.4065 676.949 L34.9447 676.949 Q33.6716 679.432 33.035 682.105 Q32.3984 684.779 32.3984 687.644 Q32.3984 692.004 33.7352 694.2 Q35.072 696.365 37.7456 696.365 Q39.7826 696.365 40.9603 694.805 Q42.1061 693.245 43.1565 688.535 L43.6021 686.53 Q44.9389 680.291 47.3897 677.681 Q49.8086 675.039 54.1691 675.039 Q59.1344 675.039 62.0308 678.986 Q64.9272 682.901 64.9272 689.776 Q64.9272 692.641 64.3543 695.76 Q63.8132 698.847 62.6992 702.285 L56.6518 702.285 Q58.3387 699.038 59.198 695.887 Q60.0256 692.736 60.0256 689.649 Q60.0256 685.511 58.6251 683.283 Q57.1929 681.055 54.6147 681.055 Q52.2276 681.055 50.9545 682.678 Q49.6813 684.27 48.5037 689.712 L48.0262 691.749 Q46.8804 697.192 44.5251 699.611 Q42.138 702.03 38.0002 702.03 Q32.9713 702.03 30.2341 698.465 Q27.4968 694.9 27.4968 688.344 Q27.4968 685.097 27.9743 682.233 Q28.4517 679.368 29.4065 676.949 Z" fill="#000000" fill-rule="nonzero" fill-opacity="1" /><path clip-path="url(#clip210)" d="M29.4065 642.988 L34.9447 642.988 Q33.6716 645.471 33.035 648.144 Q32.3984 650.818 32.3984 653.683 Q32.3984 658.043 33.7352 660.239 Q35.072 662.404 37.7456 662.404 Q39.7826 662.404 40.9603 660.844 Q42.1061 659.284 43.1565 654.574 L43.6021 652.569 Q44.9389 646.33 47.3897 643.72 Q49.8086 641.078 54.1691 641.078 Q59.1344 641.078 62.0308 645.025 Q64.9272 648.94 64.9272 655.815 Q64.9272 658.68 64.3543 661.799 Q63.8132 664.886 62.6992 668.324 L56.6518 668.324 Q58.3387 665.077 59.198 661.926 Q60.0256 658.775 60.0256 655.688 Q60.0256 651.55 58.6251 649.322 Q57.1929 647.094 54.6147 647.094 Q52.2276 647.094 50.9545 648.717 Q49.6813 650.309 48.5037 655.751 L48.0262 657.788 Q46.8804 663.231 44.5251 665.65 Q42.138 668.069 38.0002 668.069 Q32.9713 668.069 30.2341 664.504 Q27.4968 660.939 27.4968 654.383 Q27.4968 651.136 27.9743 648.272 Q28.4517 645.407 29.4065 642.988 Z" fill="#000000" fill-rule="nonzero" fill-opacity="1" /><path clip-path="url(#clip210)" d="M757.668 14.0809 L757.668 22.0612 Q753.01 19.8332 748.878 18.7395 Q744.746 17.6457 740.897 17.6457 Q734.213 17.6457 730.568 20.2383 Q726.962 22.8309 726.962 27.611 Q726.962 31.6214 729.352 33.6873 Q731.783 35.7128 738.507 36.9686 L743.449 37.9813 Q752.604 39.7232 756.939 44.1387 Q761.314 48.5136 761.314 55.8863 Q761.314 64.6767 755.4 69.2137 Q749.526 73.7508 738.143 73.7508 Q733.849 73.7508 728.988 72.7785 Q724.167 71.8063 718.982 69.9024 L718.982 61.4765 Q723.965 64.2716 728.745 65.6895 Q733.525 67.1073 738.143 67.1073 Q745.151 67.1073 748.959 64.3527 Q752.766 61.598 752.766 56.4939 Q752.766 52.0379 750.012 49.5264 Q747.298 47.0148 741.059 45.759 L736.077 44.7868 Q726.922 42.9639 722.83 39.075 Q718.739 35.1862 718.739 28.2591 Q718.739 20.2383 724.37 15.6203 Q730.041 11.0023 739.966 11.0023 Q744.219 11.0023 748.635 11.7719 Q753.05 12.5416 757.668 14.0809 Z" fill="#000000" fill-rule="nonzero" fill-opacity="1" /><path clip-path="url(#clip210)" d="M781.123 14.324 L781.123 27.2059 L796.476 27.2059 L796.476 32.9987 L781.123 32.9987 L781.123 57.6282 Q781.123 63.1779 782.622 64.7578 Q784.161 66.3376 788.82 66.3376 L796.476 66.3376 L796.476 72.576 L788.82 72.576 Q780.191 72.576 776.91 69.3758 Q773.629 66.1351 773.629 57.6282 L773.629 32.9987 L768.16 32.9987 L768.16 27.2059 L773.629 27.2059 L773.629 14.324 L781.123 14.324 Z" fill="#000000" fill-rule="nonzero" fill-opacity="1" /><path clip-path="url(#clip210)" d="M832.569 34.1734 Q831.314 33.4443 829.815 33.1202 Q828.356 32.7556 826.574 32.7556 Q820.255 32.7556 816.852 36.8875 Q813.49 40.9789 813.49 48.6757 L813.49 72.576 L805.995 72.576 L805.995 27.2059 L813.49 27.2059 L813.49 34.2544 Q815.839 30.1225 819.606 28.1376 Q823.374 26.1121 828.761 26.1121 Q829.531 26.1121 830.463 26.2337 Q831.395 26.3147 832.529 26.5172 L832.569 34.1734 Z" fill="#000000" fill-rule="nonzero" fill-opacity="1" /><path clip-path="url(#clip210)" d="M861.007 49.7694 Q851.973 49.7694 848.489 51.8354 Q845.006 53.9013 845.006 58.8839 Q845.006 62.8538 847.598 65.2034 Q850.231 67.5124 854.728 67.5124 Q860.926 67.5124 864.652 63.1374 Q868.42 58.7219 868.42 51.4303 L868.42 49.7694 L861.007 49.7694 M875.873 46.6907 L875.873 72.576 L868.42 72.576 L868.42 65.6895 Q865.868 69.8214 862.06 71.8063 Q858.252 73.7508 852.743 73.7508 Q845.775 73.7508 841.643 69.8619 Q837.552 65.9325 837.552 59.3701 Q837.552 51.7138 842.656 47.825 Q847.801 43.9361 857.968 43.9361 L868.42 43.9361 L868.42 43.2069 Q868.42 38.0623 865.017 35.2672 Q861.655 32.4315 855.538 32.4315 Q851.649 32.4315 847.963 33.3632 Q844.276 34.295 840.874 36.1584 L840.874 29.2718 Q844.965 27.692 848.813 26.9223 Q852.662 26.1121 856.308 26.1121 Q866.151 26.1121 871.012 31.2163 Q875.873 36.3204 875.873 46.6907 Z" fill="#000000" fill-rule="nonzero" fill-opacity="1" /><path clip-path="url(#clip210)" d="M891.226 27.2059 L898.68 27.2059 L898.68 72.576 L891.226 72.576 L891.226 27.2059 M891.226 9.54393 L898.68 9.54393 L898.68 18.9825 L891.226 18.9825 L891.226 9.54393 Z" fill="#000000" fill-rule="nonzero" fill-opacity="1" /><path clip-path="url(#clip210)" d="M951.99 45.1919 L951.99 72.576 L944.536 72.576 L944.536 45.4349 Q944.536 38.994 942.025 35.7938 Q939.513 32.5936 934.49 32.5936 Q928.454 32.5936 924.97 36.4419 Q921.487 40.2903 921.487 46.9338 L921.487 72.576 L913.992 72.576 L913.992 27.2059 L921.487 27.2059 L921.487 34.2544 Q924.16 30.163 927.766 28.1376 Q931.411 26.1121 936.151 26.1121 Q943.969 26.1121 947.98 30.9732 Q951.99 35.7938 951.99 45.1919 Z" fill="#000000" fill-rule="nonzero" fill-opacity="1" /><path clip-path="url(#clip210)" d="M963.089 46.5287 L984.924 46.5287 L984.924 53.1722 L963.089 53.1722 L963.089 46.5287 Z" fill="#000000" fill-rule="nonzero" fill-opacity="1" /><path clip-path="url(#clip210)" d="M1025.8 44.2197 Q1028.43 45.1109 1030.9 48.0275 Q1033.41 50.9442 1035.92 56.0483 L1044.23 72.576 L1035.44 72.576 L1027.7 57.061 Q1024.7 50.9847 1021.87 48.9997 Q1019.07 47.0148 1014.21 47.0148 L1005.3 47.0148 L1005.3 72.576 L997.117 72.576 L997.117 12.096 L1015.59 12.096 Q1025.96 12.096 1031.06 16.4305 Q1036.17 20.7649 1036.17 29.5149 Q1036.17 35.2267 1033.49 38.994 Q1030.86 42.7613 1025.8 44.2197 M1005.3 18.8205 L1005.3 40.2903 L1015.59 40.2903 Q1021.5 40.2903 1024.5 37.5762 Q1027.54 34.8216 1027.54 29.5149 Q1027.54 24.2082 1024.5 21.5346 Q1021.5 18.8205 1015.59 18.8205 L1005.3 18.8205 Z" fill="#000000" fill-rule="nonzero" fill-opacity="1" /><path clip-path="url(#clip210)" d="M1089.52 48.0275 L1089.52 51.6733 L1055.25 51.6733 Q1055.73 59.3701 1059.87 63.421 Q1064.04 67.4314 1071.45 67.4314 Q1075.75 67.4314 1079.76 66.3781 Q1083.81 65.3249 1087.78 63.2184 L1087.78 70.267 Q1083.77 71.9684 1079.55 72.8596 Q1075.34 73.7508 1071.01 73.7508 Q1060.15 73.7508 1053.79 67.4314 Q1047.47 61.1119 1047.47 50.3365 Q1047.47 39.1965 1053.47 32.6746 Q1059.5 26.1121 1069.71 26.1121 Q1078.86 26.1121 1084.17 32.0264 Q1089.52 37.9003 1089.52 48.0275 M1082.06 45.84 Q1081.98 39.7232 1078.62 36.0774 Q1075.3 32.4315 1069.79 32.4315 Q1063.55 32.4315 1059.78 35.9558 Q1056.06 39.4801 1055.49 45.8805 L1082.06 45.84 Z" fill="#000000" fill-rule="nonzero" fill-opacity="1" /><path clip-path="url(#clip210)" d="M1130.68 28.5427 L1130.68 35.5912 Q1127.52 33.9709 1124.11 33.1607 Q1120.71 32.3505 1117.06 32.3505 Q1111.51 32.3505 1108.72 34.0519 Q1105.96 35.7533 1105.96 39.156 Q1105.96 41.7486 1107.95 43.2475 Q1109.93 44.7058 1115.93 46.0426 L1118.48 46.6097 Q1126.42 48.3111 1129.74 51.4303 Q1133.11 54.509 1133.11 60.0587 Q1133.11 66.3781 1128.08 70.0644 Q1123.1 73.7508 1114.35 73.7508 Q1110.7 73.7508 1106.73 73.0216 Q1102.81 72.3329 1098.43 70.9151 L1098.43 63.2184 Q1102.56 65.3654 1106.57 66.4591 Q1110.58 67.5124 1114.51 67.5124 Q1119.78 67.5124 1122.61 65.73 Q1125.45 63.9071 1125.45 60.6258 Q1125.45 57.5877 1123.38 55.9673 Q1121.36 54.3469 1114.43 52.8481 L1111.84 52.2405 Q1104.91 50.7821 1101.83 47.7845 Q1098.75 44.7463 1098.75 39.4801 Q1098.75 33.0797 1103.29 29.5959 Q1107.83 26.1121 1116.17 26.1121 Q1120.31 26.1121 1123.95 26.7198 Q1127.6 27.3274 1130.68 28.5427 Z" fill="#000000" fill-rule="nonzero" fill-opacity="1" /><path clip-path="url(#clip210)" d="M1162.56 32.4315 Q1156.56 32.4315 1153.08 37.1306 Q1149.59 41.7891 1149.59 49.9314 Q1149.59 58.0738 1153.04 62.7728 Q1156.52 67.4314 1162.56 67.4314 Q1168.51 67.4314 1171.99 62.7323 Q1175.48 58.0333 1175.48 49.9314 Q1175.48 41.8701 1171.99 37.1711 Q1168.51 32.4315 1162.56 32.4315 M1162.56 26.1121 Q1172.28 26.1121 1177.83 32.4315 Q1183.38 38.7509 1183.38 49.9314 Q1183.38 61.0714 1177.83 67.4314 Q1172.28 73.7508 1162.56 73.7508 Q1152.79 73.7508 1147.24 67.4314 Q1141.73 61.0714 1141.73 49.9314 Q1141.73 38.7509 1147.24 32.4315 Q1152.79 26.1121 1162.56 26.1121 Z" fill="#000000" fill-rule="nonzero" fill-opacity="1" /><path clip-path="url(#clip210)" d="M1195.73 9.54393 L1203.19 9.54393 L1203.19 72.576 L1195.73 72.576 L1195.73 9.54393 Z" fill="#000000" fill-rule="nonzero" fill-opacity="1" /><path clip-path="url(#clip210)" d="M1218.01 54.671 L1218.01 27.2059 L1225.47 27.2059 L1225.47 54.3874 Q1225.47 60.8284 1227.98 64.0691 Q1230.49 67.2693 1235.51 67.2693 Q1241.55 67.2693 1245.03 63.421 Q1248.56 59.5726 1248.56 52.9291 L1248.56 27.2059 L1256.01 27.2059 L1256.01 72.576 L1248.56 72.576 L1248.56 65.6084 Q1245.84 69.7404 1242.24 71.7658 Q1238.67 73.7508 1233.93 73.7508 Q1226.11 73.7508 1222.06 68.8897 Q1218.01 64.0286 1218.01 54.671 M1236.77 26.1121 L1236.77 26.1121 Z" fill="#000000" fill-rule="nonzero" fill-opacity="1" /><path clip-path="url(#clip210)" d="M1278.74 14.324 L1278.74 27.2059 L1294.09 27.2059 L1294.09 32.9987 L1278.74 32.9987 L1278.74 57.6282 Q1278.74 63.1779 1280.23 64.7578 Q1281.77 66.3376 1286.43 66.3376 L1294.09 66.3376 L1294.09 72.576 L1286.43 72.576 Q1277.8 72.576 1274.52 69.3758 Q1271.24 66.1351 1271.24 57.6282 L1271.24 32.9987 L1265.77 32.9987 L1265.77 27.2059 L1271.24 27.2059 L1271.24 14.324 L1278.74 14.324 Z" fill="#000000" fill-rule="nonzero" fill-opacity="1" /><path clip-path="url(#clip210)" d="M1303.89 27.2059 L1311.35 27.2059 L1311.35 72.576 L1303.89 72.576 L1303.89 27.2059 M1303.89 9.54393 L1311.35 9.54393 L1311.35 18.9825 L1303.89 18.9825 L1303.89 9.54393 Z" fill="#000000" fill-rule="nonzero" fill-opacity="1" /><path clip-path="url(#clip210)" d="M1344.52 32.4315 Q1338.53 32.4315 1335.04 37.1306 Q1331.56 41.7891 1331.56 49.9314 Q1331.56 58.0738 1335 62.7728 Q1338.49 67.4314 1344.52 67.4314 Q1350.48 67.4314 1353.96 62.7323 Q1357.44 58.0333 1357.44 49.9314 Q1357.44 41.8701 1353.96 37.1711 Q1350.48 32.4315 1344.52 32.4315 M1344.52 26.1121 Q1354.24 26.1121 1359.79 32.4315 Q1365.34 38.7509 1365.34 49.9314 Q1365.34 61.0714 1359.79 67.4314 Q1354.24 73.7508 1344.52 73.7508 Q1334.76 73.7508 1329.21 67.4314 Q1323.7 61.0714 1323.7 49.9314 Q1323.7 38.7509 1329.21 32.4315 Q1334.76 26.1121 1344.52 26.1121 Z" fill="#000000" fill-rule="nonzero" fill-opacity="1" /><path clip-path="url(#clip210)" d="M1415.41 45.1919 L1415.41 72.576 L1407.96 72.576 L1407.96 45.4349 Q1407.96 38.994 1405.45 35.7938 Q1402.94 32.5936 1397.91 32.5936 Q1391.88 32.5936 1388.39 36.4419 Q1384.91 40.2903 1384.91 46.9338 L1384.91 72.576 L1377.42 72.576 L1377.42 27.2059 L1384.91 27.2059 L1384.91 34.2544 Q1387.58 30.163 1391.19 28.1376 Q1394.83 26.1121 1399.57 26.1121 Q1407.39 26.1121 1411.4 30.9732 Q1415.41 35.7938 1415.41 45.1919 Z" fill="#000000" fill-rule="nonzero" fill-opacity="1" /><path clip-path="url(#clip210)" d="M1465.16 18.8205 L1465.16 65.8515 L1475.04 65.8515 Q1487.56 65.8515 1493.35 60.1802 Q1499.19 54.509 1499.19 42.2752 Q1499.19 30.1225 1493.35 24.4918 Q1487.56 18.8205 1475.04 18.8205 L1465.16 18.8205 M1456.98 12.096 L1473.79 12.096 Q1491.37 12.096 1499.59 19.4281 Q1507.81 26.7198 1507.81 42.2752 Q1507.81 57.9117 1499.55 65.2439 Q1491.29 72.576 1473.79 72.576 L1456.98 72.576 L1456.98 12.096 Z" fill="#000000" fill-rule="nonzero" fill-opacity="1" /><path clip-path="url(#clip210)" d="M1539.41 76.7889 Q1536.25 84.8907 1533.25 87.3618 Q1530.26 89.8329 1525.23 89.8329 L1519.28 89.8329 L1519.28 83.5945 L1523.65 83.5945 Q1526.73 83.5945 1528.43 82.1361 Q1530.14 80.6778 1532.2 75.2496 L1533.54 71.8468 L1515.19 27.2059 L1523.09 27.2059 L1537.26 62.6918 L1551.44 27.2059 L1559.34 27.2059 L1539.41 76.7889 Z" fill="#000000" fill-rule="nonzero" fill-opacity="1" /><path clip-path="url(#clip210)" d="M1607.35 45.1919 L1607.35 72.576 L1599.89 72.576 L1599.89 45.4349 Q1599.89 38.994 1597.38 35.7938 Q1594.87 32.5936 1589.85 32.5936 Q1583.81 32.5936 1580.33 36.4419 Q1576.84 40.2903 1576.84 46.9338 L1576.84 72.576 L1569.35 72.576 L1569.35 27.2059 L1576.84 27.2059 L1576.84 34.2544 Q1579.52 30.163 1583.12 28.1376 Q1586.77 26.1121 1591.51 26.1121 Q1599.32 26.1121 1603.33 30.9732 Q1607.35 35.7938 1607.35 45.1919 Z" fill="#000000" fill-rule="nonzero" fill-opacity="1" /><path clip-path="url(#clip210)" d="M1642.83 49.7694 Q1633.8 49.7694 1630.31 51.8354 Q1626.83 53.9013 1626.83 58.8839 Q1626.83 62.8538 1629.42 65.2034 Q1632.06 67.5124 1636.55 67.5124 Q1642.75 67.5124 1646.48 63.1374 Q1650.24 58.7219 1650.24 51.4303 L1650.24 49.7694 L1642.83 49.7694 M1657.7 46.6907 L1657.7 72.576 L1650.24 72.576 L1650.24 65.6895 Q1647.69 69.8214 1643.88 71.8063 Q1640.08 73.7508 1634.57 73.7508 Q1627.6 73.7508 1623.47 69.8619 Q1619.38 65.9325 1619.38 59.3701 Q1619.38 51.7138 1624.48 47.825 Q1629.63 43.9361 1639.79 43.9361 L1650.24 43.9361 L1650.24 43.2069 Q1650.24 38.0623 1646.84 35.2672 Q1643.48 32.4315 1637.36 32.4315 Q1633.47 32.4315 1629.79 33.3632 Q1626.1 34.295 1622.7 36.1584 L1622.7 29.2718 Q1626.79 27.692 1630.64 26.9223 Q1634.49 26.1121 1638.13 26.1121 Q1647.98 26.1121 1652.84 31.2163 Q1657.7 36.3204 1657.7 46.6907 Z" fill="#000000" fill-rule="nonzero" fill-opacity="1" /><path clip-path="url(#clip210)" d="M1708.37 35.9153 Q1711.17 30.8922 1715.06 28.5022 Q1718.95 26.1121 1724.21 26.1121 Q1731.3 26.1121 1735.15 31.0947 Q1739 36.0368 1739 45.1919 L1739 72.576 L1731.51 72.576 L1731.51 45.4349 Q1731.51 38.913 1729.2 35.7533 Q1726.89 32.5936 1722.15 32.5936 Q1716.36 32.5936 1712.99 36.4419 Q1709.63 40.2903 1709.63 46.9338 L1709.63 72.576 L1702.14 72.576 L1702.14 45.4349 Q1702.14 38.8725 1699.83 35.7533 Q1697.52 32.5936 1692.7 32.5936 Q1686.99 32.5936 1683.62 36.4824 Q1680.26 40.3308 1680.26 46.9338 L1680.26 72.576 L1672.77 72.576 L1672.77 27.2059 L1680.26 27.2059 L1680.26 34.2544 Q1682.81 30.082 1686.38 28.0971 Q1689.94 26.1121 1694.84 26.1121 Q1699.79 26.1121 1703.23 28.6237 Q1706.71 31.1352 1708.37 35.9153 Z" fill="#000000" fill-rule="nonzero" fill-opacity="1" /><path clip-path="url(#clip210)" d="M1753.87 27.2059 L1761.32 27.2059 L1761.32 72.576 L1753.87 72.576 L1753.87 27.2059 M1753.87 9.54393 L1761.32 9.54393 L1761.32 18.9825 L1753.87 18.9825 L1753.87 9.54393 Z" fill="#000000" fill-rule="nonzero" fill-opacity="1" /><path clip-path="url(#clip210)" d="M1809.57 28.9478 L1809.57 35.9153 Q1806.41 34.1734 1803.21 33.3227 Q1800.05 32.4315 1796.81 32.4315 Q1789.55 32.4315 1785.54 37.0496 Q1781.53 41.6271 1781.53 49.9314 Q1781.53 58.2358 1785.54 62.8538 Q1789.55 67.4314 1796.81 67.4314 Q1800.05 67.4314 1803.21 66.5807 Q1806.41 65.6895 1809.57 63.9476 L1809.57 70.8341 Q1806.45 72.2924 1803.08 73.0216 Q1799.76 73.7508 1796 73.7508 Q1785.75 73.7508 1779.71 67.3098 Q1773.68 60.8689 1773.68 49.9314 Q1773.68 38.832 1779.75 32.472 Q1785.87 26.1121 1796.48 26.1121 Q1799.93 26.1121 1803.21 26.8413 Q1806.49 27.5299 1809.57 28.9478 Z" fill="#000000" fill-rule="nonzero" fill-opacity="1" /><path clip-path="url(#clip210)" d="M1851.45 28.5427 L1851.45 35.5912 Q1848.29 33.9709 1844.89 33.1607 Q1841.49 32.3505 1837.84 32.3505 Q1832.29 32.3505 1829.5 34.0519 Q1826.74 35.7533 1826.74 39.156 Q1826.74 41.7486 1828.73 43.2475 Q1830.71 44.7058 1836.71 46.0426 L1839.26 46.6097 Q1847.2 48.3111 1850.52 51.4303 Q1853.88 54.509 1853.88 60.0587 Q1853.88 66.3781 1848.86 70.0644 Q1843.88 73.7508 1835.13 73.7508 Q1831.48 73.7508 1827.51 73.0216 Q1823.58 72.3329 1819.21 70.9151 L1819.21 63.2184 Q1823.34 65.3654 1827.35 66.4591 Q1831.36 67.5124 1835.29 67.5124 Q1840.56 67.5124 1843.39 65.73 Q1846.23 63.9071 1846.23 60.6258 Q1846.23 57.5877 1844.16 55.9673 Q1842.14 54.3469 1835.21 52.8481 L1832.62 52.2405 Q1825.69 50.7821 1822.61 47.7845 Q1819.53 44.7463 1819.53 39.4801 Q1819.53 33.0797 1824.07 29.5959 Q1828.61 26.1121 1836.95 26.1121 Q1841.08 26.1121 1844.73 26.7198 Q1848.37 27.3274 1851.45 28.5427 Z" fill="#000000" fill-rule="nonzero" fill-opacity="1" /><polyline clip-path="url(#clip212)" style="stroke:#d43d4f; stroke-linecap:round; stroke-linejoin:round; stroke-width:16; stroke-opacity:1; fill:none" points="280.231,1423.18 300.353,1423.17 320.474,1423.15 340.596,1423.07 360.717,1422.83 380.839,1422.2 400.961,1420.76 421.082,1418.23 441.204,1415.06 461.325,1412.35 481.447,1410.69 501.569,1409.96 521.69,1409.81 541.812,1409.98 561.933,1410.31 582.055,1410.73 602.177,1411.19 622.298,1411.69 642.42,1412.19 662.541,1412.7 682.663,1413.21 702.785,1413.7 722.906,1414.19 743.028,1414.66 763.149,1415.12 783.271,1415.56 803.393,1415.98 823.514,1416.38 843.636,1416.76 863.757,1417.12 883.879,1417.46 904.001,1417.79 924.122,1418.09 944.244,1418.38 964.365,1418.65 984.487,1418.91 1004.61,1419.15 1024.73,1419.37 1044.85,1419.59 1064.97,1419.78 1085.1,1419.97 1105.22,1420.14 1125.34,1420.31 1145.46,1420.46 1165.58,1420.6 1185.7,1420.74 1205.82,1420.86 1225.95,1420.98 1246.07,1421.09 1266.19,1421.19 1286.31,1421.29 1306.43,1421.38 1326.55,1421.47 1346.68,1421.55 1366.8,1421.62 1386.92,1421.69 1407.04,1421.76 1427.16,1421.82 1447.28,1421.88 1467.41,1421.94 1487.53,1421.99 1507.65,1422.04 1527.77,1422.08 1547.89,1422.12 1568.01,1422.17 1588.14,1422.2 1608.26,1422.24 1628.38,1422.27 1648.5,1422.3 1668.62,1422.33 1688.74,1422.36 1708.86,1422.39 1728.99,1422.41 1749.11,1422.44 1769.23,1422.46 1789.35,1422.48 1809.47,1422.5 1829.59,1422.52 1849.72,1422.54 1869.84,1422.55 1889.96,1422.57 1910.08,1422.59 1930.2,1422.6 1950.32,1422.61 1970.45,1422.62 1990.57,1422.64 2010.69,1422.65 2030.81,1422.66 2050.93,1422.67 2071.05,1422.68 2091.18,1422.69 2111.3,1422.7 2131.42,1422.7 2151.54,1422.71 2171.66,1422.72 2191.78,1422.72 2211.9,1422.73 2232.03,1422.74 2252.15,1422.74 2272.27,1422.75 2292.39,1422.75 "/>
<polyline clip-path="url(#clip212)" style="stroke:#f46c43; stroke-linecap:round; stroke-linejoin:round; stroke-width:16; stroke-opacity:1; fill:none" points="280.231,1421.88 300.353,1420.18 320.474,1416.3 340.596,1407.53 360.717,1388.24 380.839,1348.39 400.961,1275.62 421.082,1169.06 441.204,1056.05 461.325,974.188 481.447,935.207 501.569,927.958 521.69,937.635 541.812,955.114 561.933,975.711 582.055,997.118 602.177,1018.38 622.298,1039 642.42,1058.84 662.541,1077.77 682.663,1095.8 702.785,1112.92 722.906,1129.16 743.028,1144.53 763.149,1159.08 783.271,1172.83 803.393,1185.82 823.514,1198.08 843.636,1209.65 863.757,1220.57 883.879,1230.85 904.001,1240.54 924.122,1249.68 944.244,1258.29 964.365,1266.4 984.487,1274.03 1004.61,1281.22 1024.73,1288 1044.85,1294.38 1064.97,1300.4 1085.1,1306.05 1105.22,1311.38 1125.34,1316.41 1145.46,1321.14 1165.58,1325.61 1185.7,1329.82 1205.82,1333.78 1225.95,1337.51 1246.07,1341.04 1266.19,1344.36 1286.31,1347.5 1306.43,1350.46 1326.55,1353.25 1346.68,1355.88 1366.8,1358.36 1386.92,1360.7 1407.04,1362.92 1427.16,1365.02 1447.28,1366.99 1467.41,1368.86 1487.53,1370.62 1507.65,1372.28 1527.77,1373.84 1547.89,1375.33 1568.01,1376.74 1588.14,1378.07 1608.26,1379.33 1628.38,1380.51 1648.5,1381.63 1668.62,1382.68 1688.74,1383.68 1708.86,1384.63 1728.99,1385.53 1749.11,1386.38 1769.23,1387.19 1789.35,1387.95 1809.47,1388.66 1829.59,1389.33 1849.72,1389.97 1869.84,1390.58 1889.96,1391.16 1910.08,1391.71 1930.2,1392.23 1950.32,1392.72 1970.45,1393.17 1990.57,1393.6 2010.69,1394.01 2030.81,1394.4 2050.93,1394.78 2071.05,1395.14 2091.18,1395.48 2111.3,1395.78 2131.42,1396.07 2151.54,1396.35 2171.66,1396.61 2191.78,1396.87 2211.9,1397.12 2232.03,1397.35 2252.15,1397.56 2272.27,1397.76 2292.39,1397.95 "/>
<polyline clip-path="url(#clip212)" style="stroke:#fcad60; stroke-linecap:round; stroke-linejoin:round; stroke-width:16; stroke-opacity:1; fill:none" points="280.231,1421.88 300.353,1420.18 320.474,1416.3 340.596,1407.53 360.717,1388.24 380.839,1348.39 400.961,1275.62 421.082,1169.06 441.204,1056.05 461.325,974.188 481.447,935.207 501.569,927.958 521.69,937.635 541.812,955.114 561.933,975.711 582.055,997.118 602.177,1018.38 622.298,1039 642.42,1058.84 662.541,1077.77 682.663,1095.8 702.785,1112.92 722.906,1129.16 743.028,1144.53 763.149,1159.08 783.271,1172.83 803.393,1185.82 823.514,1198.08 843.636,1209.65 863.757,1220.57 883.879,1230.85 904.001,1240.54 924.122,1249.68 944.244,1258.29 964.365,1266.4 984.487,1274.03 1004.61,1281.22 1024.73,1288 1044.85,1294.38 1064.97,1300.4 1085.1,1306.05 1105.22,1311.38 1125.34,1316.41 1145.46,1321.14 1165.58,1325.61 1185.7,1329.82 1205.82,1333.78 1225.95,1337.51 1246.07,1341.04 1266.19,1344.36 1286.31,1347.5 1306.43,1350.46 1326.55,1353.25 1346.68,1355.88 1366.8,1358.36 1386.92,1360.7 1407.04,1362.92 1427.16,1365.02 1447.28,1366.99 1467.41,1368.86 1487.53,1370.62 1507.65,1372.28 1527.77,1373.84 1547.89,1375.33 1568.01,1376.74 1588.14,1378.07 1608.26,1379.33 1628.38,1380.51 1648.5,1381.63 1668.62,1382.68 1688.74,1383.68 1708.86,1384.63 1728.99,1385.53 1749.11,1386.38 1769.23,1387.19 1789.35,1387.95 1809.47,1388.66 1829.59,1389.33 1849.72,1389.97 1869.84,1390.58 1889.96,1391.16 1910.08,1391.71 1930.2,1392.23 1950.32,1392.72 1970.45,1393.17 1990.57,1393.6 2010.69,1394.01 2030.81,1394.4 2050.93,1394.78 2071.05,1395.14 2091.18,1395.48 2111.3,1395.78 2131.42,1396.07 2151.54,1396.35 2171.66,1396.61 2191.78,1396.87 2211.9,1397.12 2232.03,1397.35 2252.15,1397.56 2272.27,1397.76 2292.39,1397.95 "/>
<polyline clip-path="url(#clip212)" style="stroke:#fddf8a; stroke-linecap:round; stroke-linejoin:round; stroke-width:16; stroke-opacity:1; fill:none" points="280.231,1423.18 300.353,1423.18 320.474,1423.17 340.596,1423.15 360.717,1423.02 380.839,1422.42 400.961,1419.9 421.082,1411.56 441.204,1391.53 461.325,1357.33 481.447,1312.78 501.569,1263.61 521.69,1213.7 541.812,1164.85 561.933,1117.76 582.055,1072.65 602.177,1029.57 622.298,988.515 642.42,949.455 662.541,912.339 682.663,877.122 702.785,843.752 722.906,812.158 743.028,782.286 763.149,754.072 783.271,727.437 803.393,702.306 823.514,678.622 843.636,656.317 863.757,635.307 883.879,615.515 904.001,596.892 924.122,579.382 944.244,562.917 964.365,547.417 984.487,532.821 1004.61,519.098 1024.73,506.207 1044.85,494.095 1064.97,482.694 1085.1,471.941 1105.22,461.817 1125.34,452.304 1145.46,443.372 1165.58,434.979 1185.7,427.068 1205.82,419.583 1225.95,412.519 1246.07,405.878 1266.19,399.647 1286.31,393.799 1306.43,388.294 1326.55,383.079 1346.68,378.116 1366.8,373.426 1386.92,369.022 1407.04,364.901 1427.16,361.044 1447.28,357.418 1467.41,353.973 1487.53,350.655 1507.65,347.489 1527.77,344.514 1547.89,341.746 1568.01,339.182 1588.14,336.796 1608.26,334.542 1628.38,332.354 1648.5,330.192 1668.62,328.124 1688.74,326.204 1708.86,324.458 1728.99,322.878 1749.11,321.428 1769.23,320.041 1789.35,318.623 1809.47,317.165 1829.59,315.775 1849.72,314.52 1869.84,313.429 1889.96,312.487 1910.08,311.64 1930.2,310.791 1950.32,309.82 1970.45,308.798 1990.57,307.85 2010.69,307.043 2030.81,306.393 2050.93,305.869 2071.05,305.39 2091.18,304.826 2111.3,304.102 2131.42,303.378 2151.54,302.752 2171.66,302.269 2191.78,301.923 2211.9,301.657 2232.03,301.363 2252.15,300.916 2272.27,300.474 2292.39,300.077 "/>
<polyline clip-path="url(#clip212)" style="stroke:#e6f597; stroke-linecap:round; stroke-linejoin:round; stroke-width:16; stroke-opacity:1; fill:none" points="280.231,1420.58 300.353,1417.18 320.474,1409.39 340.596,1391.73 360.717,1352.8 380.839,1271.85 400.961,1122.35 421.082,898.362 441.204,649.155 461.325,448.513 481.447,324.34 501.569,259.956 521.69,229.246 541.812,215.515 561.933,209.951 582.055,208.071 602.177,207.977 622.298,208.666 642.42,209.779 662.541,211.043 682.663,212.384 702.785,213.763 722.906,215.122 743.028,216.473 763.149,217.818 783.271,219.123 803.393,220.382 823.514,221.622 843.636,222.845 863.757,224.022 883.879,225.136 904.001,226.222 924.122,227.294 944.244,228.342 964.365,229.328 984.487,230.25 1004.61,231.147 1024.73,232.034 1044.85,232.906 1064.97,233.731 1085.1,234.479 1105.22,235.187 1125.34,235.885 1145.46,236.582 1165.58,237.266 1185.7,237.907 1205.82,238.47 1225.95,238.99 1246.07,239.503 1266.19,240.025 1286.31,240.552 1306.43,241.062 1326.55,241.515 1346.68,241.889 1366.8,242.234 1386.92,242.586 1407.04,242.962 1427.16,243.358 1447.28,243.749 1467.41,244.093 1487.53,244.342 1507.65,244.54 1527.77,244.745 1547.89,244.989 1568.01,245.279 1588.14,245.597 1608.26,245.899 1628.38,246.116 1648.5,246.214 1668.62,246.281 1688.74,246.385 1708.86,246.561 1728.99,246.809 1749.11,247.094 1769.23,247.346 1789.35,247.463 1809.47,247.443 1829.59,247.413 1849.72,247.452 1869.84,247.597 1889.96,247.835 1910.08,248.109 1930.2,248.316 1950.32,248.325 1970.45,248.22 1990.57,248.142 2010.69,248.167 2030.81,248.318 2050.93,248.562 2071.05,248.811 2091.18,248.924 2111.3,248.822 2131.42,248.684 2151.54,248.618 2171.66,248.676 2191.78,248.853 2211.9,249.089 2232.03,249.266 2252.15,249.248 2272.27,249.211 2292.39,249.2 "/>
<polyline clip-path="url(#clip212)" style="stroke:#abdda3; stroke-linecap:round; stroke-linejoin:round; stroke-width:16; stroke-opacity:1; fill:none" points="280.231,1420.58 300.353,1417.19 320.474,1409.42 340.596,1391.84 360.717,1353.15 380.839,1272.83 400.961,1124.77 421.082,903.316 441.204,657.276 461.325,459.347 481.447,336.831 501.569,273.171 521.69,242.613 541.812,228.718 561.933,222.823 582.055,220.525 602.177,219.963 622.298,220.159 642.42,220.766 662.541,221.522 682.663,222.358 702.785,223.239 722.906,224.112 743.028,224.991 763.149,225.879 783.271,226.746 803.393,227.585 823.514,228.425 843.636,229.266 863.757,230.081 883.879,230.852 904.001,231.613 924.122,232.38 944.244,233.139 964.365,233.854 984.487,234.521 1004.61,235.178 1024.73,235.84 1044.85,236.5 1064.97,237.126 1085.1,237.689 1105.22,238.223 1125.34,238.758 1145.46,239.302 1165.58,239.843 1185.7,240.35 1205.82,240.787 1225.95,241.189 1246.07,241.592 1266.19,242.01 1286.31,242.44 1306.43,242.859 1326.55,243.226 1346.68,243.52 1366.8,243.79 1386.92,244.072 1407.04,244.381 1427.16,244.715 1447.28,245.048 1467.41,245.337 1487.53,245.534 1507.65,245.683 1527.77,245.843 1547.89,246.044 1568.01,246.294 1588.14,246.574 1608.26,246.84 1628.38,247.023 1648.5,247.09 1668.62,247.127 1688.74,247.203 1708.86,247.352 1728.99,247.575 1749.11,247.835 1769.23,248.065 1789.35,248.161 1809.47,248.122 1829.59,248.073 1849.72,248.095 1869.84,248.223 1889.96,248.445 1910.08,248.704 1930.2,248.897 1950.32,248.892 1970.45,248.775 1990.57,248.685 2010.69,248.699 2030.81,248.84 2050.93,249.073 2071.05,249.313 2091.18,249.417 2111.3,249.307 2131.42,249.16 2151.54,249.087 2171.66,249.138 2191.78,249.309 2211.9,249.538 2232.03,249.709 2252.15,249.685 2272.27,249.642 2292.39,249.626 "/>
<polyline clip-path="url(#clip212)" style="stroke:#66c2a4; stroke-linecap:round; stroke-linejoin:round; stroke-width:16; stroke-opacity:1; fill:none" points="280.231,1421.88 300.353,1420.18 320.474,1416.3 340.596,1407.5 360.717,1388.09 380.839,1347.62 400.961,1272.33 421.082,1157.44 441.204,1024.4 461.325,908.339 481.447,824.803 501.569,768.392 521.69,728.157 541.812,696.784 561.933,670.292 582.055,646.586 602.177,624.768 622.298,604.337 642.42,585.111 662.541,566.931 682.663,549.74 702.785,533.495 722.906,518.135 743.028,503.639 763.149,489.976 783.271,477.091 803.393,464.946 823.514,453.524 843.636,442.792 863.757,432.694 883.879,423.183 904.001,414.253 924.122,405.881 944.244,398.028 964.365,390.636 984.487,383.671 1004.61,377.138 1024.73,371.023 1044.85,365.297 1064.97,359.91 1085.1,354.815 1105.22,350.02 1125.34,345.531 1145.46,341.337 1165.58,337.411 1185.7,333.709 1205.82,330.185 1225.95,326.854 1246.07,323.735 1266.19,320.829 1286.31,318.119 1306.43,315.576 1326.55,313.153 1346.68,310.818 1366.8,308.608 1386.92,306.547 1407.04,304.641 1427.16,302.88 1447.28,301.233 1467.41,299.655 1487.53,298.094 1507.65,296.586 1527.77,295.178 1547.89,293.895 1568.01,292.738 1588.14,291.685 1608.26,290.691 1628.38,289.689 1648.5,288.641 1668.62,287.625 1688.74,286.704 1708.86,285.905 1728.99,285.226 1749.11,284.631 1769.23,284.053 1789.35,283.392 1809.47,282.644 1829.59,281.924 1849.72,281.307 1869.84,280.826 1889.96,280.466 1910.08,280.172 1930.2,279.844 1950.32,279.356 1970.45,278.786 1990.57,278.268 2010.69,277.871 2030.81,277.616 2050.93,277.471 2071.05,277.352 2091.18,277.121 2111.3,276.704 2131.42,276.269 2151.54,275.919 2171.66,275.703 2191.78,275.616 2211.9,275.598 2232.03,275.536 2252.15,275.3 2272.27,275.058 2292.39,274.852 "/>
<polyline clip-path="url(#clip212)" style="stroke:#3187bc; stroke-linecap:round; stroke-linejoin:round; stroke-width:16; stroke-opacity:1; fill:none" points="280.231,1421.88 300.353,1420.18 320.474,1416.3 340.596,1407.5 360.717,1388.09 380.839,1347.62 400.961,1272.33 421.082,1157.44 441.204,1024.4 461.325,908.339 481.447,824.803 501.569,768.392 521.69,728.157 541.812,696.784 561.933,670.292 582.055,646.586 602.177,624.768 622.298,604.337 642.42,585.111 662.541,566.931 682.663,549.74 702.785,533.495 722.906,518.135 743.028,503.639 763.149,489.976 783.271,477.091 803.393,464.946 823.514,453.524 843.636,442.792 863.757,432.694 883.879,423.183 904.001,414.253 924.122,405.881 944.244,398.028 964.365,390.636 984.487,383.671 1004.61,377.138 1024.73,371.023 1044.85,365.297 1064.97,359.91 1085.1,354.815 1105.22,350.02 1125.34,345.531 1145.46,341.337 1165.58,337.411 1185.7,333.709 1205.82,330.185 1225.95,326.854 1246.07,323.735 1266.19,320.829 1286.31,318.119 1306.43,315.576 1326.55,313.153 1346.68,310.818 1366.8,308.608 1386.92,306.547 1407.04,304.641 1427.16,302.88 1447.28,301.233 1467.41,299.655 1487.53,298.094 1507.65,296.586 1527.77,295.178 1547.89,293.895 1568.01,292.738 1588.14,291.685 1608.26,290.691 1628.38,289.689 1648.5,288.641 1668.62,287.625 1688.74,286.704 1708.86,285.905 1728.99,285.226 1749.11,284.631 1769.23,284.053 1789.35,283.392 1809.47,282.644 1829.59,281.924 1849.72,281.307 1869.84,280.826 1889.96,280.466 1910.08,280.172 1930.2,279.844 1950.32,279.356 1970.45,278.786 1990.57,278.268 2010.69,277.871 2030.81,277.616 2050.93,277.471 2071.05,277.352 2091.18,277.121 2111.3,276.704 2131.42,276.269 2151.54,275.919 2171.66,275.703 2191.78,275.616 2211.9,275.598 2232.03,275.536 2252.15,275.3 2272.27,275.058 2292.39,274.852 "/>
<path clip-path="url(#clip210)" d="M1825.15 1379.86 L2281.66 1379.86 L2281.66 913.296 L1825.15 913.296  Z" fill="#ffffff" fill-rule="evenodd" fill-opacity="1"/>
<polyline clip-path="url(#clip210)" style="stroke:#000000; stroke-linecap:round; stroke-linejoin:round; stroke-width:4; stroke-opacity:1; fill:none" points="1825.15,1379.86 2281.66,1379.86 2281.66,913.296 1825.15,913.296 1825.15,1379.86 "/>
<polyline clip-path="url(#clip210)" style="stroke:#d43d4f; stroke-linecap:round; stroke-linejoin:round; stroke-width:16; stroke-opacity:1; fill:none" points="1848.85,965.136 1991.05,965.136 "/>
<path clip-path="url(#clip210)" d="M2014.74 956.49 L2019.26 956.49 L2027.36 978.25 L2035.46 956.49 L2039.98 956.49 L2030.25 982.416 L2024.47 982.416 L2014.74 956.49 Z" fill="#000000" fill-rule="nonzero" fill-opacity="1" /><path clip-path="url(#clip210)" d="M2056.46 950.935 Q2052.85 950.935 2051.02 954.5 Q2049.21 958.041 2049.21 965.171 Q2049.21 972.277 2051.02 975.842 Q2052.85 979.384 2056.46 979.384 Q2060.09 979.384 2061.9 975.842 Q2063.73 972.277 2063.73 965.171 Q2063.73 958.041 2061.9 954.5 Q2060.09 950.935 2056.46 950.935 M2056.46 947.231 Q2062.27 947.231 2065.32 951.838 Q2068.4 956.421 2068.4 965.171 Q2068.4 973.898 2065.32 978.504 Q2062.27 983.088 2056.46 983.088 Q2050.65 983.088 2047.57 978.504 Q2044.51 973.898 2044.51 965.171 Q2044.51 956.421 2047.57 951.838 Q2050.65 947.231 2056.46 947.231 Z" fill="#000000" fill-rule="nonzero" fill-opacity="1" /><path clip-path="url(#clip210)" d="M2086.62 950.935 Q2083.01 950.935 2081.18 954.5 Q2079.37 958.041 2079.37 965.171 Q2079.37 972.277 2081.18 975.842 Q2083.01 979.384 2086.62 979.384 Q2090.25 979.384 2092.06 975.842 Q2093.89 972.277 2093.89 965.171 Q2093.89 958.041 2092.06 954.5 Q2090.25 950.935 2086.62 950.935 M2086.62 947.231 Q2092.43 947.231 2095.48 951.838 Q2098.56 956.421 2098.56 965.171 Q2098.56 973.898 2095.48 978.504 Q2092.43 983.088 2086.62 983.088 Q2080.81 983.088 2077.73 978.504 Q2074.67 973.898 2074.67 965.171 Q2074.67 956.421 2077.73 951.838 Q2080.81 947.231 2086.62 947.231 Z" fill="#000000" fill-rule="nonzero" fill-opacity="1" /><polyline clip-path="url(#clip210)" style="stroke:#f46c43; stroke-linecap:round; stroke-linejoin:round; stroke-width:16; stroke-opacity:1; fill:none" points="1848.85,1016.98 1991.05,1016.98 "/>
<path clip-path="url(#clip210)" d="M2014.74 1008.33 L2019.26 1008.33 L2027.36 1030.09 L2035.46 1008.33 L2039.98 1008.33 L2030.25 1034.26 L2024.47 1034.26 L2014.74 1008.33 Z" fill="#000000" fill-rule="nonzero" fill-opacity="1" /><path clip-path="url(#clip210)" d="M2047.27 1030.32 L2054.91 1030.32 L2054.91 1003.96 L2046.6 1005.62 L2046.6 1001.36 L2054.86 999.696 L2059.54 999.696 L2059.54 1030.32 L2067.17 1030.32 L2067.17 1034.26 L2047.27 1034.26 L2047.27 1030.32 Z" fill="#000000" fill-rule="nonzero" fill-opacity="1" /><path clip-path="url(#clip210)" d="M2086.62 1002.77 Q2083.01 1002.77 2081.18 1006.34 Q2079.37 1009.88 2079.37 1017.01 Q2079.37 1024.12 2081.18 1027.68 Q2083.01 1031.22 2086.62 1031.22 Q2090.25 1031.22 2092.06 1027.68 Q2093.89 1024.12 2093.89 1017.01 Q2093.89 1009.88 2092.06 1006.34 Q2090.25 1002.77 2086.62 1002.77 M2086.62 999.071 Q2092.43 999.071 2095.48 1003.68 Q2098.56 1008.26 2098.56 1017.01 Q2098.56 1025.74 2095.48 1030.34 Q2092.43 1034.93 2086.62 1034.93 Q2080.81 1034.93 2077.73 1030.34 Q2074.67 1025.74 2074.67 1017.01 Q2074.67 1008.26 2077.73 1003.68 Q2080.81 999.071 2086.62 999.071 Z" fill="#000000" fill-rule="nonzero" fill-opacity="1" /><polyline clip-path="url(#clip210)" style="stroke:#fcad60; stroke-linecap:round; stroke-linejoin:round; stroke-width:16; stroke-opacity:1; fill:none" points="1848.85,1068.82 1991.05,1068.82 "/>
<path clip-path="url(#clip210)" d="M2014.74 1060.17 L2019.26 1060.17 L2027.36 1081.93 L2035.46 1060.17 L2039.98 1060.17 L2030.25 1086.1 L2024.47 1086.1 L2014.74 1060.17 Z" fill="#000000" fill-rule="nonzero" fill-opacity="1" /><path clip-path="url(#clip210)" d="M2056.46 1054.61 Q2052.85 1054.61 2051.02 1058.18 Q2049.21 1061.72 2049.21 1068.85 Q2049.21 1075.96 2051.02 1079.52 Q2052.85 1083.06 2056.46 1083.06 Q2060.09 1083.06 2061.9 1079.52 Q2063.73 1075.96 2063.73 1068.85 Q2063.73 1061.72 2061.9 1058.18 Q2060.09 1054.61 2056.46 1054.61 M2056.46 1050.91 Q2062.27 1050.91 2065.32 1055.52 Q2068.4 1060.1 2068.4 1068.85 Q2068.4 1077.58 2065.32 1082.18 Q2062.27 1086.77 2056.46 1086.77 Q2050.65 1086.77 2047.57 1082.18 Q2044.51 1077.58 2044.51 1068.85 Q2044.51 1060.1 2047.57 1055.52 Q2050.65 1050.91 2056.46 1050.91 Z" fill="#000000" fill-rule="nonzero" fill-opacity="1" /><path clip-path="url(#clip210)" d="M2077.43 1082.16 L2085.07 1082.16 L2085.07 1055.8 L2076.76 1057.46 L2076.76 1053.2 L2085.02 1051.54 L2089.7 1051.54 L2089.7 1082.16 L2097.34 1082.16 L2097.34 1086.1 L2077.43 1086.1 L2077.43 1082.16 Z" fill="#000000" fill-rule="nonzero" fill-opacity="1" /><polyline clip-path="url(#clip210)" style="stroke:#fddf8a; stroke-linecap:round; stroke-linejoin:round; stroke-width:16; stroke-opacity:1; fill:none" points="1848.85,1120.66 1991.05,1120.66 "/>
<path clip-path="url(#clip210)" d="M2014.74 1112.01 L2019.26 1112.01 L2027.36 1133.77 L2035.46 1112.01 L2039.98 1112.01 L2030.25 1137.94 L2024.47 1137.94 L2014.74 1112.01 Z" fill="#000000" fill-rule="nonzero" fill-opacity="1" /><path clip-path="url(#clip210)" d="M2047.27 1134 L2054.91 1134 L2054.91 1107.64 L2046.6 1109.3 L2046.6 1105.04 L2054.86 1103.38 L2059.54 1103.38 L2059.54 1134 L2067.17 1134 L2067.17 1137.94 L2047.27 1137.94 L2047.27 1134 Z" fill="#000000" fill-rule="nonzero" fill-opacity="1" /><path clip-path="url(#clip210)" d="M2077.43 1134 L2085.07 1134 L2085.07 1107.64 L2076.76 1109.3 L2076.76 1105.04 L2085.02 1103.38 L2089.7 1103.38 L2089.7 1134 L2097.34 1134 L2097.34 1137.94 L2077.43 1137.94 L2077.43 1134 Z" fill="#000000" fill-rule="nonzero" fill-opacity="1" /><polyline clip-path="url(#clip210)" style="stroke:#e6f597; stroke-linecap:round; stroke-linejoin:round; stroke-width:16; stroke-opacity:1; fill:none" points="1848.85,1172.5 1991.05,1172.5 "/>
<path clip-path="url(#clip210)" d="M2014.74 1155.22 L2043.98 1155.22 L2043.98 1159.15 L2031.71 1159.15 L2031.71 1189.78 L2027.01 1189.78 L2027.01 1159.15 L2014.74 1159.15 L2014.74 1155.22 Z" fill="#000000" fill-rule="nonzero" fill-opacity="1" /><path clip-path="url(#clip210)" d="M2050.3 1166.84 Q2046.87 1166.84 2044.88 1169.52 Q2042.89 1172.18 2042.89 1176.84 Q2042.89 1181.49 2044.86 1184.17 Q2046.85 1186.84 2050.3 1186.84 Q2053.7 1186.84 2055.69 1184.15 Q2057.68 1181.47 2057.68 1176.84 Q2057.68 1172.23 2055.69 1169.54 Q2053.7 1166.84 2050.3 1166.84 M2050.3 1163.23 Q2055.86 1163.23 2059.03 1166.84 Q2062.2 1170.45 2062.2 1176.84 Q2062.2 1183.2 2059.03 1186.84 Q2055.86 1190.45 2050.3 1190.45 Q2044.72 1190.45 2041.55 1186.84 Q2038.4 1183.2 2038.4 1176.84 Q2038.4 1170.45 2041.55 1166.84 Q2044.72 1163.23 2050.3 1163.23 Z" fill="#000000" fill-rule="nonzero" fill-opacity="1" /><path clip-path="url(#clip210)" d="M2073.47 1156.49 L2073.47 1163.85 L2082.24 1163.85 L2082.24 1167.16 L2073.47 1167.16 L2073.47 1181.23 Q2073.47 1184.41 2074.33 1185.31 Q2075.21 1186.21 2077.87 1186.21 L2082.24 1186.21 L2082.24 1189.78 L2077.87 1189.78 Q2072.94 1189.78 2071.06 1187.95 Q2069.19 1186.1 2069.19 1181.23 L2069.19 1167.16 L2066.06 1167.16 L2066.06 1163.85 L2069.19 1163.85 L2069.19 1156.49 L2073.47 1156.49 Z" fill="#000000" fill-rule="nonzero" fill-opacity="1" /><path clip-path="url(#clip210)" d="M2099.63 1176.74 Q2094.47 1176.74 2092.48 1177.92 Q2090.48 1179.11 2090.48 1181.95 Q2090.48 1184.22 2091.97 1185.56 Q2093.47 1186.88 2096.04 1186.88 Q2099.58 1186.88 2101.71 1184.38 Q2103.86 1181.86 2103.86 1177.69 L2103.86 1176.74 L2099.63 1176.74 M2108.12 1174.98 L2108.12 1189.78 L2103.86 1189.78 L2103.86 1185.84 Q2102.41 1188.2 2100.23 1189.34 Q2098.05 1190.45 2094.91 1190.45 Q2090.92 1190.45 2088.56 1188.23 Q2086.23 1185.98 2086.23 1182.23 Q2086.23 1177.86 2089.14 1175.63 Q2092.08 1173.41 2097.89 1173.41 L2103.86 1173.41 L2103.86 1172.99 Q2103.86 1170.05 2101.92 1168.46 Q2100 1166.84 2096.5 1166.84 Q2094.28 1166.84 2092.17 1167.37 Q2090.07 1167.9 2088.12 1168.97 L2088.12 1165.03 Q2090.46 1164.13 2092.66 1163.69 Q2094.86 1163.23 2096.94 1163.23 Q2102.57 1163.23 2105.35 1166.14 Q2108.12 1169.06 2108.12 1174.98 Z" fill="#000000" fill-rule="nonzero" fill-opacity="1" /><path clip-path="url(#clip210)" d="M2116.9 1153.76 L2121.16 1153.76 L2121.16 1189.78 L2116.9 1189.78 L2116.9 1153.76 Z" fill="#000000" fill-rule="nonzero" fill-opacity="1" /><polyline clip-path="url(#clip210)" style="stroke:#abdda3; stroke-linecap:round; stroke-linejoin:round; stroke-width:16; stroke-opacity:1; fill:none" points="1848.85,1224.34 1991.05,1224.34 "/>
<path clip-path="url(#clip210)" d="M2019.42 1210.9 L2019.42 1223.88 L2025.3 1223.88 Q2028.56 1223.88 2030.35 1222.2 Q2032.13 1220.51 2032.13 1217.38 Q2032.13 1214.28 2030.35 1212.59 Q2028.56 1210.9 2025.3 1210.9 L2019.42 1210.9 M2014.74 1207.06 L2025.3 1207.06 Q2031.11 1207.06 2034.07 1209.7 Q2037.06 1212.31 2037.06 1217.38 Q2037.06 1222.5 2034.07 1225.11 Q2031.11 1227.73 2025.3 1227.73 L2019.42 1227.73 L2019.42 1241.62 L2014.74 1241.62 L2014.74 1207.06 Z" fill="#000000" fill-rule="nonzero" fill-opacity="1" /><path clip-path="url(#clip210)" d="M2057.34 1219.67 Q2056.62 1219.26 2055.76 1219.07 Q2054.93 1218.86 2053.91 1218.86 Q2050.3 1218.86 2048.36 1221.22 Q2046.43 1223.56 2046.43 1227.96 L2046.43 1241.62 L2042.15 1241.62 L2042.15 1215.69 L2046.43 1215.69 L2046.43 1219.72 Q2047.78 1217.36 2049.93 1216.22 Q2052.08 1215.07 2055.16 1215.07 Q2055.6 1215.07 2056.13 1215.13 Q2056.67 1215.18 2057.31 1215.3 L2057.34 1219.67 Z" fill="#000000" fill-rule="nonzero" fill-opacity="1" /><path clip-path="url(#clip210)" d="M2070.81 1218.68 Q2067.38 1218.68 2065.39 1221.36 Q2063.4 1224.02 2063.4 1228.68 Q2063.4 1233.33 2065.37 1236.01 Q2067.36 1238.68 2070.81 1238.68 Q2074.21 1238.68 2076.2 1235.99 Q2078.19 1233.31 2078.19 1228.68 Q2078.19 1224.07 2076.2 1221.38 Q2074.21 1218.68 2070.81 1218.68 M2070.81 1215.07 Q2076.36 1215.07 2079.54 1218.68 Q2082.71 1222.29 2082.71 1228.68 Q2082.71 1235.04 2079.54 1238.68 Q2076.36 1242.29 2070.81 1242.29 Q2065.23 1242.29 2062.06 1238.68 Q2058.91 1235.04 2058.91 1228.68 Q2058.91 1222.29 2062.06 1218.68 Q2065.23 1215.07 2070.81 1215.07 Z" fill="#000000" fill-rule="nonzero" fill-opacity="1" /><path clip-path="url(#clip210)" d="M2106.83 1219.63 L2106.83 1205.6 L2111.09 1205.6 L2111.09 1241.62 L2106.83 1241.62 L2106.83 1237.73 Q2105.48 1240.04 2103.42 1241.18 Q2101.39 1242.29 2098.52 1242.29 Q2093.82 1242.29 2090.86 1238.54 Q2087.92 1234.79 2087.92 1228.68 Q2087.92 1222.57 2090.86 1218.82 Q2093.82 1215.07 2098.52 1215.07 Q2101.39 1215.07 2103.42 1216.2 Q2105.48 1217.31 2106.83 1219.63 M2092.31 1228.68 Q2092.31 1233.38 2094.23 1236.06 Q2096.18 1238.72 2099.56 1238.72 Q2102.94 1238.72 2104.88 1236.06 Q2106.83 1233.38 2106.83 1228.68 Q2106.83 1223.98 2104.88 1221.32 Q2102.94 1218.63 2099.56 1218.63 Q2096.18 1218.63 2094.23 1221.32 Q2092.31 1223.98 2092.31 1228.68 Z" fill="#000000" fill-rule="nonzero" fill-opacity="1" /><path clip-path="url(#clip210)" d="M2119.42 1231.38 L2119.42 1215.69 L2123.68 1215.69 L2123.68 1231.22 Q2123.68 1234.9 2125.11 1236.76 Q2126.55 1238.58 2129.42 1238.58 Q2132.87 1238.58 2134.86 1236.38 Q2136.87 1234.19 2136.87 1230.39 L2136.87 1215.69 L2141.13 1215.69 L2141.13 1241.62 L2136.87 1241.62 L2136.87 1237.63 Q2135.32 1240 2133.26 1241.15 Q2131.23 1242.29 2128.52 1242.29 Q2124.05 1242.29 2121.73 1239.51 Q2119.42 1236.73 2119.42 1231.38 M2130.14 1215.07 L2130.14 1215.07 Z" fill="#000000" fill-rule="nonzero" fill-opacity="1" /><path clip-path="url(#clip210)" d="M2168.56 1216.69 L2168.56 1220.67 Q2166.76 1219.67 2164.93 1219.19 Q2163.12 1218.68 2161.27 1218.68 Q2157.13 1218.68 2154.84 1221.32 Q2152.54 1223.93 2152.54 1228.68 Q2152.54 1233.42 2154.84 1236.06 Q2157.13 1238.68 2161.27 1238.68 Q2163.12 1238.68 2164.93 1238.19 Q2166.76 1237.68 2168.56 1236.69 L2168.56 1240.62 Q2166.78 1241.45 2164.86 1241.87 Q2162.96 1242.29 2160.81 1242.29 Q2154.95 1242.29 2151.5 1238.61 Q2148.05 1234.93 2148.05 1228.68 Q2148.05 1222.33 2151.53 1218.7 Q2155.02 1215.07 2161.09 1215.07 Q2163.05 1215.07 2164.93 1215.48 Q2166.8 1215.88 2168.56 1216.69 Z" fill="#000000" fill-rule="nonzero" fill-opacity="1" /><path clip-path="url(#clip210)" d="M2180.18 1208.33 L2180.18 1215.69 L2188.96 1215.69 L2188.96 1219 L2180.18 1219 L2180.18 1233.07 Q2180.18 1236.25 2181.04 1237.15 Q2181.92 1238.05 2184.58 1238.05 L2188.96 1238.05 L2188.96 1241.62 L2184.58 1241.62 Q2179.65 1241.62 2177.78 1239.79 Q2175.9 1237.94 2175.9 1233.07 L2175.9 1219 L2172.78 1219 L2172.78 1215.69 L2175.9 1215.69 L2175.9 1208.33 L2180.18 1208.33 Z" fill="#000000" fill-rule="nonzero" fill-opacity="1" /><path clip-path="url(#clip210)" d="M2194.56 1215.69 L2198.82 1215.69 L2198.82 1241.62 L2194.56 1241.62 L2194.56 1215.69 M2194.56 1205.6 L2198.82 1205.6 L2198.82 1210.99 L2194.56 1210.99 L2194.56 1205.6 Z" fill="#000000" fill-rule="nonzero" fill-opacity="1" /><path clip-path="url(#clip210)" d="M2204.67 1215.69 L2209.19 1215.69 L2217.29 1237.45 L2225.39 1215.69 L2229.91 1215.69 L2220.18 1241.62 L2214.4 1241.62 L2204.67 1215.69 Z" fill="#000000" fill-rule="nonzero" fill-opacity="1" /><path clip-path="url(#clip210)" d="M2257.96 1227.59 L2257.96 1229.67 L2238.38 1229.67 Q2238.66 1234.07 2241.02 1236.38 Q2243.4 1238.68 2247.64 1238.68 Q2250.09 1238.68 2252.38 1238.07 Q2254.7 1237.47 2256.97 1236.27 L2256.97 1240.3 Q2254.67 1241.27 2252.27 1241.78 Q2249.86 1242.29 2247.38 1242.29 Q2241.18 1242.29 2237.54 1238.68 Q2233.93 1235.07 2233.93 1228.91 Q2233.93 1222.54 2237.36 1218.82 Q2240.81 1215.07 2246.64 1215.07 Q2251.87 1215.07 2254.91 1218.45 Q2257.96 1221.8 2257.96 1227.59 M2253.7 1226.34 Q2253.66 1222.84 2251.73 1220.76 Q2249.84 1218.68 2246.69 1218.68 Q2243.12 1218.68 2240.97 1220.69 Q2238.84 1222.7 2238.52 1226.36 L2253.7 1226.34 Z" fill="#000000" fill-rule="nonzero" fill-opacity="1" /><polyline clip-path="url(#clip210)" style="stroke:#66c2a4; stroke-linecap:round; stroke-linejoin:round; stroke-width:16; stroke-opacity:1; fill:none" points="1848.85,1276.18 1991.05,1276.18 "/>
<path clip-path="url(#clip210)" d="M2014.74 1258.9 L2021.71 1258.9 L2030.53 1282.41 L2039.4 1258.9 L2046.36 1258.9 L2046.36 1293.46 L2041.8 1293.46 L2041.8 1263.11 L2032.89 1286.81 L2028.19 1286.81 L2019.28 1263.11 L2019.28 1293.46 L2014.74 1293.46 L2014.74 1258.9 Z" fill="#000000" fill-rule="nonzero" fill-opacity="1" /><path clip-path="url(#clip210)" d="M2065.51 1270.52 Q2062.08 1270.52 2060.09 1273.2 Q2058.1 1275.86 2058.1 1280.52 Q2058.1 1285.17 2060.07 1287.85 Q2062.06 1290.52 2065.51 1290.52 Q2068.91 1290.52 2070.9 1287.83 Q2072.89 1285.15 2072.89 1280.52 Q2072.89 1275.91 2070.9 1273.22 Q2068.91 1270.52 2065.51 1270.52 M2065.51 1266.91 Q2071.06 1266.91 2074.23 1270.52 Q2077.41 1274.13 2077.41 1280.52 Q2077.41 1286.88 2074.23 1290.52 Q2071.06 1294.13 2065.51 1294.13 Q2059.93 1294.13 2056.76 1290.52 Q2053.61 1286.88 2053.61 1280.52 Q2053.61 1274.13 2056.76 1270.52 Q2059.93 1266.91 2065.51 1266.91 Z" fill="#000000" fill-rule="nonzero" fill-opacity="1" /><path clip-path="url(#clip210)" d="M2101.53 1271.47 L2101.53 1257.44 L2105.79 1257.44 L2105.79 1293.46 L2101.53 1293.46 L2101.53 1289.57 Q2100.18 1291.88 2098.12 1293.02 Q2096.09 1294.13 2093.22 1294.13 Q2088.52 1294.13 2085.55 1290.38 Q2082.61 1286.63 2082.61 1280.52 Q2082.61 1274.41 2085.55 1270.66 Q2088.52 1266.91 2093.22 1266.91 Q2096.09 1266.91 2098.12 1268.04 Q2100.18 1269.15 2101.53 1271.47 M2087.01 1280.52 Q2087.01 1285.22 2088.93 1287.9 Q2090.88 1290.56 2094.26 1290.56 Q2097.64 1290.56 2099.58 1287.9 Q2101.53 1285.22 2101.53 1280.52 Q2101.53 1275.82 2099.58 1273.16 Q2097.64 1270.47 2094.26 1270.47 Q2090.88 1270.47 2088.93 1273.16 Q2087.01 1275.82 2087.01 1280.52 Z" fill="#000000" fill-rule="nonzero" fill-opacity="1" /><path clip-path="url(#clip210)" d="M2114.12 1283.22 L2114.12 1267.53 L2118.38 1267.53 L2118.38 1283.06 Q2118.38 1286.74 2119.81 1288.6 Q2121.25 1290.42 2124.12 1290.42 Q2127.57 1290.42 2129.56 1288.22 Q2131.57 1286.03 2131.57 1282.23 L2131.57 1267.53 L2135.83 1267.53 L2135.83 1293.46 L2131.57 1293.46 L2131.57 1289.47 Q2130.02 1291.84 2127.96 1292.99 Q2125.92 1294.13 2123.22 1294.13 Q2118.75 1294.13 2116.43 1291.35 Q2114.12 1288.57 2114.12 1283.22 M2124.84 1266.91 L2124.84 1266.91 Z" fill="#000000" fill-rule="nonzero" fill-opacity="1" /><path clip-path="url(#clip210)" d="M2144.6 1257.44 L2148.86 1257.44 L2148.86 1293.46 L2144.6 1293.46 L2144.6 1257.44 Z" fill="#000000" fill-rule="nonzero" fill-opacity="1" /><path clip-path="url(#clip210)" d="M2179.95 1279.43 L2179.95 1281.51 L2160.37 1281.51 Q2160.65 1285.91 2163.01 1288.22 Q2165.39 1290.52 2169.63 1290.52 Q2172.08 1290.52 2174.37 1289.91 Q2176.69 1289.31 2178.96 1288.11 L2178.96 1292.14 Q2176.66 1293.11 2174.26 1293.62 Q2171.85 1294.13 2169.37 1294.13 Q2163.17 1294.13 2159.54 1290.52 Q2155.92 1286.91 2155.92 1280.75 Q2155.92 1274.38 2159.35 1270.66 Q2162.8 1266.91 2168.63 1266.91 Q2173.86 1266.91 2176.9 1270.29 Q2179.95 1273.64 2179.95 1279.43 M2175.69 1278.18 Q2175.65 1274.68 2173.73 1272.6 Q2171.83 1270.52 2168.68 1270.52 Q2165.11 1270.52 2162.96 1272.53 Q2160.83 1274.54 2160.51 1278.2 L2175.69 1278.18 Z" fill="#000000" fill-rule="nonzero" fill-opacity="1" /><path clip-path="url(#clip210)" d="M2213.75 1263.5 L2207.41 1280.7 L2220.11 1280.7 L2213.75 1263.5 M2211.11 1258.9 L2216.41 1258.9 L2229.58 1293.46 L2224.72 1293.46 L2221.57 1284.59 L2205.99 1284.59 L2202.85 1293.46 L2197.91 1293.46 L2211.11 1258.9 Z" fill="#000000" fill-rule="nonzero" fill-opacity="1" /><polyline clip-path="url(#clip210)" style="stroke:#3187bc; stroke-linecap:round; stroke-linejoin:round; stroke-width:16; stroke-opacity:1; fill:none" points="1848.85,1328.02 1991.05,1328.02 "/>
<path clip-path="url(#clip210)" d="M2014.74 1310.74 L2021.71 1310.74 L2030.53 1334.25 L2039.4 1310.74 L2046.36 1310.74 L2046.36 1345.3 L2041.8 1345.3 L2041.8 1314.95 L2032.89 1338.65 L2028.19 1338.65 L2019.28 1314.95 L2019.28 1345.3 L2014.74 1345.3 L2014.74 1310.74 Z" fill="#000000" fill-rule="nonzero" fill-opacity="1" /><path clip-path="url(#clip210)" d="M2065.51 1322.36 Q2062.08 1322.36 2060.09 1325.04 Q2058.1 1327.7 2058.1 1332.36 Q2058.1 1337.01 2060.07 1339.69 Q2062.06 1342.36 2065.51 1342.36 Q2068.91 1342.36 2070.9 1339.67 Q2072.89 1336.99 2072.89 1332.36 Q2072.89 1327.75 2070.9 1325.06 Q2068.91 1322.36 2065.51 1322.36 M2065.51 1318.75 Q2071.06 1318.75 2074.23 1322.36 Q2077.41 1325.97 2077.41 1332.36 Q2077.41 1338.72 2074.23 1342.36 Q2071.06 1345.97 2065.51 1345.97 Q2059.93 1345.97 2056.76 1342.36 Q2053.61 1338.72 2053.61 1332.36 Q2053.61 1325.97 2056.76 1322.36 Q2059.93 1318.75 2065.51 1318.75 Z" fill="#000000" fill-rule="nonzero" fill-opacity="1" /><path clip-path="url(#clip210)" d="M2101.53 1323.31 L2101.53 1309.28 L2105.79 1309.28 L2105.79 1345.3 L2101.53 1345.3 L2101.53 1341.41 Q2100.18 1343.72 2098.12 1344.86 Q2096.09 1345.97 2093.22 1345.97 Q2088.52 1345.97 2085.55 1342.22 Q2082.61 1338.47 2082.61 1332.36 Q2082.61 1326.25 2085.55 1322.5 Q2088.52 1318.75 2093.22 1318.75 Q2096.09 1318.75 2098.12 1319.88 Q2100.18 1320.99 2101.53 1323.31 M2087.01 1332.36 Q2087.01 1337.06 2088.93 1339.74 Q2090.88 1342.4 2094.26 1342.4 Q2097.64 1342.4 2099.58 1339.74 Q2101.53 1337.06 2101.53 1332.36 Q2101.53 1327.66 2099.58 1325 Q2097.64 1322.31 2094.26 1322.31 Q2090.88 1322.31 2088.93 1325 Q2087.01 1327.66 2087.01 1332.36 Z" fill="#000000" fill-rule="nonzero" fill-opacity="1" /><path clip-path="url(#clip210)" d="M2114.12 1335.06 L2114.12 1319.37 L2118.38 1319.37 L2118.38 1334.9 Q2118.38 1338.58 2119.81 1340.44 Q2121.25 1342.26 2124.12 1342.26 Q2127.57 1342.26 2129.56 1340.06 Q2131.57 1337.87 2131.57 1334.07 L2131.57 1319.37 L2135.83 1319.37 L2135.83 1345.3 L2131.57 1345.3 L2131.57 1341.31 Q2130.02 1343.68 2127.96 1344.83 Q2125.92 1345.97 2123.22 1345.97 Q2118.75 1345.97 2116.43 1343.19 Q2114.12 1340.41 2114.12 1335.06 M2124.84 1318.75 L2124.84 1318.75 Z" fill="#000000" fill-rule="nonzero" fill-opacity="1" /><path clip-path="url(#clip210)" d="M2144.6 1309.28 L2148.86 1309.28 L2148.86 1345.3 L2144.6 1345.3 L2144.6 1309.28 Z" fill="#000000" fill-rule="nonzero" fill-opacity="1" /><path clip-path="url(#clip210)" d="M2179.95 1331.27 L2179.95 1333.35 L2160.37 1333.35 Q2160.65 1337.75 2163.01 1340.06 Q2165.39 1342.36 2169.63 1342.36 Q2172.08 1342.36 2174.37 1341.75 Q2176.69 1341.15 2178.96 1339.95 L2178.96 1343.98 Q2176.66 1344.95 2174.26 1345.46 Q2171.85 1345.97 2169.37 1345.97 Q2163.17 1345.97 2159.54 1342.36 Q2155.92 1338.75 2155.92 1332.59 Q2155.92 1326.22 2159.35 1322.5 Q2162.8 1318.75 2168.63 1318.75 Q2173.86 1318.75 2176.9 1322.13 Q2179.95 1325.48 2179.95 1331.27 M2175.69 1330.02 Q2175.65 1326.52 2173.73 1324.44 Q2171.83 1322.36 2168.68 1322.36 Q2165.11 1322.36 2162.96 1324.37 Q2160.83 1326.38 2160.51 1330.04 L2175.69 1330.02 Z" fill="#000000" fill-rule="nonzero" fill-opacity="1" /><path clip-path="url(#clip210)" d="M2206.87 1328.79 L2206.87 1341.45 L2214.37 1341.45 Q2218.15 1341.45 2219.95 1339.9 Q2221.78 1338.33 2221.78 1335.11 Q2221.78 1331.87 2219.95 1330.34 Q2218.15 1328.79 2214.37 1328.79 L2206.87 1328.79 M2206.87 1314.58 L2206.87 1325 L2213.79 1325 Q2217.22 1325 2218.89 1323.72 Q2220.58 1322.43 2220.58 1319.79 Q2220.58 1317.17 2218.89 1315.88 Q2217.22 1314.58 2213.79 1314.58 L2206.87 1314.58 M2202.2 1310.74 L2214.14 1310.74 Q2219.49 1310.74 2222.38 1312.96 Q2225.28 1315.18 2225.28 1319.28 Q2225.28 1322.45 2223.79 1324.32 Q2222.31 1326.2 2219.44 1326.66 Q2222.89 1327.4 2224.79 1329.76 Q2226.71 1332.1 2226.71 1335.62 Q2226.71 1340.25 2223.56 1342.77 Q2220.41 1345.3 2214.6 1345.3 L2202.2 1345.3 L2202.2 1310.74 Z" fill="#000000" fill-rule="nonzero" fill-opacity="1" /></svg>
