<?xml version="1.0" encoding="utf-8"?>
<svg xmlns="http://www.w3.org/2000/svg" xmlns:xlink="http://www.w3.org/1999/xlink" width="600" height="400" viewBox="0 0 2400 1600">
<defs>
  <clipPath id="clip520">
    <rect x="0" y="0" width="2400" height="1600"/>
  </clipPath>
</defs>
<path clip-path="url(#clip520)" d="M0 1600 L2400 1600 L2400 0 L0 0  Z" fill="#ffffff" fill-rule="evenodd" fill-opacity="1"/>
<defs>
  <clipPath id="clip521">
    <rect x="480" y="0" width="1681" height="1600"/>
  </clipPath>
</defs>
<path clip-path="url(#clip520)" d="M219.866 1423.18 L2352.76 1423.18 L2352.76 123.472 L219.866 123.472  Z" fill="#ffffff" fill-rule="evenodd" fill-opacity="1"/>
<defs>
  <clipPath id="clip522">
    <rect x="219" y="123" width="2134" height="1301"/>
  </clipPath>
</defs>
<polyline clip-path="url(#clip520)" style="stroke:#000000; stroke-linecap:round; stroke-linejoin:round; stroke-width:4; stroke-opacity:1; fill:none" points="219.866,1423.18 2352.76,1423.18 "/>
<polyline clip-path="url(#clip520)" style="stroke:#000000; stroke-linecap:round; stroke-linejoin:round; stroke-width:4; stroke-opacity:1; fill:none" points="280.231,1423.18 280.231,1404.28 "/>
<polyline clip-path="url(#clip520)" style="stroke:#000000; stroke-linecap:round; stroke-linejoin:round; stroke-width:4; stroke-opacity:1; fill:none" points="783.271,1423.18 783.271,1404.28 "/>
<polyline clip-path="url(#clip520)" style="stroke:#000000; stroke-linecap:round; stroke-linejoin:round; stroke-width:4; stroke-opacity:1; fill:none" points="1286.31,1423.18 1286.31,1404.28 "/>
<polyline clip-path="url(#clip520)" style="stroke:#000000; stroke-linecap:round; stroke-linejoin:round; stroke-width:4; stroke-opacity:1; fill:none" points="1789.35,1423.18 1789.35,1404.28 "/>
<polyline clip-path="url(#clip520)" style="stroke:#000000; stroke-linecap:round; stroke-linejoin:round; stroke-width:4; stroke-opacity:1; fill:none" points="2292.39,1423.18 2292.39,1404.28 "/>
<path clip-path="url(#clip520)" d="M280.231 1454.1 Q276.62 1454.1 274.791 1457.66 Q272.986 1461.2 272.986 1468.33 Q272.986 1475.44 274.791 1479.01 Q276.62 1482.55 280.231 1482.55 Q283.865 1482.55 285.671 1479.01 Q287.5 1475.44 287.5 1468.33 Q287.5 1461.2 285.671 1457.66 Q283.865 1454.1 280.231 1454.1 M280.231 1450.39 Q286.041 1450.39 289.097 1455 Q292.175 1459.58 292.175 1468.33 Q292.175 1477.06 289.097 1481.67 Q286.041 1486.25 280.231 1486.25 Q274.421 1486.25 271.342 1481.67 Q268.287 1477.06 268.287 1468.33 Q268.287 1459.58 271.342 1455 Q274.421 1450.39 280.231 1450.39 Z" fill="#000000" fill-rule="nonzero" fill-opacity="1" /><path clip-path="url(#clip520)" d="M757.97 1451.02 L776.327 1451.02 L776.327 1454.96 L762.253 1454.96 L762.253 1463.43 Q763.271 1463.08 764.29 1462.92 Q765.308 1462.73 766.327 1462.73 Q772.114 1462.73 775.493 1465.9 Q778.873 1469.08 778.873 1474.49 Q778.873 1480.07 775.401 1483.17 Q771.929 1486.25 765.609 1486.25 Q763.433 1486.25 761.165 1485.88 Q758.919 1485.51 756.512 1484.77 L756.512 1480.07 Q758.595 1481.2 760.817 1481.76 Q763.04 1482.32 765.517 1482.32 Q769.521 1482.32 771.859 1480.21 Q774.197 1478.1 774.197 1474.49 Q774.197 1470.88 771.859 1468.77 Q769.521 1466.67 765.517 1466.67 Q763.642 1466.67 761.767 1467.08 Q759.915 1467.5 757.97 1468.38 L757.97 1451.02 Z" fill="#000000" fill-rule="nonzero" fill-opacity="1" /><path clip-path="url(#clip520)" d="M798.086 1454.1 Q794.475 1454.1 792.646 1457.66 Q790.84 1461.2 790.84 1468.33 Q790.84 1475.44 792.646 1479.01 Q794.475 1482.55 798.086 1482.55 Q801.72 1482.55 803.526 1479.01 Q805.354 1475.44 805.354 1468.33 Q805.354 1461.2 803.526 1457.66 Q801.72 1454.1 798.086 1454.1 M798.086 1450.39 Q803.896 1450.39 806.952 1455 Q810.03 1459.58 810.03 1468.33 Q810.03 1477.06 806.952 1481.67 Q803.896 1486.25 798.086 1486.25 Q792.276 1486.25 789.197 1481.67 Q786.141 1477.06 786.141 1468.33 Q786.141 1459.58 789.197 1455 Q792.276 1450.39 798.086 1450.39 Z" fill="#000000" fill-rule="nonzero" fill-opacity="1" /><path clip-path="url(#clip520)" d="M1245.92 1481.64 L1253.56 1481.64 L1253.56 1455.28 L1245.25 1456.95 L1245.25 1452.69 L1253.51 1451.02 L1258.19 1451.02 L1258.19 1481.64 L1265.83 1481.64 L1265.83 1485.58 L1245.92 1485.58 L1245.92 1481.64 Z" fill="#000000" fill-rule="nonzero" fill-opacity="1" /><path clip-path="url(#clip520)" d="M1285.27 1454.1 Q1281.66 1454.1 1279.83 1457.66 Q1278.02 1461.2 1278.02 1468.33 Q1278.02 1475.44 1279.83 1479.01 Q1281.66 1482.55 1285.27 1482.55 Q1288.9 1482.55 1290.71 1479.01 Q1292.54 1475.44 1292.54 1468.33 Q1292.54 1461.2 1290.71 1457.66 Q1288.9 1454.1 1285.27 1454.1 M1285.27 1450.39 Q1291.08 1450.39 1294.14 1455 Q1297.21 1459.58 1297.21 1468.33 Q1297.21 1477.06 1294.14 1481.67 Q1291.08 1486.25 1285.27 1486.25 Q1279.46 1486.25 1276.38 1481.67 Q1273.33 1477.06 1273.33 1468.33 Q1273.33 1459.58 1276.38 1455 Q1279.46 1450.39 1285.27 1450.39 Z" fill="#000000" fill-rule="nonzero" fill-opacity="1" /><path clip-path="url(#clip520)" d="M1315.43 1454.1 Q1311.82 1454.1 1309.99 1457.66 Q1308.19 1461.2 1308.19 1468.33 Q1308.19 1475.44 1309.99 1479.01 Q1311.82 1482.55 1315.43 1482.55 Q1319.07 1482.55 1320.87 1479.01 Q1322.7 1475.44 1322.7 1468.33 Q1322.7 1461.2 1320.87 1457.66 Q1319.07 1454.1 1315.43 1454.1 M1315.43 1450.39 Q1321.24 1450.39 1324.3 1455 Q1327.38 1459.58 1327.38 1468.33 Q1327.38 1477.06 1324.3 1481.67 Q1321.24 1486.25 1315.43 1486.25 Q1309.62 1486.25 1306.54 1481.67 Q1303.49 1477.06 1303.49 1468.33 Q1303.49 1459.58 1306.54 1455 Q1309.62 1450.39 1315.43 1450.39 Z" fill="#000000" fill-rule="nonzero" fill-opacity="1" /><path clip-path="url(#clip520)" d="M1748.96 1481.64 L1756.6 1481.64 L1756.6 1455.28 L1748.29 1456.95 L1748.29 1452.69 L1756.55 1451.02 L1761.23 1451.02 L1761.23 1481.64 L1768.87 1481.64 L1768.87 1485.58 L1748.96 1485.58 L1748.96 1481.64 Z" fill="#000000" fill-rule="nonzero" fill-opacity="1" /><path clip-path="url(#clip520)" d="M1778.36 1451.02 L1796.71 1451.02 L1796.71 1454.96 L1782.64 1454.96 L1782.64 1463.43 Q1783.66 1463.08 1784.68 1462.92 Q1785.69 1462.73 1786.71 1462.73 Q1792.5 1462.73 1795.88 1465.9 Q1799.26 1469.08 1799.26 1474.49 Q1799.26 1480.07 1795.79 1483.17 Q1792.31 1486.25 1785.99 1486.25 Q1783.82 1486.25 1781.55 1485.88 Q1779.3 1485.51 1776.9 1484.77 L1776.9 1480.07 Q1778.98 1481.2 1781.2 1481.76 Q1783.43 1482.32 1785.9 1482.32 Q1789.91 1482.32 1792.24 1480.21 Q1794.58 1478.1 1794.58 1474.49 Q1794.58 1470.88 1792.24 1468.77 Q1789.91 1466.67 1785.9 1466.67 Q1784.03 1466.67 1782.15 1467.08 Q1780.3 1467.5 1778.36 1468.38 L1778.36 1451.02 Z" fill="#000000" fill-rule="nonzero" fill-opacity="1" /><path clip-path="url(#clip520)" d="M1818.47 1454.1 Q1814.86 1454.1 1813.03 1457.66 Q1811.23 1461.2 1811.23 1468.33 Q1811.23 1475.44 1813.03 1479.01 Q1814.86 1482.55 1818.47 1482.55 Q1822.11 1482.55 1823.91 1479.01 Q1825.74 1475.44 1825.74 1468.33 Q1825.74 1461.2 1823.91 1457.66 Q1822.11 1454.1 1818.47 1454.1 M1818.47 1450.39 Q1824.28 1450.39 1827.34 1455 Q1830.42 1459.58 1830.42 1468.33 Q1830.42 1477.06 1827.34 1481.67 Q1824.28 1486.25 1818.47 1486.25 Q1812.66 1486.25 1809.58 1481.67 Q1806.53 1477.06 1806.53 1468.33 Q1806.53 1459.58 1809.58 1455 Q1812.66 1450.39 1818.47 1450.39 Z" fill="#000000" fill-rule="nonzero" fill-opacity="1" /><path clip-path="url(#clip520)" d="M2256.08 1481.64 L2272.4 1481.64 L2272.4 1485.58 L2250.46 1485.58 L2250.46 1481.64 Q2253.12 1478.89 2257.7 1474.26 Q2262.31 1469.61 2263.49 1468.27 Q2265.74 1465.74 2266.62 1464.01 Q2267.52 1462.25 2267.52 1460.56 Q2267.52 1457.8 2265.57 1456.07 Q2263.65 1454.33 2260.55 1454.33 Q2258.35 1454.33 2255.9 1455.09 Q2253.47 1455.86 2250.69 1457.41 L2250.69 1452.69 Q2253.51 1451.55 2255.97 1450.97 Q2258.42 1450.39 2260.46 1450.39 Q2265.83 1450.39 2269.02 1453.08 Q2272.22 1455.77 2272.22 1460.26 Q2272.22 1462.39 2271.41 1464.31 Q2270.62 1466.2 2268.51 1468.8 Q2267.94 1469.47 2264.83 1472.69 Q2261.73 1475.88 2256.08 1481.64 Z" fill="#000000" fill-rule="nonzero" fill-opacity="1" /><path clip-path="url(#clip520)" d="M2292.22 1454.1 Q2288.61 1454.1 2286.78 1457.66 Q2284.97 1461.2 2284.97 1468.33 Q2284.97 1475.44 2286.78 1479.01 Q2288.61 1482.55 2292.22 1482.55 Q2295.85 1482.55 2297.66 1479.01 Q2299.49 1475.44 2299.49 1468.33 Q2299.49 1461.2 2297.66 1457.66 Q2295.85 1454.1 2292.22 1454.1 M2292.22 1450.39 Q2298.03 1450.39 2301.08 1455 Q2304.16 1459.58 2304.16 1468.33 Q2304.16 1477.06 2301.08 1481.67 Q2298.03 1486.25 2292.22 1486.25 Q2286.41 1486.25 2283.33 1481.67 Q2280.27 1477.06 2280.27 1468.33 Q2280.27 1459.58 2283.33 1455 Q2286.41 1450.39 2292.22 1450.39 Z" fill="#000000" fill-rule="nonzero" fill-opacity="1" /><path clip-path="url(#clip520)" d="M2322.38 1454.1 Q2318.77 1454.1 2316.94 1457.66 Q2315.13 1461.2 2315.13 1468.33 Q2315.13 1475.44 2316.94 1479.01 Q2318.77 1482.55 2322.38 1482.55 Q2326.01 1482.55 2327.82 1479.01 Q2329.65 1475.44 2329.65 1468.33 Q2329.65 1461.2 2327.82 1457.66 Q2326.01 1454.1 2322.38 1454.1 M2322.38 1450.39 Q2328.19 1450.39 2331.25 1455 Q2334.32 1459.58 2334.32 1468.33 Q2334.32 1477.06 2331.25 1481.67 Q2328.19 1486.25 2322.38 1486.25 Q2316.57 1486.25 2313.49 1481.67 Q2310.43 1477.06 2310.43 1468.33 Q2310.43 1459.58 2313.49 1455 Q2316.57 1450.39 2322.38 1450.39 Z" fill="#000000" fill-rule="nonzero" fill-opacity="1" /><path clip-path="url(#clip520)" d="M1077.98 1520.52 L1118.18 1520.52 L1118.18 1525.93 L1101.31 1525.93 L1101.31 1568.04 L1094.85 1568.04 L1094.85 1525.93 L1077.98 1525.93 L1077.98 1520.52 Z" fill="#000000" fill-rule="nonzero" fill-opacity="1" /><path clip-path="url(#clip520)" d="M1122.12 1532.4 L1127.98 1532.4 L1127.98 1568.04 L1122.12 1568.04 L1122.12 1532.4 M1122.12 1518.52 L1127.98 1518.52 L1127.98 1525.93 L1122.12 1525.93 L1122.12 1518.52 Z" fill="#000000" fill-rule="nonzero" fill-opacity="1" /><path clip-path="url(#clip520)" d="M1167.99 1539.24 Q1170.18 1535.29 1173.24 1533.41 Q1176.3 1531.54 1180.43 1531.54 Q1186 1531.54 1189.03 1535.45 Q1192.05 1539.33 1192.05 1546.53 L1192.05 1568.04 L1186.16 1568.04 L1186.16 1546.72 Q1186.16 1541.59 1184.35 1539.11 Q1182.53 1536.63 1178.81 1536.63 Q1174.26 1536.63 1171.62 1539.65 Q1168.98 1542.68 1168.98 1547.9 L1168.98 1568.04 L1163.09 1568.04 L1163.09 1546.72 Q1163.09 1541.56 1161.27 1539.11 Q1159.46 1536.63 1155.67 1536.63 Q1151.18 1536.63 1148.54 1539.68 Q1145.9 1542.71 1145.9 1547.9 L1145.9 1568.04 L1140.01 1568.04 L1140.01 1532.4 L1145.9 1532.4 L1145.9 1537.93 Q1147.9 1534.66 1150.71 1533.1 Q1153.51 1531.54 1157.36 1531.54 Q1161.24 1531.54 1163.95 1533.51 Q1166.68 1535.48 1167.99 1539.24 Z" fill="#000000" fill-rule="nonzero" fill-opacity="1" /><path clip-path="url(#clip520)" d="M1234.22 1548.76 L1234.22 1551.62 L1207.3 1551.62 Q1207.68 1557.67 1210.93 1560.85 Q1214.2 1564 1220.03 1564 Q1223.4 1564 1226.55 1563.17 Q1229.74 1562.35 1232.86 1560.69 L1232.86 1566.23 Q1229.7 1567.57 1226.39 1568.27 Q1223.08 1568.97 1219.68 1568.97 Q1211.15 1568.97 1206.15 1564 Q1201.19 1559.04 1201.19 1550.57 Q1201.19 1541.82 1205.9 1536.69 Q1210.64 1531.54 1218.66 1531.54 Q1225.85 1531.54 1230.02 1536.18 Q1234.22 1540.8 1234.22 1548.76 M1228.37 1547.04 Q1228.3 1542.23 1225.66 1539.37 Q1223.05 1536.5 1218.72 1536.5 Q1213.82 1536.5 1210.86 1539.27 Q1207.93 1542.04 1207.49 1547.07 L1228.37 1547.04 Z" fill="#000000" fill-rule="nonzero" fill-opacity="1" /><path clip-path="url(#clip520)" d="M1278.62 1518.58 Q1274.36 1525.9 1272.29 1533.06 Q1270.22 1540.23 1270.22 1547.58 Q1270.22 1554.93 1272.29 1562.16 Q1274.39 1569.35 1278.62 1576.64 L1273.53 1576.64 Q1268.76 1569.16 1266.37 1561.93 Q1264.02 1554.71 1264.02 1547.58 Q1264.02 1540.48 1266.37 1533.29 Q1268.73 1526.09 1273.53 1518.58 L1278.62 1518.58 Z" fill="#000000" fill-rule="nonzero" fill-opacity="1" /><path clip-path="url(#clip520)" d="M1290.24 1520.52 L1296.67 1520.52 L1296.67 1540 L1320.03 1540 L1320.03 1520.52 L1326.46 1520.52 L1326.46 1568.04 L1320.03 1568.04 L1320.03 1545.41 L1296.67 1545.41 L1296.67 1568.04 L1290.24 1568.04 L1290.24 1520.52 Z" fill="#000000" fill-rule="nonzero" fill-opacity="1" /><path clip-path="url(#clip520)" d="M1352.82 1536.5 Q1348.11 1536.5 1345.37 1540.19 Q1342.63 1543.85 1342.63 1550.25 Q1342.63 1556.65 1345.34 1560.34 Q1348.07 1564 1352.82 1564 Q1357.5 1564 1360.23 1560.31 Q1362.97 1556.62 1362.97 1550.25 Q1362.97 1543.92 1360.23 1540.23 Q1357.5 1536.5 1352.82 1536.5 M1352.82 1531.54 Q1360.46 1531.54 1364.82 1536.5 Q1369.18 1541.47 1369.18 1550.25 Q1369.18 1559 1364.82 1564 Q1360.46 1568.97 1352.82 1568.97 Q1345.15 1568.97 1340.79 1564 Q1336.46 1559 1336.46 1550.25 Q1336.46 1541.47 1340.79 1536.5 Q1345.15 1531.54 1352.82 1531.54 Z" fill="#000000" fill-rule="nonzero" fill-opacity="1" /><path clip-path="url(#clip520)" d="M1378.28 1553.98 L1378.28 1532.4 L1384.14 1532.4 L1384.14 1553.75 Q1384.14 1558.81 1386.11 1561.36 Q1388.08 1563.87 1392.03 1563.87 Q1396.77 1563.87 1399.51 1560.85 Q1402.28 1557.83 1402.28 1552.61 L1402.28 1532.4 L1408.13 1532.4 L1408.13 1568.04 L1402.28 1568.04 L1402.28 1562.57 Q1400.15 1565.82 1397.31 1567.41 Q1394.51 1568.97 1390.79 1568.97 Q1384.65 1568.97 1381.46 1565.15 Q1378.28 1561.33 1378.28 1553.98 M1393.02 1531.54 L1393.02 1531.54 Z" fill="#000000" fill-rule="nonzero" fill-opacity="1" /><path clip-path="url(#clip520)" d="M1440.85 1537.87 Q1439.87 1537.3 1438.69 1537.04 Q1437.54 1536.76 1436.14 1536.76 Q1431.18 1536.76 1428.51 1540 Q1425.86 1543.22 1425.86 1549.27 L1425.86 1568.04 L1419.98 1568.04 L1419.98 1532.4 L1425.86 1532.4 L1425.86 1537.93 Q1427.71 1534.69 1430.67 1533.13 Q1433.63 1531.54 1437.86 1531.54 Q1438.47 1531.54 1439.2 1531.63 Q1439.93 1531.7 1440.82 1531.85 L1440.85 1537.87 Z" fill="#000000" fill-rule="nonzero" fill-opacity="1" /><path clip-path="url(#clip520)" d="M1469.72 1533.45 L1469.72 1538.98 Q1467.24 1537.71 1464.57 1537.07 Q1461.89 1536.44 1459.03 1536.44 Q1454.67 1536.44 1452.47 1537.77 Q1450.31 1539.11 1450.31 1541.79 Q1450.31 1543.82 1451.87 1545 Q1453.43 1546.15 1458.14 1547.2 L1460.14 1547.64 Q1466.38 1548.98 1468.99 1551.43 Q1471.63 1553.85 1471.63 1558.21 Q1471.63 1563.17 1467.69 1566.07 Q1463.77 1568.97 1456.9 1568.97 Q1454.03 1568.97 1450.91 1568.39 Q1447.82 1567.85 1444.39 1566.74 L1444.39 1560.69 Q1447.63 1562.38 1450.79 1563.24 Q1453.94 1564.07 1457.02 1564.07 Q1461.16 1564.07 1463.39 1562.66 Q1465.62 1561.23 1465.62 1558.65 Q1465.62 1556.27 1463.99 1554.99 Q1462.4 1553.72 1456.96 1552.54 L1454.92 1552.07 Q1449.48 1550.92 1447.06 1548.56 Q1444.64 1546.18 1444.64 1542.04 Q1444.64 1537.01 1448.21 1534.27 Q1451.77 1531.54 1458.33 1531.54 Q1461.57 1531.54 1464.44 1532.01 Q1467.3 1532.49 1469.72 1533.45 Z" fill="#000000" fill-rule="nonzero" fill-opacity="1" /><path clip-path="url(#clip520)" d="M1480.04 1518.58 L1485.13 1518.58 Q1489.9 1526.09 1492.26 1533.29 Q1494.64 1540.48 1494.64 1547.58 Q1494.64 1554.71 1492.26 1561.93 Q1489.9 1569.16 1485.13 1576.64 L1480.04 1576.64 Q1484.27 1569.35 1486.34 1562.16 Q1488.44 1554.93 1488.44 1547.58 Q1488.44 1540.23 1486.34 1533.06 Q1484.27 1525.9 1480.04 1518.58 Z" fill="#000000" fill-rule="nonzero" fill-opacity="1" /><polyline clip-path="url(#clip520)" style="stroke:#000000; stroke-linecap:round; stroke-linejoin:round; stroke-width:4; stroke-opacity:1; fill:none" points="219.866,1423.18 219.866,123.472 "/>
<polyline clip-path="url(#clip520)" style="stroke:#000000; stroke-linecap:round; stroke-linejoin:round; stroke-width:4; stroke-opacity:1; fill:none" points="219.866,1423.18 238.764,1423.18 "/>
<polyline clip-path="url(#clip520)" style="stroke:#000000; stroke-linecap:round; stroke-linejoin:round; stroke-width:4; stroke-opacity:1; fill:none" points="219.866,1163.24 238.764,1163.24 "/>
<polyline clip-path="url(#clip520)" style="stroke:#000000; stroke-linecap:round; stroke-linejoin:round; stroke-width:4; stroke-opacity:1; fill:none" points="219.866,903.297 238.764,903.297 "/>
<polyline clip-path="url(#clip520)" style="stroke:#000000; stroke-linecap:round; stroke-linejoin:round; stroke-width:4; stroke-opacity:1; fill:none" points="219.866,643.355 238.764,643.355 "/>
<polyline clip-path="url(#clip520)" style="stroke:#000000; stroke-linecap:round; stroke-linejoin:round; stroke-width:4; stroke-opacity:1; fill:none" points="219.866,383.414 238.764,383.414 "/>
<polyline clip-path="url(#clip520)" style="stroke:#000000; stroke-linecap:round; stroke-linejoin:round; stroke-width:4; stroke-opacity:1; fill:none" points="219.866,123.472 238.764,123.472 "/>
<path clip-path="url(#clip520)" d="M126.691 1408.98 Q123.08 1408.98 121.251 1412.54 Q119.445 1416.08 119.445 1423.21 Q119.445 1430.32 121.251 1433.89 Q123.08 1437.43 126.691 1437.43 Q130.325 1437.43 132.13 1433.89 Q133.959 1430.32 133.959 1423.21 Q133.959 1416.08 132.13 1412.54 Q130.325 1408.98 126.691 1408.98 M126.691 1405.27 Q132.501 1405.27 135.556 1409.88 Q138.635 1414.46 138.635 1423.21 Q138.635 1431.94 135.556 1436.55 Q132.501 1441.13 126.691 1441.13 Q120.88 1441.13 117.802 1436.55 Q114.746 1431.94 114.746 1423.21 Q114.746 1414.46 117.802 1409.88 Q120.88 1405.27 126.691 1405.27 Z" fill="#000000" fill-rule="nonzero" fill-opacity="1" /><path clip-path="url(#clip520)" d="M146.853 1434.58 L151.737 1434.58 L151.737 1440.46 L146.853 1440.46 L146.853 1434.58 Z" fill="#000000" fill-rule="nonzero" fill-opacity="1" /><path clip-path="url(#clip520)" d="M171.922 1408.98 Q168.311 1408.98 166.482 1412.54 Q164.677 1416.08 164.677 1423.21 Q164.677 1430.32 166.482 1433.89 Q168.311 1437.43 171.922 1437.43 Q175.556 1437.43 177.362 1433.89 Q179.19 1430.32 179.19 1423.21 Q179.19 1416.08 177.362 1412.54 Q175.556 1408.98 171.922 1408.98 M171.922 1405.27 Q177.732 1405.27 180.788 1409.88 Q183.866 1414.46 183.866 1423.21 Q183.866 1431.94 180.788 1436.55 Q177.732 1441.13 171.922 1441.13 Q166.112 1441.13 163.033 1436.55 Q159.978 1431.94 159.978 1423.21 Q159.978 1414.46 163.033 1409.88 Q166.112 1405.27 171.922 1405.27 Z" fill="#000000" fill-rule="nonzero" fill-opacity="1" /><path clip-path="url(#clip520)" d="M128.288 1149.04 Q124.677 1149.04 122.848 1152.6 Q121.043 1156.14 121.043 1163.27 Q121.043 1170.38 122.848 1173.94 Q124.677 1177.49 128.288 1177.49 Q131.922 1177.49 133.728 1173.94 Q135.556 1170.38 135.556 1163.27 Q135.556 1156.14 133.728 1152.6 Q131.922 1149.04 128.288 1149.04 M128.288 1145.33 Q134.098 1145.33 137.154 1149.94 Q140.232 1154.52 140.232 1163.27 Q140.232 1172 137.154 1176.61 Q134.098 1181.19 128.288 1181.19 Q122.478 1181.19 119.399 1176.61 Q116.343 1172 116.343 1163.27 Q116.343 1154.52 119.399 1149.94 Q122.478 1145.33 128.288 1145.33 Z" fill="#000000" fill-rule="nonzero" fill-opacity="1" /><path clip-path="url(#clip520)" d="M148.45 1174.64 L153.334 1174.64 L153.334 1180.52 L148.45 1180.52 L148.45 1174.64 Z" fill="#000000" fill-rule="nonzero" fill-opacity="1" /><path clip-path="url(#clip520)" d="M167.547 1176.58 L183.866 1176.58 L183.866 1180.52 L161.922 1180.52 L161.922 1176.58 Q164.584 1173.83 169.167 1169.2 Q173.774 1164.55 174.954 1163.2 Q177.2 1160.68 178.079 1158.94 Q178.982 1157.19 178.982 1155.5 Q178.982 1152.74 177.038 1151 Q175.116 1149.27 172.014 1149.27 Q169.815 1149.27 167.362 1150.03 Q164.931 1150.8 162.153 1152.35 L162.153 1147.62 Q164.977 1146.49 167.431 1145.91 Q169.885 1145.33 171.922 1145.33 Q177.292 1145.33 180.487 1148.02 Q183.681 1150.7 183.681 1155.19 Q183.681 1157.32 182.871 1159.25 Q182.084 1161.14 179.977 1163.74 Q179.399 1164.41 176.297 1167.62 Q173.195 1170.82 167.547 1176.58 Z" fill="#000000" fill-rule="nonzero" fill-opacity="1" /><path clip-path="url(#clip520)" d="M126.205 889.095 Q122.593 889.095 120.765 892.66 Q118.959 896.202 118.959 903.331 Q118.959 910.438 120.765 914.003 Q122.593 917.544 126.205 917.544 Q129.839 917.544 131.644 914.003 Q133.473 910.438 133.473 903.331 Q133.473 896.202 131.644 892.66 Q129.839 889.095 126.205 889.095 M126.205 885.392 Q132.015 885.392 135.07 889.998 Q138.149 894.582 138.149 903.331 Q138.149 912.058 135.07 916.665 Q132.015 921.248 126.205 921.248 Q120.394 921.248 117.316 916.665 Q114.26 912.058 114.26 903.331 Q114.26 894.582 117.316 889.998 Q120.394 885.392 126.205 885.392 Z" fill="#000000" fill-rule="nonzero" fill-opacity="1" /><path clip-path="url(#clip520)" d="M146.366 914.697 L151.251 914.697 L151.251 920.577 L146.366 920.577 L146.366 914.697 Z" fill="#000000" fill-rule="nonzero" fill-opacity="1" /><path clip-path="url(#clip520)" d="M174.283 890.091 L162.477 908.54 L174.283 908.54 L174.283 890.091 M173.056 886.017 L178.936 886.017 L178.936 908.54 L183.866 908.54 L183.866 912.429 L178.936 912.429 L178.936 920.577 L174.283 920.577 L174.283 912.429 L158.681 912.429 L158.681 907.915 L173.056 886.017 Z" fill="#000000" fill-rule="nonzero" fill-opacity="1" /><path clip-path="url(#clip520)" d="M126.529 629.154 Q122.918 629.154 121.089 632.719 Q119.283 636.26 119.283 643.39 Q119.283 650.496 121.089 654.061 Q122.918 657.603 126.529 657.603 Q130.163 657.603 131.968 654.061 Q133.797 650.496 133.797 643.39 Q133.797 636.26 131.968 632.719 Q130.163 629.154 126.529 629.154 M126.529 625.45 Q132.339 625.45 135.394 630.057 Q138.473 634.64 138.473 643.39 Q138.473 652.117 135.394 656.723 Q132.339 661.307 126.529 661.307 Q120.718 661.307 117.64 656.723 Q114.584 652.117 114.584 643.39 Q114.584 634.64 117.64 630.057 Q120.718 625.45 126.529 625.45 Z" fill="#000000" fill-rule="nonzero" fill-opacity="1" /><path clip-path="url(#clip520)" d="M146.691 654.756 L151.575 654.756 L151.575 660.635 L146.691 660.635 L146.691 654.756 Z" fill="#000000" fill-rule="nonzero" fill-opacity="1" /><path clip-path="url(#clip520)" d="M172.339 641.492 Q169.19 641.492 167.339 643.645 Q165.51 645.797 165.51 649.547 Q165.51 653.274 167.339 655.45 Q169.19 657.603 172.339 657.603 Q175.487 657.603 177.315 655.45 Q179.167 653.274 179.167 649.547 Q179.167 645.797 177.315 643.645 Q175.487 641.492 172.339 641.492 M181.621 626.839 L181.621 631.098 Q179.862 630.265 178.056 629.825 Q176.274 629.385 174.514 629.385 Q169.885 629.385 167.431 632.51 Q165.001 635.635 164.653 641.955 Q166.019 639.941 168.079 638.876 Q170.139 637.788 172.616 637.788 Q177.825 637.788 180.834 640.959 Q183.866 644.108 183.866 649.547 Q183.866 654.871 180.718 658.089 Q177.57 661.307 172.339 661.307 Q166.343 661.307 163.172 656.723 Q160.001 652.117 160.001 643.39 Q160.001 635.196 163.89 630.334 Q167.778 625.45 174.329 625.45 Q176.089 625.45 177.871 625.797 Q179.676 626.145 181.621 626.839 Z" fill="#000000" fill-rule="nonzero" fill-opacity="1" /><path clip-path="url(#clip520)" d="M126.783 369.212 Q123.172 369.212 121.343 372.777 Q119.538 376.319 119.538 383.448 Q119.538 390.555 121.343 394.12 Q123.172 397.661 126.783 397.661 Q130.417 397.661 132.223 394.12 Q134.052 390.555 134.052 383.448 Q134.052 376.319 132.223 372.777 Q130.417 369.212 126.783 369.212 M126.783 365.509 Q132.593 365.509 135.649 370.115 Q138.728 374.698 138.728 383.448 Q138.728 392.175 135.649 396.782 Q132.593 401.365 126.783 401.365 Q120.973 401.365 117.894 396.782 Q114.839 392.175 114.839 383.448 Q114.839 374.698 117.894 370.115 Q120.973 365.509 126.783 365.509 Z" fill="#000000" fill-rule="nonzero" fill-opacity="1" /><path clip-path="url(#clip520)" d="M146.945 394.814 L151.829 394.814 L151.829 400.694 L146.945 400.694 L146.945 394.814 Z" fill="#000000" fill-rule="nonzero" fill-opacity="1" /><path clip-path="url(#clip520)" d="M172.014 384.282 Q168.681 384.282 166.76 386.064 Q164.862 387.847 164.862 390.971 Q164.862 394.096 166.76 395.879 Q168.681 397.661 172.014 397.661 Q175.348 397.661 177.269 395.879 Q179.19 394.073 179.19 390.971 Q179.19 387.847 177.269 386.064 Q175.371 384.282 172.014 384.282 M167.339 382.291 Q164.329 381.55 162.64 379.49 Q160.973 377.43 160.973 374.467 Q160.973 370.323 163.913 367.916 Q166.876 365.509 172.014 365.509 Q177.176 365.509 180.116 367.916 Q183.056 370.323 183.056 374.467 Q183.056 377.43 181.366 379.49 Q179.7 381.55 176.714 382.291 Q180.093 383.078 181.968 385.37 Q183.866 387.661 183.866 390.971 Q183.866 395.995 180.788 398.68 Q177.732 401.365 172.014 401.365 Q166.297 401.365 163.218 398.68 Q160.163 395.995 160.163 390.971 Q160.163 387.661 162.061 385.37 Q163.959 383.078 167.339 382.291 M165.626 374.907 Q165.626 377.592 167.292 379.097 Q168.982 380.601 172.014 380.601 Q175.024 380.601 176.714 379.097 Q178.426 377.592 178.426 374.907 Q178.426 372.222 176.714 370.717 Q175.024 369.212 172.014 369.212 Q168.982 369.212 167.292 370.717 Q165.626 372.222 165.626 374.907 Z" fill="#000000" fill-rule="nonzero" fill-opacity="1" /><path clip-path="url(#clip520)" d="M117.501 136.817 L125.14 136.817 L125.14 110.451 L116.83 112.118 L116.83 107.859 L125.093 106.192 L129.769 106.192 L129.769 136.817 L137.408 136.817 L137.408 140.752 L117.501 140.752 L117.501 136.817 Z" fill="#000000" fill-rule="nonzero" fill-opacity="1" /><path clip-path="url(#clip520)" d="M146.853 134.873 L151.737 134.873 L151.737 140.752 L146.853 140.752 L146.853 134.873 Z" fill="#000000" fill-rule="nonzero" fill-opacity="1" /><path clip-path="url(#clip520)" d="M171.922 109.271 Q168.311 109.271 166.482 112.836 Q164.677 116.377 164.677 123.507 Q164.677 130.613 166.482 134.178 Q168.311 137.72 171.922 137.72 Q175.556 137.72 177.362 134.178 Q179.19 130.613 179.19 123.507 Q179.19 116.377 177.362 112.836 Q175.556 109.271 171.922 109.271 M171.922 105.567 Q177.732 105.567 180.788 110.174 Q183.866 114.757 183.866 123.507 Q183.866 132.234 180.788 136.84 Q177.732 141.423 171.922 141.423 Q166.112 141.423 163.033 136.84 Q159.978 132.234 159.978 123.507 Q159.978 114.757 163.033 110.174 Q166.112 105.567 171.922 105.567 Z" fill="#000000" fill-rule="nonzero" fill-opacity="1" /><path clip-path="url(#clip520)" d="M41.3104 899.144 L58.7206 899.144 L58.7206 888.832 Q58.7206 883.644 56.5881 881.161 Q54.4238 878.647 49.9996 878.647 Q45.5436 878.647 43.4429 881.161 Q41.3104 883.644 41.3104 888.832 L41.3104 899.144 M21.7677 899.144 L36.0905 899.144 L36.0905 889.627 Q36.0905 884.917 34.34 882.625 Q32.5576 880.302 28.9291 880.302 Q25.3325 880.302 23.5501 882.625 Q21.7677 884.917 21.7677 889.627 L21.7677 899.144 M16.4842 905.574 L16.4842 889.15 Q16.4842 881.798 19.5397 877.819 Q22.5952 873.84 28.2289 873.84 Q32.5894 873.84 35.1675 875.878 Q37.7456 877.915 38.3822 881.861 Q39.4007 877.119 42.6472 874.509 Q45.8619 871.867 50.6998 871.867 Q57.0655 871.867 60.5348 876.196 Q64.0042 880.524 64.0042 888.513 L64.0042 905.574 L16.4842 905.574 Z" fill="#000000" fill-rule="nonzero" fill-opacity="1" /><path clip-path="url(#clip520)" d="M28.3562 861.109 L28.3562 855.253 L64.0042 855.253 L64.0042 861.109 L28.3562 861.109 M14.479 861.109 L14.479 855.253 L21.895 855.253 L21.895 861.109 L14.479 861.109 Z" fill="#000000" fill-rule="nonzero" fill-opacity="1" /><path clip-path="url(#clip520)" d="M32.4621 829.185 Q32.4621 833.896 36.1542 836.633 Q39.8145 839.37 46.212 839.37 Q52.6095 839.37 56.3017 836.665 Q59.9619 833.928 59.9619 829.185 Q59.9619 824.506 56.2698 821.769 Q52.5777 819.032 46.212 819.032 Q39.8781 819.032 36.186 821.769 Q32.4621 824.506 32.4621 829.185 M27.4968 829.185 Q27.4968 821.546 32.4621 817.186 Q37.4273 812.825 46.212 812.825 Q54.9649 812.825 59.9619 817.186 Q64.9272 821.546 64.9272 829.185 Q64.9272 836.856 59.9619 841.216 Q54.9649 845.545 46.212 845.545 Q37.4273 845.545 32.4621 841.216 Q27.4968 836.856 27.4968 829.185 Z" fill="#000000" fill-rule="nonzero" fill-opacity="1" /><path clip-path="url(#clip520)" d="M35.1993 775.363 Q31.2526 773.167 29.3747 770.111 Q27.4968 767.056 27.4968 762.918 Q27.4968 757.348 31.4117 754.324 Q35.2948 751.301 42.4881 751.301 L64.0042 751.301 L64.0042 757.189 L42.679 757.189 Q37.5546 757.189 35.072 759.003 Q32.5894 760.817 32.5894 764.541 Q32.5894 769.093 35.6131 771.735 Q38.6368 774.376 43.8567 774.376 L64.0042 774.376 L64.0042 780.265 L42.679 780.265 Q37.5228 780.265 35.072 782.079 Q32.5894 783.893 32.5894 787.681 Q32.5894 792.168 35.6449 794.81 Q38.6686 797.452 43.8567 797.452 L64.0042 797.452 L64.0042 803.34 L28.3562 803.34 L28.3562 797.452 L33.8944 797.452 Q30.616 795.447 29.0564 792.646 Q27.4968 789.845 27.4968 785.994 Q27.4968 782.111 29.4702 779.405 Q31.4436 776.668 35.1993 775.363 Z" fill="#000000" fill-rule="nonzero" fill-opacity="1" /><path clip-path="url(#clip520)" d="M46.0847 723.419 Q46.0847 730.517 47.7079 733.254 Q49.3312 735.991 53.2461 735.991 Q56.3653 735.991 58.2114 733.954 Q60.0256 731.885 60.0256 728.352 Q60.0256 723.483 56.5881 720.554 Q53.1188 717.594 47.3897 717.594 L46.0847 717.594 L46.0847 723.419 M43.6657 711.738 L64.0042 711.738 L64.0042 717.594 L58.5933 717.594 Q61.8398 719.599 63.3994 722.591 Q64.9272 725.583 64.9272 729.912 Q64.9272 735.386 61.8716 738.633 Q58.7843 741.848 53.6281 741.848 Q47.6125 741.848 44.5569 737.837 Q41.5014 733.795 41.5014 725.806 L41.5014 717.594 L40.9285 717.594 Q36.8862 717.594 34.6901 720.268 Q32.4621 722.91 32.4621 727.716 Q32.4621 730.771 33.1941 733.668 Q33.9262 736.564 35.3903 739.238 L29.9795 739.238 Q28.7381 736.023 28.1334 732.999 Q27.4968 729.976 27.4968 727.111 Q27.4968 719.377 31.5072 715.557 Q35.5176 711.738 43.6657 711.738 Z" fill="#000000" fill-rule="nonzero" fill-opacity="1" /><path clip-path="url(#clip520)" d="M29.4065 676.949 L34.9447 676.949 Q33.6716 679.432 33.035 682.105 Q32.3984 684.779 32.3984 687.644 Q32.3984 692.004 33.7352 694.2 Q35.072 696.365 37.7456 696.365 Q39.7826 696.365 40.9603 694.805 Q42.1061 693.245 43.1565 688.535 L43.6021 686.53 Q44.9389 680.291 47.3897 677.681 Q49.8086 675.039 54.1691 675.039 Q59.1344 675.039 62.0308 678.986 Q64.9272 682.901 64.9272 689.776 Q64.9272 692.641 64.3543 695.76 Q63.8132 698.847 62.6992 702.285 L56.6518 702.285 Q58.3387 699.038 59.198 695.887 Q60.0256 692.736 60.0256 689.649 Q60.0256 685.511 58.6251 683.283 Q57.1929 681.055 54.6147 681.055 Q52.2276 681.055 50.9545 682.678 Q49.6813 684.27 48.5037 689.712 L48.0262 691.749 Q46.8804 697.192 44.5251 699.611 Q42.138 702.03 38.0002 702.03 Q32.9713 702.03 30.2341 698.465 Q27.4968 694.9 27.4968 688.344 Q27.4968 685.097 27.9743 682.233 Q28.4517 679.368 29.4065 676.949 Z" fill="#000000" fill-rule="nonzero" fill-opacity="1" /><path clip-path="url(#clip520)" d="M29.4065 642.988 L34.9447 642.988 Q33.6716 645.471 33.035 648.144 Q32.3984 650.818 32.3984 653.683 Q32.3984 658.043 33.7352 660.239 Q35.072 662.404 37.7456 662.404 Q39.7826 662.404 40.9603 660.844 Q42.1061 659.284 43.1565 654.574 L43.6021 652.569 Q44.9389 646.33 47.3897 643.72 Q49.8086 641.078 54.1691 641.078 Q59.1344 641.078 62.0308 645.025 Q64.9272 648.94 64.9272 655.815 Q64.9272 658.68 64.3543 661.799 Q63.8132 664.886 62.6992 668.324 L56.6518 668.324 Q58.3387 665.077 59.198 661.926 Q60.0256 658.775 60.0256 655.688 Q60.0256 651.55 58.6251 649.322 Q57.1929 647.094 54.6147 647.094 Q52.2276 647.094 50.9545 648.717 Q49.6813 650.309 48.5037 655.751 L48.0262 657.788 Q46.8804 663.231 44.5251 665.65 Q42.138 668.069 38.0002 668.069 Q32.9713 668.069 30.2341 664.504 Q27.4968 660.939 27.4968 654.383 Q27.4968 651.136 27.9743 648.272 Q28.4517 645.407 29.4065 642.988 Z" fill="#000000" fill-rule="nonzero" fill-opacity="1" /><path clip-path="url(#clip520)" d="M864.916 18.8205 L864.916 41.5461 L875.205 41.5461 Q880.917 41.5461 884.036 38.5889 Q887.155 35.6318 887.155 30.163 Q887.155 24.7348 884.036 21.7777 Q880.917 18.8205 875.205 18.8205 L864.916 18.8205 M856.733 12.096 L875.205 12.096 Q885.373 12.096 890.558 16.714 Q895.784 21.2916 895.784 30.163 Q895.784 39.1155 890.558 43.6931 Q885.373 48.2706 875.205 48.2706 L864.916 48.2706 L864.916 72.576 L856.733 72.576 L856.733 12.096 Z" fill="#000000" fill-rule="nonzero" fill-opacity="1" /><path clip-path="url(#clip520)" d="M921.061 32.4315 Q915.066 32.4315 911.582 37.1306 Q908.098 41.7891 908.098 49.9314 Q908.098 58.0738 911.542 62.7728 Q915.025 67.4314 921.061 67.4314 Q927.016 67.4314 930.5 62.7323 Q933.984 58.0333 933.984 49.9314 Q933.984 41.8701 930.5 37.1711 Q927.016 32.4315 921.061 32.4315 M921.061 26.1121 Q930.783 26.1121 936.333 32.4315 Q941.883 38.7509 941.883 49.9314 Q941.883 61.0714 936.333 67.4314 Q930.783 73.7508 921.061 73.7508 Q911.299 73.7508 905.749 67.4314 Q900.24 61.0714 900.24 49.9314 Q900.24 38.7509 905.749 32.4315 Q911.299 26.1121 921.061 26.1121 Z" fill="#000000" fill-rule="nonzero" fill-opacity="1" /><path clip-path="url(#clip520)" d="M961.449 65.7705 L961.449 89.8329 L953.955 89.8329 L953.955 27.2059 L961.449 27.2059 L961.449 34.0924 Q963.798 30.0415 967.363 28.0971 Q970.968 26.1121 975.951 26.1121 Q984.215 26.1121 989.36 32.6746 Q994.545 39.2371 994.545 49.9314 Q994.545 60.6258 989.36 67.1883 Q984.215 73.7508 975.951 73.7508 Q970.968 73.7508 967.363 71.8063 Q963.798 69.8214 961.449 65.7705 M986.807 49.9314 Q986.807 41.7081 983.405 37.0496 Q980.042 32.3505 974.128 32.3505 Q968.214 32.3505 964.811 37.0496 Q961.449 41.7081 961.449 49.9314 Q961.449 58.1548 964.811 62.8538 Q968.214 67.5124 974.128 67.5124 Q980.042 67.5124 983.405 62.8538 Q986.807 58.1548 986.807 49.9314 Z" fill="#000000" fill-rule="nonzero" fill-opacity="1" /><path clip-path="url(#clip520)" d="M1006.13 54.671 L1006.13 27.2059 L1013.58 27.2059 L1013.58 54.3874 Q1013.58 60.8284 1016.1 64.0691 Q1018.61 67.2693 1023.63 67.2693 Q1029.67 67.2693 1033.15 63.421 Q1036.67 59.5726 1036.67 52.9291 L1036.67 27.2059 L1044.13 27.2059 L1044.13 72.576 L1036.67 72.576 L1036.67 65.6084 Q1033.96 69.7404 1030.35 71.7658 Q1026.79 73.7508 1022.05 73.7508 Q1014.23 73.7508 1010.18 68.8897 Q1006.13 64.0286 1006.13 54.671 M1024.89 26.1121 L1024.89 26.1121 Z" fill="#000000" fill-rule="nonzero" fill-opacity="1" /><path clip-path="url(#clip520)" d="M1059.48 9.54393 L1066.93 9.54393 L1066.93 72.576 L1059.48 72.576 L1059.48 9.54393 Z" fill="#000000" fill-rule="nonzero" fill-opacity="1" /><path clip-path="url(#clip520)" d="M1103.15 49.7694 Q1094.12 49.7694 1090.63 51.8354 Q1087.15 53.9013 1087.15 58.8839 Q1087.15 62.8538 1089.74 65.2034 Q1092.37 67.5124 1096.87 67.5124 Q1103.07 67.5124 1106.8 63.1374 Q1110.56 58.7219 1110.56 51.4303 L1110.56 49.7694 L1103.15 49.7694 M1118.02 46.6907 L1118.02 72.576 L1110.56 72.576 L1110.56 65.6895 Q1108.01 69.8214 1104.2 71.8063 Q1100.39 73.7508 1094.89 73.7508 Q1087.92 73.7508 1083.79 69.8619 Q1079.69 65.9325 1079.69 59.3701 Q1079.69 51.7138 1084.8 47.825 Q1089.94 43.9361 1100.11 43.9361 L1110.56 43.9361 L1110.56 43.2069 Q1110.56 38.0623 1107.16 35.2672 Q1103.8 32.4315 1097.68 32.4315 Q1093.79 32.4315 1090.11 33.3632 Q1086.42 34.295 1083.02 36.1584 L1083.02 29.2718 Q1087.11 27.692 1090.96 26.9223 Q1094.8 26.1121 1098.45 26.1121 Q1108.29 26.1121 1113.16 31.2163 Q1118.02 36.3204 1118.02 46.6907 Z" fill="#000000" fill-rule="nonzero" fill-opacity="1" /><path clip-path="url(#clip520)" d="M1140.74 14.324 L1140.74 27.2059 L1156.09 27.2059 L1156.09 32.9987 L1140.74 32.9987 L1140.74 57.6282 Q1140.74 63.1779 1142.24 64.7578 Q1143.78 66.3376 1148.44 66.3376 L1156.09 66.3376 L1156.09 72.576 L1148.44 72.576 Q1139.81 72.576 1136.53 69.3758 Q1133.25 66.1351 1133.25 57.6282 L1133.25 32.9987 L1127.78 32.9987 L1127.78 27.2059 L1133.25 27.2059 L1133.25 14.324 L1140.74 14.324 Z" fill="#000000" fill-rule="nonzero" fill-opacity="1" /><path clip-path="url(#clip520)" d="M1165.9 27.2059 L1173.35 27.2059 L1173.35 72.576 L1165.9 72.576 L1165.9 27.2059 M1165.9 9.54393 L1173.35 9.54393 L1173.35 18.9825 L1165.9 18.9825 L1165.9 9.54393 Z" fill="#000000" fill-rule="nonzero" fill-opacity="1" /><path clip-path="url(#clip520)" d="M1206.53 32.4315 Q1200.53 32.4315 1197.05 37.1306 Q1193.57 41.7891 1193.57 49.9314 Q1193.57 58.0738 1197.01 62.7728 Q1200.49 67.4314 1206.53 67.4314 Q1212.48 67.4314 1215.97 62.7323 Q1219.45 58.0333 1219.45 49.9314 Q1219.45 41.8701 1215.97 37.1711 Q1212.48 32.4315 1206.53 32.4315 M1206.53 26.1121 Q1216.25 26.1121 1221.8 32.4315 Q1227.35 38.7509 1227.35 49.9314 Q1227.35 61.0714 1221.8 67.4314 Q1216.25 73.7508 1206.53 73.7508 Q1196.77 73.7508 1191.22 67.4314 Q1185.71 61.0714 1185.71 49.9314 Q1185.71 38.7509 1191.22 32.4315 Q1196.77 26.1121 1206.53 26.1121 Z" fill="#000000" fill-rule="nonzero" fill-opacity="1" /><path clip-path="url(#clip520)" d="M1277.42 45.1919 L1277.42 72.576 L1269.97 72.576 L1269.97 45.4349 Q1269.97 38.994 1267.45 35.7938 Q1264.94 32.5936 1259.92 32.5936 Q1253.88 32.5936 1250.4 36.4419 Q1246.92 40.2903 1246.92 46.9338 L1246.92 72.576 L1239.42 72.576 L1239.42 27.2059 L1246.92 27.2059 L1246.92 34.2544 Q1249.59 30.163 1253.19 28.1376 Q1256.84 26.1121 1261.58 26.1121 Q1269.4 26.1121 1273.41 30.9732 Q1277.42 35.7938 1277.42 45.1919 Z" fill="#000000" fill-rule="nonzero" fill-opacity="1" /><path clip-path="url(#clip520)" d="M1327.16 18.8205 L1327.16 65.8515 L1337.05 65.8515 Q1349.57 65.8515 1355.36 60.1802 Q1361.19 54.509 1361.19 42.2752 Q1361.19 30.1225 1355.36 24.4918 Q1349.57 18.8205 1337.05 18.8205 L1327.16 18.8205 M1318.98 12.096 L1335.79 12.096 Q1353.37 12.096 1361.6 19.4281 Q1369.82 26.7198 1369.82 42.2752 Q1369.82 57.9117 1361.56 65.2439 Q1353.29 72.576 1335.79 72.576 L1318.98 72.576 L1318.98 12.096 Z" fill="#000000" fill-rule="nonzero" fill-opacity="1" /><path clip-path="url(#clip520)" d="M1401.42 76.7889 Q1398.26 84.8907 1395.26 87.3618 Q1392.26 89.8329 1387.24 89.8329 L1381.28 89.8329 L1381.28 83.5945 L1385.66 83.5945 Q1388.74 83.5945 1390.44 82.1361 Q1392.14 80.6778 1394.21 75.2496 L1395.54 71.8468 L1377.19 27.2059 L1385.09 27.2059 L1399.27 62.6918 L1413.45 27.2059 L1421.35 27.2059 L1401.42 76.7889 Z" fill="#000000" fill-rule="nonzero" fill-opacity="1" /><path clip-path="url(#clip520)" d="M1469.35 45.1919 L1469.35 72.576 L1461.9 72.576 L1461.9 45.4349 Q1461.9 38.994 1459.39 35.7938 Q1456.87 32.5936 1451.85 32.5936 Q1445.82 32.5936 1442.33 36.4419 Q1438.85 40.2903 1438.85 46.9338 L1438.85 72.576 L1431.35 72.576 L1431.35 27.2059 L1438.85 27.2059 L1438.85 34.2544 Q1441.52 30.163 1445.13 28.1376 Q1448.77 26.1121 1453.51 26.1121 Q1461.33 26.1121 1465.34 30.9732 Q1469.35 35.7938 1469.35 45.1919 Z" fill="#000000" fill-rule="nonzero" fill-opacity="1" /><path clip-path="url(#clip520)" d="M1504.84 49.7694 Q1495.8 49.7694 1492.32 51.8354 Q1488.84 53.9013 1488.84 58.8839 Q1488.84 62.8538 1491.43 65.2034 Q1494.06 67.5124 1498.56 67.5124 Q1504.76 67.5124 1508.48 63.1374 Q1512.25 58.7219 1512.25 51.4303 L1512.25 49.7694 L1504.84 49.7694 M1519.7 46.6907 L1519.7 72.576 L1512.25 72.576 L1512.25 65.6895 Q1509.7 69.8214 1505.89 71.8063 Q1502.08 73.7508 1496.57 73.7508 Q1489.61 73.7508 1485.47 69.8619 Q1481.38 65.9325 1481.38 59.3701 Q1481.38 51.7138 1486.49 47.825 Q1491.63 43.9361 1501.8 43.9361 L1512.25 43.9361 L1512.25 43.2069 Q1512.25 38.0623 1508.85 35.2672 Q1505.49 32.4315 1499.37 32.4315 Q1495.48 32.4315 1491.79 33.3632 Q1488.11 34.295 1484.7 36.1584 L1484.7 29.2718 Q1488.8 27.692 1492.64 26.9223 Q1496.49 26.1121 1500.14 26.1121 Q1509.98 26.1121 1514.84 31.2163 Q1519.7 36.3204 1519.7 46.6907 Z" fill="#000000" fill-rule="nonzero" fill-opacity="1" /><path clip-path="url(#clip520)" d="M1570.38 35.9153 Q1573.18 30.8922 1577.06 28.5022 Q1580.95 26.1121 1586.22 26.1121 Q1593.31 26.1121 1597.16 31.0947 Q1601.01 36.0368 1601.01 45.1919 L1601.01 72.576 L1593.51 72.576 L1593.51 45.4349 Q1593.51 38.913 1591.2 35.7533 Q1588.89 32.5936 1584.15 32.5936 Q1578.36 32.5936 1575 36.4419 Q1571.64 40.2903 1571.64 46.9338 L1571.64 72.576 L1564.14 72.576 L1564.14 45.4349 Q1564.14 38.8725 1561.83 35.7533 Q1559.52 32.5936 1554.7 32.5936 Q1548.99 32.5936 1545.63 36.4824 Q1542.27 40.3308 1542.27 46.9338 L1542.27 72.576 L1534.77 72.576 L1534.77 27.2059 L1542.27 27.2059 L1542.27 34.2544 Q1544.82 30.082 1548.38 28.0971 Q1551.95 26.1121 1556.85 26.1121 Q1561.79 26.1121 1565.24 28.6237 Q1568.72 31.1352 1570.38 35.9153 Z" fill="#000000" fill-rule="nonzero" fill-opacity="1" /><path clip-path="url(#clip520)" d="M1615.87 27.2059 L1623.33 27.2059 L1623.33 72.576 L1615.87 72.576 L1615.87 27.2059 M1615.87 9.54393 L1623.33 9.54393 L1623.33 18.9825 L1615.87 18.9825 L1615.87 9.54393 Z" fill="#000000" fill-rule="nonzero" fill-opacity="1" /><path clip-path="url(#clip520)" d="M1671.57 28.9478 L1671.57 35.9153 Q1668.41 34.1734 1665.21 33.3227 Q1662.05 32.4315 1658.81 32.4315 Q1651.56 32.4315 1647.55 37.0496 Q1643.54 41.6271 1643.54 49.9314 Q1643.54 58.2358 1647.55 62.8538 Q1651.56 67.4314 1658.81 67.4314 Q1662.05 67.4314 1665.21 66.5807 Q1668.41 65.6895 1671.57 63.9476 L1671.57 70.8341 Q1668.45 72.2924 1665.09 73.0216 Q1661.77 73.7508 1658 73.7508 Q1647.75 73.7508 1641.72 67.3098 Q1635.68 60.8689 1635.68 49.9314 Q1635.68 38.832 1641.76 32.472 Q1647.87 26.1121 1658.49 26.1121 Q1661.93 26.1121 1665.21 26.8413 Q1668.49 27.5299 1671.57 28.9478 Z" fill="#000000" fill-rule="nonzero" fill-opacity="1" /><path clip-path="url(#clip520)" d="M1713.46 28.5427 L1713.46 35.5912 Q1710.3 33.9709 1706.9 33.1607 Q1703.49 32.3505 1699.85 32.3505 Q1694.3 32.3505 1691.5 34.0519 Q1688.75 35.7533 1688.75 39.156 Q1688.75 41.7486 1690.73 43.2475 Q1692.72 44.7058 1698.71 46.0426 L1701.27 46.6097 Q1709.21 48.3111 1712.53 51.4303 Q1715.89 54.509 1715.89 60.0587 Q1715.89 66.3781 1710.87 70.0644 Q1705.88 73.7508 1697.13 73.7508 Q1693.49 73.7508 1689.52 73.0216 Q1685.59 72.3329 1681.21 70.9151 L1681.21 63.2184 Q1685.35 65.3654 1689.36 66.4591 Q1693.37 67.5124 1697.3 67.5124 Q1702.56 67.5124 1705.4 65.73 Q1708.23 63.9071 1708.23 60.6258 Q1708.23 57.5877 1706.17 55.9673 Q1704.14 54.3469 1697.21 52.8481 L1694.62 52.2405 Q1687.69 50.7821 1684.62 47.7845 Q1681.54 44.7463 1681.54 39.4801 Q1681.54 33.0797 1686.07 29.5959 Q1690.61 26.1121 1698.96 26.1121 Q1703.09 26.1121 1706.73 26.7198 Q1710.38 27.3274 1713.46 28.5427 Z" fill="#000000" fill-rule="nonzero" fill-opacity="1" /><polyline clip-path="url(#clip522)" style="stroke:#d6181c; stroke-linecap:round; stroke-linejoin:round; stroke-width:16; stroke-opacity:1; fill:none" stroke-dasharray="64, 40" points="280.231,773.326 300.353,781.245 320.474,789.009 340.596,796.621 360.717,804.088 380.839,811.411 400.961,818.596 421.082,825.647 441.204,832.566 461.325,839.357 481.447,846.025 501.569,852.572 521.69,859.001 541.812,865.316 561.933,871.519 582.055,877.614 602.177,883.603 622.298,889.488 642.42,895.274 662.541,900.96 682.663,906.552 702.785,912.049 722.906,917.456 743.028,922.773 763.149,928.003 783.271,933.149 803.393,938.212 823.514,943.193 843.636,948.096 863.757,952.922 883.879,957.672 904.001,962.349 924.122,966.954 944.244,971.488 964.365,975.954 984.487,980.352 1004.61,984.685 1024.73,988.953 1044.85,993.158 1064.97,997.301 1085.1,1001.38 1105.22,1005.41 1125.34,1009.37 1145.46,1013.28 1165.58,1017.14 1185.7,1020.93 1205.82,1024.68 1225.95,1028.37 1246.07,1032.01 1266.19,1035.61 1286.31,1039.15 1306.43,1042.64 1326.55,1046.09 1346.68,1049.49 1366.8,1052.84 1386.92,1056.15 1407.04,1059.42 1427.16,1062.64 1447.28,1065.82 1467.41,1068.96 1487.53,1072.06 1507.65,1075.12 1527.77,1078.14 1547.89,1081.13 1568.01,1084.07 1588.14,1086.98 1608.26,1089.85 1628.38,1092.69 1648.5,1095.49 1668.62,1098.25 1688.74,1100.99 1708.86,1103.69 1728.99,1106.35 1749.11,1108.99 1769.23,1111.59 1789.35,1114.16 1809.47,1116.7 1829.59,1119.22 1849.72,1121.7 1869.84,1124.15 1889.96,1126.57 1910.08,1128.97 1930.2,1131.34 1950.32,1133.68 1970.45,1136 1990.57,1138.28 2010.69,1140.55 2030.81,1142.79 2050.93,1145 2071.05,1147.18 2091.18,1149.35 2111.3,1151.49 2131.42,1153.6 2151.54,1155.7 2171.66,1157.77 2191.78,1159.81 2211.9,1161.84 2232.03,1163.84 2252.15,1165.83 2272.27,1167.79 2292.39,1169.73 "/>
<polyline clip-path="url(#clip522)" style="stroke:#fcad60; stroke-linecap:round; stroke-linejoin:round; stroke-width:16; stroke-opacity:1; fill:none" points="280.231,1423.18 300.353,1422.37 320.474,1421.12 340.596,1419.18 360.717,1416.11 380.839,1411.28 400.961,1403.65 421.082,1391.68 441.204,1373.15 461.325,1345.19 481.447,1304.72 501.569,1249.66 521.69,1181.04 541.812,1104.59 561.933,1029.68 582.055,965.706 602.177,918.221 622.298,887.966 642.42,871.973 662.541,866.871 682.663,869.188 702.785,876.357 722.906,886.63 743.028,898.614 763.149,911.57 783.271,924.965 803.393,938.42 823.514,951.733 843.636,964.763 863.757,977.399 883.879,989.577 904.001,1001.27 924.122,1012.46 944.244,1023.13 964.365,1033.26 984.487,1042.88 1004.61,1051.99 1024.73,1060.6 1044.85,1068.72 1064.97,1076.37 1085.1,1083.55 1105.22,1090.29 1125.34,1096.6 1145.46,1102.51 1165.58,1108.04 1185.7,1113.18 1205.82,1117.97 1225.95,1122.42 1246.07,1126.55 1266.19,1130.38 1286.31,1133.93 1306.43,1137.2 1326.55,1140.22 1346.68,1142.99 1366.8,1145.53 1386.92,1147.86 1407.04,1150 1427.16,1151.95 1447.28,1153.74 1467.41,1155.36 1487.53,1156.82 1507.65,1158.15 1527.77,1159.34 1547.89,1160.42 1568.01,1161.38 1588.14,1162.25 1608.26,1163.03 1628.38,1163.73 1648.5,1164.34 1668.62,1164.88 1688.74,1165.36 1708.86,1165.78 1728.99,1166.14 1749.11,1166.46 1769.23,1166.73 1789.35,1166.97 1809.47,1167.18 1829.59,1167.36 1849.72,1167.51 1869.84,1167.63 1889.96,1167.73 1910.08,1167.82 1930.2,1167.88 1950.32,1167.94 1970.45,1167.98 1990.57,1168.01 2010.69,1168.03 2030.81,1168.05 2050.93,1168.06 2071.05,1168.07 2091.18,1168.07 2111.3,1168.07 2131.42,1168.06 2151.54,1168.05 2171.66,1168.04 2191.78,1168.03 2211.9,1168.02 2232.03,1168.01 2252.15,1167.99 2272.27,1167.98 2292.39,1167.97 "/>
<polyline clip-path="url(#clip522)" style="stroke:#abdda3; stroke-linecap:round; stroke-linejoin:round; stroke-width:16; stroke-opacity:1; fill:none" points="280.231,773.326 300.353,781.869 320.474,790.194 340.596,798.287 360.717,806.119 380.839,813.643 400.961,820.784 421.082,827.418 441.204,833.358 461.325,838.326 481.447,841.939 501.569,843.714 521.69,843.139 541.812,839.803 561.933,833.54 582.055,824.537 602.177,813.279 622.298,800.321 642.42,786.24 662.541,771.508 682.663,756.51 702.785,741.508 722.906,726.683 743.028,712.186 763.149,698.1 783.271,684.49 803.393,671.406 823.514,658.872 843.636,646.906 863.757,635.521 883.879,624.721 904.001,614.502 924.122,604.857 944.244,595.777 964.365,587.252 984.487,579.265 1004.61,571.798 1024.73,564.832 1044.85,558.348 1064.97,552.328 1085.1,546.751 1105.22,541.594 1125.34,536.833 1145.46,532.449 1165.58,528.42 1185.7,524.727 1205.82,521.349 1225.95,518.266 1246.07,515.457 1266.19,512.903 1286.31,510.585 1306.43,508.488 1326.55,506.597 1346.68,504.896 1366.8,503.369 1386.92,502.001 1407.04,500.779 1427.16,499.689 1447.28,498.721 1467.41,497.864 1487.53,497.109 1507.65,496.447 1527.77,495.867 1547.89,495.362 1568.01,494.923 1588.14,494.543 1608.26,494.215 1628.38,493.935 1648.5,493.697 1668.62,493.497 1688.74,493.331 1708.86,493.193 1728.99,493.081 1749.11,492.99 1769.23,492.918 1789.35,492.862 1809.47,492.82 1829.59,492.789 1849.72,492.768 1869.84,492.756 1889.96,492.752 1910.08,492.752 1930.2,492.758 1950.32,492.767 1970.45,492.778 1990.57,492.792 2010.69,492.808 2030.81,492.825 2050.93,492.842 2071.05,492.86 2091.18,492.878 2111.3,492.895 2131.42,492.912 2151.54,492.928 2171.66,492.943 2191.78,492.958 2211.9,492.972 2232.03,492.985 2252.15,492.997 2272.27,493.008 2292.39,493.019 "/>
<polyline clip-path="url(#clip522)" style="stroke:#2b83b9; stroke-linecap:round; stroke-linejoin:round; stroke-width:16; stroke-opacity:1; fill:none" points="280.231,773.326 300.353,781.06 320.474,788.137 340.596,794.283 360.717,799.053 380.839,801.743 400.961,801.253 421.082,795.916 441.204,783.331 461.325,760.34 481.447,723.482 501.569,670.198 521.69,601 541.812,521.212 561.933,440.043 582.055,367.063 602.177,308.321 622.298,265.107 642.42,235.034 662.541,215.2 682.663,202.519 702.785,194.686 722.906,190.133 743.028,187.62 763.149,186.49 783.271,186.276 803.393,186.646 823.514,187.425 843.636,188.489 863.757,189.74 883.879,191.118 904.001,192.592 924.122,194.135 944.244,195.723 964.365,197.337 984.487,198.968 1004.61,200.609 1024.73,202.254 1044.85,203.893 1064.97,205.516 1085.1,207.119 1105.22,208.7 1125.34,210.256 1145.46,211.783 1165.58,213.277 1185.7,214.73 1205.82,216.14 1225.95,217.505 1246.07,218.827 1266.19,220.103 1286.31,221.331 1306.43,222.51 1326.55,223.635 1346.68,224.705 1366.8,225.721 1386.92,226.686 1407.04,227.6 1427.16,228.464 1447.28,229.277 1467.41,230.04 1487.53,230.753 1507.65,231.414 1527.77,232.029 1547.89,232.599 1568.01,233.128 1588.14,233.616 1608.26,234.067 1628.38,234.48 1648.5,234.858 1668.62,235.2 1688.74,235.51 1708.86,235.789 1728.99,236.041 1749.11,236.268 1769.23,236.472 1789.35,236.656 1809.47,236.82 1829.59,236.966 1849.72,237.095 1869.84,237.208 1889.96,237.305 1910.08,237.388 1930.2,237.46 1950.32,237.522 1970.45,237.576 1990.57,237.622 2010.69,237.661 2030.81,237.695 2050.93,237.723 2071.05,237.747 2091.18,237.767 2111.3,237.782 2131.42,237.793 2151.54,237.8 2171.66,237.806 2191.78,237.809 2211.9,237.811 2232.03,237.812 2252.15,237.811 2272.27,237.81 2292.39,237.808 "/>
<path clip-path="url(#clip520)" d="M1941.03 425.996 L2281.66 425.996 L2281.66 166.796 L1941.03 166.796  Z" fill="#ffffff" fill-rule="evenodd" fill-opacity="1"/>
<polyline clip-path="url(#clip520)" style="stroke:#000000; stroke-linecap:round; stroke-linejoin:round; stroke-width:4; stroke-opacity:1; fill:none" points="1941.03,425.996 2281.66,425.996 2281.66,166.796 1941.03,166.796 1941.03,425.996 "/>
<polyline clip-path="url(#clip520)" style="stroke:#d6181c; stroke-linecap:round; stroke-linejoin:round; stroke-width:16; stroke-opacity:1; fill:none" stroke-dasharray="64, 40" points="1964.73,218.636 2106.92,218.636 "/>
<path clip-path="url(#clip520)" d="M2150.97 214.967 Q2152.57 212.096 2154.79 210.731 Q2157.01 209.365 2160.02 209.365 Q2164.07 209.365 2166.27 212.212 Q2168.47 215.036 2168.47 220.268 L2168.47 235.916 L2164.19 235.916 L2164.19 220.407 Q2164.19 216.68 2162.87 214.874 Q2161.55 213.069 2158.84 213.069 Q2155.53 213.069 2153.61 215.268 Q2151.69 217.467 2151.69 221.263 L2151.69 235.916 L2147.41 235.916 L2147.41 220.407 Q2147.41 216.657 2146.09 214.874 Q2144.77 213.069 2142.01 213.069 Q2138.75 213.069 2136.83 215.291 Q2134.91 217.49 2134.91 221.263 L2134.91 235.916 L2130.62 235.916 L2130.62 209.99 L2134.91 209.99 L2134.91 214.018 Q2136.36 211.633 2138.4 210.499 Q2140.44 209.365 2143.24 209.365 Q2146.06 209.365 2148.03 210.8 Q2150.02 212.235 2150.97 214.967 Z" fill="#000000" fill-rule="nonzero" fill-opacity="1" /><path clip-path="url(#clip520)" d="M2187.01 212.976 Q2183.59 212.976 2181.6 215.661 Q2179.6 218.323 2179.6 222.976 Q2179.6 227.629 2181.57 230.314 Q2183.56 232.976 2187.01 232.976 Q2190.41 232.976 2192.41 230.291 Q2194.4 227.606 2194.4 222.976 Q2194.4 218.37 2192.41 215.684 Q2190.41 212.976 2187.01 212.976 M2187.01 209.365 Q2192.57 209.365 2195.74 212.976 Q2198.91 216.587 2198.91 222.976 Q2198.91 229.342 2195.74 232.976 Q2192.57 236.587 2187.01 236.587 Q2181.43 236.587 2178.26 232.976 Q2175.11 229.342 2175.11 222.976 Q2175.11 216.587 2178.26 212.976 Q2181.43 209.365 2187.01 209.365 Z" fill="#000000" fill-rule="nonzero" fill-opacity="1" /><path clip-path="url(#clip520)" d="M2227.52 220.268 L2227.52 235.916 L2223.26 235.916 L2223.26 220.407 Q2223.26 216.726 2221.83 214.897 Q2220.39 213.069 2217.52 213.069 Q2214.07 213.069 2212.08 215.268 Q2210.09 217.467 2210.09 221.263 L2210.09 235.916 L2205.81 235.916 L2205.81 209.99 L2210.09 209.99 L2210.09 214.018 Q2211.62 211.68 2213.68 210.522 Q2215.76 209.365 2218.47 209.365 Q2222.94 209.365 2225.23 212.143 Q2227.52 214.897 2227.52 220.268 Z" fill="#000000" fill-rule="nonzero" fill-opacity="1" /><path clip-path="url(#clip520)" d="M2246.06 212.976 Q2242.64 212.976 2240.65 215.661 Q2238.66 218.323 2238.66 222.976 Q2238.66 227.629 2240.62 230.314 Q2242.61 232.976 2246.06 232.976 Q2249.47 232.976 2251.46 230.291 Q2253.45 227.606 2253.45 222.976 Q2253.45 218.37 2251.46 215.684 Q2249.47 212.976 2246.06 212.976 M2246.06 209.365 Q2251.62 209.365 2254.79 212.976 Q2257.96 216.587 2257.96 222.976 Q2257.96 229.342 2254.79 232.976 Q2251.62 236.587 2246.06 236.587 Q2240.48 236.587 2237.31 232.976 Q2234.16 229.342 2234.16 222.976 Q2234.16 216.587 2237.31 212.976 Q2240.48 209.365 2246.06 209.365 Z" fill="#000000" fill-rule="nonzero" fill-opacity="1" /><polyline clip-path="url(#clip520)" style="stroke:#fcad60; stroke-linecap:round; stroke-linejoin:round; stroke-width:16; stroke-opacity:1; fill:none" points="1964.73,270.476 2106.92,270.476 "/>
<path clip-path="url(#clip520)" d="M2130.62 261.83 L2135.14 261.83 L2143.24 283.589 L2151.34 261.83 L2155.85 261.83 L2146.13 287.756 L2140.35 287.756 L2130.62 261.83 Z" fill="#000000" fill-rule="nonzero" fill-opacity="1" /><path clip-path="url(#clip520)" d="M2172.34 256.274 Q2168.73 256.274 2166.9 259.839 Q2165.09 263.381 2165.09 270.51 Q2165.09 277.617 2166.9 281.182 Q2168.73 284.723 2172.34 284.723 Q2175.97 284.723 2177.78 281.182 Q2179.6 277.617 2179.6 270.51 Q2179.6 263.381 2177.78 259.839 Q2175.97 256.274 2172.34 256.274 M2172.34 252.571 Q2178.15 252.571 2181.2 257.177 Q2184.28 261.76 2184.28 270.51 Q2184.28 279.237 2181.2 283.844 Q2178.15 288.427 2172.34 288.427 Q2166.53 288.427 2163.45 283.844 Q2160.39 279.237 2160.39 270.51 Q2160.39 261.76 2163.45 257.177 Q2166.53 252.571 2172.34 252.571 Z" fill="#000000" fill-rule="nonzero" fill-opacity="1" /><polyline clip-path="url(#clip520)" style="stroke:#abdda3; stroke-linecap:round; stroke-linejoin:round; stroke-width:16; stroke-opacity:1; fill:none" points="1964.73,322.316 2106.92,322.316 "/>
<path clip-path="url(#clip520)" d="M2130.62 313.67 L2135.14 313.67 L2143.24 335.429 L2151.34 313.67 L2155.85 313.67 L2146.13 339.596 L2140.35 339.596 L2130.62 313.67 Z" fill="#000000" fill-rule="nonzero" fill-opacity="1" /><path clip-path="url(#clip520)" d="M2163.15 335.661 L2170.79 335.661 L2170.79 309.295 L2162.48 310.962 L2162.48 306.702 L2170.74 305.036 L2175.41 305.036 L2175.41 335.661 L2183.05 335.661 L2183.05 339.596 L2163.15 339.596 L2163.15 335.661 Z" fill="#000000" fill-rule="nonzero" fill-opacity="1" /><polyline clip-path="url(#clip520)" style="stroke:#2b83b9; stroke-linecap:round; stroke-linejoin:round; stroke-width:16; stroke-opacity:1; fill:none" points="1964.73,374.156 2106.92,374.156 "/>
<path clip-path="url(#clip520)" d="M2130.62 356.876 L2159.86 356.876 L2159.86 360.811 L2147.59 360.811 L2147.59 391.436 L2142.89 391.436 L2142.89 360.811 L2130.62 360.811 L2130.62 356.876 Z" fill="#000000" fill-rule="nonzero" fill-opacity="1" /><path clip-path="url(#clip520)" d="M2166.18 368.496 Q2162.75 368.496 2160.76 371.181 Q2158.77 373.843 2158.77 378.496 Q2158.77 383.149 2160.74 385.834 Q2162.73 388.496 2166.18 388.496 Q2169.58 388.496 2171.57 385.811 Q2173.56 383.126 2173.56 378.496 Q2173.56 373.89 2171.57 371.204 Q2169.58 368.496 2166.18 368.496 M2166.18 364.885 Q2171.73 364.885 2174.91 368.496 Q2178.08 372.107 2178.08 378.496 Q2178.08 384.862 2174.91 388.496 Q2171.73 392.107 2166.18 392.107 Q2160.6 392.107 2157.43 388.496 Q2154.28 384.862 2154.28 378.496 Q2154.28 372.107 2157.43 368.496 Q2160.6 364.885 2166.18 364.885 Z" fill="#000000" fill-rule="nonzero" fill-opacity="1" /><path clip-path="url(#clip520)" d="M2189.35 358.149 L2189.35 365.51 L2198.12 365.51 L2198.12 368.82 L2189.35 368.82 L2189.35 382.894 Q2189.35 386.065 2190.21 386.968 Q2191.09 387.871 2193.75 387.871 L2198.12 387.871 L2198.12 391.436 L2193.75 391.436 Q2188.82 391.436 2186.94 389.607 Q2185.07 387.755 2185.07 382.894 L2185.07 368.82 L2181.94 368.82 L2181.94 365.51 L2185.07 365.51 L2185.07 358.149 L2189.35 358.149 Z" fill="#000000" fill-rule="nonzero" fill-opacity="1" /><path clip-path="url(#clip520)" d="M2215.51 378.403 Q2210.35 378.403 2208.35 379.584 Q2206.36 380.764 2206.36 383.612 Q2206.36 385.88 2207.85 387.223 Q2209.35 388.542 2211.92 388.542 Q2215.46 388.542 2217.59 386.042 Q2219.74 383.519 2219.74 379.352 L2219.74 378.403 L2215.51 378.403 M2224 376.644 L2224 391.436 L2219.74 391.436 L2219.74 387.501 Q2218.29 389.862 2216.11 390.996 Q2213.93 392.107 2210.79 392.107 Q2206.8 392.107 2204.44 389.885 Q2202.1 387.639 2202.1 383.889 Q2202.1 379.514 2205.02 377.292 Q2207.96 375.07 2213.77 375.07 L2219.74 375.07 L2219.74 374.653 Q2219.74 371.714 2217.8 370.116 Q2215.88 368.496 2212.38 368.496 Q2210.16 368.496 2208.05 369.028 Q2205.95 369.561 2204 370.626 L2204 366.69 Q2206.34 365.788 2208.54 365.348 Q2210.74 364.885 2212.82 364.885 Q2218.45 364.885 2221.22 367.802 Q2224 370.718 2224 376.644 Z" fill="#000000" fill-rule="nonzero" fill-opacity="1" /><path clip-path="url(#clip520)" d="M2232.78 355.417 L2237.03 355.417 L2237.03 391.436 L2232.78 391.436 L2232.78 355.417 Z" fill="#000000" fill-rule="nonzero" fill-opacity="1" /></svg>
