<?xml version="1.0" encoding="utf-8"?>
<svg xmlns="http://www.w3.org/2000/svg" xmlns:xlink="http://www.w3.org/1999/xlink" width="600" height="400" viewBox="0 0 2400 1600">
<defs>
  <clipPath id="clip020">
    <rect x="0" y="0" width="2400" height="1600"/>
  </clipPath>
</defs>
<path clip-path="url(#clip020)" d="M0 1600 L2400 1600 L2400 0 L0 0  Z" fill="#ffffff" fill-rule="evenodd" fill-opacity="1"/>
<defs>
  <clipPath id="clip021">
    <rect x="480" y="0" width="1681" height="1600"/>
  </clipPath>
</defs>
<path clip-path="url(#clip020)" d="M174.149 1423.18 L2352.76 1423.18 L2352.76 123.472 L174.149 123.472  Z" fill="#ffffff" fill-rule="evenodd" fill-opacity="1"/>
<defs>
  <clipPath id="clip022">
    <rect x="174" y="123" width="2180" height="1301"/>
  </clipPath>
</defs>
<polyline clip-path="url(#clip022)" style="stroke:#000000; stroke-linecap:round; stroke-linejoin:round; stroke-width:2; stroke-opacity:0.1; fill:none" points="392.01,1423.18 392.01,123.472 "/>
<polyline clip-path="url(#clip022)" style="stroke:#000000; stroke-linecap:round; stroke-linejoin:round; stroke-width:2; stroke-opacity:0.1; fill:none" points="827.731,1423.18 827.731,123.472 "/>
<polyline clip-path="url(#clip022)" style="stroke:#000000; stroke-linecap:round; stroke-linejoin:round; stroke-width:2; stroke-opacity:0.1; fill:none" points="1263.45,1423.18 1263.45,123.472 "/>
<polyline clip-path="url(#clip022)" style="stroke:#000000; stroke-linecap:round; stroke-linejoin:round; stroke-width:2; stroke-opacity:0.1; fill:none" points="1699.17,1423.18 1699.17,123.472 "/>
<polyline clip-path="url(#clip022)" style="stroke:#000000; stroke-linecap:round; stroke-linejoin:round; stroke-width:2; stroke-opacity:0.1; fill:none" points="2134.9,1423.18 2134.9,123.472 "/>
<polyline clip-path="url(#clip020)" style="stroke:#000000; stroke-linecap:round; stroke-linejoin:round; stroke-width:4; stroke-opacity:1; fill:none" points="174.149,1423.18 2352.76,1423.18 "/>
<polyline clip-path="url(#clip020)" style="stroke:#000000; stroke-linecap:round; stroke-linejoin:round; stroke-width:4; stroke-opacity:1; fill:none" points="392.01,1423.18 392.01,1404.28 "/>
<polyline clip-path="url(#clip020)" style="stroke:#000000; stroke-linecap:round; stroke-linejoin:round; stroke-width:4; stroke-opacity:1; fill:none" points="827.731,1423.18 827.731,1404.28 "/>
<polyline clip-path="url(#clip020)" style="stroke:#000000; stroke-linecap:round; stroke-linejoin:round; stroke-width:4; stroke-opacity:1; fill:none" points="1263.45,1423.18 1263.45,1404.28 "/>
<polyline clip-path="url(#clip020)" style="stroke:#000000; stroke-linecap:round; stroke-linejoin:round; stroke-width:4; stroke-opacity:1; fill:none" points="1699.17,1423.18 1699.17,1404.28 "/>
<polyline clip-path="url(#clip020)" style="stroke:#000000; stroke-linecap:round; stroke-linejoin:round; stroke-width:4; stroke-opacity:1; fill:none" points="2134.9,1423.18 2134.9,1404.28 "/>
<path clip-path="url(#clip020)" d="M382.392 1481.64 L390.03 1481.64 L390.03 1455.28 L381.72 1456.95 L381.72 1452.69 L389.984 1451.02 L394.66 1451.02 L394.66 1481.64 L402.299 1481.64 L402.299 1485.58 L382.392 1485.58 L382.392 1481.64 Z" fill="#000000" fill-rule="nonzero" fill-opacity="1" /><path clip-path="url(#clip020)" d="M822.384 1481.64 L838.703 1481.64 L838.703 1485.58 L816.759 1485.58 L816.759 1481.64 Q819.421 1478.89 824.004 1474.26 Q828.611 1469.61 829.791 1468.27 Q832.037 1465.74 832.916 1464.01 Q833.819 1462.25 833.819 1460.56 Q833.819 1457.8 831.875 1456.07 Q829.953 1454.33 826.851 1454.33 Q824.652 1454.33 822.199 1455.09 Q819.768 1455.86 816.99 1457.41 L816.99 1452.69 Q819.814 1451.55 822.268 1450.97 Q824.722 1450.39 826.759 1450.39 Q832.129 1450.39 835.324 1453.08 Q838.518 1455.77 838.518 1460.26 Q838.518 1462.39 837.708 1464.31 Q836.921 1466.2 834.814 1468.8 Q834.236 1469.47 831.134 1472.69 Q828.032 1475.88 822.384 1481.64 Z" fill="#000000" fill-rule="nonzero" fill-opacity="1" /><path clip-path="url(#clip020)" d="M1267.7 1466.95 Q1271.06 1467.66 1272.93 1469.93 Q1274.83 1472.2 1274.83 1475.53 Q1274.83 1480.65 1271.31 1483.45 Q1267.79 1486.25 1261.31 1486.25 Q1259.14 1486.25 1256.82 1485.81 Q1254.53 1485.39 1252.08 1484.54 L1252.08 1480.02 Q1254.02 1481.16 1256.33 1481.74 Q1258.65 1482.32 1261.17 1482.32 Q1265.57 1482.32 1267.86 1480.58 Q1270.18 1478.84 1270.18 1475.53 Q1270.18 1472.48 1268.02 1470.77 Q1265.89 1469.03 1262.08 1469.03 L1258.05 1469.03 L1258.05 1465.19 L1262.26 1465.19 Q1265.71 1465.19 1267.54 1463.82 Q1269.37 1462.43 1269.37 1459.84 Q1269.37 1457.18 1267.47 1455.77 Q1265.59 1454.33 1262.08 1454.33 Q1260.15 1454.33 1257.95 1454.75 Q1255.76 1455.16 1253.12 1456.04 L1253.12 1451.88 Q1255.78 1451.14 1258.09 1450.77 Q1260.43 1450.39 1262.49 1450.39 Q1267.82 1450.39 1270.92 1452.83 Q1274.02 1455.23 1274.02 1459.35 Q1274.02 1462.22 1272.38 1464.21 Q1270.73 1466.18 1267.7 1466.95 Z" fill="#000000" fill-rule="nonzero" fill-opacity="1" /><path clip-path="url(#clip020)" d="M1702.18 1455.09 L1690.38 1473.54 L1702.18 1473.54 L1702.18 1455.09 M1700.96 1451.02 L1706.84 1451.02 L1706.84 1473.54 L1711.77 1473.54 L1711.77 1477.43 L1706.84 1477.43 L1706.84 1485.58 L1702.18 1485.58 L1702.18 1477.43 L1686.58 1477.43 L1686.58 1472.92 L1700.96 1451.02 Z" fill="#000000" fill-rule="nonzero" fill-opacity="1" /><path clip-path="url(#clip020)" d="M2125.17 1451.02 L2143.53 1451.02 L2143.53 1454.96 L2129.46 1454.96 L2129.46 1463.43 Q2130.47 1463.08 2131.49 1462.92 Q2132.51 1462.73 2133.53 1462.73 Q2139.32 1462.73 2142.7 1465.9 Q2146.08 1469.08 2146.08 1474.49 Q2146.08 1480.07 2142.6 1483.17 Q2139.13 1486.25 2132.81 1486.25 Q2130.64 1486.25 2128.37 1485.88 Q2126.12 1485.51 2123.71 1484.77 L2123.71 1480.07 Q2125.8 1481.2 2128.02 1481.76 Q2130.24 1482.32 2132.72 1482.32 Q2136.72 1482.32 2139.06 1480.21 Q2141.4 1478.1 2141.4 1474.49 Q2141.4 1470.88 2139.06 1468.77 Q2136.72 1466.67 2132.72 1466.67 Q2130.84 1466.67 2128.97 1467.08 Q2127.12 1467.5 2125.17 1468.38 L2125.17 1451.02 Z" fill="#000000" fill-rule="nonzero" fill-opacity="1" /><path clip-path="url(#clip020)" d="M959.14 1525.81 L959.14 1543.66 L967.224 1543.66 Q971.712 1543.66 974.163 1541.34 Q976.614 1539.02 976.614 1534.72 Q976.614 1530.45 974.163 1528.13 Q971.712 1525.81 967.224 1525.81 L959.14 1525.81 M952.71 1520.52 L967.224 1520.52 Q975.213 1520.52 979.287 1524.15 Q983.393 1527.75 983.393 1534.72 Q983.393 1541.75 979.287 1545.35 Q975.213 1548.95 967.224 1548.95 L959.14 1548.95 L959.14 1568.04 L952.71 1568.04 L952.71 1520.52 Z" fill="#000000" fill-rule="nonzero" fill-opacity="1" /><path clip-path="url(#clip020)" d="M1005.04 1550.12 Q997.939 1550.12 995.202 1551.75 Q992.464 1553.37 992.464 1557.29 Q992.464 1560.4 994.501 1562.25 Q996.57 1564.07 1000.1 1564.07 Q1004.97 1564.07 1007.9 1560.63 Q1010.86 1557.16 1010.86 1551.43 L1010.86 1550.12 L1005.04 1550.12 M1016.72 1547.71 L1016.72 1568.04 L1010.86 1568.04 L1010.86 1562.63 Q1008.86 1565.88 1005.86 1567.44 Q1002.87 1568.97 998.544 1568.97 Q993.069 1568.97 989.823 1565.91 Q986.608 1562.82 986.608 1557.67 Q986.608 1551.65 990.618 1548.6 Q994.66 1545.54 1002.65 1545.54 L1010.86 1545.54 L1010.86 1544.97 Q1010.86 1540.93 1008.19 1538.73 Q1005.55 1536.5 1000.74 1536.5 Q997.684 1536.5 994.788 1537.23 Q991.891 1537.97 989.218 1539.43 L989.218 1534.02 Q992.432 1532.78 995.456 1532.17 Q998.48 1531.54 1001.34 1531.54 Q1009.08 1531.54 1012.9 1535.55 Q1016.72 1539.56 1016.72 1547.71 Z" fill="#000000" fill-rule="nonzero" fill-opacity="1" /><path clip-path="url(#clip020)" d="M1034.57 1522.27 L1034.57 1532.4 L1046.64 1532.4 L1046.64 1536.95 L1034.57 1536.95 L1034.57 1556.3 Q1034.57 1560.66 1035.75 1561.9 Q1036.96 1563.14 1040.62 1563.14 L1046.64 1563.14 L1046.64 1568.04 L1040.62 1568.04 Q1033.84 1568.04 1031.26 1565.53 Q1028.69 1562.98 1028.69 1556.3 L1028.69 1536.95 L1024.39 1536.95 L1024.39 1532.4 L1028.69 1532.4 L1028.69 1522.27 L1034.57 1522.27 Z" fill="#000000" fill-rule="nonzero" fill-opacity="1" /><path clip-path="url(#clip020)" d="M1083.97 1546.53 L1083.97 1568.04 L1078.11 1568.04 L1078.11 1546.72 Q1078.11 1541.66 1076.14 1539.14 Q1074.17 1536.63 1070.22 1536.63 Q1065.48 1536.63 1062.74 1539.65 Q1060 1542.68 1060 1547.9 L1060 1568.04 L1054.12 1568.04 L1054.12 1518.52 L1060 1518.52 L1060 1537.93 Q1062.11 1534.72 1064.94 1533.13 Q1067.8 1531.54 1071.53 1531.54 Q1077.67 1531.54 1080.82 1535.36 Q1083.97 1539.14 1083.97 1546.53 Z" fill="#000000" fill-rule="nonzero" fill-opacity="1" /><path clip-path="url(#clip020)" d="M1092.25 1532.4 L1098.1 1532.4 L1105.42 1560.21 L1112.71 1532.4 L1119.62 1532.4 L1126.94 1560.21 L1134.23 1532.4 L1140.09 1532.4 L1130.76 1568.04 L1123.85 1568.04 L1116.18 1538.83 L1108.48 1568.04 L1101.57 1568.04 L1092.25 1532.4 Z" fill="#000000" fill-rule="nonzero" fill-opacity="1" /><path clip-path="url(#clip020)" d="M1165.17 1550.12 Q1158.07 1550.12 1155.33 1551.75 Q1152.59 1553.37 1152.59 1557.29 Q1152.59 1560.4 1154.63 1562.25 Q1156.7 1564.07 1160.23 1564.07 Q1165.1 1564.07 1168.03 1560.63 Q1170.99 1557.16 1170.99 1551.43 L1170.99 1550.12 L1165.17 1550.12 M1176.85 1547.71 L1176.85 1568.04 L1170.99 1568.04 L1170.99 1562.63 Q1168.99 1565.88 1165.99 1567.44 Q1163 1568.97 1158.67 1568.97 Q1153.2 1568.97 1149.95 1565.91 Q1146.74 1562.82 1146.74 1557.67 Q1146.74 1551.65 1150.75 1548.6 Q1154.79 1545.54 1162.78 1545.54 L1170.99 1545.54 L1170.99 1544.97 Q1170.99 1540.93 1168.32 1538.73 Q1165.68 1536.5 1160.87 1536.5 Q1157.81 1536.5 1154.92 1537.23 Q1152.02 1537.97 1149.35 1539.43 L1149.35 1534.02 Q1152.56 1532.78 1155.59 1532.17 Q1158.61 1531.54 1161.47 1531.54 Q1169.21 1531.54 1173.03 1535.55 Q1176.85 1539.56 1176.85 1547.71 Z" fill="#000000" fill-rule="nonzero" fill-opacity="1" /><path clip-path="url(#clip020)" d="M1203.74 1571.35 Q1201.26 1577.72 1198.9 1579.66 Q1196.55 1581.6 1192.6 1581.6 L1187.92 1581.6 L1187.92 1576.7 L1191.36 1576.7 Q1193.78 1576.7 1195.12 1575.56 Q1196.45 1574.41 1198.08 1570.14 L1199.13 1567.47 L1184.71 1532.4 L1190.92 1532.4 L1202.06 1560.28 L1213.2 1532.4 L1219.4 1532.4 L1203.74 1571.35 Z" fill="#000000" fill-rule="nonzero" fill-opacity="1" /><path clip-path="url(#clip020)" d="M1248.46 1520.52 L1254.89 1520.52 L1254.89 1562.63 L1278.03 1562.63 L1278.03 1568.04 L1248.46 1568.04 L1248.46 1520.52 Z" fill="#000000" fill-rule="nonzero" fill-opacity="1" /><path clip-path="url(#clip020)" d="M1313.87 1548.76 L1313.87 1551.62 L1286.94 1551.62 Q1287.32 1557.67 1290.57 1560.85 Q1293.85 1564 1299.67 1564 Q1303.05 1564 1306.2 1563.17 Q1309.38 1562.35 1312.5 1560.69 L1312.5 1566.23 Q1309.35 1567.57 1306.04 1568.27 Q1302.73 1568.97 1299.32 1568.97 Q1290.79 1568.97 1285.8 1564 Q1280.83 1559.04 1280.83 1550.57 Q1280.83 1541.82 1285.54 1536.69 Q1290.28 1531.54 1298.3 1531.54 Q1305.5 1531.54 1309.67 1536.18 Q1313.87 1540.8 1313.87 1548.76 M1308.01 1547.04 Q1307.95 1542.23 1305.31 1539.37 Q1302.7 1536.5 1298.37 1536.5 Q1293.47 1536.5 1290.51 1539.27 Q1287.58 1542.04 1287.13 1547.07 L1308.01 1547.04 Z" fill="#000000" fill-rule="nonzero" fill-opacity="1" /><path clip-path="url(#clip020)" d="M1353.11 1546.53 L1353.11 1568.04 L1347.26 1568.04 L1347.26 1546.72 Q1347.26 1541.66 1345.28 1539.14 Q1343.31 1536.63 1339.36 1536.63 Q1334.62 1536.63 1331.88 1539.65 Q1329.15 1542.68 1329.15 1547.9 L1329.15 1568.04 L1323.26 1568.04 L1323.26 1532.4 L1329.15 1532.4 L1329.15 1537.93 Q1331.25 1534.72 1334.08 1533.13 Q1336.94 1531.54 1340.67 1531.54 Q1346.81 1531.54 1349.96 1535.36 Q1353.11 1539.14 1353.11 1546.53 Z" fill="#000000" fill-rule="nonzero" fill-opacity="1" /><path clip-path="url(#clip020)" d="M1388.25 1549.81 Q1388.25 1543.44 1385.61 1539.94 Q1383 1536.44 1378.26 1536.44 Q1373.55 1536.44 1370.91 1539.94 Q1368.3 1543.44 1368.3 1549.81 Q1368.3 1556.14 1370.91 1559.64 Q1373.55 1563.14 1378.26 1563.14 Q1383 1563.14 1385.61 1559.64 Q1388.25 1556.14 1388.25 1549.81 M1394.11 1563.62 Q1394.11 1572.72 1390.07 1577.15 Q1386.02 1581.6 1377.69 1581.6 Q1374.6 1581.6 1371.86 1581.13 Q1369.12 1580.68 1366.55 1579.72 L1366.55 1574.03 Q1369.12 1575.43 1371.64 1576.1 Q1374.15 1576.76 1376.76 1576.76 Q1382.52 1576.76 1385.39 1573.74 Q1388.25 1570.75 1388.25 1564.67 L1388.25 1561.77 Q1386.44 1564.92 1383.61 1566.48 Q1380.77 1568.04 1376.83 1568.04 Q1370.27 1568.04 1366.26 1563.05 Q1362.25 1558.05 1362.25 1549.81 Q1362.25 1541.53 1366.26 1536.53 Q1370.27 1531.54 1376.83 1531.54 Q1380.77 1531.54 1383.61 1533.1 Q1386.44 1534.66 1388.25 1537.81 L1388.25 1532.4 L1394.11 1532.4 L1394.11 1563.62 Z" fill="#000000" fill-rule="nonzero" fill-opacity="1" /><path clip-path="url(#clip020)" d="M1411.96 1522.27 L1411.96 1532.4 L1424.03 1532.4 L1424.03 1536.95 L1411.96 1536.95 L1411.96 1556.3 Q1411.96 1560.66 1413.14 1561.9 Q1414.35 1563.14 1418.01 1563.14 L1424.03 1563.14 L1424.03 1568.04 L1418.01 1568.04 Q1411.23 1568.04 1408.65 1565.53 Q1406.08 1562.98 1406.08 1556.3 L1406.08 1536.95 L1401.78 1536.95 L1401.78 1532.4 L1406.08 1532.4 L1406.08 1522.27 L1411.96 1522.27 Z" fill="#000000" fill-rule="nonzero" fill-opacity="1" /><path clip-path="url(#clip020)" d="M1461.36 1546.53 L1461.36 1568.04 L1455.51 1568.04 L1455.51 1546.72 Q1455.51 1541.66 1453.53 1539.14 Q1451.56 1536.63 1447.61 1536.63 Q1442.87 1536.63 1440.13 1539.65 Q1437.4 1542.68 1437.4 1547.9 L1437.4 1568.04 L1431.51 1568.04 L1431.51 1518.52 L1437.4 1518.52 L1437.4 1537.93 Q1439.5 1534.72 1442.33 1533.13 Q1445.19 1531.54 1448.92 1531.54 Q1455.06 1531.54 1458.21 1535.36 Q1461.36 1539.14 1461.36 1546.53 Z" fill="#000000" fill-rule="nonzero" fill-opacity="1" /><path clip-path="url(#clip020)" d="M1507.83 1518.58 Q1503.57 1525.9 1501.5 1533.06 Q1499.43 1540.23 1499.43 1547.58 Q1499.43 1554.93 1501.5 1562.16 Q1503.6 1569.35 1507.83 1576.64 L1502.74 1576.64 Q1497.97 1569.16 1495.58 1561.93 Q1493.22 1554.71 1493.22 1547.58 Q1493.22 1540.48 1495.58 1533.29 Q1497.93 1526.09 1502.74 1518.58 L1507.83 1518.58 Z" fill="#000000" fill-rule="nonzero" fill-opacity="1" /><path clip-path="url(#clip020)" d="M1548.83 1546.53 L1548.83 1568.04 L1542.97 1568.04 L1542.97 1546.72 Q1542.97 1541.66 1541 1539.14 Q1539.02 1536.63 1535.08 1536.63 Q1530.33 1536.63 1527.6 1539.65 Q1524.86 1542.68 1524.86 1547.9 L1524.86 1568.04 L1518.97 1568.04 L1518.97 1532.4 L1524.86 1532.4 L1524.86 1537.93 Q1526.96 1534.72 1529.79 1533.13 Q1532.66 1531.54 1536.38 1531.54 Q1542.52 1531.54 1545.68 1535.36 Q1548.83 1539.14 1548.83 1546.53 Z" fill="#000000" fill-rule="nonzero" fill-opacity="1" /><path clip-path="url(#clip020)" d="M1559.59 1518.58 L1564.68 1518.58 Q1569.45 1526.09 1571.81 1533.29 Q1574.19 1540.48 1574.19 1547.58 Q1574.19 1554.71 1571.81 1561.93 Q1569.45 1569.16 1564.68 1576.64 L1559.59 1576.64 Q1563.82 1569.35 1565.89 1562.16 Q1567.99 1554.93 1567.99 1547.58 Q1567.99 1540.23 1565.89 1533.06 Q1563.82 1525.9 1559.59 1518.58 Z" fill="#000000" fill-rule="nonzero" fill-opacity="1" /><polyline clip-path="url(#clip022)" style="stroke:#000000; stroke-linecap:round; stroke-linejoin:round; stroke-width:2; stroke-opacity:0.1; fill:none" points="174.149,1423.18 2352.76,1423.18 "/>
<polyline clip-path="url(#clip022)" style="stroke:#000000; stroke-linecap:round; stroke-linejoin:round; stroke-width:2; stroke-opacity:0.1; fill:none" points="174.149,123.472 2352.76,123.472 "/>
<polyline clip-path="url(#clip020)" style="stroke:#000000; stroke-linecap:round; stroke-linejoin:round; stroke-width:4; stroke-opacity:1; fill:none" points="174.149,1423.18 174.149,123.472 "/>
<polyline clip-path="url(#clip020)" style="stroke:#000000; stroke-linecap:round; stroke-linejoin:round; stroke-width:4; stroke-opacity:1; fill:none" points="174.149,1423.18 193.047,1423.18 "/>
<polyline clip-path="url(#clip020)" style="stroke:#000000; stroke-linecap:round; stroke-linejoin:round; stroke-width:4; stroke-opacity:1; fill:none" points="174.149,123.472 193.047,123.472 "/>
<path clip-path="url(#clip020)" d="M126.205 1408.98 Q122.593 1408.98 120.765 1412.54 Q118.959 1416.08 118.959 1423.21 Q118.959 1430.32 120.765 1433.89 Q122.593 1437.43 126.205 1437.43 Q129.839 1437.43 131.644 1433.89 Q133.473 1430.32 133.473 1423.21 Q133.473 1416.08 131.644 1412.54 Q129.839 1408.98 126.205 1408.98 M126.205 1405.27 Q132.015 1405.27 135.07 1409.88 Q138.149 1414.46 138.149 1423.21 Q138.149 1431.94 135.07 1436.55 Q132.015 1441.13 126.205 1441.13 Q120.394 1441.13 117.316 1436.55 Q114.26 1431.94 114.26 1423.21 Q114.26 1414.46 117.316 1409.88 Q120.394 1405.27 126.205 1405.27 Z" fill="#000000" fill-rule="nonzero" fill-opacity="1" /><path clip-path="url(#clip020)" d="M118.242 136.817 L125.88 136.817 L125.88 110.451 L117.57 112.118 L117.57 107.859 L125.834 106.192 L130.51 106.192 L130.51 136.817 L138.149 136.817 L138.149 140.752 L118.242 140.752 L118.242 136.817 Z" fill="#000000" fill-rule="nonzero" fill-opacity="1" /><path clip-path="url(#clip020)" d="M16.4842 1034.45 L16.4842 1024.87 L48.8219 1012.74 L16.4842 1000.55 L16.4842 990.969 L64.0042 990.969 L64.0042 997.24 L22.277 997.24 L54.8694 1009.49 L54.8694 1015.95 L22.277 1028.21 L64.0042 1028.21 L64.0042 1034.45 L16.4842 1034.45 Z" fill="#000000" fill-rule="nonzero" fill-opacity="1" /><path clip-path="url(#clip020)" d="M32.4621 964.647 Q32.4621 969.358 36.1542 972.095 Q39.8145 974.832 46.212 974.832 Q52.6095 974.832 56.3017 972.127 Q59.9619 969.39 59.9619 964.647 Q59.9619 959.969 56.2698 957.231 Q52.5777 954.494 46.212 954.494 Q39.8781 954.494 36.186 957.231 Q32.4621 959.969 32.4621 964.647 M27.4968 964.647 Q27.4968 957.008 32.4621 952.648 Q37.4273 948.287 46.212 948.287 Q54.9649 948.287 59.9619 952.648 Q64.9272 957.008 64.9272 964.647 Q64.9272 972.318 59.9619 976.678 Q54.9649 981.007 46.212 981.007 Q37.4273 981.007 32.4621 976.678 Q27.4968 972.318 27.4968 964.647 Z" fill="#000000" fill-rule="nonzero" fill-opacity="1" /><path clip-path="url(#clip020)" d="M33.7671 915.122 L14.479 915.122 L14.479 909.266 L64.0042 909.266 L64.0042 915.122 L58.657 915.122 Q61.8398 916.968 63.3994 919.801 Q64.9272 922.602 64.9272 926.549 Q64.9272 933.01 59.771 937.084 Q54.6147 941.126 46.212 941.126 Q37.8093 941.126 32.6531 937.084 Q27.4968 933.01 27.4968 926.549 Q27.4968 922.602 29.0564 919.801 Q30.5842 916.968 33.7671 915.122 M46.212 935.079 Q52.6732 935.079 56.3653 932.437 Q60.0256 929.763 60.0256 925.116 Q60.0256 920.469 56.3653 917.796 Q52.6732 915.122 46.212 915.122 Q39.7508 915.122 36.0905 917.796 Q32.3984 920.469 32.3984 925.116 Q32.3984 929.763 36.0905 932.437 Q39.7508 935.079 46.212 935.079 Z" fill="#000000" fill-rule="nonzero" fill-opacity="1" /><path clip-path="url(#clip020)" d="M49.9359 897.807 L28.3562 897.807 L28.3562 891.951 L49.7131 891.951 Q54.7739 891.951 57.3202 889.978 Q59.8346 888.004 59.8346 884.057 Q59.8346 879.315 56.8109 876.578 Q53.7872 873.809 48.5673 873.809 L28.3562 873.809 L28.3562 867.952 L64.0042 867.952 L64.0042 873.809 L58.5296 873.809 Q61.7762 875.941 63.3676 878.774 Q64.9272 881.575 64.9272 885.299 Q64.9272 891.442 61.1078 894.625 Q57.2883 897.807 49.9359 897.807 M27.4968 883.071 L27.4968 883.071 Z" fill="#000000" fill-rule="nonzero" fill-opacity="1" /><path clip-path="url(#clip020)" d="M14.479 855.889 L14.479 850.033 L64.0042 850.033 L64.0042 855.889 L14.479 855.889 Z" fill="#000000" fill-rule="nonzero" fill-opacity="1" /><path clip-path="url(#clip020)" d="M44.7161 807.287 L47.5806 807.287 L47.5806 834.214 Q53.6281 833.832 56.8109 830.586 Q59.9619 827.307 59.9619 821.483 Q59.9619 818.109 59.1344 814.958 Q58.3069 811.775 56.6518 808.656 L62.1899 808.656 Q63.5267 811.807 64.227 815.117 Q64.9272 818.427 64.9272 821.833 Q64.9272 830.363 59.9619 835.36 Q54.9967 840.325 46.5303 840.325 Q37.7774 840.325 32.6531 835.614 Q27.4968 830.872 27.4968 822.851 Q27.4968 815.658 32.1438 811.488 Q36.7589 807.287 44.7161 807.287 M42.9973 813.143 Q38.1912 813.207 35.3266 815.849 Q32.4621 818.459 32.4621 822.788 Q32.4621 827.689 35.2312 830.649 Q38.0002 833.577 43.0292 834.023 L42.9973 813.143 Z" fill="#000000" fill-rule="nonzero" fill-opacity="1" /><path clip-path="url(#clip020)" d="M41.3104 770.27 L58.7206 770.27 L58.7206 759.958 Q58.7206 754.77 56.5881 752.287 Q54.4238 749.773 49.9996 749.773 Q45.5436 749.773 43.4429 752.287 Q41.3104 754.77 41.3104 759.958 L41.3104 770.27 M21.7677 770.27 L36.0905 770.27 L36.0905 760.754 Q36.0905 756.043 34.34 753.751 Q32.5576 751.428 28.9291 751.428 Q25.3325 751.428 23.5501 753.751 Q21.7677 756.043 21.7677 760.754 L21.7677 770.27 M16.4842 776.7 L16.4842 760.276 Q16.4842 752.924 19.5397 748.945 Q22.5952 744.967 28.2289 744.967 Q32.5894 744.967 35.1675 747.004 Q37.7456 749.041 38.3822 752.988 Q39.4007 748.245 42.6472 745.635 Q45.8619 742.993 50.6998 742.993 Q57.0655 742.993 60.5348 747.322 Q64.0042 751.651 64.0042 759.64 L64.0042 776.7 L16.4842 776.7 Z" fill="#000000" fill-rule="nonzero" fill-opacity="1" /><path clip-path="url(#clip020)" d="M28.3562 732.235 L28.3562 726.379 L64.0042 726.379 L64.0042 732.235 L28.3562 732.235 M14.479 732.235 L14.479 726.379 L21.895 726.379 L21.895 732.235 L14.479 732.235 Z" fill="#000000" fill-rule="nonzero" fill-opacity="1" /><path clip-path="url(#clip020)" d="M32.4621 700.311 Q32.4621 705.022 36.1542 707.759 Q39.8145 710.496 46.212 710.496 Q52.6095 710.496 56.3017 707.791 Q59.9619 705.054 59.9619 700.311 Q59.9619 695.633 56.2698 692.895 Q52.5777 690.158 46.212 690.158 Q39.8781 690.158 36.186 692.895 Q32.4621 695.633 32.4621 700.311 M27.4968 700.311 Q27.4968 692.672 32.4621 688.312 Q37.4273 683.951 46.212 683.951 Q54.9649 683.951 59.9619 688.312 Q64.9272 692.672 64.9272 700.311 Q64.9272 707.982 59.9619 712.343 Q54.9649 716.671 46.212 716.671 Q37.4273 716.671 32.4621 712.343 Q27.4968 707.982 27.4968 700.311 Z" fill="#000000" fill-rule="nonzero" fill-opacity="1" /><path clip-path="url(#clip020)" d="M35.1993 646.489 Q31.2526 644.293 29.3747 641.238 Q27.4968 638.182 27.4968 634.044 Q27.4968 628.474 31.4117 625.451 Q35.2948 622.427 42.4881 622.427 L64.0042 622.427 L64.0042 628.315 L42.679 628.315 Q37.5546 628.315 35.072 630.129 Q32.5894 631.944 32.5894 635.668 Q32.5894 640.219 35.6131 642.861 Q38.6368 645.503 43.8567 645.503 L64.0042 645.503 L64.0042 651.391 L42.679 651.391 Q37.5228 651.391 35.072 653.205 Q32.5894 655.019 32.5894 658.807 Q32.5894 663.295 35.6449 665.937 Q38.6686 668.578 43.8567 668.578 L64.0042 668.578 L64.0042 674.467 L28.3562 674.467 L28.3562 668.578 L33.8944 668.578 Q30.616 666.573 29.0564 663.772 Q27.4968 660.971 27.4968 657.12 Q27.4968 653.237 29.4702 650.532 Q31.4436 647.794 35.1993 646.489 Z" fill="#000000" fill-rule="nonzero" fill-opacity="1" /><path clip-path="url(#clip020)" d="M46.0847 594.545 Q46.0847 601.643 47.7079 604.38 Q49.3312 607.117 53.2461 607.117 Q56.3653 607.117 58.2114 605.08 Q60.0256 603.012 60.0256 599.479 Q60.0256 594.609 56.5881 591.681 Q53.1188 588.72 47.3897 588.72 L46.0847 588.72 L46.0847 594.545 M43.6657 582.864 L64.0042 582.864 L64.0042 588.72 L58.5933 588.72 Q61.8398 590.726 63.3994 593.718 Q64.9272 596.709 64.9272 601.038 Q64.9272 606.513 61.8716 609.759 Q58.7843 612.974 53.6281 612.974 Q47.6125 612.974 44.5569 608.963 Q41.5014 604.921 41.5014 596.932 L41.5014 588.72 L40.9285 588.72 Q36.8862 588.72 34.6901 591.394 Q32.4621 594.036 32.4621 598.842 Q32.4621 601.898 33.1941 604.794 Q33.9262 607.69 35.3903 610.364 L29.9795 610.364 Q28.7381 607.149 28.1334 604.126 Q27.4968 601.102 27.4968 598.237 Q27.4968 590.503 31.5072 586.683 Q35.5176 582.864 43.6657 582.864 Z" fill="#000000" fill-rule="nonzero" fill-opacity="1" /><path clip-path="url(#clip020)" d="M29.4065 548.075 L34.9447 548.075 Q33.6716 550.558 33.035 553.232 Q32.3984 555.905 32.3984 558.77 Q32.3984 563.13 33.7352 565.327 Q35.072 567.491 37.7456 567.491 Q39.7826 567.491 40.9603 565.931 Q42.1061 564.372 43.1565 559.661 L43.6021 557.656 Q44.9389 551.417 47.3897 548.808 Q49.8086 546.166 54.1691 546.166 Q59.1344 546.166 62.0308 550.112 Q64.9272 554.027 64.9272 560.902 Q64.9272 563.767 64.3543 566.886 Q63.8132 569.973 62.6992 573.411 L56.6518 573.411 Q58.3387 570.164 59.198 567.013 Q60.0256 563.862 60.0256 560.775 Q60.0256 556.637 58.6251 554.409 Q57.1929 552.181 54.6147 552.181 Q52.2276 552.181 50.9545 553.805 Q49.6813 555.396 48.5037 560.839 L48.0262 562.876 Q46.8804 568.318 44.5251 570.737 Q42.138 573.156 38.0002 573.156 Q32.9713 573.156 30.2341 569.592 Q27.4968 566.027 27.4968 559.47 Q27.4968 556.224 27.9743 553.359 Q28.4517 550.494 29.4065 548.075 Z" fill="#000000" fill-rule="nonzero" fill-opacity="1" /><path clip-path="url(#clip020)" d="M29.4065 514.114 L34.9447 514.114 Q33.6716 516.597 33.035 519.271 Q32.3984 521.944 32.3984 524.809 Q32.3984 529.169 33.7352 531.365 Q35.072 533.53 37.7456 533.53 Q39.7826 533.53 40.9603 531.97 Q42.1061 530.411 43.1565 525.7 L43.6021 523.695 Q44.9389 517.456 47.3897 514.846 Q49.8086 512.205 54.1691 512.205 Q59.1344 512.205 62.0308 516.151 Q64.9272 520.066 64.9272 526.941 Q64.9272 529.806 64.3543 532.925 Q63.8132 536.012 62.6992 539.45 L56.6518 539.45 Q58.3387 536.203 59.198 533.052 Q60.0256 529.901 60.0256 526.814 Q60.0256 522.676 58.6251 520.448 Q57.1929 518.22 54.6147 518.22 Q52.2276 518.22 50.9545 519.844 Q49.6813 521.435 48.5037 526.878 L48.0262 528.915 Q46.8804 534.357 44.5251 536.776 Q42.138 539.195 38.0002 539.195 Q32.9713 539.195 30.2341 535.63 Q27.4968 532.066 27.4968 525.509 Q27.4968 522.263 27.9743 519.398 Q28.4517 516.533 29.4065 514.114 Z" fill="#000000" fill-rule="nonzero" fill-opacity="1" /><path clip-path="url(#clip020)" d="M1028.24 9.54393 L1035.69 9.54393 L1035.69 72.576 L1028.24 72.576 L1028.24 9.54393 Z" fill="#000000" fill-rule="nonzero" fill-opacity="1" /><path clip-path="url(#clip020)" d="M1071.91 49.7694 Q1062.87 49.7694 1059.39 51.8354 Q1055.9 53.9013 1055.9 58.8839 Q1055.9 62.8538 1058.5 65.2034 Q1061.13 67.5124 1065.63 67.5124 Q1071.82 67.5124 1075.55 63.1374 Q1079.32 58.7219 1079.32 51.4303 L1079.32 49.7694 L1071.91 49.7694 M1086.77 46.6907 L1086.77 72.576 L1079.32 72.576 L1079.32 65.6895 Q1076.77 69.8214 1072.96 71.8063 Q1069.15 73.7508 1063.64 73.7508 Q1056.67 73.7508 1052.54 69.8619 Q1048.45 65.9325 1048.45 59.3701 Q1048.45 51.7138 1053.55 47.825 Q1058.7 43.9361 1068.87 43.9361 L1079.32 43.9361 L1079.32 43.2069 Q1079.32 38.0623 1075.92 35.2672 Q1072.55 32.4315 1066.44 32.4315 Q1062.55 32.4315 1058.86 33.3632 Q1055.18 34.295 1051.77 36.1584 L1051.77 29.2718 Q1055.86 27.692 1059.71 26.9223 Q1063.56 26.1121 1067.21 26.1121 Q1077.05 26.1121 1081.91 31.2163 Q1086.77 36.3204 1086.77 46.6907 Z" fill="#000000" fill-rule="nonzero" fill-opacity="1" /><path clip-path="url(#clip020)" d="M1137.45 35.9153 Q1140.24 30.8922 1144.13 28.5022 Q1148.02 26.1121 1153.29 26.1121 Q1160.38 26.1121 1164.23 31.0947 Q1168.07 36.0368 1168.07 45.1919 L1168.07 72.576 L1160.58 72.576 L1160.58 45.4349 Q1160.58 38.913 1158.27 35.7533 Q1155.96 32.5936 1151.22 32.5936 Q1145.43 32.5936 1142.07 36.4419 Q1138.7 40.2903 1138.7 46.9338 L1138.7 72.576 L1131.21 72.576 L1131.21 45.4349 Q1131.21 38.8725 1128.9 35.7533 Q1126.59 32.5936 1121.77 32.5936 Q1116.06 32.5936 1112.7 36.4824 Q1109.34 40.3308 1109.34 46.9338 L1109.34 72.576 L1101.84 72.576 L1101.84 27.2059 L1109.34 27.2059 L1109.34 34.2544 Q1111.89 30.082 1115.45 28.0971 Q1119.02 26.1121 1123.92 26.1121 Q1128.86 26.1121 1132.3 28.6237 Q1135.79 31.1352 1137.45 35.9153 Z" fill="#000000" fill-rule="nonzero" fill-opacity="1" /><path clip-path="url(#clip020)" d="M1215.51 49.9314 Q1215.51 41.7081 1212.11 37.0496 Q1208.74 32.3505 1202.83 32.3505 Q1196.92 32.3505 1193.51 37.0496 Q1190.15 41.7081 1190.15 49.9314 Q1190.15 58.1548 1193.51 62.8538 Q1196.92 67.5124 1202.83 67.5124 Q1208.74 67.5124 1212.11 62.8538 Q1215.51 58.1548 1215.51 49.9314 M1190.15 34.0924 Q1192.5 30.0415 1196.07 28.0971 Q1199.67 26.1121 1204.65 26.1121 Q1212.92 26.1121 1218.06 32.6746 Q1223.25 39.2371 1223.25 49.9314 Q1223.25 60.6258 1218.06 67.1883 Q1212.92 73.7508 1204.65 73.7508 Q1199.67 73.7508 1196.07 71.8063 Q1192.5 69.8214 1190.15 65.7705 L1190.15 72.576 L1182.66 72.576 L1182.66 9.54393 L1190.15 9.54393 L1190.15 34.0924 Z" fill="#000000" fill-rule="nonzero" fill-opacity="1" /><path clip-path="url(#clip020)" d="M1265.46 34.0924 L1265.46 9.54393 L1272.91 9.54393 L1272.91 72.576 L1265.46 72.576 L1265.46 65.7705 Q1263.11 69.8214 1259.5 71.8063 Q1255.94 73.7508 1250.91 73.7508 Q1242.69 73.7508 1237.51 67.1883 Q1232.36 60.6258 1232.36 49.9314 Q1232.36 39.2371 1237.51 32.6746 Q1242.69 26.1121 1250.91 26.1121 Q1255.94 26.1121 1259.5 28.0971 Q1263.11 30.0415 1265.46 34.0924 M1240.06 49.9314 Q1240.06 58.1548 1243.42 62.8538 Q1246.82 67.5124 1252.74 67.5124 Q1258.65 67.5124 1262.05 62.8538 Q1265.46 58.1548 1265.46 49.9314 Q1265.46 41.7081 1262.05 37.0496 Q1258.65 32.3505 1252.74 32.3505 Q1246.82 32.3505 1243.42 37.0496 Q1240.06 41.7081 1240.06 49.9314 Z" fill="#000000" fill-rule="nonzero" fill-opacity="1" /><path clip-path="url(#clip020)" d="M1308.88 49.7694 Q1299.85 49.7694 1296.37 51.8354 Q1292.88 53.9013 1292.88 58.8839 Q1292.88 62.8538 1295.47 65.2034 Q1298.11 67.5124 1302.6 67.5124 Q1308.8 67.5124 1312.53 63.1374 Q1316.3 58.7219 1316.3 51.4303 L1316.3 49.7694 L1308.88 49.7694 M1323.75 46.6907 L1323.75 72.576 L1316.3 72.576 L1316.3 65.6895 Q1313.74 69.8214 1309.94 71.8063 Q1306.13 73.7508 1300.62 73.7508 Q1293.65 73.7508 1289.52 69.8619 Q1285.43 65.9325 1285.43 59.3701 Q1285.43 51.7138 1290.53 47.825 Q1295.68 43.9361 1305.85 43.9361 L1316.3 43.9361 L1316.3 43.2069 Q1316.3 38.0623 1312.89 35.2672 Q1309.53 32.4315 1303.41 32.4315 Q1299.53 32.4315 1295.84 33.3632 Q1292.15 34.295 1288.75 36.1584 L1288.75 29.2718 Q1292.84 27.692 1296.69 26.9223 Q1300.54 26.1121 1304.18 26.1121 Q1314.03 26.1121 1318.89 31.2163 Q1323.75 36.3204 1323.75 46.6907 Z" fill="#000000" fill-rule="nonzero" fill-opacity="1" /><path clip-path="url(#clip020)" d="M1366.45 34.9026 L1418.38 34.9026 L1418.38 41.7081 L1366.45 41.7081 L1366.45 34.9026 M1366.45 51.4303 L1418.38 51.4303 L1418.38 58.3168 L1366.45 58.3168 L1366.45 51.4303 Z" fill="#000000" fill-rule="nonzero" fill-opacity="1" /><path clip-path="url(#clip020)" d="M1463.83 65.6895 L1477.2 65.6895 L1477.2 19.5497 L1462.66 22.4663 L1462.66 15.0127 L1477.12 12.096 L1485.3 12.096 L1485.3 65.6895 L1498.67 65.6895 L1498.67 72.576 L1463.83 72.576 L1463.83 65.6895 Z" fill="#000000" fill-rule="nonzero" fill-opacity="1" /><path clip-path="url(#clip022)" d="M195.935 175.6 L195.935 1423.18 L326.651 1423.18 L326.651 175.6 L195.935 175.6 L195.935 175.6  Z" fill="#4169e1" fill-rule="evenodd" fill-opacity="1"/>
<polyline clip-path="url(#clip022)" style="stroke:#000000; stroke-linecap:round; stroke-linejoin:round; stroke-width:3; stroke-opacity:1; fill:none" points="195.935,175.6 195.935,1423.18 326.651,1423.18 326.651,175.6 195.935,175.6 "/>
<path clip-path="url(#clip022)" d="M631.656 357.809 L631.656 1423.18 L762.373 1423.18 L762.373 357.809 L631.656 357.809 L631.656 357.809  Z" fill="#4169e1" fill-rule="evenodd" fill-opacity="1"/>
<polyline clip-path="url(#clip022)" style="stroke:#000000; stroke-linecap:round; stroke-linejoin:round; stroke-width:3; stroke-opacity:1; fill:none" points="631.656,357.809 631.656,1423.18 762.373,1423.18 762.373,357.809 631.656,357.809 "/>
<path clip-path="url(#clip022)" d="M1067.38 934.344 L1067.38 1423.18 L1198.09 1423.18 L1198.09 934.344 L1067.38 934.344 L1067.38 934.344  Z" fill="#4169e1" fill-rule="evenodd" fill-opacity="1"/>
<polyline clip-path="url(#clip022)" style="stroke:#000000; stroke-linecap:round; stroke-linejoin:round; stroke-width:3; stroke-opacity:1; fill:none" points="1067.38,934.344 1067.38,1423.18 1198.09,1423.18 1198.09,934.344 1067.38,934.344 "/>
<path clip-path="url(#clip022)" d="M1503.1 1423.05 L1503.1 1423.18 L1633.82 1423.18 L1633.82 1423.05 L1503.1 1423.05 L1503.1 1423.05  Z" fill="#4169e1" fill-rule="evenodd" fill-opacity="1"/>
<polyline clip-path="url(#clip022)" style="stroke:#000000; stroke-linecap:round; stroke-linejoin:round; stroke-width:3; stroke-opacity:1; fill:none" points="1503.1,1423.05 1503.1,1423.18 1633.82,1423.18 1633.82,1423.05 1503.1,1423.05 "/>
<path clip-path="url(#clip022)" d="M1938.82 1423.18 L1938.82 1423.18 L2069.54 1423.18 L2069.54 1423.18 L1938.82 1423.18 L1938.82 1423.18  Z" fill="#4169e1" fill-rule="evenodd" fill-opacity="1"/>
<polyline clip-path="url(#clip022)" style="stroke:#000000; stroke-linecap:round; stroke-linejoin:round; stroke-width:3; stroke-opacity:1; fill:none" points="1938.82,1423.18 1938.82,1423.18 2069.54,1423.18 2069.54,1423.18 1938.82,1423.18 "/>
<circle clip-path="url(#clip022)" style="fill:#4169e1; stroke:none; fill-opacity:0" cx="261.293" cy="175.6" r="2"/>
<circle clip-path="url(#clip022)" style="fill:#4169e1; stroke:none; fill-opacity:0" cx="697.015" cy="357.809" r="2"/>
<circle clip-path="url(#clip022)" style="fill:#4169e1; stroke:none; fill-opacity:0" cx="1132.74" cy="934.344" r="2"/>
<circle clip-path="url(#clip022)" style="fill:#4169e1; stroke:none; fill-opacity:0" cx="1568.46" cy="1423.05" r="2"/>
<circle clip-path="url(#clip022)" style="fill:#4169e1; stroke:none; fill-opacity:0" cx="2004.18" cy="1423.18" r="2"/>
<path clip-path="url(#clip022)" d="M326.651 175.6 L326.651 1423.18 L457.368 1423.18 L457.368 175.6 L326.651 175.6 L326.651 175.6  Z" fill="#ffa500" fill-rule="evenodd" fill-opacity="1"/>
<polyline clip-path="url(#clip022)" style="stroke:#000000; stroke-linecap:round; stroke-linejoin:round; stroke-width:3; stroke-opacity:1; fill:none" points="326.651,175.6 326.651,1423.18 457.368,1423.18 457.368,175.6 326.651,175.6 "/>
<path clip-path="url(#clip022)" d="M762.373 825.369 L762.373 1423.18 L893.089 1423.18 L893.089 825.369 L762.373 825.369 L762.373 825.369  Z" fill="#ffa500" fill-rule="evenodd" fill-opacity="1"/>
<polyline clip-path="url(#clip022)" style="stroke:#000000; stroke-linecap:round; stroke-linejoin:round; stroke-width:3; stroke-opacity:1; fill:none" points="762.373,825.369 762.373,1423.18 893.089,1423.18 893.089,825.369 762.373,825.369 "/>
<path clip-path="url(#clip022)" d="M1198.09 1042 L1198.09 1423.18 L1328.81 1423.18 L1328.81 1042 L1198.09 1042 L1198.09 1042  Z" fill="#ffa500" fill-rule="evenodd" fill-opacity="1"/>
<polyline clip-path="url(#clip022)" style="stroke:#000000; stroke-linecap:round; stroke-linejoin:round; stroke-width:3; stroke-opacity:1; fill:none" points="1198.09,1042 1198.09,1423.18 1328.81,1423.18 1328.81,1042 1198.09,1042 "/>
<path clip-path="url(#clip022)" d="M1633.82 1150.28 L1633.82 1423.18 L1764.53 1423.18 L1764.53 1150.28 L1633.82 1150.28 L1633.82 1150.28  Z" fill="#ffa500" fill-rule="evenodd" fill-opacity="1"/>
<polyline clip-path="url(#clip022)" style="stroke:#000000; stroke-linecap:round; stroke-linejoin:round; stroke-width:3; stroke-opacity:1; fill:none" points="1633.82,1150.28 1633.82,1423.18 1764.53,1423.18 1764.53,1150.28 1633.82,1150.28 "/>
<path clip-path="url(#clip022)" d="M2069.54 1215.34 L2069.54 1423.18 L2200.25 1423.18 L2200.25 1215.34 L2069.54 1215.34 L2069.54 1215.34  Z" fill="#ffa500" fill-rule="evenodd" fill-opacity="1"/>
<polyline clip-path="url(#clip022)" style="stroke:#000000; stroke-linecap:round; stroke-linejoin:round; stroke-width:3; stroke-opacity:1; fill:none" points="2069.54,1215.34 2069.54,1423.18 2200.25,1423.18 2200.25,1215.34 2069.54,1215.34 "/>
<circle clip-path="url(#clip022)" style="fill:#ffa500; stroke:none; fill-opacity:0" cx="392.01" cy="175.6" r="2"/>
<circle clip-path="url(#clip022)" style="fill:#ffa500; stroke:none; fill-opacity:0" cx="827.731" cy="825.369" r="2"/>
<circle clip-path="url(#clip022)" style="fill:#ffa500; stroke:none; fill-opacity:0" cx="1263.45" cy="1042" r="2"/>
<circle clip-path="url(#clip022)" style="fill:#ffa500; stroke:none; fill-opacity:0" cx="1699.17" cy="1150.28" r="2"/>
<circle clip-path="url(#clip022)" style="fill:#ffa500; stroke:none; fill-opacity:0" cx="2134.9" cy="1215.34" r="2"/>
<path clip-path="url(#clip022)" d="M457.368 191.228 L457.368 1423.18 L588.084 1423.18 L588.084 191.228 L457.368 191.228 L457.368 191.228  Z" fill="#90ee90" fill-rule="evenodd" fill-opacity="1"/>
<polyline clip-path="url(#clip022)" style="stroke:#000000; stroke-linecap:round; stroke-linejoin:round; stroke-width:3; stroke-opacity:1; fill:none" points="457.368,191.228 457.368,1423.18 588.084,1423.18 588.084,191.228 457.368,191.228 "/>
<path clip-path="url(#clip022)" d="M893.089 350.121 L893.089 1423.18 L1023.81 1423.18 L1023.81 350.121 L893.089 350.121 L893.089 350.121  Z" fill="#90ee90" fill-rule="evenodd" fill-opacity="1"/>
<polyline clip-path="url(#clip022)" style="stroke:#000000; stroke-linecap:round; stroke-linejoin:round; stroke-width:3; stroke-opacity:1; fill:none" points="893.089,350.121 893.089,1423.18 1023.81,1423.18 1023.81,350.121 893.089,350.121 "/>
<path clip-path="url(#clip022)" d="M1328.81 523.895 L1328.81 1423.18 L1459.53 1423.18 L1459.53 523.895 L1328.81 523.895 L1328.81 523.895  Z" fill="#90ee90" fill-rule="evenodd" fill-opacity="1"/>
<polyline clip-path="url(#clip022)" style="stroke:#000000; stroke-linecap:round; stroke-linejoin:round; stroke-width:3; stroke-opacity:1; fill:none" points="1328.81,523.895 1328.81,1423.18 1459.53,1423.18 1459.53,523.895 1328.81,523.895 "/>
<path clip-path="url(#clip022)" d="M1764.53 622.651 L1764.53 1423.18 L1895.25 1423.18 L1895.25 622.651 L1764.53 622.651 L1764.53 622.651  Z" fill="#90ee90" fill-rule="evenodd" fill-opacity="1"/>
<polyline clip-path="url(#clip022)" style="stroke:#000000; stroke-linecap:round; stroke-linejoin:round; stroke-width:3; stroke-opacity:1; fill:none" points="1764.53,622.651 1764.53,1423.18 1895.25,1423.18 1895.25,622.651 1764.53,622.651 "/>
<path clip-path="url(#clip022)" d="M2200.25 693.232 L2200.25 1423.18 L2330.97 1423.18 L2330.97 693.232 L2200.25 693.232 L2200.25 693.232  Z" fill="#90ee90" fill-rule="evenodd" fill-opacity="1"/>
<polyline clip-path="url(#clip022)" style="stroke:#000000; stroke-linecap:round; stroke-linejoin:round; stroke-width:3; stroke-opacity:1; fill:none" points="2200.25,693.232 2200.25,1423.18 2330.97,1423.18 2330.97,693.232 2200.25,693.232 "/>
<circle clip-path="url(#clip022)" style="fill:#90ee90; stroke:none; fill-opacity:0" cx="522.726" cy="191.228" r="2"/>
<circle clip-path="url(#clip022)" style="fill:#90ee90; stroke:none; fill-opacity:0" cx="958.447" cy="350.121" r="2"/>
<circle clip-path="url(#clip022)" style="fill:#90ee90; stroke:none; fill-opacity:0" cx="1394.17" cy="523.895" r="2"/>
<circle clip-path="url(#clip022)" style="fill:#90ee90; stroke:none; fill-opacity:0" cx="1829.89" cy="622.651" r="2"/>
<circle clip-path="url(#clip022)" style="fill:#90ee90; stroke:none; fill-opacity:0" cx="2265.61" cy="693.232" r="2"/>
<path clip-path="url(#clip020)" d="M1930.45 374.156 L2280.14 374.156 L2280.14 166.796 L1930.45 166.796  Z" fill="#ffffff" fill-rule="evenodd" fill-opacity="1"/>
<polyline clip-path="url(#clip020)" style="stroke:#000000; stroke-linecap:round; stroke-linejoin:round; stroke-width:4; stroke-opacity:1; fill:none" points="1930.45,374.156 2280.14,374.156 2280.14,166.796 1930.45,166.796 1930.45,374.156 "/>
<path clip-path="url(#clip020)" d="M1954.65 239.372 L2099.89 239.372 L2099.89 197.9 L1954.65 197.9 L1954.65 239.372  Z" fill="#4169e1" fill-rule="evenodd" fill-opacity="1"/>
<polyline clip-path="url(#clip020)" style="stroke:#000000; stroke-linecap:round; stroke-linejoin:round; stroke-width:3; stroke-opacity:1; fill:none" points="1954.65,239.372 2099.89,239.372 2099.89,197.9 1954.65,197.9 1954.65,239.372 "/>
<path clip-path="url(#clip020)" d="M2124.1 201.356 L2131.07 201.356 L2139.89 224.874 L2148.75 201.356 L2155.72 201.356 L2155.72 235.916 L2151.16 235.916 L2151.16 205.569 L2142.25 229.272 L2137.55 229.272 L2128.64 205.569 L2128.64 235.916 L2124.1 235.916 L2124.1 201.356 Z" fill="#000000" fill-rule="nonzero" fill-opacity="1" /><path clip-path="url(#clip020)" d="M2174.86 212.976 Q2171.44 212.976 2169.45 215.661 Q2167.46 218.323 2167.46 222.976 Q2167.46 227.629 2169.42 230.314 Q2171.42 232.976 2174.86 232.976 Q2178.27 232.976 2180.26 230.291 Q2182.25 227.606 2182.25 222.976 Q2182.25 218.37 2180.26 215.684 Q2178.27 212.976 2174.86 212.976 M2174.86 209.365 Q2180.42 209.365 2183.59 212.976 Q2186.76 216.587 2186.76 222.976 Q2186.76 229.342 2183.59 232.976 Q2180.42 236.587 2174.86 236.587 Q2169.29 236.587 2166.11 232.976 Q2162.97 229.342 2162.97 222.976 Q2162.97 216.587 2166.11 212.976 Q2169.29 209.365 2174.86 209.365 Z" fill="#000000" fill-rule="nonzero" fill-opacity="1" /><path clip-path="url(#clip020)" d="M2215.37 220.268 L2215.37 235.916 L2211.11 235.916 L2211.11 220.407 Q2211.11 216.726 2209.68 214.897 Q2208.24 213.069 2205.37 213.069 Q2201.92 213.069 2199.93 215.268 Q2197.94 217.467 2197.94 221.263 L2197.94 235.916 L2193.66 235.916 L2193.66 209.99 L2197.94 209.99 L2197.94 214.018 Q2199.47 211.68 2201.53 210.522 Q2203.61 209.365 2206.32 209.365 Q2210.79 209.365 2213.08 212.143 Q2215.37 214.897 2215.37 220.268 Z" fill="#000000" fill-rule="nonzero" fill-opacity="1" /><path clip-path="url(#clip020)" d="M2233.92 212.976 Q2230.49 212.976 2228.5 215.661 Q2226.51 218.323 2226.51 222.976 Q2226.51 227.629 2228.48 230.314 Q2230.47 232.976 2233.92 232.976 Q2237.32 232.976 2239.31 230.291 Q2241.3 227.606 2241.3 222.976 Q2241.3 218.37 2239.31 215.684 Q2237.32 212.976 2233.92 212.976 M2233.92 209.365 Q2239.47 209.365 2242.64 212.976 Q2245.81 216.587 2245.81 222.976 Q2245.81 229.342 2242.64 232.976 Q2239.47 236.587 2233.92 236.587 Q2228.34 236.587 2225.17 232.976 Q2222.02 229.342 2222.02 222.976 Q2222.02 216.587 2225.17 212.976 Q2228.34 209.365 2233.92 209.365 Z" fill="#000000" fill-rule="nonzero" fill-opacity="1" /><path clip-path="url(#clip020)" d="M1954.65 291.212 L2099.89 291.212 L2099.89 249.74 L1954.65 249.74 L1954.65 291.212  Z" fill="#ffa500" fill-rule="evenodd" fill-opacity="1"/>
<polyline clip-path="url(#clip020)" style="stroke:#000000; stroke-linecap:round; stroke-linejoin:round; stroke-width:3; stroke-opacity:1; fill:none" points="1954.65,291.212 2099.89,291.212 2099.89,249.74 1954.65,249.74 1954.65,291.212 "/>
<path clip-path="url(#clip020)" d="M2146.35 254.33 L2146.35 258.89 Q2143.68 257.617 2141.32 256.992 Q2138.96 256.367 2136.76 256.367 Q2132.94 256.367 2130.86 257.848 Q2128.8 259.33 2128.8 262.061 Q2128.8 264.353 2130.17 265.534 Q2131.55 266.691 2135.4 267.409 L2138.22 267.987 Q2143.45 268.983 2145.93 271.506 Q2148.43 274.006 2148.43 278.219 Q2148.43 283.242 2145.05 285.834 Q2141.69 288.427 2135.19 288.427 Q2132.74 288.427 2129.96 287.871 Q2127.2 287.316 2124.24 286.228 L2124.24 281.413 Q2127.09 283.01 2129.82 283.821 Q2132.55 284.631 2135.19 284.631 Q2139.19 284.631 2141.37 283.057 Q2143.55 281.483 2143.55 278.566 Q2143.55 276.02 2141.97 274.584 Q2140.42 273.149 2136.86 272.432 L2134.01 271.876 Q2128.78 270.835 2126.44 268.612 Q2124.1 266.39 2124.1 262.432 Q2124.1 257.848 2127.32 255.21 Q2130.56 252.571 2136.23 252.571 Q2138.66 252.571 2141.18 253.011 Q2143.71 253.45 2146.35 254.33 Z" fill="#000000" fill-rule="nonzero" fill-opacity="1" /><path clip-path="url(#clip020)" d="M2160.4 257.038 L2160.4 283.913 L2166.05 283.913 Q2173.2 283.913 2176.51 280.672 Q2179.84 277.432 2179.84 270.441 Q2179.84 263.497 2176.51 260.279 Q2173.2 257.038 2166.05 257.038 L2160.4 257.038 M2155.72 253.196 L2165.33 253.196 Q2175.37 253.196 2180.07 257.386 Q2184.77 261.552 2184.77 270.441 Q2184.77 279.376 2180.05 283.566 Q2175.33 287.756 2165.33 287.756 L2155.72 287.756 L2155.72 253.196 Z" fill="#000000" fill-rule="nonzero" fill-opacity="1" /><path clip-path="url(#clip020)" d="M2206.25 256.367 Q2201.16 256.367 2198.15 260.163 Q2195.17 263.96 2195.17 270.51 Q2195.17 277.038 2198.15 280.834 Q2201.16 284.631 2206.25 284.631 Q2211.35 284.631 2214.31 280.834 Q2217.29 277.038 2217.29 270.51 Q2217.29 263.96 2214.31 260.163 Q2211.35 256.367 2206.25 256.367 M2206.25 252.571 Q2213.52 252.571 2217.87 257.455 Q2222.23 262.316 2222.23 270.51 Q2222.23 278.682 2217.87 283.566 Q2213.52 288.427 2206.25 288.427 Q2198.96 288.427 2194.59 283.566 Q2190.23 278.705 2190.23 270.51 Q2190.23 262.316 2194.59 257.455 Q2198.96 252.571 2206.25 252.571 Z" fill="#000000" fill-rule="nonzero" fill-opacity="1" /><path clip-path="url(#clip020)" d="M2229.54 253.196 L2234.22 253.196 L2234.22 283.821 L2251.04 283.821 L2251.04 287.756 L2229.54 287.756 L2229.54 253.196 Z" fill="#000000" fill-rule="nonzero" fill-opacity="1" /><path clip-path="url(#clip020)" d="M1954.65 343.052 L2099.89 343.052 L2099.89 301.58 L1954.65 301.58 L1954.65 343.052  Z" fill="#90ee90" fill-rule="evenodd" fill-opacity="1"/>
<polyline clip-path="url(#clip020)" style="stroke:#000000; stroke-linecap:round; stroke-linejoin:round; stroke-width:3; stroke-opacity:1; fill:none" points="1954.65,343.052 2099.89,343.052 2099.89,301.58 1954.65,301.58 1954.65,343.052 "/>
<path clip-path="url(#clip020)" d="M2128.78 308.878 L2128.78 335.753 L2134.42 335.753 Q2141.58 335.753 2144.89 332.512 Q2148.22 329.272 2148.22 322.281 Q2148.22 315.337 2144.89 312.119 Q2141.58 308.878 2134.42 308.878 L2128.78 308.878 M2124.1 305.036 L2133.71 305.036 Q2143.75 305.036 2148.45 309.226 Q2153.15 313.392 2153.15 322.281 Q2153.15 331.216 2148.43 335.406 Q2143.71 339.596 2133.71 339.596 L2124.1 339.596 L2124.1 305.036 Z" fill="#000000" fill-rule="nonzero" fill-opacity="1" /><path clip-path="url(#clip020)" d="M2165.28 308.878 L2165.28 335.753 L2170.93 335.753 Q2178.08 335.753 2181.39 332.512 Q2184.73 329.272 2184.73 322.281 Q2184.73 315.337 2181.39 312.119 Q2178.08 308.878 2170.93 308.878 L2165.28 308.878 M2160.61 305.036 L2170.21 305.036 Q2180.26 305.036 2184.96 309.226 Q2189.66 313.392 2189.66 322.281 Q2189.66 331.216 2184.93 335.406 Q2180.21 339.596 2170.21 339.596 L2160.61 339.596 L2160.61 305.036 Z" fill="#000000" fill-rule="nonzero" fill-opacity="1" /><path clip-path="url(#clip020)" d="M2211.14 308.207 Q2206.04 308.207 2203.04 312.003 Q2200.05 315.8 2200.05 322.35 Q2200.05 328.878 2203.04 332.674 Q2206.04 336.471 2211.14 336.471 Q2216.23 336.471 2219.19 332.674 Q2222.18 328.878 2222.18 322.35 Q2222.18 315.8 2219.19 312.003 Q2216.23 308.207 2211.14 308.207 M2211.14 304.411 Q2218.41 304.411 2222.76 309.295 Q2227.11 314.156 2227.11 322.35 Q2227.11 330.522 2222.76 335.406 Q2218.41 340.267 2211.14 340.267 Q2203.85 340.267 2199.47 335.406 Q2195.12 330.545 2195.12 322.35 Q2195.12 314.156 2199.47 309.295 Q2203.85 304.411 2211.14 304.411 Z" fill="#000000" fill-rule="nonzero" fill-opacity="1" /><path clip-path="url(#clip020)" d="M2234.42 305.036 L2239.1 305.036 L2239.1 335.661 L2255.93 335.661 L2255.93 339.596 L2234.42 339.596 L2234.42 305.036 Z" fill="#000000" fill-rule="nonzero" fill-opacity="1" /></svg>
