<?xml version="1.0" encoding="utf-8"?>
<svg xmlns="http://www.w3.org/2000/svg" xmlns:xlink="http://www.w3.org/1999/xlink" width="600" height="400" viewBox="0 0 2400 1600">
<defs>
  <clipPath id="clip210">
    <rect x="0" y="0" width="2400" height="1600"/>
  </clipPath>
</defs>
<path clip-path="url(#clip210)" d="M0 1600 L2400 1600 L2400 0 L0 0  Z" fill="#ffffff" fill-rule="evenodd" fill-opacity="1"/>
<defs>
  <clipPath id="clip211">
    <rect x="480" y="0" width="1681" height="1600"/>
  </clipPath>
</defs>
<path clip-path="url(#clip210)" d="M249.542 1423.18 L2352.76 1423.18 L2352.76 123.472 L249.542 123.472  Z" fill="#ffffff" fill-rule="evenodd" fill-opacity="1"/>
<defs>
  <clipPath id="clip212">
    <rect x="249" y="123" width="2104" height="1301"/>
  </clipPath>
</defs>
<polyline clip-path="url(#clip210)" style="stroke:#000000; stroke-linecap:round; stroke-linejoin:round; stroke-width:4; stroke-opacity:1; fill:none" points="249.542,1423.18 2352.76,1423.18 "/>
<polyline clip-path="url(#clip210)" style="stroke:#000000; stroke-linecap:round; stroke-linejoin:round; stroke-width:4; stroke-opacity:1; fill:none" points="309.067,1423.18 309.067,1404.28 "/>
<polyline clip-path="url(#clip210)" style="stroke:#000000; stroke-linecap:round; stroke-linejoin:round; stroke-width:4; stroke-opacity:1; fill:none" points="970.455,1423.18 970.455,1404.28 "/>
<polyline clip-path="url(#clip210)" style="stroke:#000000; stroke-linecap:round; stroke-linejoin:round; stroke-width:4; stroke-opacity:1; fill:none" points="1631.84,1423.18 1631.84,1404.28 "/>
<polyline clip-path="url(#clip210)" style="stroke:#000000; stroke-linecap:round; stroke-linejoin:round; stroke-width:4; stroke-opacity:1; fill:none" points="2293.23,1423.18 2293.23,1404.28 "/>
<path clip-path="url(#clip210)" d="M271.37 1454.1 Q267.759 1454.1 265.931 1457.66 Q264.125 1461.2 264.125 1468.33 Q264.125 1475.44 265.931 1479.01 Q267.759 1482.55 271.37 1482.55 Q275.005 1482.55 276.81 1479.01 Q278.639 1475.44 278.639 1468.33 Q278.639 1461.2 276.81 1457.66 Q275.005 1454.1 271.37 1454.1 M271.37 1450.39 Q277.181 1450.39 280.236 1455 Q283.315 1459.58 283.315 1468.33 Q283.315 1477.06 280.236 1481.67 Q277.181 1486.25 271.37 1486.25 Q265.56 1486.25 262.482 1481.67 Q259.426 1477.06 259.426 1468.33 Q259.426 1459.58 262.482 1455 Q265.56 1450.39 271.37 1450.39 Z" fill="#000000" fill-rule="nonzero" fill-opacity="1" /><path clip-path="url(#clip210)" d="M291.532 1479.7 L296.417 1479.7 L296.417 1485.58 L291.532 1485.58 L291.532 1479.7 Z" fill="#000000" fill-rule="nonzero" fill-opacity="1" /><path clip-path="url(#clip210)" d="M316.602 1454.1 Q312.991 1454.1 311.162 1457.66 Q309.356 1461.2 309.356 1468.33 Q309.356 1475.44 311.162 1479.01 Q312.991 1482.55 316.602 1482.55 Q320.236 1482.55 322.041 1479.01 Q323.87 1475.44 323.87 1468.33 Q323.87 1461.2 322.041 1457.66 Q320.236 1454.1 316.602 1454.1 M316.602 1450.39 Q322.412 1450.39 325.467 1455 Q328.546 1459.58 328.546 1468.33 Q328.546 1477.06 325.467 1481.67 Q322.412 1486.25 316.602 1486.25 Q310.791 1486.25 307.713 1481.67 Q304.657 1477.06 304.657 1468.33 Q304.657 1459.58 307.713 1455 Q310.791 1450.39 316.602 1450.39 Z" fill="#000000" fill-rule="nonzero" fill-opacity="1" /><path clip-path="url(#clip210)" d="M346.764 1454.1 Q343.152 1454.1 341.324 1457.66 Q339.518 1461.2 339.518 1468.33 Q339.518 1475.44 341.324 1479.01 Q343.152 1482.55 346.764 1482.55 Q350.398 1482.55 352.203 1479.01 Q354.032 1475.44 354.032 1468.33 Q354.032 1461.2 352.203 1457.66 Q350.398 1454.1 346.764 1454.1 M346.764 1450.39 Q352.574 1450.39 355.629 1455 Q358.708 1459.58 358.708 1468.33 Q358.708 1477.06 355.629 1481.67 Q352.574 1486.25 346.764 1486.25 Q340.953 1486.25 337.875 1481.67 Q334.819 1477.06 334.819 1468.33 Q334.819 1459.58 337.875 1455 Q340.953 1450.39 346.764 1450.39 Z" fill="#000000" fill-rule="nonzero" fill-opacity="1" /><path clip-path="url(#clip210)" d="M933.372 1454.1 Q929.761 1454.1 927.932 1457.66 Q926.126 1461.2 926.126 1468.33 Q926.126 1475.44 927.932 1479.01 Q929.761 1482.55 933.372 1482.55 Q937.006 1482.55 938.812 1479.01 Q940.64 1475.44 940.64 1468.33 Q940.64 1461.2 938.812 1457.66 Q937.006 1454.1 933.372 1454.1 M933.372 1450.39 Q939.182 1450.39 942.238 1455 Q945.316 1459.58 945.316 1468.33 Q945.316 1477.06 942.238 1481.67 Q939.182 1486.25 933.372 1486.25 Q927.562 1486.25 924.483 1481.67 Q921.427 1477.06 921.427 1468.33 Q921.427 1459.58 924.483 1455 Q927.562 1450.39 933.372 1450.39 Z" fill="#000000" fill-rule="nonzero" fill-opacity="1" /><path clip-path="url(#clip210)" d="M953.534 1479.7 L958.418 1479.7 L958.418 1485.58 L953.534 1485.58 L953.534 1479.7 Z" fill="#000000" fill-rule="nonzero" fill-opacity="1" /><path clip-path="url(#clip210)" d="M978.603 1454.1 Q974.992 1454.1 973.163 1457.66 Q971.358 1461.2 971.358 1468.33 Q971.358 1475.44 973.163 1479.01 Q974.992 1482.55 978.603 1482.55 Q982.237 1482.55 984.043 1479.01 Q985.872 1475.44 985.872 1468.33 Q985.872 1461.2 984.043 1457.66 Q982.237 1454.1 978.603 1454.1 M978.603 1450.39 Q984.413 1450.39 987.469 1455 Q990.547 1459.58 990.547 1468.33 Q990.547 1477.06 987.469 1481.67 Q984.413 1486.25 978.603 1486.25 Q972.793 1486.25 969.714 1481.67 Q966.659 1477.06 966.659 1468.33 Q966.659 1459.58 969.714 1455 Q972.793 1450.39 978.603 1450.39 Z" fill="#000000" fill-rule="nonzero" fill-opacity="1" /><path clip-path="url(#clip210)" d="M999.575 1481.64 L1007.21 1481.64 L1007.21 1455.28 L998.904 1456.95 L998.904 1452.69 L1007.17 1451.02 L1011.84 1451.02 L1011.84 1481.64 L1019.48 1481.64 L1019.48 1485.58 L999.575 1485.58 L999.575 1481.64 Z" fill="#000000" fill-rule="nonzero" fill-opacity="1" /><path clip-path="url(#clip210)" d="M1594.95 1454.1 Q1591.33 1454.1 1589.51 1457.66 Q1587.7 1461.2 1587.7 1468.33 Q1587.7 1475.44 1589.51 1479.01 Q1591.33 1482.55 1594.95 1482.55 Q1598.58 1482.55 1600.38 1479.01 Q1602.21 1475.44 1602.21 1468.33 Q1602.21 1461.2 1600.38 1457.66 Q1598.58 1454.1 1594.95 1454.1 M1594.95 1450.39 Q1600.76 1450.39 1603.81 1455 Q1606.89 1459.58 1606.89 1468.33 Q1606.89 1477.06 1603.81 1481.67 Q1600.76 1486.25 1594.95 1486.25 Q1589.13 1486.25 1586.06 1481.67 Q1583 1477.06 1583 1468.33 Q1583 1459.58 1586.06 1455 Q1589.13 1450.39 1594.95 1450.39 Z" fill="#000000" fill-rule="nonzero" fill-opacity="1" /><path clip-path="url(#clip210)" d="M1615.11 1479.7 L1619.99 1479.7 L1619.99 1485.58 L1615.11 1485.58 L1615.11 1479.7 Z" fill="#000000" fill-rule="nonzero" fill-opacity="1" /><path clip-path="url(#clip210)" d="M1640.18 1454.1 Q1636.57 1454.1 1634.74 1457.66 Q1632.93 1461.2 1632.93 1468.33 Q1632.93 1475.44 1634.74 1479.01 Q1636.57 1482.55 1640.18 1482.55 Q1643.81 1482.55 1645.62 1479.01 Q1647.44 1475.44 1647.44 1468.33 Q1647.44 1461.2 1645.62 1457.66 Q1643.81 1454.1 1640.18 1454.1 M1640.18 1450.39 Q1645.99 1450.39 1649.04 1455 Q1652.12 1459.58 1652.12 1468.33 Q1652.12 1477.06 1649.04 1481.67 Q1645.99 1486.25 1640.18 1486.25 Q1634.37 1486.25 1631.29 1481.67 Q1628.23 1477.06 1628.23 1468.33 Q1628.23 1459.58 1631.29 1455 Q1634.37 1450.39 1640.18 1450.39 Z" fill="#000000" fill-rule="nonzero" fill-opacity="1" /><path clip-path="url(#clip210)" d="M1664.37 1481.64 L1680.69 1481.64 L1680.69 1485.58 L1658.74 1485.58 L1658.74 1481.64 Q1661.4 1478.89 1665.99 1474.26 Q1670.59 1469.61 1671.77 1468.27 Q1674.02 1465.74 1674.9 1464.01 Q1675.8 1462.25 1675.8 1460.56 Q1675.8 1457.8 1673.86 1456.07 Q1671.94 1454.33 1668.83 1454.33 Q1666.63 1454.33 1664.18 1455.09 Q1661.75 1455.86 1658.97 1457.41 L1658.97 1452.69 Q1661.8 1451.55 1664.25 1450.97 Q1666.7 1450.39 1668.74 1450.39 Q1674.11 1450.39 1677.31 1453.08 Q1680.5 1455.77 1680.5 1460.26 Q1680.5 1462.39 1679.69 1464.31 Q1678.9 1466.2 1676.8 1468.8 Q1676.22 1469.47 1673.12 1472.69 Q1670.01 1475.88 1664.37 1481.64 Z" fill="#000000" fill-rule="nonzero" fill-opacity="1" /><path clip-path="url(#clip210)" d="M2255.86 1454.1 Q2252.25 1454.1 2250.42 1457.66 Q2248.61 1461.2 2248.61 1468.33 Q2248.61 1475.44 2250.42 1479.01 Q2252.25 1482.55 2255.86 1482.55 Q2259.49 1482.55 2261.3 1479.01 Q2263.13 1475.44 2263.13 1468.33 Q2263.13 1461.2 2261.3 1457.66 Q2259.49 1454.1 2255.86 1454.1 M2255.86 1450.39 Q2261.67 1450.39 2264.72 1455 Q2267.8 1459.58 2267.8 1468.33 Q2267.8 1477.06 2264.72 1481.67 Q2261.67 1486.25 2255.86 1486.25 Q2250.05 1486.25 2246.97 1481.67 Q2243.91 1477.06 2243.91 1468.33 Q2243.91 1459.58 2246.97 1455 Q2250.05 1450.39 2255.86 1450.39 Z" fill="#000000" fill-rule="nonzero" fill-opacity="1" /><path clip-path="url(#clip210)" d="M2276.02 1479.7 L2280.9 1479.7 L2280.9 1485.58 L2276.02 1485.58 L2276.02 1479.7 Z" fill="#000000" fill-rule="nonzero" fill-opacity="1" /><path clip-path="url(#clip210)" d="M2301.09 1454.1 Q2297.48 1454.1 2295.65 1457.66 Q2293.84 1461.2 2293.84 1468.33 Q2293.84 1475.44 2295.65 1479.01 Q2297.48 1482.55 2301.09 1482.55 Q2304.72 1482.55 2306.53 1479.01 Q2308.36 1475.44 2308.36 1468.33 Q2308.36 1461.2 2306.53 1457.66 Q2304.72 1454.1 2301.09 1454.1 M2301.09 1450.39 Q2306.9 1450.39 2309.96 1455 Q2313.03 1459.58 2313.03 1468.33 Q2313.03 1477.06 2309.96 1481.67 Q2306.9 1486.25 2301.09 1486.25 Q2295.28 1486.25 2292.2 1481.67 Q2289.15 1477.06 2289.15 1468.33 Q2289.15 1459.58 2292.2 1455 Q2295.28 1450.39 2301.09 1450.39 Z" fill="#000000" fill-rule="nonzero" fill-opacity="1" /><path clip-path="url(#clip210)" d="M2335.42 1466.95 Q2338.77 1467.66 2340.65 1469.93 Q2342.55 1472.2 2342.55 1475.53 Q2342.55 1480.65 2339.03 1483.45 Q2335.51 1486.25 2329.03 1486.25 Q2326.85 1486.25 2324.54 1485.81 Q2322.25 1485.39 2319.79 1484.54 L2319.79 1480.02 Q2321.74 1481.16 2324.05 1481.74 Q2326.37 1482.32 2328.89 1482.32 Q2333.29 1482.32 2335.58 1480.58 Q2337.9 1478.84 2337.9 1475.53 Q2337.9 1472.48 2335.74 1470.77 Q2333.61 1469.03 2329.79 1469.03 L2325.77 1469.03 L2325.77 1465.19 L2329.98 1465.19 Q2333.43 1465.19 2335.26 1463.82 Q2337.08 1462.43 2337.08 1459.84 Q2337.08 1457.18 2335.19 1455.77 Q2333.31 1454.33 2329.79 1454.33 Q2327.87 1454.33 2325.67 1454.75 Q2323.47 1455.16 2320.84 1456.04 L2320.84 1451.88 Q2323.5 1451.14 2325.81 1450.77 Q2328.15 1450.39 2330.21 1450.39 Q2335.53 1450.39 2338.64 1452.83 Q2341.74 1455.23 2341.74 1459.35 Q2341.74 1462.22 2340.09 1464.21 Q2338.45 1466.18 2335.42 1466.95 Z" fill="#000000" fill-rule="nonzero" fill-opacity="1" /><path clip-path="url(#clip210)" d="M926.193 1525.81 L926.193 1543.66 L934.277 1543.66 Q938.765 1543.66 941.216 1541.34 Q943.667 1539.02 943.667 1534.72 Q943.667 1530.45 941.216 1528.13 Q938.765 1525.81 934.277 1525.81 L926.193 1525.81 M919.764 1520.52 L934.277 1520.52 Q942.266 1520.52 946.34 1524.15 Q950.446 1527.75 950.446 1534.72 Q950.446 1541.75 946.34 1545.35 Q942.266 1548.95 934.277 1548.95 L926.193 1548.95 L926.193 1568.04 L919.764 1568.04 L919.764 1520.52 Z" fill="#000000" fill-rule="nonzero" fill-opacity="1" /><path clip-path="url(#clip210)" d="M958.817 1518.52 L964.674 1518.52 L964.674 1568.04 L958.817 1568.04 L958.817 1518.52 Z" fill="#000000" fill-rule="nonzero" fill-opacity="1" /><path clip-path="url(#clip210)" d="M993.128 1550.12 Q986.031 1550.12 983.293 1551.75 Q980.556 1553.37 980.556 1557.29 Q980.556 1560.4 982.593 1562.25 Q984.662 1564.07 988.195 1564.07 Q993.065 1564.07 995.993 1560.63 Q998.953 1557.16 998.953 1551.43 L998.953 1550.12 L993.128 1550.12 M1004.81 1547.71 L1004.81 1568.04 L998.953 1568.04 L998.953 1562.63 Q996.948 1565.88 993.956 1567.44 Q990.964 1568.97 986.635 1568.97 Q981.161 1568.97 977.914 1565.91 Q974.7 1562.82 974.7 1557.67 Q974.7 1551.65 978.71 1548.6 Q982.752 1545.54 990.741 1545.54 L998.953 1545.54 L998.953 1544.97 Q998.953 1540.93 996.279 1538.73 Q993.638 1536.5 988.831 1536.5 Q985.776 1536.5 982.88 1537.23 Q979.983 1537.97 977.31 1539.43 L977.31 1534.02 Q980.524 1532.78 983.548 1532.17 Q986.572 1531.54 989.436 1531.54 Q997.171 1531.54 1000.99 1535.55 Q1004.81 1539.56 1004.81 1547.71 Z" fill="#000000" fill-rule="nonzero" fill-opacity="1" /><path clip-path="url(#clip210)" d="M1039.6 1533.45 L1039.6 1538.98 Q1037.12 1537.71 1034.44 1537.07 Q1031.77 1536.44 1028.9 1536.44 Q1024.54 1536.44 1022.35 1537.77 Q1020.18 1539.11 1020.18 1541.79 Q1020.18 1543.82 1021.74 1545 Q1023.3 1546.15 1028.01 1547.2 L1030.02 1547.64 Q1036.26 1548.98 1038.87 1551.43 Q1041.51 1553.85 1041.51 1558.21 Q1041.51 1563.17 1037.56 1566.07 Q1033.65 1568.97 1026.77 1568.97 Q1023.91 1568.97 1020.79 1568.39 Q1017.7 1567.85 1014.26 1566.74 L1014.26 1560.69 Q1017.51 1562.38 1020.66 1563.24 Q1023.81 1564.07 1026.9 1564.07 Q1031.04 1564.07 1033.26 1562.66 Q1035.49 1561.23 1035.49 1558.65 Q1035.49 1556.27 1033.87 1554.99 Q1032.28 1553.72 1026.83 1552.54 L1024.8 1552.07 Q1019.36 1550.92 1016.94 1548.56 Q1014.52 1546.18 1014.52 1542.04 Q1014.52 1537.01 1018.08 1534.27 Q1021.65 1531.54 1028.2 1531.54 Q1031.45 1531.54 1034.31 1532.01 Q1037.18 1532.49 1039.6 1533.45 Z" fill="#000000" fill-rule="nonzero" fill-opacity="1" /><path clip-path="url(#clip210)" d="M1078.59 1539.24 Q1080.78 1535.29 1083.84 1533.41 Q1086.9 1531.54 1091.03 1531.54 Q1096.6 1531.54 1099.63 1535.45 Q1102.65 1539.33 1102.65 1546.53 L1102.65 1568.04 L1096.76 1568.04 L1096.76 1546.72 Q1096.76 1541.59 1094.95 1539.11 Q1093.13 1536.63 1089.41 1536.63 Q1084.86 1536.63 1082.22 1539.65 Q1079.57 1542.68 1079.57 1547.9 L1079.57 1568.04 L1073.69 1568.04 L1073.69 1546.72 Q1073.69 1541.56 1071.87 1539.11 Q1070.06 1536.63 1066.27 1536.63 Q1061.78 1536.63 1059.14 1539.68 Q1056.5 1542.71 1056.5 1547.9 L1056.5 1568.04 L1050.61 1568.04 L1050.61 1532.4 L1056.5 1532.4 L1056.5 1537.93 Q1058.5 1534.66 1061.31 1533.1 Q1064.11 1531.54 1067.96 1531.54 Q1071.84 1531.54 1074.55 1533.51 Q1077.28 1535.48 1078.59 1539.24 Z" fill="#000000" fill-rule="nonzero" fill-opacity="1" /><path clip-path="url(#clip210)" d="M1114.33 1532.4 L1120.19 1532.4 L1120.19 1568.04 L1114.33 1568.04 L1114.33 1532.4 M1114.33 1518.52 L1120.19 1518.52 L1120.19 1525.93 L1114.33 1525.93 L1114.33 1518.52 Z" fill="#000000" fill-rule="nonzero" fill-opacity="1" /><path clip-path="url(#clip210)" d="M1155.9 1537.81 L1155.9 1518.52 L1161.76 1518.52 L1161.76 1568.04 L1155.9 1568.04 L1155.9 1562.7 Q1154.05 1565.88 1151.22 1567.44 Q1148.42 1568.97 1144.47 1568.97 Q1138.01 1568.97 1133.94 1563.81 Q1129.9 1558.65 1129.9 1550.25 Q1129.9 1541.85 1133.94 1536.69 Q1138.01 1531.54 1144.47 1531.54 Q1148.42 1531.54 1151.22 1533.1 Q1154.05 1534.62 1155.9 1537.81 M1135.94 1550.25 Q1135.94 1556.71 1138.58 1560.4 Q1141.26 1564.07 1145.91 1564.07 Q1150.55 1564.07 1153.23 1560.4 Q1155.9 1556.71 1155.9 1550.25 Q1155.9 1543.79 1153.23 1540.13 Q1150.55 1536.44 1145.91 1536.44 Q1141.26 1536.44 1138.58 1540.13 Q1135.94 1543.79 1135.94 1550.25 Z" fill="#000000" fill-rule="nonzero" fill-opacity="1" /><path clip-path="url(#clip210)" d="M1210.68 1526.86 L1201.96 1550.51 L1219.43 1550.51 L1210.68 1526.86 M1207.05 1520.52 L1214.34 1520.52 L1232.45 1568.04 L1225.76 1568.04 L1221.43 1555.85 L1200.01 1555.85 L1195.69 1568.04 L1188.91 1568.04 L1207.05 1520.52 Z" fill="#000000" fill-rule="nonzero" fill-opacity="1" /><path clip-path="url(#clip210)" d="M1253.52 1520.52 L1293.72 1520.52 L1293.72 1525.93 L1276.85 1525.93 L1276.85 1568.04 L1270.39 1568.04 L1270.39 1525.93 L1253.52 1525.93 L1253.52 1520.52 Z" fill="#000000" fill-rule="nonzero" fill-opacity="1" /><path clip-path="url(#clip210)" d="M1310.75 1537.87 Q1309.76 1537.3 1308.58 1537.04 Q1307.44 1536.76 1306.03 1536.76 Q1301.07 1536.76 1298.4 1540 Q1295.75 1543.22 1295.75 1549.27 L1295.75 1568.04 L1289.87 1568.04 L1289.87 1532.4 L1295.75 1532.4 L1295.75 1537.93 Q1297.6 1534.69 1300.56 1533.13 Q1303.52 1531.54 1307.75 1531.54 Q1308.36 1531.54 1309.09 1531.63 Q1309.82 1531.7 1310.71 1531.85 L1310.75 1537.87 Z" fill="#000000" fill-rule="nonzero" fill-opacity="1" /><path clip-path="url(#clip210)" d="M1333.09 1550.12 Q1325.99 1550.12 1323.25 1551.75 Q1320.52 1553.37 1320.52 1557.29 Q1320.52 1560.4 1322.55 1562.25 Q1324.62 1564.07 1328.16 1564.07 Q1333.03 1564.07 1335.95 1560.63 Q1338.91 1557.16 1338.91 1551.43 L1338.91 1550.12 L1333.09 1550.12 M1344.77 1547.71 L1344.77 1568.04 L1338.91 1568.04 L1338.91 1562.63 Q1336.91 1565.88 1333.92 1567.44 Q1330.92 1568.97 1326.6 1568.97 Q1321.12 1568.97 1317.87 1565.91 Q1314.66 1562.82 1314.66 1557.67 Q1314.66 1551.65 1318.67 1548.6 Q1322.71 1545.54 1330.7 1545.54 L1338.91 1545.54 L1338.91 1544.97 Q1338.91 1540.93 1336.24 1538.73 Q1333.6 1536.5 1328.79 1536.5 Q1325.74 1536.5 1322.84 1537.23 Q1319.94 1537.97 1317.27 1539.43 L1317.27 1534.02 Q1320.48 1532.78 1323.51 1532.17 Q1326.53 1531.54 1329.4 1531.54 Q1337.13 1531.54 1340.95 1535.55 Q1344.77 1539.56 1344.77 1547.71 Z" fill="#000000" fill-rule="nonzero" fill-opacity="1" /><path clip-path="url(#clip210)" d="M1386.47 1546.53 L1386.47 1568.04 L1380.61 1568.04 L1380.61 1546.72 Q1380.61 1541.66 1378.64 1539.14 Q1376.66 1536.63 1372.72 1536.63 Q1367.97 1536.63 1365.24 1539.65 Q1362.5 1542.68 1362.5 1547.9 L1362.5 1568.04 L1356.61 1568.04 L1356.61 1532.4 L1362.5 1532.4 L1362.5 1537.93 Q1364.6 1534.72 1367.43 1533.13 Q1370.3 1531.54 1374.02 1531.54 Q1380.16 1531.54 1383.31 1535.36 Q1386.47 1539.14 1386.47 1546.53 Z" fill="#000000" fill-rule="nonzero" fill-opacity="1" /><path clip-path="url(#clip210)" d="M1420.87 1533.45 L1420.87 1538.98 Q1418.39 1537.71 1415.72 1537.07 Q1413.04 1536.44 1410.18 1536.44 Q1405.82 1536.44 1403.62 1537.77 Q1401.46 1539.11 1401.46 1541.79 Q1401.46 1543.82 1403.02 1545 Q1404.58 1546.15 1409.29 1547.2 L1411.29 1547.64 Q1417.53 1548.98 1420.14 1551.43 Q1422.78 1553.85 1422.78 1558.21 Q1422.78 1563.17 1418.83 1566.07 Q1414.92 1568.97 1408.05 1568.97 Q1405.18 1568.97 1402.06 1568.39 Q1398.97 1567.85 1395.54 1566.74 L1395.54 1560.69 Q1398.78 1562.38 1401.93 1563.24 Q1405.09 1564.07 1408.17 1564.07 Q1412.31 1564.07 1414.54 1562.66 Q1416.77 1561.23 1416.77 1558.65 Q1416.77 1556.27 1415.14 1554.99 Q1413.55 1553.72 1408.11 1552.54 L1406.07 1552.07 Q1400.63 1550.92 1398.21 1548.56 Q1395.79 1546.18 1395.79 1542.04 Q1395.79 1537.01 1399.36 1534.27 Q1402.92 1531.54 1409.48 1531.54 Q1412.72 1531.54 1415.59 1532.01 Q1418.45 1532.49 1420.87 1533.45 Z" fill="#000000" fill-rule="nonzero" fill-opacity="1" /><path clip-path="url(#clip210)" d="M1450.15 1518.52 L1450.15 1523.39 L1444.55 1523.39 Q1441.4 1523.39 1440.16 1524.66 Q1438.95 1525.93 1438.95 1529.24 L1438.95 1532.4 L1448.59 1532.4 L1448.59 1536.95 L1438.95 1536.95 L1438.95 1568.04 L1433.06 1568.04 L1433.06 1536.95 L1427.46 1536.95 L1427.46 1532.4 L1433.06 1532.4 L1433.06 1529.91 Q1433.06 1523.96 1435.83 1521.26 Q1438.6 1518.52 1444.62 1518.52 L1450.15 1518.52 Z" fill="#000000" fill-rule="nonzero" fill-opacity="1" /><path clip-path="url(#clip210)" d="M1485.55 1548.76 L1485.55 1551.62 L1458.62 1551.62 Q1459 1557.67 1462.25 1560.85 Q1465.53 1564 1471.35 1564 Q1474.73 1564 1477.88 1563.17 Q1481.06 1562.35 1484.18 1560.69 L1484.18 1566.23 Q1481.03 1567.57 1477.72 1568.27 Q1474.41 1568.97 1471 1568.97 Q1462.47 1568.97 1457.47 1564 Q1452.51 1559.04 1452.51 1550.57 Q1452.51 1541.82 1457.22 1536.69 Q1461.96 1531.54 1469.98 1531.54 Q1477.18 1531.54 1481.35 1536.18 Q1485.55 1540.8 1485.55 1548.76 M1479.69 1547.04 Q1479.63 1542.23 1476.99 1539.37 Q1474.38 1536.5 1470.05 1536.5 Q1465.15 1536.5 1462.19 1539.27 Q1459.26 1542.04 1458.81 1547.07 L1479.69 1547.04 Z" fill="#000000" fill-rule="nonzero" fill-opacity="1" /><path clip-path="url(#clip210)" d="M1515.82 1537.87 Q1514.83 1537.3 1513.65 1537.04 Q1512.51 1536.76 1511.11 1536.76 Q1506.14 1536.76 1503.47 1540 Q1500.83 1543.22 1500.83 1549.27 L1500.83 1568.04 L1494.94 1568.04 L1494.94 1532.4 L1500.83 1532.4 L1500.83 1537.93 Q1502.67 1534.69 1505.63 1533.13 Q1508.59 1531.54 1512.82 1531.54 Q1513.43 1531.54 1514.16 1531.63 Q1514.89 1531.7 1515.78 1531.85 L1515.82 1537.87 Z" fill="#000000" fill-rule="nonzero" fill-opacity="1" /><path clip-path="url(#clip210)" d="M1565.47 1545.76 Q1567.54 1546.46 1569.48 1548.76 Q1571.45 1551.05 1573.43 1555.06 L1579.95 1568.04 L1573.04 1568.04 L1566.96 1555.85 Q1564.61 1551.08 1562.38 1549.52 Q1560.19 1547.96 1556.37 1547.96 L1549.36 1547.96 L1549.36 1568.04 L1542.93 1568.04 L1542.93 1520.52 L1557.45 1520.52 Q1565.6 1520.52 1569.61 1523.93 Q1573.62 1527.34 1573.62 1534.21 Q1573.62 1538.7 1571.52 1541.66 Q1569.45 1544.62 1565.47 1545.76 M1549.36 1525.81 L1549.36 1542.68 L1557.45 1542.68 Q1562.1 1542.68 1564.45 1540.54 Q1566.84 1538.38 1566.84 1534.21 Q1566.84 1530.04 1564.45 1527.94 Q1562.1 1525.81 1557.45 1525.81 L1549.36 1525.81 Z" fill="#000000" fill-rule="nonzero" fill-opacity="1" /><path clip-path="url(#clip210)" d="M1602.74 1550.12 Q1595.64 1550.12 1592.91 1551.75 Q1590.17 1553.37 1590.17 1557.29 Q1590.17 1560.4 1592.2 1562.25 Q1594.27 1564.07 1597.81 1564.07 Q1602.68 1564.07 1605.6 1560.63 Q1608.56 1557.16 1608.56 1551.43 L1608.56 1550.12 L1602.74 1550.12 M1614.42 1547.71 L1614.42 1568.04 L1608.56 1568.04 L1608.56 1562.63 Q1606.56 1565.88 1603.57 1567.44 Q1600.58 1568.97 1596.25 1568.97 Q1590.77 1568.97 1587.53 1565.91 Q1584.31 1562.82 1584.31 1557.67 Q1584.31 1551.65 1588.32 1548.6 Q1592.36 1545.54 1600.35 1545.54 L1608.56 1545.54 L1608.56 1544.97 Q1608.56 1540.93 1605.89 1538.73 Q1603.25 1536.5 1598.44 1536.5 Q1595.39 1536.5 1592.49 1537.23 Q1589.6 1537.97 1586.92 1539.43 L1586.92 1534.02 Q1590.14 1532.78 1593.16 1532.17 Q1596.18 1531.54 1599.05 1531.54 Q1606.78 1531.54 1610.6 1535.55 Q1614.42 1539.56 1614.42 1547.71 Z" fill="#000000" fill-rule="nonzero" fill-opacity="1" /><path clip-path="url(#clip210)" d="M1632.28 1522.27 L1632.28 1532.4 L1644.34 1532.4 L1644.34 1536.95 L1632.28 1536.95 L1632.28 1556.3 Q1632.28 1560.66 1633.45 1561.9 Q1634.66 1563.14 1638.32 1563.14 L1644.34 1563.14 L1644.34 1568.04 L1638.32 1568.04 Q1631.55 1568.04 1628.97 1565.53 Q1626.39 1562.98 1626.39 1556.3 L1626.39 1536.95 L1622.09 1536.95 L1622.09 1532.4 L1626.39 1532.4 L1626.39 1522.27 L1632.28 1522.27 Z" fill="#000000" fill-rule="nonzero" fill-opacity="1" /><path clip-path="url(#clip210)" d="M1682.53 1548.76 L1682.53 1551.62 L1655.61 1551.62 Q1655.99 1557.67 1659.24 1560.85 Q1662.51 1564 1668.34 1564 Q1671.71 1564 1674.86 1563.17 Q1678.05 1562.35 1681.17 1560.69 L1681.17 1566.23 Q1678.01 1567.57 1674.7 1568.27 Q1671.39 1568.97 1667.99 1568.97 Q1659.46 1568.97 1654.46 1564 Q1649.5 1559.04 1649.5 1550.57 Q1649.5 1541.82 1654.21 1536.69 Q1658.95 1531.54 1666.97 1531.54 Q1674.16 1531.54 1678.33 1536.18 Q1682.53 1540.8 1682.53 1548.76 M1676.68 1547.04 Q1676.61 1542.23 1673.97 1539.37 Q1671.36 1536.5 1667.03 1536.5 Q1662.13 1536.5 1659.17 1539.27 Q1656.24 1542.04 1655.8 1547.07 L1676.68 1547.04 Z" fill="#000000" fill-rule="nonzero" fill-opacity="1" /><polyline clip-path="url(#clip210)" style="stroke:#000000; stroke-linecap:round; stroke-linejoin:round; stroke-width:4; stroke-opacity:1; fill:none" points="249.542,1423.18 249.542,123.472 "/>
<polyline clip-path="url(#clip210)" style="stroke:#000000; stroke-linecap:round; stroke-linejoin:round; stroke-width:4; stroke-opacity:1; fill:none" points="249.542,1401.94 268.44,1401.94 "/>
<polyline clip-path="url(#clip210)" style="stroke:#000000; stroke-linecap:round; stroke-linejoin:round; stroke-width:4; stroke-opacity:1; fill:none" points="249.542,1087.63 268.44,1087.63 "/>
<polyline clip-path="url(#clip210)" style="stroke:#000000; stroke-linecap:round; stroke-linejoin:round; stroke-width:4; stroke-opacity:1; fill:none" points="249.542,773.326 268.44,773.326 "/>
<polyline clip-path="url(#clip210)" style="stroke:#000000; stroke-linecap:round; stroke-linejoin:round; stroke-width:4; stroke-opacity:1; fill:none" points="249.542,459.018 268.44,459.018 "/>
<polyline clip-path="url(#clip210)" style="stroke:#000000; stroke-linecap:round; stroke-linejoin:round; stroke-width:4; stroke-opacity:1; fill:none" points="249.542,144.711 268.44,144.711 "/>
<path clip-path="url(#clip210)" d="M126.205 1387.74 Q122.593 1387.74 120.765 1391.3 Q118.959 1394.85 118.959 1401.98 Q118.959 1409.08 120.765 1412.65 Q122.593 1416.19 126.205 1416.19 Q129.839 1416.19 131.644 1412.65 Q133.473 1409.08 133.473 1401.98 Q133.473 1394.85 131.644 1391.3 Q129.839 1387.74 126.205 1387.74 M126.205 1384.04 Q132.015 1384.04 135.07 1388.64 Q138.149 1393.23 138.149 1401.98 Q138.149 1410.7 135.07 1415.31 Q132.015 1419.89 126.205 1419.89 Q120.394 1419.89 117.316 1415.31 Q114.26 1410.7 114.26 1401.98 Q114.26 1393.23 117.316 1388.64 Q120.394 1384.04 126.205 1384.04 Z" fill="#000000" fill-rule="nonzero" fill-opacity="1" /><path clip-path="url(#clip210)" d="M146.366 1413.34 L151.251 1413.34 L151.251 1419.22 L146.366 1419.22 L146.366 1413.34 Z" fill="#000000" fill-rule="nonzero" fill-opacity="1" /><path clip-path="url(#clip210)" d="M171.436 1387.74 Q167.825 1387.74 165.996 1391.3 Q164.19 1394.85 164.19 1401.98 Q164.19 1409.08 165.996 1412.65 Q167.825 1416.19 171.436 1416.19 Q175.07 1416.19 176.876 1412.65 Q178.704 1409.08 178.704 1401.98 Q178.704 1394.85 176.876 1391.3 Q175.07 1387.74 171.436 1387.74 M171.436 1384.04 Q177.246 1384.04 180.301 1388.64 Q183.38 1393.23 183.38 1401.98 Q183.38 1410.7 180.301 1415.31 Q177.246 1419.89 171.436 1419.89 Q165.626 1419.89 162.547 1415.31 Q159.491 1410.7 159.491 1401.98 Q159.491 1393.23 162.547 1388.64 Q165.626 1384.04 171.436 1384.04 Z" fill="#000000" fill-rule="nonzero" fill-opacity="1" /><path clip-path="url(#clip210)" d="M201.598 1387.74 Q197.987 1387.74 196.158 1391.3 Q194.352 1394.85 194.352 1401.98 Q194.352 1409.08 196.158 1412.65 Q197.987 1416.19 201.598 1416.19 Q205.232 1416.19 207.037 1412.65 Q208.866 1409.08 208.866 1401.98 Q208.866 1394.85 207.037 1391.3 Q205.232 1387.74 201.598 1387.74 M201.598 1384.04 Q207.408 1384.04 210.463 1388.64 Q213.542 1393.23 213.542 1401.98 Q213.542 1410.7 210.463 1415.31 Q207.408 1419.89 201.598 1419.89 Q195.787 1419.89 192.709 1415.31 Q189.653 1410.7 189.653 1401.98 Q189.653 1393.23 192.709 1388.64 Q195.787 1384.04 201.598 1384.04 Z" fill="#000000" fill-rule="nonzero" fill-opacity="1" /><path clip-path="url(#clip210)" d="M127.2 1073.43 Q123.589 1073.43 121.76 1077 Q119.955 1080.54 119.955 1087.67 Q119.955 1094.77 121.76 1098.34 Q123.589 1101.88 127.2 1101.88 Q130.834 1101.88 132.64 1098.34 Q134.468 1094.77 134.468 1087.67 Q134.468 1080.54 132.64 1077 Q130.834 1073.43 127.2 1073.43 M127.2 1069.73 Q133.01 1069.73 136.066 1074.34 Q139.144 1078.92 139.144 1087.67 Q139.144 1096.4 136.066 1101 Q133.01 1105.58 127.2 1105.58 Q121.39 1105.58 118.311 1101 Q115.256 1096.4 115.256 1087.67 Q115.256 1078.92 118.311 1074.34 Q121.39 1069.73 127.2 1069.73 Z" fill="#000000" fill-rule="nonzero" fill-opacity="1" /><path clip-path="url(#clip210)" d="M147.362 1099.03 L152.246 1099.03 L152.246 1104.91 L147.362 1104.91 L147.362 1099.03 Z" fill="#000000" fill-rule="nonzero" fill-opacity="1" /><path clip-path="url(#clip210)" d="M166.459 1100.98 L182.778 1100.98 L182.778 1104.91 L160.834 1104.91 L160.834 1100.98 Q163.496 1098.22 168.079 1093.59 Q172.686 1088.94 173.866 1087.6 Q176.112 1085.08 176.991 1083.34 Q177.894 1081.58 177.894 1079.89 Q177.894 1077.14 175.95 1075.4 Q174.028 1073.66 170.927 1073.66 Q168.727 1073.66 166.274 1074.43 Q163.843 1075.19 161.065 1076.74 L161.065 1072.02 Q163.89 1070.89 166.343 1070.31 Q168.797 1069.73 170.834 1069.73 Q176.204 1069.73 179.399 1072.41 Q182.593 1075.1 182.593 1079.59 Q182.593 1081.72 181.783 1083.64 Q180.996 1085.54 178.889 1088.13 Q178.311 1088.8 175.209 1092.02 Q172.107 1095.21 166.459 1100.98 Z" fill="#000000" fill-rule="nonzero" fill-opacity="1" /><path clip-path="url(#clip210)" d="M192.639 1070.35 L210.996 1070.35 L210.996 1074.29 L196.922 1074.29 L196.922 1082.76 Q197.94 1082.41 198.959 1082.25 Q199.977 1082.07 200.996 1082.07 Q206.783 1082.07 210.162 1085.24 Q213.542 1088.41 213.542 1093.83 Q213.542 1099.4 210.07 1102.51 Q206.598 1105.58 200.278 1105.58 Q198.102 1105.58 195.834 1105.21 Q193.588 1104.84 191.181 1104.1 L191.181 1099.4 Q193.264 1100.54 195.487 1101.09 Q197.709 1101.65 200.186 1101.65 Q204.19 1101.65 206.528 1099.54 Q208.866 1097.44 208.866 1093.83 Q208.866 1090.21 206.528 1088.11 Q204.19 1086 200.186 1086 Q198.311 1086 196.436 1086.42 Q194.584 1086.83 192.639 1087.71 L192.639 1070.35 Z" fill="#000000" fill-rule="nonzero" fill-opacity="1" /><path clip-path="url(#clip210)" d="M126.205 759.125 Q122.593 759.125 120.765 762.689 Q118.959 766.231 118.959 773.361 Q118.959 780.467 120.765 784.032 Q122.593 787.574 126.205 787.574 Q129.839 787.574 131.644 784.032 Q133.473 780.467 133.473 773.361 Q133.473 766.231 131.644 762.689 Q129.839 759.125 126.205 759.125 M126.205 755.421 Q132.015 755.421 135.07 760.027 Q138.149 764.611 138.149 773.361 Q138.149 782.088 135.07 786.694 Q132.015 791.277 126.205 791.277 Q120.394 791.277 117.316 786.694 Q114.26 782.088 114.26 773.361 Q114.26 764.611 117.316 760.027 Q120.394 755.421 126.205 755.421 Z" fill="#000000" fill-rule="nonzero" fill-opacity="1" /><path clip-path="url(#clip210)" d="M146.366 784.726 L151.251 784.726 L151.251 790.606 L146.366 790.606 L146.366 784.726 Z" fill="#000000" fill-rule="nonzero" fill-opacity="1" /><path clip-path="url(#clip210)" d="M161.482 756.046 L179.839 756.046 L179.839 759.981 L165.765 759.981 L165.765 768.453 Q166.783 768.106 167.802 767.944 Q168.82 767.759 169.839 767.759 Q175.626 767.759 179.005 770.93 Q182.385 774.101 182.385 779.518 Q182.385 785.097 178.913 788.199 Q175.44 791.277 169.121 791.277 Q166.945 791.277 164.677 790.907 Q162.431 790.537 160.024 789.796 L160.024 785.097 Q162.107 786.231 164.329 786.787 Q166.552 787.342 169.028 787.342 Q173.033 787.342 175.371 785.236 Q177.709 783.129 177.709 779.518 Q177.709 775.907 175.371 773.801 Q173.033 771.694 169.028 771.694 Q167.153 771.694 165.278 772.111 Q163.427 772.527 161.482 773.407 L161.482 756.046 Z" fill="#000000" fill-rule="nonzero" fill-opacity="1" /><path clip-path="url(#clip210)" d="M201.598 759.125 Q197.987 759.125 196.158 762.689 Q194.352 766.231 194.352 773.361 Q194.352 780.467 196.158 784.032 Q197.987 787.574 201.598 787.574 Q205.232 787.574 207.037 784.032 Q208.866 780.467 208.866 773.361 Q208.866 766.231 207.037 762.689 Q205.232 759.125 201.598 759.125 M201.598 755.421 Q207.408 755.421 210.463 760.027 Q213.542 764.611 213.542 773.361 Q213.542 782.088 210.463 786.694 Q207.408 791.277 201.598 791.277 Q195.787 791.277 192.709 786.694 Q189.653 782.088 189.653 773.361 Q189.653 764.611 192.709 760.027 Q195.787 755.421 201.598 755.421 Z" fill="#000000" fill-rule="nonzero" fill-opacity="1" /><path clip-path="url(#clip210)" d="M127.2 444.817 Q123.589 444.817 121.76 448.382 Q119.955 451.924 119.955 459.053 Q119.955 466.16 121.76 469.724 Q123.589 473.266 127.2 473.266 Q130.834 473.266 132.64 469.724 Q134.468 466.16 134.468 459.053 Q134.468 451.924 132.64 448.382 Q130.834 444.817 127.2 444.817 M127.2 441.113 Q133.01 441.113 136.066 445.72 Q139.144 450.303 139.144 459.053 Q139.144 467.78 136.066 472.386 Q133.01 476.97 127.2 476.97 Q121.39 476.97 118.311 472.386 Q115.256 467.78 115.256 459.053 Q115.256 450.303 118.311 445.72 Q121.39 441.113 127.2 441.113 Z" fill="#000000" fill-rule="nonzero" fill-opacity="1" /><path clip-path="url(#clip210)" d="M147.362 470.419 L152.246 470.419 L152.246 476.298 L147.362 476.298 L147.362 470.419 Z" fill="#000000" fill-rule="nonzero" fill-opacity="1" /><path clip-path="url(#clip210)" d="M161.251 441.738 L183.473 441.738 L183.473 443.729 L170.927 476.298 L166.042 476.298 L177.848 445.674 L161.251 445.674 L161.251 441.738 Z" fill="#000000" fill-rule="nonzero" fill-opacity="1" /><path clip-path="url(#clip210)" d="M192.639 441.738 L210.996 441.738 L210.996 445.674 L196.922 445.674 L196.922 454.146 Q197.94 453.798 198.959 453.636 Q199.977 453.451 200.996 453.451 Q206.783 453.451 210.162 456.623 Q213.542 459.794 213.542 465.21 Q213.542 470.789 210.07 473.891 Q206.598 476.97 200.278 476.97 Q198.102 476.97 195.834 476.599 Q193.588 476.229 191.181 475.488 L191.181 470.789 Q193.264 471.923 195.487 472.479 Q197.709 473.035 200.186 473.035 Q204.19 473.035 206.528 470.928 Q208.866 468.822 208.866 465.21 Q208.866 461.599 206.528 459.493 Q204.19 457.386 200.186 457.386 Q198.311 457.386 196.436 457.803 Q194.584 458.22 192.639 459.099 L192.639 441.738 Z" fill="#000000" fill-rule="nonzero" fill-opacity="1" /><path clip-path="url(#clip210)" d="M117.015 158.056 L124.654 158.056 L124.654 131.69 L116.343 133.357 L116.343 129.097 L124.607 127.431 L129.283 127.431 L129.283 158.056 L136.922 158.056 L136.922 161.991 L117.015 161.991 L117.015 158.056 Z" fill="#000000" fill-rule="nonzero" fill-opacity="1" /><path clip-path="url(#clip210)" d="M146.366 156.111 L151.251 156.111 L151.251 161.991 L146.366 161.991 L146.366 156.111 Z" fill="#000000" fill-rule="nonzero" fill-opacity="1" /><path clip-path="url(#clip210)" d="M171.436 130.509 Q167.825 130.509 165.996 134.074 Q164.19 137.616 164.19 144.745 Q164.19 151.852 165.996 155.417 Q167.825 158.958 171.436 158.958 Q175.07 158.958 176.876 155.417 Q178.704 151.852 178.704 144.745 Q178.704 137.616 176.876 134.074 Q175.07 130.509 171.436 130.509 M171.436 126.806 Q177.246 126.806 180.301 131.412 Q183.38 135.996 183.38 144.745 Q183.38 153.472 180.301 158.079 Q177.246 162.662 171.436 162.662 Q165.626 162.662 162.547 158.079 Q159.491 153.472 159.491 144.745 Q159.491 135.996 162.547 131.412 Q165.626 126.806 171.436 126.806 Z" fill="#000000" fill-rule="nonzero" fill-opacity="1" /><path clip-path="url(#clip210)" d="M201.598 130.509 Q197.987 130.509 196.158 134.074 Q194.352 137.616 194.352 144.745 Q194.352 151.852 196.158 155.417 Q197.987 158.958 201.598 158.958 Q205.232 158.958 207.037 155.417 Q208.866 151.852 208.866 144.745 Q208.866 137.616 207.037 134.074 Q205.232 130.509 201.598 130.509 M201.598 126.806 Q207.408 126.806 210.463 131.412 Q213.542 135.996 213.542 144.745 Q213.542 153.472 210.463 158.079 Q207.408 162.662 201.598 162.662 Q195.787 162.662 192.709 158.079 Q189.653 153.472 189.653 144.745 Q189.653 135.996 192.709 131.412 Q195.787 126.806 201.598 126.806 Z" fill="#000000" fill-rule="nonzero" fill-opacity="1" /><path clip-path="url(#clip210)" d="M16.4842 1034.45 L16.4842 1024.87 L48.8219 1012.74 L16.4842 1000.55 L16.4842 990.969 L64.0042 990.969 L64.0042 997.24 L22.277 997.24 L54.8694 1009.49 L54.8694 1015.95 L22.277 1028.21 L64.0042 1028.21 L64.0042 1034.45 L16.4842 1034.45 Z" fill="#000000" fill-rule="nonzero" fill-opacity="1" /><path clip-path="url(#clip210)" d="M32.4621 964.647 Q32.4621 969.358 36.1542 972.095 Q39.8145 974.832 46.212 974.832 Q52.6095 974.832 56.3017 972.127 Q59.9619 969.39 59.9619 964.647 Q59.9619 959.969 56.2698 957.231 Q52.5777 954.494 46.212 954.494 Q39.8781 954.494 36.186 957.231 Q32.4621 959.969 32.4621 964.647 M27.4968 964.647 Q27.4968 957.008 32.4621 952.648 Q37.4273 948.287 46.212 948.287 Q54.9649 948.287 59.9619 952.648 Q64.9272 957.008 64.9272 964.647 Q64.9272 972.318 59.9619 976.678 Q54.9649 981.007 46.212 981.007 Q37.4273 981.007 32.4621 976.678 Q27.4968 972.318 27.4968 964.647 Z" fill="#000000" fill-rule="nonzero" fill-opacity="1" /><path clip-path="url(#clip210)" d="M33.7671 915.122 L14.479 915.122 L14.479 909.266 L64.0042 909.266 L64.0042 915.122 L58.657 915.122 Q61.8398 916.968 63.3994 919.801 Q64.9272 922.602 64.9272 926.549 Q64.9272 933.01 59.771 937.084 Q54.6147 941.126 46.212 941.126 Q37.8093 941.126 32.6531 937.084 Q27.4968 933.01 27.4968 926.549 Q27.4968 922.602 29.0564 919.801 Q30.5842 916.968 33.7671 915.122 M46.212 935.079 Q52.6732 935.079 56.3653 932.437 Q60.0256 929.763 60.0256 925.116 Q60.0256 920.469 56.3653 917.796 Q52.6732 915.122 46.212 915.122 Q39.7508 915.122 36.0905 917.796 Q32.3984 920.469 32.3984 925.116 Q32.3984 929.763 36.0905 932.437 Q39.7508 935.079 46.212 935.079 Z" fill="#000000" fill-rule="nonzero" fill-opacity="1" /><path clip-path="url(#clip210)" d="M49.9359 897.807 L28.3562 897.807 L28.3562 891.951 L49.7131 891.951 Q54.7739 891.951 57.3202 889.978 Q59.8346 888.004 59.8346 884.057 Q59.8346 879.315 56.8109 876.578 Q53.7872 873.809 48.5673 873.809 L28.3562 873.809 L28.3562 867.952 L64.0042 867.952 L64.0042 873.809 L58.5296 873.809 Q61.7762 875.941 63.3676 878.774 Q64.9272 881.575 64.9272 885.299 Q64.9272 891.442 61.1078 894.625 Q57.2883 897.807 49.9359 897.807 M27.4968 883.071 L27.4968 883.071 Z" fill="#000000" fill-rule="nonzero" fill-opacity="1" /><path clip-path="url(#clip210)" d="M14.479 855.889 L14.479 850.033 L64.0042 850.033 L64.0042 855.889 L14.479 855.889 Z" fill="#000000" fill-rule="nonzero" fill-opacity="1" /><path clip-path="url(#clip210)" d="M44.7161 807.287 L47.5806 807.287 L47.5806 834.214 Q53.6281 833.832 56.8109 830.586 Q59.9619 827.307 59.9619 821.483 Q59.9619 818.109 59.1344 814.958 Q58.3069 811.775 56.6518 808.656 L62.1899 808.656 Q63.5267 811.807 64.227 815.117 Q64.9272 818.427 64.9272 821.833 Q64.9272 830.363 59.9619 835.36 Q54.9967 840.325 46.5303 840.325 Q37.7774 840.325 32.6531 835.614 Q27.4968 830.872 27.4968 822.851 Q27.4968 815.658 32.1438 811.488 Q36.7589 807.287 44.7161 807.287 M42.9973 813.143 Q38.1912 813.207 35.3266 815.849 Q32.4621 818.459 32.4621 822.788 Q32.4621 827.689 35.2312 830.649 Q38.0002 833.577 43.0292 834.023 L42.9973 813.143 Z" fill="#000000" fill-rule="nonzero" fill-opacity="1" /><path clip-path="url(#clip210)" d="M41.3104 770.27 L58.7206 770.27 L58.7206 759.958 Q58.7206 754.77 56.5881 752.287 Q54.4238 749.773 49.9996 749.773 Q45.5436 749.773 43.4429 752.287 Q41.3104 754.77 41.3104 759.958 L41.3104 770.27 M21.7677 770.27 L36.0905 770.27 L36.0905 760.754 Q36.0905 756.043 34.34 753.751 Q32.5576 751.428 28.9291 751.428 Q25.3325 751.428 23.5501 753.751 Q21.7677 756.043 21.7677 760.754 L21.7677 770.27 M16.4842 776.7 L16.4842 760.276 Q16.4842 752.924 19.5397 748.945 Q22.5952 744.967 28.2289 744.967 Q32.5894 744.967 35.1675 747.004 Q37.7456 749.041 38.3822 752.988 Q39.4007 748.245 42.6472 745.635 Q45.8619 742.993 50.6998 742.993 Q57.0655 742.993 60.5348 747.322 Q64.0042 751.651 64.0042 759.64 L64.0042 776.7 L16.4842 776.7 Z" fill="#000000" fill-rule="nonzero" fill-opacity="1" /><path clip-path="url(#clip210)" d="M28.3562 732.235 L28.3562 726.379 L64.0042 726.379 L64.0042 732.235 L28.3562 732.235 M14.479 732.235 L14.479 726.379 L21.895 726.379 L21.895 732.235 L14.479 732.235 Z" fill="#000000" fill-rule="nonzero" fill-opacity="1" /><path clip-path="url(#clip210)" d="M32.4621 700.311 Q32.4621 705.022 36.1542 707.759 Q39.8145 710.496 46.212 710.496 Q52.6095 710.496 56.3017 707.791 Q59.9619 705.054 59.9619 700.311 Q59.9619 695.633 56.2698 692.895 Q52.5777 690.158 46.212 690.158 Q39.8781 690.158 36.186 692.895 Q32.4621 695.633 32.4621 700.311 M27.4968 700.311 Q27.4968 692.672 32.4621 688.312 Q37.4273 683.951 46.212 683.951 Q54.9649 683.951 59.9619 688.312 Q64.9272 692.672 64.9272 700.311 Q64.9272 707.982 59.9619 712.343 Q54.9649 716.671 46.212 716.671 Q37.4273 716.671 32.4621 712.343 Q27.4968 707.982 27.4968 700.311 Z" fill="#000000" fill-rule="nonzero" fill-opacity="1" /><path clip-path="url(#clip210)" d="M35.1993 646.489 Q31.2526 644.293 29.3747 641.238 Q27.4968 638.182 27.4968 634.044 Q27.4968 628.474 31.4117 625.451 Q35.2948 622.427 42.4881 622.427 L64.0042 622.427 L64.0042 628.315 L42.679 628.315 Q37.5546 628.315 35.072 630.129 Q32.5894 631.944 32.5894 635.668 Q32.5894 640.219 35.6131 642.861 Q38.6368 645.503 43.8567 645.503 L64.0042 645.503 L64.0042 651.391 L42.679 651.391 Q37.5228 651.391 35.072 653.205 Q32.5894 655.019 32.5894 658.807 Q32.5894 663.295 35.6449 665.937 Q38.6686 668.578 43.8567 668.578 L64.0042 668.578 L64.0042 674.467 L28.3562 674.467 L28.3562 668.578 L33.8944 668.578 Q30.616 666.573 29.0564 663.772 Q27.4968 660.971 27.4968 657.12 Q27.4968 653.237 29.4702 650.532 Q31.4436 647.794 35.1993 646.489 Z" fill="#000000" fill-rule="nonzero" fill-opacity="1" /><path clip-path="url(#clip210)" d="M46.0847 594.545 Q46.0847 601.643 47.7079 604.38 Q49.3312 607.117 53.2461 607.117 Q56.3653 607.117 58.2114 605.08 Q60.0256 603.012 60.0256 599.479 Q60.0256 594.609 56.5881 591.681 Q53.1188 588.72 47.3897 588.72 L46.0847 588.72 L46.0847 594.545 M43.6657 582.864 L64.0042 582.864 L64.0042 588.72 L58.5933 588.72 Q61.8398 590.726 63.3994 593.718 Q64.9272 596.709 64.9272 601.038 Q64.9272 606.513 61.8716 609.759 Q58.7843 612.974 53.6281 612.974 Q47.6125 612.974 44.5569 608.963 Q41.5014 604.921 41.5014 596.932 L41.5014 588.72 L40.9285 588.72 Q36.8862 588.72 34.6901 591.394 Q32.4621 594.036 32.4621 598.842 Q32.4621 601.898 33.1941 604.794 Q33.9262 607.69 35.3903 610.364 L29.9795 610.364 Q28.7381 607.149 28.1334 604.126 Q27.4968 601.102 27.4968 598.237 Q27.4968 590.503 31.5072 586.683 Q35.5176 582.864 43.6657 582.864 Z" fill="#000000" fill-rule="nonzero" fill-opacity="1" /><path clip-path="url(#clip210)" d="M29.4065 548.075 L34.9447 548.075 Q33.6716 550.558 33.035 553.232 Q32.3984 555.905 32.3984 558.77 Q32.3984 563.13 33.7352 565.327 Q35.072 567.491 37.7456 567.491 Q39.7826 567.491 40.9603 565.931 Q42.1061 564.372 43.1565 559.661 L43.6021 557.656 Q44.9389 551.417 47.3897 548.808 Q49.8086 546.166 54.1691 546.166 Q59.1344 546.166 62.0308 550.112 Q64.9272 554.027 64.9272 560.902 Q64.9272 563.767 64.3543 566.886 Q63.8132 569.973 62.6992 573.411 L56.6518 573.411 Q58.3387 570.164 59.198 567.013 Q60.0256 563.862 60.0256 560.775 Q60.0256 556.637 58.6251 554.409 Q57.1929 552.181 54.6147 552.181 Q52.2276 552.181 50.9545 553.805 Q49.6813 555.396 48.5037 560.839 L48.0262 562.876 Q46.8804 568.318 44.5251 570.737 Q42.138 573.156 38.0002 573.156 Q32.9713 573.156 30.2341 569.592 Q27.4968 566.027 27.4968 559.47 Q27.4968 556.224 27.9743 553.359 Q28.4517 550.494 29.4065 548.075 Z" fill="#000000" fill-rule="nonzero" fill-opacity="1" /><path clip-path="url(#clip210)" d="M29.4065 514.114 L34.9447 514.114 Q33.6716 516.597 33.035 519.271 Q32.3984 521.944 32.3984 524.809 Q32.3984 529.169 33.7352 531.365 Q35.072 533.53 37.7456 533.53 Q39.7826 533.53 40.9603 531.97 Q42.1061 530.411 43.1565 525.7 L43.6021 523.695 Q44.9389 517.456 47.3897 514.846 Q49.8086 512.205 54.1691 512.205 Q59.1344 512.205 62.0308 516.151 Q64.9272 520.066 64.9272 526.941 Q64.9272 529.806 64.3543 532.925 Q63.8132 536.012 62.6992 539.45 L56.6518 539.45 Q58.3387 536.203 59.198 533.052 Q60.0256 529.901 60.0256 526.814 Q60.0256 522.676 58.6251 520.448 Q57.1929 518.22 54.6147 518.22 Q52.2276 518.22 50.9545 519.844 Q49.6813 521.435 48.5037 526.878 L48.0262 528.915 Q46.8804 534.357 44.5251 536.776 Q42.138 539.195 38.0002 539.195 Q32.9713 539.195 30.2341 535.63 Q27.4968 532.066 27.4968 525.509 Q27.4968 522.263 27.9743 519.398 Q28.4517 516.533 29.4065 514.114 Z" fill="#000000" fill-rule="nonzero" fill-opacity="1" /><path clip-path="url(#clip210)" d="M565.971 18.8205 L565.971 41.5461 L576.26 41.5461 Q581.972 41.5461 585.091 38.5889 Q588.21 35.6318 588.21 30.163 Q588.21 24.7348 585.091 21.7777 Q581.972 18.8205 576.26 18.8205 L565.971 18.8205 M557.788 12.096 L576.26 12.096 Q586.428 12.096 591.613 16.714 Q596.839 21.2916 596.839 30.163 Q596.839 39.1155 591.613 43.6931 Q586.428 48.2706 576.26 48.2706 L565.971 48.2706 L565.971 72.576 L557.788 72.576 L557.788 12.096 Z" fill="#000000" fill-rule="nonzero" fill-opacity="1" /><path clip-path="url(#clip210)" d="M622.116 32.4315 Q616.121 32.4315 612.637 37.1306 Q609.153 41.7891 609.153 49.9314 Q609.153 58.0738 612.597 62.7728 Q616.08 67.4314 622.116 67.4314 Q628.071 67.4314 631.555 62.7323 Q635.039 58.0333 635.039 49.9314 Q635.039 41.8701 631.555 37.1711 Q628.071 32.4315 622.116 32.4315 M622.116 26.1121 Q631.838 26.1121 637.388 32.4315 Q642.938 38.7509 642.938 49.9314 Q642.938 61.0714 637.388 67.4314 Q631.838 73.7508 622.116 73.7508 Q612.353 73.7508 606.804 67.4314 Q601.295 61.0714 601.295 49.9314 Q601.295 38.7509 606.804 32.4315 Q612.353 26.1121 622.116 26.1121 Z" fill="#000000" fill-rule="nonzero" fill-opacity="1" /><path clip-path="url(#clip210)" d="M662.504 65.7705 L662.504 89.8329 L655.009 89.8329 L655.009 27.2059 L662.504 27.2059 L662.504 34.0924 Q664.853 30.0415 668.418 28.0971 Q672.023 26.1121 677.006 26.1121 Q685.27 26.1121 690.414 32.6746 Q695.6 39.2371 695.6 49.9314 Q695.6 60.6258 690.414 67.1883 Q685.27 73.7508 677.006 73.7508 Q672.023 73.7508 668.418 71.8063 Q664.853 69.8214 662.504 65.7705 M687.862 49.9314 Q687.862 41.7081 684.46 37.0496 Q681.097 32.3505 675.183 32.3505 Q669.269 32.3505 665.866 37.0496 Q662.504 41.7081 662.504 49.9314 Q662.504 58.1548 665.866 62.8538 Q669.269 67.5124 675.183 67.5124 Q681.097 67.5124 684.46 62.8538 Q687.862 58.1548 687.862 49.9314 Z" fill="#000000" fill-rule="nonzero" fill-opacity="1" /><path clip-path="url(#clip210)" d="M707.185 54.671 L707.185 27.2059 L714.639 27.2059 L714.639 54.3874 Q714.639 60.8284 717.15 64.0691 Q719.662 67.2693 724.685 67.2693 Q730.721 67.2693 734.205 63.421 Q737.729 59.5726 737.729 52.9291 L737.729 27.2059 L745.183 27.2059 L745.183 72.576 L737.729 72.576 L737.729 65.6084 Q735.015 69.7404 731.41 71.7658 Q727.845 73.7508 723.105 73.7508 Q715.287 73.7508 711.236 68.8897 Q707.185 64.0286 707.185 54.671 M725.941 26.1121 L725.941 26.1121 Z" fill="#000000" fill-rule="nonzero" fill-opacity="1" /><path clip-path="url(#clip210)" d="M760.536 9.54393 L767.989 9.54393 L767.989 72.576 L760.536 72.576 L760.536 9.54393 Z" fill="#000000" fill-rule="nonzero" fill-opacity="1" /><path clip-path="url(#clip210)" d="M804.204 49.7694 Q795.171 49.7694 791.687 51.8354 Q788.203 53.9013 788.203 58.8839 Q788.203 62.8538 790.796 65.2034 Q793.429 67.5124 797.925 67.5124 Q804.123 67.5124 807.85 63.1374 Q811.617 58.7219 811.617 51.4303 L811.617 49.7694 L804.204 49.7694 M819.071 46.6907 L819.071 72.576 L811.617 72.576 L811.617 65.6895 Q809.065 69.8214 805.258 71.8063 Q801.45 73.7508 795.94 73.7508 Q788.973 73.7508 784.841 69.8619 Q780.75 65.9325 780.75 59.3701 Q780.75 51.7138 785.854 47.825 Q790.998 43.9361 801.166 43.9361 L811.617 43.9361 L811.617 43.2069 Q811.617 38.0623 808.215 35.2672 Q804.852 32.4315 798.736 32.4315 Q794.847 32.4315 791.16 33.3632 Q787.474 34.295 784.071 36.1584 L784.071 29.2718 Q788.163 27.692 792.011 26.9223 Q795.859 26.1121 799.505 26.1121 Q809.349 26.1121 814.21 31.2163 Q819.071 36.3204 819.071 46.6907 Z" fill="#000000" fill-rule="nonzero" fill-opacity="1" /><path clip-path="url(#clip210)" d="M841.797 14.324 L841.797 27.2059 L857.15 27.2059 L857.15 32.9987 L841.797 32.9987 L841.797 57.6282 Q841.797 63.1779 843.296 64.7578 Q844.835 66.3376 849.493 66.3376 L857.15 66.3376 L857.15 72.576 L849.493 72.576 Q840.865 72.576 837.584 69.3758 Q834.303 66.1351 834.303 57.6282 L834.303 32.9987 L828.834 32.9987 L828.834 27.2059 L834.303 27.2059 L834.303 14.324 L841.797 14.324 Z" fill="#000000" fill-rule="nonzero" fill-opacity="1" /><path clip-path="url(#clip210)" d="M866.953 27.2059 L874.406 27.2059 L874.406 72.576 L866.953 72.576 L866.953 27.2059 M866.953 9.54393 L874.406 9.54393 L874.406 18.9825 L866.953 18.9825 L866.953 9.54393 Z" fill="#000000" fill-rule="nonzero" fill-opacity="1" /><path clip-path="url(#clip210)" d="M907.583 32.4315 Q901.588 32.4315 898.104 37.1306 Q894.62 41.7891 894.62 49.9314 Q894.62 58.0738 898.064 62.7728 Q901.548 67.4314 907.583 67.4314 Q913.538 67.4314 917.022 62.7323 Q920.506 58.0333 920.506 49.9314 Q920.506 41.8701 917.022 37.1711 Q913.538 32.4315 907.583 32.4315 M907.583 26.1121 Q917.306 26.1121 922.855 32.4315 Q928.405 38.7509 928.405 49.9314 Q928.405 61.0714 922.855 67.4314 Q917.306 73.7508 907.583 73.7508 Q897.821 73.7508 892.271 67.4314 Q886.762 61.0714 886.762 49.9314 Q886.762 38.7509 892.271 32.4315 Q897.821 26.1121 907.583 26.1121 Z" fill="#000000" fill-rule="nonzero" fill-opacity="1" /><path clip-path="url(#clip210)" d="M978.474 45.1919 L978.474 72.576 L971.021 72.576 L971.021 45.4349 Q971.021 38.994 968.509 35.7938 Q965.997 32.5936 960.974 32.5936 Q954.938 32.5936 951.455 36.4419 Q947.971 40.2903 947.971 46.9338 L947.971 72.576 L940.477 72.576 L940.477 27.2059 L947.971 27.2059 L947.971 34.2544 Q950.644 30.163 954.25 28.1376 Q957.896 26.1121 962.635 26.1121 Q970.453 26.1121 974.464 30.9732 Q978.474 35.7938 978.474 45.1919 Z" fill="#000000" fill-rule="nonzero" fill-opacity="1" /><path clip-path="url(#clip210)" d="M1028.22 18.8205 L1028.22 65.8515 L1038.1 65.8515 Q1050.62 65.8515 1056.41 60.1802 Q1062.25 54.509 1062.25 42.2752 Q1062.25 30.1225 1056.41 24.4918 Q1050.62 18.8205 1038.1 18.8205 L1028.22 18.8205 M1020.04 12.096 L1036.85 12.096 Q1054.43 12.096 1062.65 19.4281 Q1070.88 26.7198 1070.88 42.2752 Q1070.88 57.9117 1062.61 65.2439 Q1054.35 72.576 1036.85 72.576 L1020.04 72.576 L1020.04 12.096 Z" fill="#000000" fill-rule="nonzero" fill-opacity="1" /><path clip-path="url(#clip210)" d="M1122.4 48.0275 L1122.4 51.6733 L1088.13 51.6733 Q1088.62 59.3701 1092.75 63.421 Q1096.92 67.4314 1104.34 67.4314 Q1108.63 67.4314 1112.64 66.3781 Q1116.69 65.3249 1120.66 63.2184 L1120.66 70.267 Q1116.65 71.9684 1112.44 72.8596 Q1108.22 73.7508 1103.89 73.7508 Q1093.03 73.7508 1086.67 67.4314 Q1080.35 61.1119 1080.35 50.3365 Q1080.35 39.1965 1086.35 32.6746 Q1092.39 26.1121 1102.59 26.1121 Q1111.75 26.1121 1117.06 32.0264 Q1122.4 37.9003 1122.4 48.0275 M1114.95 45.84 Q1114.87 39.7232 1111.51 36.0774 Q1108.18 32.4315 1102.67 32.4315 Q1096.44 32.4315 1092.67 35.9558 Q1088.94 39.4801 1088.38 45.8805 L1114.95 45.84 Z" fill="#000000" fill-rule="nonzero" fill-opacity="1" /><path clip-path="url(#clip210)" d="M1172.35 45.1919 L1172.35 72.576 L1164.9 72.576 L1164.9 45.4349 Q1164.9 38.994 1162.39 35.7938 Q1159.87 32.5936 1154.85 32.5936 Q1148.81 32.5936 1145.33 36.4419 Q1141.85 40.2903 1141.85 46.9338 L1141.85 72.576 L1134.35 72.576 L1134.35 27.2059 L1141.85 27.2059 L1141.85 34.2544 Q1144.52 30.163 1148.13 28.1376 Q1151.77 26.1121 1156.51 26.1121 Q1164.33 26.1121 1168.34 30.9732 Q1172.35 35.7938 1172.35 45.1919 Z" fill="#000000" fill-rule="nonzero" fill-opacity="1" /><path clip-path="url(#clip210)" d="M1216.14 28.5427 L1216.14 35.5912 Q1212.98 33.9709 1209.58 33.1607 Q1206.18 32.3505 1202.53 32.3505 Q1196.98 32.3505 1194.18 34.0519 Q1191.43 35.7533 1191.43 39.156 Q1191.43 41.7486 1193.42 43.2475 Q1195.4 44.7058 1201.4 46.0426 L1203.95 46.6097 Q1211.89 48.3111 1215.21 51.4303 Q1218.57 54.509 1218.57 60.0587 Q1218.57 66.3781 1213.55 70.0644 Q1208.57 73.7508 1199.82 73.7508 Q1196.17 73.7508 1192.2 73.0216 Q1188.27 72.3329 1183.9 70.9151 L1183.9 63.2184 Q1188.03 65.3654 1192.04 66.4591 Q1196.05 67.5124 1199.98 67.5124 Q1205.24 67.5124 1208.08 65.73 Q1210.92 63.9071 1210.92 60.6258 Q1210.92 57.5877 1208.85 55.9673 Q1206.82 54.3469 1199.9 52.8481 L1197.3 52.2405 Q1190.38 50.7821 1187.3 47.7845 Q1184.22 44.7463 1184.22 39.4801 Q1184.22 33.0797 1188.76 29.5959 Q1193.29 26.1121 1201.64 26.1121 Q1205.77 26.1121 1209.42 26.7198 Q1213.06 27.3274 1216.14 28.5427 Z" fill="#000000" fill-rule="nonzero" fill-opacity="1" /><path clip-path="url(#clip210)" d="M1230.44 27.2059 L1237.89 27.2059 L1237.89 72.576 L1230.44 72.576 L1230.44 27.2059 M1230.44 9.54393 L1237.89 9.54393 L1237.89 18.9825 L1230.44 18.9825 L1230.44 9.54393 Z" fill="#000000" fill-rule="nonzero" fill-opacity="1" /><path clip-path="url(#clip210)" d="M1260.86 14.324 L1260.86 27.2059 L1276.22 27.2059 L1276.22 32.9987 L1260.86 32.9987 L1260.86 57.6282 Q1260.86 63.1779 1262.36 64.7578 Q1263.9 66.3376 1268.56 66.3376 L1276.22 66.3376 L1276.22 72.576 L1268.56 72.576 Q1259.93 72.576 1256.65 69.3758 Q1253.37 66.1351 1253.37 57.6282 L1253.37 32.9987 L1247.9 32.9987 L1247.9 27.2059 L1253.37 27.2059 L1253.37 14.324 L1260.86 14.324 Z" fill="#000000" fill-rule="nonzero" fill-opacity="1" /><path clip-path="url(#clip210)" d="M1304.9 76.7889 Q1301.74 84.8907 1298.74 87.3618 Q1295.74 89.8329 1290.72 89.8329 L1284.76 89.8329 L1284.76 83.5945 L1289.14 83.5945 Q1292.22 83.5945 1293.92 82.1361 Q1295.62 80.6778 1297.69 75.2496 L1299.02 71.8468 L1280.67 27.2059 L1288.57 27.2059 L1302.75 62.6918 L1316.93 27.2059 L1324.83 27.2059 L1304.9 76.7889 Z" fill="#000000" fill-rule="nonzero" fill-opacity="1" /><path clip-path="url(#clip210)" d="M1356.14 27.2059 L1364.04 27.2059 L1378.22 65.2844 L1392.4 27.2059 L1400.29 27.2059 L1383.28 72.576 L1373.15 72.576 L1356.14 27.2059 Z" fill="#000000" fill-rule="nonzero" fill-opacity="1" /><path clip-path="url(#clip210)" d="M1439.51 28.5427 L1439.51 35.5912 Q1436.35 33.9709 1432.95 33.1607 Q1429.54 32.3505 1425.9 32.3505 Q1420.35 32.3505 1417.55 34.0519 Q1414.8 35.7533 1414.8 39.156 Q1414.8 41.7486 1416.78 43.2475 Q1418.77 44.7058 1424.76 46.0426 L1427.31 46.6097 Q1435.25 48.3111 1438.58 51.4303 Q1441.94 54.509 1441.94 60.0587 Q1441.94 66.3781 1436.92 70.0644 Q1431.93 73.7508 1423.18 73.7508 Q1419.54 73.7508 1415.57 73.0216 Q1411.64 72.3329 1407.26 70.9151 L1407.26 63.2184 Q1411.39 65.3654 1415.4 66.4591 Q1419.42 67.5124 1423.34 67.5124 Q1428.61 67.5124 1431.45 65.73 Q1434.28 63.9071 1434.28 60.6258 Q1434.28 57.5877 1432.22 55.9673 Q1430.19 54.3469 1423.26 52.8481 L1420.67 52.2405 Q1413.74 50.7821 1410.67 47.7845 Q1407.59 44.7463 1407.59 39.4801 Q1407.59 33.0797 1412.12 29.5959 Q1416.66 26.1121 1425.01 26.1121 Q1429.14 26.1121 1432.78 26.7198 Q1436.43 27.3274 1439.51 28.5427 Z" fill="#000000" fill-rule="nonzero" fill-opacity="1" /><path clip-path="url(#clip210)" d="M1454.86 62.2867 L1463.41 62.2867 L1463.41 72.576 L1454.86 72.576 L1454.86 62.2867 Z" fill="#000000" fill-rule="nonzero" fill-opacity="1" /><path clip-path="url(#clip210)" d="M1498.49 12.096 L1549.65 12.096 L1549.65 18.9825 L1528.18 18.9825 L1528.18 72.576 L1519.96 72.576 L1519.96 18.9825 L1498.49 18.9825 L1498.49 12.096 Z" fill="#000000" fill-rule="nonzero" fill-opacity="1" /><path clip-path="url(#clip210)" d="M1571.32 34.1734 Q1570.07 33.4443 1568.57 33.1202 Q1567.11 32.7556 1565.33 32.7556 Q1559.01 32.7556 1555.61 36.8875 Q1552.24 40.9789 1552.24 48.6757 L1552.24 72.576 L1544.75 72.576 L1544.75 27.2059 L1552.24 27.2059 L1552.24 34.2544 Q1554.59 30.1225 1558.36 28.1376 Q1562.13 26.1121 1567.52 26.1121 Q1568.29 26.1121 1569.22 26.2337 Q1570.15 26.3147 1571.28 26.5172 L1571.32 34.1734 Z" fill="#000000" fill-rule="nonzero" fill-opacity="1" /><path clip-path="url(#clip210)" d="M1599.76 49.7694 Q1590.73 49.7694 1587.24 51.8354 Q1583.76 53.9013 1583.76 58.8839 Q1583.76 62.8538 1586.35 65.2034 Q1588.99 67.5124 1593.48 67.5124 Q1599.68 67.5124 1603.41 63.1374 Q1607.17 58.7219 1607.17 51.4303 L1607.17 49.7694 L1599.76 49.7694 M1614.63 46.6907 L1614.63 72.576 L1607.17 72.576 L1607.17 65.6895 Q1604.62 69.8214 1600.81 71.8063 Q1597.01 73.7508 1591.5 73.7508 Q1584.53 73.7508 1580.4 69.8619 Q1576.31 65.9325 1576.31 59.3701 Q1576.31 51.7138 1581.41 47.825 Q1586.56 43.9361 1596.72 43.9361 L1607.17 43.9361 L1607.17 43.2069 Q1607.17 38.0623 1603.77 35.2672 Q1600.41 32.4315 1594.29 32.4315 Q1590.4 32.4315 1586.72 33.3632 Q1583.03 34.295 1579.63 36.1584 L1579.63 29.2718 Q1583.72 27.692 1587.57 26.9223 Q1591.42 26.1121 1595.06 26.1121 Q1604.91 26.1121 1609.77 31.2163 Q1614.63 36.3204 1614.63 46.6907 Z" fill="#000000" fill-rule="nonzero" fill-opacity="1" /><path clip-path="url(#clip210)" d="M1667.7 45.1919 L1667.7 72.576 L1660.24 72.576 L1660.24 45.4349 Q1660.24 38.994 1657.73 35.7938 Q1655.22 32.5936 1650.2 32.5936 Q1644.16 32.5936 1640.68 36.4419 Q1637.19 40.2903 1637.19 46.9338 L1637.19 72.576 L1629.7 72.576 L1629.7 27.2059 L1637.19 27.2059 L1637.19 34.2544 Q1639.87 30.163 1643.47 28.1376 Q1647.12 26.1121 1651.86 26.1121 Q1659.67 26.1121 1663.68 30.9732 Q1667.7 35.7938 1667.7 45.1919 Z" fill="#000000" fill-rule="nonzero" fill-opacity="1" /><path clip-path="url(#clip210)" d="M1711.49 28.5427 L1711.49 35.5912 Q1708.33 33.9709 1704.92 33.1607 Q1701.52 32.3505 1697.87 32.3505 Q1692.32 32.3505 1689.53 34.0519 Q1686.77 35.7533 1686.77 39.156 Q1686.77 41.7486 1688.76 43.2475 Q1690.74 44.7058 1696.74 46.0426 L1699.29 46.6097 Q1707.23 48.3111 1710.55 51.4303 Q1713.92 54.509 1713.92 60.0587 Q1713.92 66.3781 1708.89 70.0644 Q1703.91 73.7508 1695.16 73.7508 Q1691.51 73.7508 1687.54 73.0216 Q1683.62 72.3329 1679.24 70.9151 L1679.24 63.2184 Q1683.37 65.3654 1687.38 66.4591 Q1691.39 67.5124 1695.32 67.5124 Q1700.59 67.5124 1703.42 65.73 Q1706.26 63.9071 1706.26 60.6258 Q1706.26 57.5877 1704.19 55.9673 Q1702.17 54.3469 1695.24 52.8481 L1692.65 52.2405 Q1685.72 50.7821 1682.64 47.7845 Q1679.56 44.7463 1679.56 39.4801 Q1679.56 33.0797 1684.1 29.5959 Q1688.64 26.1121 1696.98 26.1121 Q1701.11 26.1121 1704.76 26.7198 Q1708.41 27.3274 1711.49 28.5427 Z" fill="#000000" fill-rule="nonzero" fill-opacity="1" /><path clip-path="url(#clip210)" d="M1748.75 9.54393 L1748.75 15.7418 L1741.62 15.7418 Q1737.61 15.7418 1736.03 17.3622 Q1734.49 18.9825 1734.49 23.1955 L1734.49 27.2059 L1746.77 27.2059 L1746.77 32.9987 L1734.49 32.9987 L1734.49 72.576 L1727 72.576 L1727 32.9987 L1719.87 32.9987 L1719.87 27.2059 L1727 27.2059 L1727 24.0462 Q1727 16.471 1730.52 13.0277 Q1734.05 9.54393 1741.71 9.54393 L1748.75 9.54393 Z" fill="#000000" fill-rule="nonzero" fill-opacity="1" /><path clip-path="url(#clip210)" d="M1793.8 48.0275 L1793.8 51.6733 L1759.53 51.6733 Q1760.02 59.3701 1764.15 63.421 Q1768.32 67.4314 1775.73 67.4314 Q1780.03 67.4314 1784.04 66.3781 Q1788.09 65.3249 1792.06 63.2184 L1792.06 70.267 Q1788.05 71.9684 1783.83 72.8596 Q1779.62 73.7508 1775.29 73.7508 Q1764.43 73.7508 1758.07 67.4314 Q1751.75 61.1119 1751.75 50.3365 Q1751.75 39.1965 1757.75 32.6746 Q1763.78 26.1121 1773.99 26.1121 Q1783.15 26.1121 1788.45 32.0264 Q1793.8 37.9003 1793.8 48.0275 M1786.35 45.84 Q1786.27 39.7232 1782.9 36.0774 Q1779.58 32.4315 1774.07 32.4315 Q1767.83 32.4315 1764.07 35.9558 Q1760.34 39.4801 1759.77 45.8805 L1786.35 45.84 Z" fill="#000000" fill-rule="nonzero" fill-opacity="1" /><path clip-path="url(#clip210)" d="M1832.32 34.1734 Q1831.07 33.4443 1829.57 33.1202 Q1828.11 32.7556 1826.33 32.7556 Q1820.01 32.7556 1816.61 36.8875 Q1813.24 40.9789 1813.24 48.6757 L1813.24 72.576 L1805.75 72.576 L1805.75 27.2059 L1813.24 27.2059 L1813.24 34.2544 Q1815.59 30.1225 1819.36 28.1376 Q1823.13 26.1121 1828.52 26.1121 Q1829.29 26.1121 1830.22 26.2337 Q1831.15 26.3147 1832.28 26.5172 L1832.32 34.1734 Z" fill="#000000" fill-rule="nonzero" fill-opacity="1" /><path clip-path="url(#clip210)" d="M1895.52 44.2197 Q1898.15 45.1109 1900.62 48.0275 Q1903.13 50.9442 1905.65 56.0483 L1913.95 72.576 L1905.16 72.576 L1897.42 57.061 Q1894.42 50.9847 1891.59 48.9997 Q1888.79 47.0148 1883.93 47.0148 L1875.02 47.0148 L1875.02 72.576 L1866.84 72.576 L1866.84 12.096 L1885.31 12.096 Q1895.68 12.096 1900.78 16.4305 Q1905.89 20.7649 1905.89 29.5149 Q1905.89 35.2267 1903.21 38.994 Q1900.58 42.7613 1895.52 44.2197 M1875.02 18.8205 L1875.02 40.2903 L1885.31 40.2903 Q1891.22 40.2903 1894.22 37.5762 Q1897.26 34.8216 1897.26 29.5149 Q1897.26 24.2082 1894.22 21.5346 Q1891.22 18.8205 1885.31 18.8205 L1875.02 18.8205 Z" fill="#000000" fill-rule="nonzero" fill-opacity="1" /><path clip-path="url(#clip210)" d="M1942.95 49.7694 Q1933.92 49.7694 1930.44 51.8354 Q1926.95 53.9013 1926.95 58.8839 Q1926.95 62.8538 1929.55 65.2034 Q1932.18 67.5124 1936.68 67.5124 Q1942.87 67.5124 1946.6 63.1374 Q1950.37 58.7219 1950.37 51.4303 L1950.37 49.7694 L1942.95 49.7694 M1957.82 46.6907 L1957.82 72.576 L1950.37 72.576 L1950.37 65.6895 Q1947.82 69.8214 1944.01 71.8063 Q1940.2 73.7508 1934.69 73.7508 Q1927.72 73.7508 1923.59 69.8619 Q1919.5 65.9325 1919.5 59.3701 Q1919.5 51.7138 1924.6 47.825 Q1929.75 43.9361 1939.92 43.9361 L1950.37 43.9361 L1950.37 43.2069 Q1950.37 38.0623 1946.96 35.2672 Q1943.6 32.4315 1937.49 32.4315 Q1933.6 32.4315 1929.91 33.3632 Q1926.22 34.295 1922.82 36.1584 L1922.82 29.2718 Q1926.91 27.692 1930.76 26.9223 Q1934.61 26.1121 1938.25 26.1121 Q1948.1 26.1121 1952.96 31.2163 Q1957.82 36.3204 1957.82 46.6907 Z" fill="#000000" fill-rule="nonzero" fill-opacity="1" /><path clip-path="url(#clip210)" d="M1980.55 14.324 L1980.55 27.2059 L1995.9 27.2059 L1995.9 32.9987 L1980.55 32.9987 L1980.55 57.6282 Q1980.55 63.1779 1982.05 64.7578 Q1983.58 66.3376 1988.24 66.3376 L1995.9 66.3376 L1995.9 72.576 L1988.24 72.576 Q1979.61 72.576 1976.33 69.3758 Q1973.05 66.1351 1973.05 57.6282 L1973.05 32.9987 L1967.58 32.9987 L1967.58 27.2059 L1973.05 27.2059 L1973.05 14.324 L1980.55 14.324 Z" fill="#000000" fill-rule="nonzero" fill-opacity="1" /><path clip-path="url(#clip210)" d="M2044.51 48.0275 L2044.51 51.6733 L2010.24 51.6733 Q2010.73 59.3701 2014.86 63.421 Q2019.03 67.4314 2026.44 67.4314 Q2030.74 67.4314 2034.75 66.3781 Q2038.8 65.3249 2042.77 63.2184 L2042.77 70.267 Q2038.76 71.9684 2034.54 72.8596 Q2030.33 73.7508 2026 73.7508 Q2015.14 73.7508 2008.78 67.4314 Q2002.46 61.1119 2002.46 50.3365 Q2002.46 39.1965 2008.46 32.6746 Q2014.49 26.1121 2024.7 26.1121 Q2033.86 26.1121 2039.16 32.0264 Q2044.51 37.9003 2044.51 48.0275 M2037.06 45.84 Q2036.98 39.7232 2033.61 36.0774 Q2030.29 32.4315 2024.78 32.4315 Q2018.54 32.4315 2014.78 35.9558 Q2011.05 39.4801 2010.48 45.8805 L2037.06 45.84 Z" fill="#000000" fill-rule="nonzero" fill-opacity="1" /><polyline clip-path="url(#clip212)" style="stroke:#fb8d58; stroke-linecap:round; stroke-linejoin:round; stroke-width:16; stroke-opacity:1; fill:none" points="309.067,1386.4 375.206,1377.7 441.345,1364.24 507.483,1343.68 573.622,1312.84 639.761,1267.83 705.9,1204.7 772.039,1120.75 838.177,1016.56 904.316,897.524 970.455,773.326 1036.59,654.925 1102.73,550.785 1168.87,464.886 1235.01,397.151 1301.15,345.148 1367.29,305.711 1433.43,275.835 1499.57,253.092 1565.7,235.631 1631.84,222.075 1697.98,211.453 1764.12,203.045 1830.26,196.328 1896.4,190.904 1962.54,186.493 2028.68,182.874 2094.81,179.882 2160.95,177.386 2227.09,175.286 2293.23,173.504 "/>
<polyline clip-path="url(#clip212)" style="stroke:#ffffbe; stroke-linecap:round; stroke-linejoin:round; stroke-width:16; stroke-opacity:1; fill:none" points="309.067,160.256 375.206,168.956 441.345,182.413 507.483,202.975 573.622,233.816 639.761,278.817 705.9,341.951 772.039,425.905 838.177,530.094 904.316,649.128 970.455,773.326 1036.59,891.727 1102.73,995.867 1168.87,1081.77 1235.01,1149.5 1301.15,1201.5 1367.29,1240.94 1433.43,1270.82 1499.57,1293.56 1565.7,1311.02 1631.84,1324.58 1697.98,1335.2 1764.12,1343.61 1830.26,1350.32 1896.4,1355.75 1962.54,1360.16 2028.68,1363.78 2094.81,1366.77 2160.95,1369.27 2227.09,1371.37 2293.23,1373.15 "/>
<path clip-path="url(#clip210)" d="M1085.41 322.316 L1516.89 322.316 L1516.89 166.796 L1085.41 166.796  Z" fill="#ffffff" fill-rule="evenodd" fill-opacity="1"/>
<polyline clip-path="url(#clip210)" style="stroke:#000000; stroke-linecap:round; stroke-linejoin:round; stroke-width:4; stroke-opacity:1; fill:none" points="1085.41,322.316 1516.89,322.316 1516.89,166.796 1085.41,166.796 1085.41,322.316 "/>
<polyline clip-path="url(#clip210)" style="stroke:#fb8d58; stroke-linecap:round; stroke-linejoin:round; stroke-width:16; stroke-opacity:1; fill:none" points="1108.78,218.636 1248.99,218.636 "/>
<path clip-path="url(#clip210)" d="M1277.04 205.198 L1277.04 218.184 L1282.92 218.184 Q1286.18 218.184 1287.96 216.495 Q1289.75 214.805 1289.75 211.68 Q1289.75 208.578 1287.96 206.888 Q1286.18 205.198 1282.92 205.198 L1277.04 205.198 M1272.36 201.356 L1282.92 201.356 Q1288.73 201.356 1291.69 203.995 Q1294.68 206.61 1294.68 211.68 Q1294.68 216.795 1291.69 219.411 Q1288.73 222.027 1282.92 222.027 L1277.04 222.027 L1277.04 235.916 L1272.36 235.916 L1272.36 201.356 Z" fill="#000000" fill-rule="nonzero" fill-opacity="1" /><path clip-path="url(#clip210)" d="M1300.77 199.897 L1305.02 199.897 L1305.02 235.916 L1300.77 235.916 L1300.77 199.897 Z" fill="#000000" fill-rule="nonzero" fill-opacity="1" /><path clip-path="url(#clip210)" d="M1325.72 222.883 Q1320.56 222.883 1318.57 224.064 Q1316.58 225.244 1316.58 228.092 Q1316.58 230.36 1318.06 231.703 Q1319.56 233.022 1322.13 233.022 Q1325.67 233.022 1327.8 230.522 Q1329.95 227.999 1329.95 223.832 L1329.95 222.883 L1325.72 222.883 M1334.21 221.124 L1334.21 235.916 L1329.95 235.916 L1329.95 231.981 Q1328.5 234.342 1326.32 235.476 Q1324.14 236.587 1321 236.587 Q1317.02 236.587 1314.65 234.365 Q1312.32 232.119 1312.32 228.369 Q1312.32 223.994 1315.23 221.772 Q1318.17 219.55 1323.98 219.55 L1329.95 219.55 L1329.95 219.133 Q1329.95 216.194 1328.01 214.596 Q1326.09 212.976 1322.59 212.976 Q1320.37 212.976 1318.27 213.508 Q1316.16 214.041 1314.21 215.106 L1314.21 211.17 Q1316.55 210.268 1318.75 209.828 Q1320.95 209.365 1323.03 209.365 Q1328.66 209.365 1331.44 212.282 Q1334.21 215.198 1334.21 221.124 Z" fill="#000000" fill-rule="nonzero" fill-opacity="1" /><path clip-path="url(#clip210)" d="M1359.51 210.754 L1359.51 214.782 Q1357.71 213.856 1355.76 213.393 Q1353.82 212.93 1351.74 212.93 Q1348.57 212.93 1346.97 213.902 Q1345.39 214.874 1345.39 216.819 Q1345.39 218.3 1346.53 219.157 Q1347.66 219.99 1351.09 220.754 L1352.55 221.078 Q1357.08 222.05 1358.98 223.832 Q1360.9 225.592 1360.9 228.763 Q1360.9 232.374 1358.03 234.481 Q1355.19 236.587 1350.19 236.587 Q1348.1 236.587 1345.83 236.17 Q1343.59 235.777 1341.09 234.967 L1341.09 230.569 Q1343.45 231.795 1345.74 232.42 Q1348.03 233.022 1350.28 233.022 Q1353.29 233.022 1354.91 232.004 Q1356.53 230.962 1356.53 229.087 Q1356.53 227.351 1355.35 226.425 Q1354.19 225.499 1350.23 224.643 L1348.75 224.295 Q1344.79 223.462 1343.03 221.749 Q1341.27 220.013 1341.27 217.004 Q1341.27 213.346 1343.87 211.356 Q1346.46 209.365 1351.23 209.365 Q1353.59 209.365 1355.67 209.712 Q1357.76 210.059 1359.51 210.754 Z" fill="#000000" fill-rule="nonzero" fill-opacity="1" /><path clip-path="url(#clip210)" d="M1387.87 214.967 Q1389.47 212.096 1391.69 210.731 Q1393.91 209.365 1396.92 209.365 Q1400.97 209.365 1403.17 212.212 Q1405.37 215.036 1405.37 220.268 L1405.37 235.916 L1401.09 235.916 L1401.09 220.407 Q1401.09 216.68 1399.77 214.874 Q1398.45 213.069 1395.74 213.069 Q1392.43 213.069 1390.51 215.268 Q1388.59 217.467 1388.59 221.263 L1388.59 235.916 L1384.31 235.916 L1384.31 220.407 Q1384.31 216.657 1382.99 214.874 Q1381.67 213.069 1378.91 213.069 Q1375.65 213.069 1373.73 215.291 Q1371.81 217.49 1371.81 221.263 L1371.81 235.916 L1367.52 235.916 L1367.52 209.99 L1371.81 209.99 L1371.81 214.018 Q1373.26 211.633 1375.3 210.499 Q1377.34 209.365 1380.14 209.365 Q1382.96 209.365 1384.93 210.8 Q1386.92 212.235 1387.87 214.967 Z" fill="#000000" fill-rule="nonzero" fill-opacity="1" /><path clip-path="url(#clip210)" d="M1413.87 209.99 L1418.13 209.99 L1418.13 235.916 L1413.87 235.916 L1413.87 209.99 M1413.87 199.897 L1418.13 199.897 L1418.13 205.291 L1413.87 205.291 L1413.87 199.897 Z" fill="#000000" fill-rule="nonzero" fill-opacity="1" /><path clip-path="url(#clip210)" d="M1444.1 213.925 L1444.1 199.897 L1448.36 199.897 L1448.36 235.916 L1444.1 235.916 L1444.1 232.027 Q1442.76 234.342 1440.69 235.476 Q1438.66 236.587 1435.79 236.587 Q1431.09 236.587 1428.13 232.837 Q1425.19 229.087 1425.19 222.976 Q1425.19 216.865 1428.13 213.115 Q1431.09 209.365 1435.79 209.365 Q1438.66 209.365 1440.69 210.499 Q1442.76 211.61 1444.1 213.925 M1429.58 222.976 Q1429.58 227.675 1431.51 230.36 Q1433.45 233.022 1436.83 233.022 Q1440.21 233.022 1442.15 230.36 Q1444.1 227.675 1444.1 222.976 Q1444.1 218.277 1442.15 215.615 Q1440.21 212.93 1436.83 212.93 Q1433.45 212.93 1431.51 215.615 Q1429.58 218.277 1429.58 222.976 Z" fill="#000000" fill-rule="nonzero" fill-opacity="1" /><path clip-path="url(#clip210)" d="M1473.61 231.981 L1481.25 231.981 L1481.25 205.615 L1472.94 207.282 L1472.94 203.022 L1481.2 201.356 L1485.88 201.356 L1485.88 231.981 L1493.52 231.981 L1493.52 235.916 L1473.61 235.916 L1473.61 231.981 Z" fill="#000000" fill-rule="nonzero" fill-opacity="1" /><polyline clip-path="url(#clip210)" style="stroke:#ffffbe; stroke-linecap:round; stroke-linejoin:round; stroke-width:16; stroke-opacity:1; fill:none" points="1108.78,270.476 1248.99,270.476 "/>
<path clip-path="url(#clip210)" d="M1277.04 257.038 L1277.04 270.024 L1282.92 270.024 Q1286.18 270.024 1287.96 268.335 Q1289.75 266.645 1289.75 263.52 Q1289.75 260.418 1287.96 258.728 Q1286.18 257.038 1282.92 257.038 L1277.04 257.038 M1272.36 253.196 L1282.92 253.196 Q1288.73 253.196 1291.69 255.835 Q1294.68 258.45 1294.68 263.52 Q1294.68 268.635 1291.69 271.251 Q1288.73 273.867 1282.92 273.867 L1277.04 273.867 L1277.04 287.756 L1272.36 287.756 L1272.36 253.196 Z" fill="#000000" fill-rule="nonzero" fill-opacity="1" /><path clip-path="url(#clip210)" d="M1300.77 251.737 L1305.02 251.737 L1305.02 287.756 L1300.77 287.756 L1300.77 251.737 Z" fill="#000000" fill-rule="nonzero" fill-opacity="1" /><path clip-path="url(#clip210)" d="M1325.72 274.723 Q1320.56 274.723 1318.57 275.904 Q1316.58 277.084 1316.58 279.932 Q1316.58 282.2 1318.06 283.543 Q1319.56 284.862 1322.13 284.862 Q1325.67 284.862 1327.8 282.362 Q1329.95 279.839 1329.95 275.672 L1329.95 274.723 L1325.72 274.723 M1334.21 272.964 L1334.21 287.756 L1329.95 287.756 L1329.95 283.821 Q1328.5 286.182 1326.32 287.316 Q1324.14 288.427 1321 288.427 Q1317.02 288.427 1314.65 286.205 Q1312.32 283.959 1312.32 280.209 Q1312.32 275.834 1315.23 273.612 Q1318.17 271.39 1323.98 271.39 L1329.95 271.39 L1329.95 270.973 Q1329.95 268.034 1328.01 266.436 Q1326.09 264.816 1322.59 264.816 Q1320.37 264.816 1318.27 265.348 Q1316.16 265.881 1314.21 266.946 L1314.21 263.01 Q1316.55 262.108 1318.75 261.668 Q1320.95 261.205 1323.03 261.205 Q1328.66 261.205 1331.44 264.122 Q1334.21 267.038 1334.21 272.964 Z" fill="#000000" fill-rule="nonzero" fill-opacity="1" /><path clip-path="url(#clip210)" d="M1359.51 262.594 L1359.51 266.622 Q1357.71 265.696 1355.76 265.233 Q1353.82 264.77 1351.74 264.77 Q1348.57 264.77 1346.97 265.742 Q1345.39 266.714 1345.39 268.659 Q1345.39 270.14 1346.53 270.997 Q1347.66 271.83 1351.09 272.594 L1352.55 272.918 Q1357.08 273.89 1358.98 275.672 Q1360.9 277.432 1360.9 280.603 Q1360.9 284.214 1358.03 286.321 Q1355.19 288.427 1350.19 288.427 Q1348.1 288.427 1345.83 288.01 Q1343.59 287.617 1341.09 286.807 L1341.09 282.409 Q1343.45 283.635 1345.74 284.26 Q1348.03 284.862 1350.28 284.862 Q1353.29 284.862 1354.91 283.844 Q1356.53 282.802 1356.53 280.927 Q1356.53 279.191 1355.35 278.265 Q1354.19 277.339 1350.23 276.483 L1348.75 276.135 Q1344.79 275.302 1343.03 273.589 Q1341.27 271.853 1341.27 268.844 Q1341.27 265.186 1343.87 263.196 Q1346.46 261.205 1351.23 261.205 Q1353.59 261.205 1355.67 261.552 Q1357.76 261.899 1359.51 262.594 Z" fill="#000000" fill-rule="nonzero" fill-opacity="1" /><path clip-path="url(#clip210)" d="M1387.87 266.807 Q1389.47 263.936 1391.69 262.571 Q1393.91 261.205 1396.92 261.205 Q1400.97 261.205 1403.17 264.052 Q1405.37 266.876 1405.37 272.108 L1405.37 287.756 L1401.09 287.756 L1401.09 272.247 Q1401.09 268.52 1399.77 266.714 Q1398.45 264.909 1395.74 264.909 Q1392.43 264.909 1390.51 267.108 Q1388.59 269.307 1388.59 273.103 L1388.59 287.756 L1384.31 287.756 L1384.31 272.247 Q1384.31 268.497 1382.99 266.714 Q1381.67 264.909 1378.91 264.909 Q1375.65 264.909 1373.73 267.131 Q1371.81 269.33 1371.81 273.103 L1371.81 287.756 L1367.52 287.756 L1367.52 261.83 L1371.81 261.83 L1371.81 265.858 Q1373.26 263.473 1375.3 262.339 Q1377.34 261.205 1380.14 261.205 Q1382.96 261.205 1384.93 262.64 Q1386.92 264.075 1387.87 266.807 Z" fill="#000000" fill-rule="nonzero" fill-opacity="1" /><path clip-path="url(#clip210)" d="M1413.87 261.83 L1418.13 261.83 L1418.13 287.756 L1413.87 287.756 L1413.87 261.83 M1413.87 251.737 L1418.13 251.737 L1418.13 257.131 L1413.87 257.131 L1413.87 251.737 Z" fill="#000000" fill-rule="nonzero" fill-opacity="1" /><path clip-path="url(#clip210)" d="M1444.1 265.765 L1444.1 251.737 L1448.36 251.737 L1448.36 287.756 L1444.1 287.756 L1444.1 283.867 Q1442.76 286.182 1440.69 287.316 Q1438.66 288.427 1435.79 288.427 Q1431.09 288.427 1428.13 284.677 Q1425.19 280.927 1425.19 274.816 Q1425.19 268.705 1428.13 264.955 Q1431.09 261.205 1435.79 261.205 Q1438.66 261.205 1440.69 262.339 Q1442.76 263.45 1444.1 265.765 M1429.58 274.816 Q1429.58 279.515 1431.51 282.2 Q1433.45 284.862 1436.83 284.862 Q1440.21 284.862 1442.15 282.2 Q1444.1 279.515 1444.1 274.816 Q1444.1 270.117 1442.15 267.455 Q1440.21 264.77 1436.83 264.77 Q1433.45 264.77 1431.51 267.455 Q1429.58 270.117 1429.58 274.816 Z" fill="#000000" fill-rule="nonzero" fill-opacity="1" /><path clip-path="url(#clip210)" d="M1476.83 283.821 L1493.15 283.821 L1493.15 287.756 L1471.2 287.756 L1471.2 283.821 Q1473.87 281.066 1478.45 276.436 Q1483.06 271.784 1484.24 270.441 Q1486.48 267.918 1487.36 266.182 Q1488.26 264.423 1488.26 262.733 Q1488.26 259.978 1486.32 258.242 Q1484.4 256.506 1481.3 256.506 Q1479.1 256.506 1476.64 257.27 Q1474.21 258.034 1471.44 259.585 L1471.44 254.862 Q1474.26 253.728 1476.71 253.149 Q1479.17 252.571 1481.2 252.571 Q1486.57 252.571 1489.77 255.256 Q1492.96 257.941 1492.96 262.432 Q1492.96 264.561 1492.15 266.483 Q1491.37 268.381 1489.26 270.973 Q1488.68 271.645 1485.58 274.862 Q1482.48 278.057 1476.83 283.821 Z" fill="#000000" fill-rule="nonzero" fill-opacity="1" /></svg>
