<?xml version="1.0" encoding="utf-8"?>
<svg xmlns="http://www.w3.org/2000/svg" xmlns:xlink="http://www.w3.org/1999/xlink" width="600" height="400" viewBox="0 0 2400 1600">
<defs>
  <clipPath id="clip990">
    <rect x="0" y="0" width="2400" height="1600"/>
  </clipPath>
</defs>
<path clip-path="url(#clip990)" d="M0 1600 L2400 1600 L2400 0 L0 0  Z" fill="#ffffff" fill-rule="evenodd" fill-opacity="1"/>
<defs>
  <clipPath id="clip991">
    <rect x="480" y="0" width="1681" height="1600"/>
  </clipPath>
</defs>
<path clip-path="url(#clip990)" d="M219.866 1423.18 L2352.76 1423.18 L2352.76 123.472 L219.866 123.472  Z" fill="#ffffff" fill-rule="evenodd" fill-opacity="1"/>
<defs>
  <clipPath id="clip992">
    <rect x="219" y="123" width="2134" height="1301"/>
  </clipPath>
</defs>
<polyline clip-path="url(#clip990)" style="stroke:#000000; stroke-linecap:round; stroke-linejoin:round; stroke-width:4; stroke-opacity:1; fill:none" points="219.866,1423.18 2352.76,1423.18 "/>
<polyline clip-path="url(#clip990)" style="stroke:#000000; stroke-linecap:round; stroke-linejoin:round; stroke-width:4; stroke-opacity:1; fill:none" points="259.906,1423.18 259.906,1404.28 "/>
<polyline clip-path="url(#clip990)" style="stroke:#000000; stroke-linecap:round; stroke-linejoin:round; stroke-width:4; stroke-opacity:1; fill:none" points="768.027,1423.18 768.027,1404.28 "/>
<polyline clip-path="url(#clip990)" style="stroke:#000000; stroke-linecap:round; stroke-linejoin:round; stroke-width:4; stroke-opacity:1; fill:none" points="1276.15,1423.18 1276.15,1404.28 "/>
<polyline clip-path="url(#clip990)" style="stroke:#000000; stroke-linecap:round; stroke-linejoin:round; stroke-width:4; stroke-opacity:1; fill:none" points="1784.27,1423.18 1784.27,1404.28 "/>
<polyline clip-path="url(#clip990)" style="stroke:#000000; stroke-linecap:round; stroke-linejoin:round; stroke-width:4; stroke-opacity:1; fill:none" points="2292.39,1423.18 2292.39,1404.28 "/>
<path clip-path="url(#clip990)" d="M207.129 1454.1 Q203.518 1454.1 201.689 1457.66 Q199.883 1461.2 199.883 1468.33 Q199.883 1475.44 201.689 1479.01 Q203.518 1482.55 207.129 1482.55 Q210.763 1482.55 212.569 1479.01 Q214.397 1475.44 214.397 1468.33 Q214.397 1461.2 212.569 1457.66 Q210.763 1454.1 207.129 1454.1 M207.129 1450.39 Q212.939 1450.39 215.994 1455 Q219.073 1459.58 219.073 1468.33 Q219.073 1477.06 215.994 1481.67 Q212.939 1486.25 207.129 1486.25 Q201.319 1486.25 198.24 1481.67 Q195.184 1477.06 195.184 1468.33 Q195.184 1459.58 198.24 1455 Q201.319 1450.39 207.129 1450.39 Z" fill="#000000" fill-rule="nonzero" fill-opacity="1" /><path clip-path="url(#clip990)" d="M227.291 1479.7 L232.175 1479.7 L232.175 1485.58 L227.291 1485.58 L227.291 1479.7 Z" fill="#000000" fill-rule="nonzero" fill-opacity="1" /><path clip-path="url(#clip990)" d="M252.36 1454.1 Q248.749 1454.1 246.92 1457.66 Q245.115 1461.2 245.115 1468.33 Q245.115 1475.44 246.92 1479.01 Q248.749 1482.55 252.36 1482.55 Q255.994 1482.55 257.8 1479.01 Q259.628 1475.44 259.628 1468.33 Q259.628 1461.2 257.8 1457.66 Q255.994 1454.1 252.36 1454.1 M252.36 1450.39 Q258.17 1450.39 261.226 1455 Q264.304 1459.58 264.304 1468.33 Q264.304 1477.06 261.226 1481.67 Q258.17 1486.25 252.36 1486.25 Q246.55 1486.25 243.471 1481.67 Q240.416 1477.06 240.416 1468.33 Q240.416 1459.58 243.471 1455 Q246.55 1450.39 252.36 1450.39 Z" fill="#000000" fill-rule="nonzero" fill-opacity="1" /><path clip-path="url(#clip990)" d="M282.522 1454.1 Q278.911 1454.1 277.082 1457.66 Q275.277 1461.2 275.277 1468.33 Q275.277 1475.44 277.082 1479.01 Q278.911 1482.55 282.522 1482.55 Q286.156 1482.55 287.962 1479.01 Q289.79 1475.44 289.79 1468.33 Q289.79 1461.2 287.962 1457.66 Q286.156 1454.1 282.522 1454.1 M282.522 1450.39 Q288.332 1450.39 291.388 1455 Q294.466 1459.58 294.466 1468.33 Q294.466 1477.06 291.388 1481.67 Q288.332 1486.25 282.522 1486.25 Q276.712 1486.25 273.633 1481.67 Q270.577 1477.06 270.577 1468.33 Q270.577 1459.58 273.633 1455 Q276.712 1450.39 282.522 1450.39 Z" fill="#000000" fill-rule="nonzero" fill-opacity="1" /><path clip-path="url(#clip990)" d="M312.684 1454.1 Q309.073 1454.1 307.244 1457.66 Q305.438 1461.2 305.438 1468.33 Q305.438 1475.44 307.244 1479.01 Q309.073 1482.55 312.684 1482.55 Q316.318 1482.55 318.123 1479.01 Q319.952 1475.44 319.952 1468.33 Q319.952 1461.2 318.123 1457.66 Q316.318 1454.1 312.684 1454.1 M312.684 1450.39 Q318.494 1450.39 321.549 1455 Q324.628 1459.58 324.628 1468.33 Q324.628 1477.06 321.549 1481.67 Q318.494 1486.25 312.684 1486.25 Q306.874 1486.25 303.795 1481.67 Q300.739 1477.06 300.739 1468.33 Q300.739 1459.58 303.795 1455 Q306.874 1450.39 312.684 1450.39 Z" fill="#000000" fill-rule="nonzero" fill-opacity="1" /><path clip-path="url(#clip990)" d="M715.748 1454.1 Q712.137 1454.1 710.308 1457.66 Q708.502 1461.2 708.502 1468.33 Q708.502 1475.44 710.308 1479.01 Q712.137 1482.55 715.748 1482.55 Q719.382 1482.55 721.187 1479.01 Q723.016 1475.44 723.016 1468.33 Q723.016 1461.2 721.187 1457.66 Q719.382 1454.1 715.748 1454.1 M715.748 1450.39 Q721.558 1450.39 724.613 1455 Q727.692 1459.58 727.692 1468.33 Q727.692 1477.06 724.613 1481.67 Q721.558 1486.25 715.748 1486.25 Q709.937 1486.25 706.859 1481.67 Q703.803 1477.06 703.803 1468.33 Q703.803 1459.58 706.859 1455 Q709.937 1450.39 715.748 1450.39 Z" fill="#000000" fill-rule="nonzero" fill-opacity="1" /><path clip-path="url(#clip990)" d="M735.91 1479.7 L740.794 1479.7 L740.794 1485.58 L735.91 1485.58 L735.91 1479.7 Z" fill="#000000" fill-rule="nonzero" fill-opacity="1" /><path clip-path="url(#clip990)" d="M760.979 1454.1 Q757.368 1454.1 755.539 1457.66 Q753.734 1461.2 753.734 1468.33 Q753.734 1475.44 755.539 1479.01 Q757.368 1482.55 760.979 1482.55 Q764.613 1482.55 766.419 1479.01 Q768.247 1475.44 768.247 1468.33 Q768.247 1461.2 766.419 1457.66 Q764.613 1454.1 760.979 1454.1 M760.979 1450.39 Q766.789 1450.39 769.845 1455 Q772.923 1459.58 772.923 1468.33 Q772.923 1477.06 769.845 1481.67 Q766.789 1486.25 760.979 1486.25 Q755.169 1486.25 752.09 1481.67 Q749.034 1477.06 749.034 1468.33 Q749.034 1459.58 752.09 1455 Q755.169 1450.39 760.979 1450.39 Z" fill="#000000" fill-rule="nonzero" fill-opacity="1" /><path clip-path="url(#clip990)" d="M785.169 1481.64 L801.488 1481.64 L801.488 1485.58 L779.544 1485.58 L779.544 1481.64 Q782.206 1478.89 786.789 1474.26 Q791.395 1469.61 792.576 1468.27 Q794.821 1465.74 795.701 1464.01 Q796.604 1462.25 796.604 1460.56 Q796.604 1457.8 794.659 1456.07 Q792.738 1454.33 789.636 1454.33 Q787.437 1454.33 784.983 1455.09 Q782.553 1455.86 779.775 1457.41 L779.775 1452.69 Q782.599 1451.55 785.053 1450.97 Q787.507 1450.39 789.544 1450.39 Q794.914 1450.39 798.108 1453.08 Q801.303 1455.77 801.303 1460.26 Q801.303 1462.39 800.493 1464.31 Q799.706 1466.2 797.599 1468.8 Q797.02 1469.47 793.919 1472.69 Q790.817 1475.88 785.169 1481.64 Z" fill="#000000" fill-rule="nonzero" fill-opacity="1" /><path clip-path="url(#clip990)" d="M811.349 1451.02 L829.705 1451.02 L829.705 1454.96 L815.631 1454.96 L815.631 1463.43 Q816.65 1463.08 817.668 1462.92 Q818.687 1462.73 819.705 1462.73 Q825.492 1462.73 828.872 1465.9 Q832.252 1469.08 832.252 1474.49 Q832.252 1480.07 828.779 1483.17 Q825.307 1486.25 818.988 1486.25 Q816.812 1486.25 814.543 1485.88 Q812.298 1485.51 809.891 1484.77 L809.891 1480.07 Q811.974 1481.2 814.196 1481.76 Q816.418 1482.32 818.895 1482.32 Q822.9 1482.32 825.238 1480.21 Q827.576 1478.1 827.576 1474.49 Q827.576 1470.88 825.238 1468.77 Q822.9 1466.67 818.895 1466.67 Q817.02 1466.67 815.145 1467.08 Q813.293 1467.5 811.349 1468.38 L811.349 1451.02 Z" fill="#000000" fill-rule="nonzero" fill-opacity="1" /><path clip-path="url(#clip990)" d="M1223.37 1454.1 Q1219.76 1454.1 1217.93 1457.66 Q1216.13 1461.2 1216.13 1468.33 Q1216.13 1475.44 1217.93 1479.01 Q1219.76 1482.55 1223.37 1482.55 Q1227.01 1482.55 1228.81 1479.01 Q1230.64 1475.44 1230.64 1468.33 Q1230.64 1461.2 1228.81 1457.66 Q1227.01 1454.1 1223.37 1454.1 M1223.37 1450.39 Q1229.18 1450.39 1232.24 1455 Q1235.32 1459.58 1235.32 1468.33 Q1235.32 1477.06 1232.24 1481.67 Q1229.18 1486.25 1223.37 1486.25 Q1217.56 1486.25 1214.48 1481.67 Q1211.43 1477.06 1211.43 1468.33 Q1211.43 1459.58 1214.48 1455 Q1217.56 1450.39 1223.37 1450.39 Z" fill="#000000" fill-rule="nonzero" fill-opacity="1" /><path clip-path="url(#clip990)" d="M1243.53 1479.7 L1248.42 1479.7 L1248.42 1485.58 L1243.53 1485.58 L1243.53 1479.7 Z" fill="#000000" fill-rule="nonzero" fill-opacity="1" /><path clip-path="url(#clip990)" d="M1268.6 1454.1 Q1264.99 1454.1 1263.16 1457.66 Q1261.36 1461.2 1261.36 1468.33 Q1261.36 1475.44 1263.16 1479.01 Q1264.99 1482.55 1268.6 1482.55 Q1272.24 1482.55 1274.04 1479.01 Q1275.87 1475.44 1275.87 1468.33 Q1275.87 1461.2 1274.04 1457.66 Q1272.24 1454.1 1268.6 1454.1 M1268.6 1450.39 Q1274.41 1450.39 1277.47 1455 Q1280.55 1459.58 1280.55 1468.33 Q1280.55 1477.06 1277.47 1481.67 Q1274.41 1486.25 1268.6 1486.25 Q1262.79 1486.25 1259.71 1481.67 Q1256.66 1477.06 1256.66 1468.33 Q1256.66 1459.58 1259.71 1455 Q1262.79 1450.39 1268.6 1450.39 Z" fill="#000000" fill-rule="nonzero" fill-opacity="1" /><path clip-path="url(#clip990)" d="M1288.81 1451.02 L1307.17 1451.02 L1307.17 1454.96 L1293.09 1454.96 L1293.09 1463.43 Q1294.11 1463.08 1295.13 1462.92 Q1296.15 1462.73 1297.17 1462.73 Q1302.95 1462.73 1306.33 1465.9 Q1309.71 1469.08 1309.71 1474.49 Q1309.71 1480.07 1306.24 1483.17 Q1302.77 1486.25 1296.45 1486.25 Q1294.27 1486.25 1292.01 1485.88 Q1289.76 1485.51 1287.35 1484.77 L1287.35 1480.07 Q1289.44 1481.2 1291.66 1481.76 Q1293.88 1482.32 1296.36 1482.32 Q1300.36 1482.32 1302.7 1480.21 Q1305.04 1478.1 1305.04 1474.49 Q1305.04 1470.88 1302.7 1468.77 Q1300.36 1466.67 1296.36 1466.67 Q1294.48 1466.67 1292.61 1467.08 Q1290.76 1467.5 1288.81 1468.38 L1288.81 1451.02 Z" fill="#000000" fill-rule="nonzero" fill-opacity="1" /><path clip-path="url(#clip990)" d="M1328.93 1454.1 Q1325.32 1454.1 1323.49 1457.66 Q1321.68 1461.2 1321.68 1468.33 Q1321.68 1475.44 1323.49 1479.01 Q1325.32 1482.55 1328.93 1482.55 Q1332.56 1482.55 1334.37 1479.01 Q1336.19 1475.44 1336.19 1468.33 Q1336.19 1461.2 1334.37 1457.66 Q1332.56 1454.1 1328.93 1454.1 M1328.93 1450.39 Q1334.74 1450.39 1337.79 1455 Q1340.87 1459.58 1340.87 1468.33 Q1340.87 1477.06 1337.79 1481.67 Q1334.74 1486.25 1328.93 1486.25 Q1323.12 1486.25 1320.04 1481.67 Q1316.98 1477.06 1316.98 1468.33 Q1316.98 1459.58 1320.04 1455 Q1323.12 1450.39 1328.93 1450.39 Z" fill="#000000" fill-rule="nonzero" fill-opacity="1" /><path clip-path="url(#clip990)" d="M1731.99 1454.1 Q1728.38 1454.1 1726.55 1457.66 Q1724.74 1461.2 1724.74 1468.33 Q1724.74 1475.44 1726.55 1479.01 Q1728.38 1482.55 1731.99 1482.55 Q1735.62 1482.55 1737.43 1479.01 Q1739.26 1475.44 1739.26 1468.33 Q1739.26 1461.2 1737.43 1457.66 Q1735.62 1454.1 1731.99 1454.1 M1731.99 1450.39 Q1737.8 1450.39 1740.86 1455 Q1743.93 1459.58 1743.93 1468.33 Q1743.93 1477.06 1740.86 1481.67 Q1737.8 1486.25 1731.99 1486.25 Q1726.18 1486.25 1723.1 1481.67 Q1720.05 1477.06 1720.05 1468.33 Q1720.05 1459.58 1723.1 1455 Q1726.18 1450.39 1731.99 1450.39 Z" fill="#000000" fill-rule="nonzero" fill-opacity="1" /><path clip-path="url(#clip990)" d="M1752.15 1479.7 L1757.04 1479.7 L1757.04 1485.58 L1752.15 1485.58 L1752.15 1479.7 Z" fill="#000000" fill-rule="nonzero" fill-opacity="1" /><path clip-path="url(#clip990)" d="M1777.22 1454.1 Q1773.61 1454.1 1771.78 1457.66 Q1769.98 1461.2 1769.98 1468.33 Q1769.98 1475.44 1771.78 1479.01 Q1773.61 1482.55 1777.22 1482.55 Q1780.86 1482.55 1782.66 1479.01 Q1784.49 1475.44 1784.49 1468.33 Q1784.49 1461.2 1782.66 1457.66 Q1780.86 1454.1 1777.22 1454.1 M1777.22 1450.39 Q1783.03 1450.39 1786.09 1455 Q1789.17 1459.58 1789.17 1468.33 Q1789.17 1477.06 1786.09 1481.67 Q1783.03 1486.25 1777.22 1486.25 Q1771.41 1486.25 1768.33 1481.67 Q1765.28 1477.06 1765.28 1468.33 Q1765.28 1459.58 1768.33 1455 Q1771.41 1450.39 1777.22 1450.39 Z" fill="#000000" fill-rule="nonzero" fill-opacity="1" /><path clip-path="url(#clip990)" d="M1796.2 1451.02 L1818.42 1451.02 L1818.42 1453.01 L1805.88 1485.58 L1800.99 1485.58 L1812.8 1454.96 L1796.2 1454.96 L1796.2 1451.02 Z" fill="#000000" fill-rule="nonzero" fill-opacity="1" /><path clip-path="url(#clip990)" d="M1827.59 1451.02 L1845.95 1451.02 L1845.95 1454.96 L1831.87 1454.96 L1831.87 1463.43 Q1832.89 1463.08 1833.91 1462.92 Q1834.93 1462.73 1835.95 1462.73 Q1841.73 1462.73 1845.11 1465.9 Q1848.49 1469.08 1848.49 1474.49 Q1848.49 1480.07 1845.02 1483.17 Q1841.55 1486.25 1835.23 1486.25 Q1833.05 1486.25 1830.79 1485.88 Q1828.54 1485.51 1826.13 1484.77 L1826.13 1480.07 Q1828.22 1481.2 1830.44 1481.76 Q1832.66 1482.32 1835.14 1482.32 Q1839.14 1482.32 1841.48 1480.21 Q1843.82 1478.1 1843.82 1474.49 Q1843.82 1470.88 1841.48 1468.77 Q1839.14 1466.67 1835.14 1466.67 Q1833.26 1466.67 1831.39 1467.08 Q1829.54 1467.5 1827.59 1468.38 L1827.59 1451.02 Z" fill="#000000" fill-rule="nonzero" fill-opacity="1" /><path clip-path="url(#clip990)" d="M2239.61 1454.1 Q2236 1454.1 2234.17 1457.66 Q2232.37 1461.2 2232.37 1468.33 Q2232.37 1475.44 2234.17 1479.01 Q2236 1482.55 2239.61 1482.55 Q2243.25 1482.55 2245.05 1479.01 Q2246.88 1475.44 2246.88 1468.33 Q2246.88 1461.2 2245.05 1457.66 Q2243.25 1454.1 2239.61 1454.1 M2239.61 1450.39 Q2245.42 1450.39 2248.48 1455 Q2251.56 1459.58 2251.56 1468.33 Q2251.56 1477.06 2248.48 1481.67 Q2245.42 1486.25 2239.61 1486.25 Q2233.8 1486.25 2230.72 1481.67 Q2227.67 1477.06 2227.67 1468.33 Q2227.67 1459.58 2230.72 1455 Q2233.8 1450.39 2239.61 1450.39 Z" fill="#000000" fill-rule="nonzero" fill-opacity="1" /><path clip-path="url(#clip990)" d="M2259.78 1479.7 L2264.66 1479.7 L2264.66 1485.58 L2259.78 1485.58 L2259.78 1479.7 Z" fill="#000000" fill-rule="nonzero" fill-opacity="1" /><path clip-path="url(#clip990)" d="M2275.66 1481.64 L2283.29 1481.64 L2283.29 1455.28 L2274.98 1456.95 L2274.98 1452.69 L2283.25 1451.02 L2287.92 1451.02 L2287.92 1481.64 L2295.56 1481.64 L2295.56 1485.58 L2275.66 1485.58 L2275.66 1481.64 Z" fill="#000000" fill-rule="nonzero" fill-opacity="1" /><path clip-path="url(#clip990)" d="M2315.01 1454.1 Q2311.4 1454.1 2309.57 1457.66 Q2307.76 1461.2 2307.76 1468.33 Q2307.76 1475.44 2309.57 1479.01 Q2311.4 1482.55 2315.01 1482.55 Q2318.64 1482.55 2320.45 1479.01 Q2322.28 1475.44 2322.28 1468.33 Q2322.28 1461.2 2320.45 1457.66 Q2318.64 1454.1 2315.01 1454.1 M2315.01 1450.39 Q2320.82 1450.39 2323.87 1455 Q2326.95 1459.58 2326.95 1468.33 Q2326.95 1477.06 2323.87 1481.67 Q2320.82 1486.25 2315.01 1486.25 Q2309.2 1486.25 2306.12 1481.67 Q2303.06 1477.06 2303.06 1468.33 Q2303.06 1459.58 2306.12 1455 Q2309.2 1450.39 2315.01 1450.39 Z" fill="#000000" fill-rule="nonzero" fill-opacity="1" /><path clip-path="url(#clip990)" d="M2345.17 1454.1 Q2341.56 1454.1 2339.73 1457.66 Q2337.92 1461.2 2337.92 1468.33 Q2337.92 1475.44 2339.73 1479.01 Q2341.56 1482.55 2345.17 1482.55 Q2348.8 1482.55 2350.61 1479.01 Q2352.44 1475.44 2352.44 1468.33 Q2352.44 1461.2 2350.61 1457.66 Q2348.8 1454.1 2345.17 1454.1 M2345.17 1450.39 Q2350.98 1450.39 2354.03 1455 Q2357.11 1459.58 2357.11 1468.33 Q2357.11 1477.06 2354.03 1481.67 Q2350.98 1486.25 2345.17 1486.25 Q2339.36 1486.25 2336.28 1481.67 Q2333.22 1477.06 2333.22 1468.33 Q2333.22 1459.58 2336.28 1455 Q2339.36 1450.39 2345.17 1450.39 Z" fill="#000000" fill-rule="nonzero" fill-opacity="1" /><path clip-path="url(#clip990)" d="M923.036 1525.81 L923.036 1543.66 L931.121 1543.66 Q935.608 1543.66 938.059 1541.34 Q940.51 1539.02 940.51 1534.72 Q940.51 1530.45 938.059 1528.13 Q935.608 1525.81 931.121 1525.81 L923.036 1525.81 M916.607 1520.52 L931.121 1520.52 Q939.11 1520.52 943.184 1524.15 Q947.289 1527.75 947.289 1534.72 Q947.289 1541.75 943.184 1545.35 Q939.11 1548.95 931.121 1548.95 L923.036 1548.95 L923.036 1568.04 L916.607 1568.04 L916.607 1520.52 Z" fill="#000000" fill-rule="nonzero" fill-opacity="1" /><path clip-path="url(#clip990)" d="M955.66 1518.52 L961.517 1518.52 L961.517 1568.04 L955.66 1568.04 L955.66 1518.52 Z" fill="#000000" fill-rule="nonzero" fill-opacity="1" /><path clip-path="url(#clip990)" d="M989.972 1550.12 Q982.874 1550.12 980.137 1551.75 Q977.399 1553.37 977.399 1557.29 Q977.399 1560.4 979.436 1562.25 Q981.505 1564.07 985.038 1564.07 Q989.908 1564.07 992.836 1560.63 Q995.796 1557.16 995.796 1551.43 L995.796 1550.12 L989.972 1550.12 M1001.65 1547.71 L1001.65 1568.04 L995.796 1568.04 L995.796 1562.63 Q993.791 1565.88 990.799 1567.44 Q987.807 1568.97 983.479 1568.97 Q978.004 1568.97 974.757 1565.91 Q971.543 1562.82 971.543 1557.67 Q971.543 1551.65 975.553 1548.6 Q979.595 1545.54 987.584 1545.54 L995.796 1545.54 L995.796 1544.97 Q995.796 1540.93 993.123 1538.73 Q990.481 1536.5 985.675 1536.5 Q982.619 1536.5 979.723 1537.23 Q976.826 1537.97 974.153 1539.43 L974.153 1534.02 Q977.367 1532.78 980.391 1532.17 Q983.415 1531.54 986.279 1531.54 Q994.014 1531.54 997.833 1535.55 Q1001.65 1539.56 1001.65 1547.71 Z" fill="#000000" fill-rule="nonzero" fill-opacity="1" /><path clip-path="url(#clip990)" d="M1036.44 1533.45 L1036.44 1538.98 Q1033.96 1537.71 1031.28 1537.07 Q1028.61 1536.44 1025.75 1536.44 Q1021.39 1536.44 1019.19 1537.77 Q1017.03 1539.11 1017.03 1541.79 Q1017.03 1543.82 1018.59 1545 Q1020.14 1546.15 1024.86 1547.2 L1026.86 1547.64 Q1033.1 1548.98 1035.71 1551.43 Q1038.35 1553.85 1038.35 1558.21 Q1038.35 1563.17 1034.4 1566.07 Q1030.49 1568.97 1023.61 1568.97 Q1020.75 1568.97 1017.63 1568.39 Q1014.54 1567.85 1011.11 1566.74 L1011.11 1560.69 Q1014.35 1562.38 1017.5 1563.24 Q1020.65 1564.07 1023.74 1564.07 Q1027.88 1564.07 1030.11 1562.66 Q1032.34 1561.23 1032.34 1558.65 Q1032.34 1556.27 1030.71 1554.99 Q1029.12 1553.72 1023.68 1552.54 L1021.64 1552.07 Q1016.2 1550.92 1013.78 1548.56 Q1011.36 1546.18 1011.36 1542.04 Q1011.36 1537.01 1014.93 1534.27 Q1018.49 1531.54 1025.05 1531.54 Q1028.29 1531.54 1031.16 1532.01 Q1034.02 1532.49 1036.44 1533.45 Z" fill="#000000" fill-rule="nonzero" fill-opacity="1" /><path clip-path="url(#clip990)" d="M1075.43 1539.24 Q1077.63 1535.29 1080.68 1533.41 Q1083.74 1531.54 1087.88 1531.54 Q1093.45 1531.54 1096.47 1535.45 Q1099.49 1539.33 1099.49 1546.53 L1099.49 1568.04 L1093.61 1568.04 L1093.61 1546.72 Q1093.61 1541.59 1091.79 1539.11 Q1089.98 1536.63 1086.25 1536.63 Q1081.7 1536.63 1079.06 1539.65 Q1076.42 1542.68 1076.42 1547.9 L1076.42 1568.04 L1070.53 1568.04 L1070.53 1546.72 Q1070.53 1541.56 1068.72 1539.11 Q1066.9 1536.63 1063.11 1536.63 Q1058.63 1536.63 1055.98 1539.68 Q1053.34 1542.71 1053.34 1547.9 L1053.34 1568.04 L1047.45 1568.04 L1047.45 1532.4 L1053.34 1532.4 L1053.34 1537.93 Q1055.35 1534.66 1058.15 1533.1 Q1060.95 1531.54 1064.8 1531.54 Q1068.68 1531.54 1071.39 1533.51 Q1074.13 1535.48 1075.43 1539.24 Z" fill="#000000" fill-rule="nonzero" fill-opacity="1" /><path clip-path="url(#clip990)" d="M1111.17 1532.4 L1117.03 1532.4 L1117.03 1568.04 L1111.17 1568.04 L1111.17 1532.4 M1111.17 1518.52 L1117.03 1518.52 L1117.03 1525.93 L1111.17 1525.93 L1111.17 1518.52 Z" fill="#000000" fill-rule="nonzero" fill-opacity="1" /><path clip-path="url(#clip990)" d="M1152.74 1537.81 L1152.74 1518.52 L1158.6 1518.52 L1158.6 1568.04 L1152.74 1568.04 L1152.74 1562.7 Q1150.9 1565.88 1148.06 1567.44 Q1145.26 1568.97 1141.32 1568.97 Q1134.86 1568.97 1130.78 1563.81 Q1126.74 1558.65 1126.74 1550.25 Q1126.74 1541.85 1130.78 1536.69 Q1134.86 1531.54 1141.32 1531.54 Q1145.26 1531.54 1148.06 1533.1 Q1150.9 1534.62 1152.74 1537.81 M1132.79 1550.25 Q1132.79 1556.71 1135.43 1560.4 Q1138.1 1564.07 1142.75 1564.07 Q1147.4 1564.07 1150.07 1560.4 Q1152.74 1556.71 1152.74 1550.25 Q1152.74 1543.79 1150.07 1540.13 Q1147.4 1536.44 1142.75 1536.44 Q1138.1 1536.44 1135.43 1540.13 Q1132.79 1543.79 1132.79 1550.25 Z" fill="#000000" fill-rule="nonzero" fill-opacity="1" /><path clip-path="url(#clip990)" d="M1207.52 1526.86 L1198.8 1550.51 L1216.27 1550.51 L1207.52 1526.86 M1203.89 1520.52 L1211.18 1520.52 L1229.29 1568.04 L1222.61 1568.04 L1218.28 1555.85 L1196.86 1555.85 L1192.53 1568.04 L1185.75 1568.04 L1203.89 1520.52 Z" fill="#000000" fill-rule="nonzero" fill-opacity="1" /><path clip-path="url(#clip990)" d="M1292.53 1524.18 L1292.53 1530.96 Q1289.29 1527.94 1285.59 1526.44 Q1281.93 1524.95 1277.8 1524.95 Q1269.65 1524.95 1265.32 1529.95 Q1260.99 1534.91 1260.99 1544.33 Q1260.99 1553.72 1265.32 1558.72 Q1269.65 1563.68 1277.8 1563.68 Q1281.93 1563.68 1285.59 1562.19 Q1289.29 1560.69 1292.53 1557.67 L1292.53 1564.38 Q1289.16 1566.68 1285.37 1567.82 Q1281.62 1568.97 1277.42 1568.97 Q1266.63 1568.97 1260.42 1562.38 Q1254.21 1555.76 1254.21 1544.33 Q1254.21 1532.87 1260.42 1526.28 Q1266.63 1519.66 1277.42 1519.66 Q1281.68 1519.66 1285.44 1520.81 Q1289.22 1521.92 1292.53 1524.18 Z" fill="#000000" fill-rule="nonzero" fill-opacity="1" /><path clip-path="url(#clip990)" d="M1301.6 1553.98 L1301.6 1532.4 L1307.46 1532.4 L1307.46 1553.75 Q1307.46 1558.81 1309.43 1561.36 Q1311.41 1563.87 1315.35 1563.87 Q1320.1 1563.87 1322.83 1560.85 Q1325.6 1557.83 1325.6 1552.61 L1325.6 1532.4 L1331.46 1532.4 L1331.46 1568.04 L1325.6 1568.04 L1325.6 1562.57 Q1323.47 1565.82 1320.64 1567.41 Q1317.84 1568.97 1314.11 1568.97 Q1307.97 1568.97 1304.79 1565.15 Q1301.6 1561.33 1301.6 1553.98 M1316.34 1531.54 L1316.34 1531.54 Z" fill="#000000" fill-rule="nonzero" fill-opacity="1" /><path clip-path="url(#clip990)" d="M1349.32 1522.27 L1349.32 1532.4 L1361.38 1532.4 L1361.38 1536.95 L1349.32 1536.95 L1349.32 1556.3 Q1349.32 1560.66 1350.49 1561.9 Q1351.7 1563.14 1355.36 1563.14 L1361.38 1563.14 L1361.38 1568.04 L1355.36 1568.04 Q1348.58 1568.04 1346.01 1565.53 Q1343.43 1562.98 1343.43 1556.3 L1343.43 1536.95 L1339.13 1536.95 L1339.13 1532.4 L1343.43 1532.4 L1343.43 1522.27 L1349.32 1522.27 Z" fill="#000000" fill-rule="nonzero" fill-opacity="1" /><path clip-path="url(#clip990)" d="M1374.87 1522.27 L1374.87 1532.4 L1386.94 1532.4 L1386.94 1536.95 L1374.87 1536.95 L1374.87 1556.3 Q1374.87 1560.66 1376.05 1561.9 Q1377.26 1563.14 1380.92 1563.14 L1386.94 1563.14 L1386.94 1568.04 L1380.92 1568.04 Q1374.14 1568.04 1371.56 1565.53 Q1368.99 1562.98 1368.99 1556.3 L1368.99 1536.95 L1364.69 1536.95 L1364.69 1532.4 L1368.99 1532.4 L1368.99 1522.27 L1374.87 1522.27 Z" fill="#000000" fill-rule="nonzero" fill-opacity="1" /><path clip-path="url(#clip990)" d="M1394.64 1532.4 L1400.5 1532.4 L1400.5 1568.04 L1394.64 1568.04 L1394.64 1532.4 M1394.64 1518.52 L1400.5 1518.52 L1400.5 1525.93 L1394.64 1525.93 L1394.64 1518.52 Z" fill="#000000" fill-rule="nonzero" fill-opacity="1" /><path clip-path="url(#clip990)" d="M1442.38 1546.53 L1442.38 1568.04 L1436.53 1568.04 L1436.53 1546.72 Q1436.53 1541.66 1434.55 1539.14 Q1432.58 1536.63 1428.63 1536.63 Q1423.89 1536.63 1421.15 1539.65 Q1418.42 1542.68 1418.42 1547.9 L1418.42 1568.04 L1412.53 1568.04 L1412.53 1532.4 L1418.42 1532.4 L1418.42 1537.93 Q1420.52 1534.72 1423.35 1533.13 Q1426.21 1531.54 1429.94 1531.54 Q1436.08 1531.54 1439.23 1535.36 Q1442.38 1539.14 1442.38 1546.53 Z" fill="#000000" fill-rule="nonzero" fill-opacity="1" /><path clip-path="url(#clip990)" d="M1477.52 1549.81 Q1477.52 1543.44 1474.88 1539.94 Q1472.27 1536.44 1467.53 1536.44 Q1462.82 1536.44 1460.17 1539.94 Q1457.56 1543.44 1457.56 1549.81 Q1457.56 1556.14 1460.17 1559.64 Q1462.82 1563.14 1467.53 1563.14 Q1472.27 1563.14 1474.88 1559.64 Q1477.52 1556.14 1477.52 1549.81 M1483.38 1563.62 Q1483.38 1572.72 1479.34 1577.15 Q1475.29 1581.6 1466.95 1581.6 Q1463.87 1581.6 1461.13 1581.13 Q1458.39 1580.68 1455.81 1579.72 L1455.81 1574.03 Q1458.39 1575.43 1460.91 1576.1 Q1463.42 1576.76 1466.03 1576.76 Q1471.79 1576.76 1474.66 1573.74 Q1477.52 1570.75 1477.52 1564.67 L1477.52 1561.77 Q1475.71 1564.92 1472.87 1566.48 Q1470.04 1568.04 1466.09 1568.04 Q1459.54 1568.04 1455.53 1563.05 Q1451.52 1558.05 1451.52 1549.81 Q1451.52 1541.53 1455.53 1536.53 Q1459.54 1531.54 1466.09 1531.54 Q1470.04 1531.54 1472.87 1533.1 Q1475.71 1534.66 1477.52 1537.81 L1477.52 1532.4 L1483.38 1532.4 L1483.38 1563.62 Z" fill="#000000" fill-rule="nonzero" fill-opacity="1" /><path clip-path="url(#clip990)" d="M1538.95 1545.76 Q1541.02 1546.46 1542.96 1548.76 Q1544.93 1551.05 1546.91 1555.06 L1553.43 1568.04 L1546.53 1568.04 L1540.45 1555.85 Q1538.09 1551.08 1535.86 1549.52 Q1533.67 1547.96 1529.85 1547.96 L1522.84 1547.96 L1522.84 1568.04 L1516.42 1568.04 L1516.42 1520.52 L1530.93 1520.52 Q1539.08 1520.52 1543.09 1523.93 Q1547.1 1527.34 1547.1 1534.21 Q1547.1 1538.7 1545 1541.66 Q1542.93 1544.62 1538.95 1545.76 M1522.84 1525.81 L1522.84 1542.68 L1530.93 1542.68 Q1535.58 1542.68 1537.93 1540.54 Q1540.32 1538.38 1540.32 1534.21 Q1540.32 1530.04 1537.93 1527.94 Q1535.58 1525.81 1530.93 1525.81 L1522.84 1525.81 Z" fill="#000000" fill-rule="nonzero" fill-opacity="1" /><path clip-path="url(#clip990)" d="M1576.22 1550.12 Q1569.12 1550.12 1566.39 1551.75 Q1563.65 1553.37 1563.65 1557.29 Q1563.65 1560.4 1565.69 1562.25 Q1567.75 1564.07 1571.29 1564.07 Q1576.16 1564.07 1579.09 1560.63 Q1582.05 1557.16 1582.05 1551.43 L1582.05 1550.12 L1576.22 1550.12 M1587.9 1547.71 L1587.9 1568.04 L1582.05 1568.04 L1582.05 1562.63 Q1580.04 1565.88 1577.05 1567.44 Q1574.06 1568.97 1569.73 1568.97 Q1564.25 1568.97 1561.01 1565.91 Q1557.79 1562.82 1557.79 1557.67 Q1557.79 1551.65 1561.8 1548.6 Q1565.85 1545.54 1573.83 1545.54 L1582.05 1545.54 L1582.05 1544.97 Q1582.05 1540.93 1579.37 1538.73 Q1576.73 1536.5 1571.92 1536.5 Q1568.87 1536.5 1565.97 1537.23 Q1563.08 1537.97 1560.4 1539.43 L1560.4 1534.02 Q1563.62 1532.78 1566.64 1532.17 Q1569.66 1531.54 1572.53 1531.54 Q1580.26 1531.54 1584.08 1535.55 Q1587.9 1539.56 1587.9 1547.71 Z" fill="#000000" fill-rule="nonzero" fill-opacity="1" /><path clip-path="url(#clip990)" d="M1605.76 1522.27 L1605.76 1532.4 L1617.82 1532.4 L1617.82 1536.95 L1605.76 1536.95 L1605.76 1556.3 Q1605.76 1560.66 1606.94 1561.9 Q1608.15 1563.14 1611.81 1563.14 L1617.82 1563.14 L1617.82 1568.04 L1611.81 1568.04 Q1605.03 1568.04 1602.45 1565.53 Q1599.87 1562.98 1599.87 1556.3 L1599.87 1536.95 L1595.57 1536.95 L1595.57 1532.4 L1599.87 1532.4 L1599.87 1522.27 L1605.76 1522.27 Z" fill="#000000" fill-rule="nonzero" fill-opacity="1" /><path clip-path="url(#clip990)" d="M1656.02 1548.76 L1656.02 1551.62 L1629.09 1551.62 Q1629.47 1557.67 1632.72 1560.85 Q1636 1564 1641.82 1564 Q1645.19 1564 1648.34 1563.17 Q1651.53 1562.35 1654.65 1560.69 L1654.65 1566.23 Q1651.5 1567.57 1648.19 1568.27 Q1644.88 1568.97 1641.47 1568.97 Q1632.94 1568.97 1627.94 1564 Q1622.98 1559.04 1622.98 1550.57 Q1622.98 1541.82 1627.69 1536.69 Q1632.43 1531.54 1640.45 1531.54 Q1647.64 1531.54 1651.81 1536.18 Q1656.02 1540.8 1656.02 1548.76 M1650.16 1547.04 Q1650.1 1542.23 1647.45 1539.37 Q1644.84 1536.5 1640.51 1536.5 Q1635.61 1536.5 1632.65 1539.27 Q1629.73 1542.04 1629.28 1547.07 L1650.16 1547.04 Z" fill="#000000" fill-rule="nonzero" fill-opacity="1" /><polyline clip-path="url(#clip990)" style="stroke:#000000; stroke-linecap:round; stroke-linejoin:round; stroke-width:4; stroke-opacity:1; fill:none" points="219.866,1423.18 219.866,123.472 "/>
<polyline clip-path="url(#clip990)" style="stroke:#000000; stroke-linecap:round; stroke-linejoin:round; stroke-width:4; stroke-opacity:1; fill:none" points="219.866,1423.18 238.764,1423.18 "/>
<polyline clip-path="url(#clip990)" style="stroke:#000000; stroke-linecap:round; stroke-linejoin:round; stroke-width:4; stroke-opacity:1; fill:none" points="219.866,1163.24 238.764,1163.24 "/>
<polyline clip-path="url(#clip990)" style="stroke:#000000; stroke-linecap:round; stroke-linejoin:round; stroke-width:4; stroke-opacity:1; fill:none" points="219.866,903.297 238.764,903.297 "/>
<polyline clip-path="url(#clip990)" style="stroke:#000000; stroke-linecap:round; stroke-linejoin:round; stroke-width:4; stroke-opacity:1; fill:none" points="219.866,643.355 238.764,643.355 "/>
<polyline clip-path="url(#clip990)" style="stroke:#000000; stroke-linecap:round; stroke-linejoin:round; stroke-width:4; stroke-opacity:1; fill:none" points="219.866,383.414 238.764,383.414 "/>
<polyline clip-path="url(#clip990)" style="stroke:#000000; stroke-linecap:round; stroke-linejoin:round; stroke-width:4; stroke-opacity:1; fill:none" points="219.866,123.472 238.764,123.472 "/>
<path clip-path="url(#clip990)" d="M126.691 1408.98 Q123.08 1408.98 121.251 1412.54 Q119.445 1416.08 119.445 1423.21 Q119.445 1430.32 121.251 1433.89 Q123.08 1437.43 126.691 1437.43 Q130.325 1437.43 132.13 1433.89 Q133.959 1430.32 133.959 1423.21 Q133.959 1416.08 132.13 1412.54 Q130.325 1408.98 126.691 1408.98 M126.691 1405.27 Q132.501 1405.27 135.556 1409.88 Q138.635 1414.46 138.635 1423.21 Q138.635 1431.94 135.556 1436.55 Q132.501 1441.13 126.691 1441.13 Q120.88 1441.13 117.802 1436.55 Q114.746 1431.94 114.746 1423.21 Q114.746 1414.46 117.802 1409.88 Q120.88 1405.27 126.691 1405.27 Z" fill="#000000" fill-rule="nonzero" fill-opacity="1" /><path clip-path="url(#clip990)" d="M146.853 1434.58 L151.737 1434.58 L151.737 1440.46 L146.853 1440.46 L146.853 1434.58 Z" fill="#000000" fill-rule="nonzero" fill-opacity="1" /><path clip-path="url(#clip990)" d="M171.922 1408.98 Q168.311 1408.98 166.482 1412.54 Q164.677 1416.08 164.677 1423.21 Q164.677 1430.32 166.482 1433.89 Q168.311 1437.43 171.922 1437.43 Q175.556 1437.43 177.362 1433.89 Q179.19 1430.32 179.19 1423.21 Q179.19 1416.08 177.362 1412.54 Q175.556 1408.98 171.922 1408.98 M171.922 1405.27 Q177.732 1405.27 180.788 1409.88 Q183.866 1414.46 183.866 1423.21 Q183.866 1431.94 180.788 1436.55 Q177.732 1441.13 171.922 1441.13 Q166.112 1441.13 163.033 1436.55 Q159.978 1431.94 159.978 1423.21 Q159.978 1414.46 163.033 1409.88 Q166.112 1405.27 171.922 1405.27 Z" fill="#000000" fill-rule="nonzero" fill-opacity="1" /><path clip-path="url(#clip990)" d="M128.288 1149.04 Q124.677 1149.04 122.848 1152.6 Q121.043 1156.14 121.043 1163.27 Q121.043 1170.38 122.848 1173.94 Q124.677 1177.49 128.288 1177.49 Q131.922 1177.49 133.728 1173.94 Q135.556 1170.38 135.556 1163.27 Q135.556 1156.14 133.728 1152.6 Q131.922 1149.04 128.288 1149.04 M128.288 1145.33 Q134.098 1145.33 137.154 1149.94 Q140.232 1154.52 140.232 1163.27 Q140.232 1172 137.154 1176.61 Q134.098 1181.19 128.288 1181.19 Q122.478 1181.19 119.399 1176.61 Q116.343 1172 116.343 1163.27 Q116.343 1154.52 119.399 1149.94 Q122.478 1145.33 128.288 1145.33 Z" fill="#000000" fill-rule="nonzero" fill-opacity="1" /><path clip-path="url(#clip990)" d="M148.45 1174.64 L153.334 1174.64 L153.334 1180.52 L148.45 1180.52 L148.45 1174.64 Z" fill="#000000" fill-rule="nonzero" fill-opacity="1" /><path clip-path="url(#clip990)" d="M167.547 1176.58 L183.866 1176.58 L183.866 1180.52 L161.922 1180.52 L161.922 1176.58 Q164.584 1173.83 169.167 1169.2 Q173.774 1164.55 174.954 1163.2 Q177.2 1160.68 178.079 1158.94 Q178.982 1157.19 178.982 1155.5 Q178.982 1152.74 177.038 1151 Q175.116 1149.27 172.014 1149.27 Q169.815 1149.27 167.362 1150.03 Q164.931 1150.8 162.153 1152.35 L162.153 1147.62 Q164.977 1146.49 167.431 1145.91 Q169.885 1145.33 171.922 1145.33 Q177.292 1145.33 180.487 1148.02 Q183.681 1150.7 183.681 1155.19 Q183.681 1157.32 182.871 1159.25 Q182.084 1161.14 179.977 1163.74 Q179.399 1164.41 176.297 1167.62 Q173.195 1170.82 167.547 1176.58 Z" fill="#000000" fill-rule="nonzero" fill-opacity="1" /><path clip-path="url(#clip990)" d="M126.205 889.095 Q122.593 889.095 120.765 892.66 Q118.959 896.202 118.959 903.331 Q118.959 910.438 120.765 914.003 Q122.593 917.544 126.205 917.544 Q129.839 917.544 131.644 914.003 Q133.473 910.438 133.473 903.331 Q133.473 896.202 131.644 892.66 Q129.839 889.095 126.205 889.095 M126.205 885.392 Q132.015 885.392 135.07 889.998 Q138.149 894.582 138.149 903.331 Q138.149 912.058 135.07 916.665 Q132.015 921.248 126.205 921.248 Q120.394 921.248 117.316 916.665 Q114.26 912.058 114.26 903.331 Q114.26 894.582 117.316 889.998 Q120.394 885.392 126.205 885.392 Z" fill="#000000" fill-rule="nonzero" fill-opacity="1" /><path clip-path="url(#clip990)" d="M146.366 914.697 L151.251 914.697 L151.251 920.577 L146.366 920.577 L146.366 914.697 Z" fill="#000000" fill-rule="nonzero" fill-opacity="1" /><path clip-path="url(#clip990)" d="M174.283 890.091 L162.477 908.54 L174.283 908.54 L174.283 890.091 M173.056 886.017 L178.936 886.017 L178.936 908.54 L183.866 908.54 L183.866 912.429 L178.936 912.429 L178.936 920.577 L174.283 920.577 L174.283 912.429 L158.681 912.429 L158.681 907.915 L173.056 886.017 Z" fill="#000000" fill-rule="nonzero" fill-opacity="1" /><path clip-path="url(#clip990)" d="M126.529 629.154 Q122.918 629.154 121.089 632.719 Q119.283 636.26 119.283 643.39 Q119.283 650.496 121.089 654.061 Q122.918 657.603 126.529 657.603 Q130.163 657.603 131.968 654.061 Q133.797 650.496 133.797 643.39 Q133.797 636.26 131.968 632.719 Q130.163 629.154 126.529 629.154 M126.529 625.45 Q132.339 625.45 135.394 630.057 Q138.473 634.64 138.473 643.39 Q138.473 652.117 135.394 656.723 Q132.339 661.307 126.529 661.307 Q120.718 661.307 117.64 656.723 Q114.584 652.117 114.584 643.39 Q114.584 634.64 117.64 630.057 Q120.718 625.45 126.529 625.45 Z" fill="#000000" fill-rule="nonzero" fill-opacity="1" /><path clip-path="url(#clip990)" d="M146.691 654.756 L151.575 654.756 L151.575 660.635 L146.691 660.635 L146.691 654.756 Z" fill="#000000" fill-rule="nonzero" fill-opacity="1" /><path clip-path="url(#clip990)" d="M172.339 641.492 Q169.19 641.492 167.339 643.645 Q165.51 645.797 165.51 649.547 Q165.51 653.274 167.339 655.45 Q169.19 657.603 172.339 657.603 Q175.487 657.603 177.315 655.45 Q179.167 653.274 179.167 649.547 Q179.167 645.797 177.315 643.645 Q175.487 641.492 172.339 641.492 M181.621 626.839 L181.621 631.098 Q179.862 630.265 178.056 629.825 Q176.274 629.385 174.514 629.385 Q169.885 629.385 167.431 632.51 Q165.001 635.635 164.653 641.955 Q166.019 639.941 168.079 638.876 Q170.139 637.788 172.616 637.788 Q177.825 637.788 180.834 640.959 Q183.866 644.108 183.866 649.547 Q183.866 654.871 180.718 658.089 Q177.57 661.307 172.339 661.307 Q166.343 661.307 163.172 656.723 Q160.001 652.117 160.001 643.39 Q160.001 635.196 163.89 630.334 Q167.778 625.45 174.329 625.45 Q176.089 625.45 177.871 625.797 Q179.676 626.145 181.621 626.839 Z" fill="#000000" fill-rule="nonzero" fill-opacity="1" /><path clip-path="url(#clip990)" d="M126.783 369.212 Q123.172 369.212 121.343 372.777 Q119.538 376.319 119.538 383.448 Q119.538 390.555 121.343 394.12 Q123.172 397.661 126.783 397.661 Q130.417 397.661 132.223 394.12 Q134.052 390.555 134.052 383.448 Q134.052 376.319 132.223 372.777 Q130.417 369.212 126.783 369.212 M126.783 365.509 Q132.593 365.509 135.649 370.115 Q138.728 374.698 138.728 383.448 Q138.728 392.175 135.649 396.782 Q132.593 401.365 126.783 401.365 Q120.973 401.365 117.894 396.782 Q114.839 392.175 114.839 383.448 Q114.839 374.698 117.894 370.115 Q120.973 365.509 126.783 365.509 Z" fill="#000000" fill-rule="nonzero" fill-opacity="1" /><path clip-path="url(#clip990)" d="M146.945 394.814 L151.829 394.814 L151.829 400.694 L146.945 400.694 L146.945 394.814 Z" fill="#000000" fill-rule="nonzero" fill-opacity="1" /><path clip-path="url(#clip990)" d="M172.014 384.282 Q168.681 384.282 166.76 386.064 Q164.862 387.847 164.862 390.971 Q164.862 394.096 166.76 395.879 Q168.681 397.661 172.014 397.661 Q175.348 397.661 177.269 395.879 Q179.19 394.073 179.19 390.971 Q179.19 387.847 177.269 386.064 Q175.371 384.282 172.014 384.282 M167.339 382.291 Q164.329 381.55 162.64 379.49 Q160.973 377.43 160.973 374.467 Q160.973 370.323 163.913 367.916 Q166.876 365.509 172.014 365.509 Q177.176 365.509 180.116 367.916 Q183.056 370.323 183.056 374.467 Q183.056 377.43 181.366 379.49 Q179.7 381.55 176.714 382.291 Q180.093 383.078 181.968 385.37 Q183.866 387.661 183.866 390.971 Q183.866 395.995 180.788 398.68 Q177.732 401.365 172.014 401.365 Q166.297 401.365 163.218 398.68 Q160.163 395.995 160.163 390.971 Q160.163 387.661 162.061 385.37 Q163.959 383.078 167.339 382.291 M165.626 374.907 Q165.626 377.592 167.292 379.097 Q168.982 380.601 172.014 380.601 Q175.024 380.601 176.714 379.097 Q178.426 377.592 178.426 374.907 Q178.426 372.222 176.714 370.717 Q175.024 369.212 172.014 369.212 Q168.982 369.212 167.292 370.717 Q165.626 372.222 165.626 374.907 Z" fill="#000000" fill-rule="nonzero" fill-opacity="1" /><path clip-path="url(#clip990)" d="M117.501 136.817 L125.14 136.817 L125.14 110.451 L116.83 112.118 L116.83 107.859 L125.093 106.192 L129.769 106.192 L129.769 136.817 L137.408 136.817 L137.408 140.752 L117.501 140.752 L117.501 136.817 Z" fill="#000000" fill-rule="nonzero" fill-opacity="1" /><path clip-path="url(#clip990)" d="M146.853 134.873 L151.737 134.873 L151.737 140.752 L146.853 140.752 L146.853 134.873 Z" fill="#000000" fill-rule="nonzero" fill-opacity="1" /><path clip-path="url(#clip990)" d="M171.922 109.271 Q168.311 109.271 166.482 112.836 Q164.677 116.377 164.677 123.507 Q164.677 130.613 166.482 134.178 Q168.311 137.72 171.922 137.72 Q175.556 137.72 177.362 134.178 Q179.19 130.613 179.19 123.507 Q179.19 116.377 177.362 112.836 Q175.556 109.271 171.922 109.271 M171.922 105.567 Q177.732 105.567 180.788 110.174 Q183.866 114.757 183.866 123.507 Q183.866 132.234 180.788 136.84 Q177.732 141.423 171.922 141.423 Q166.112 141.423 163.033 136.84 Q159.978 132.234 159.978 123.507 Q159.978 114.757 163.033 110.174 Q166.112 105.567 171.922 105.567 Z" fill="#000000" fill-rule="nonzero" fill-opacity="1" /><path clip-path="url(#clip990)" d="M16.4842 1026.33 L16.4842 1016.75 L48.8219 1004.62 L16.4842 992.434 L16.4842 982.853 L64.0042 982.853 L64.0042 989.123 L22.277 989.123 L54.8694 1001.38 L54.8694 1007.84 L22.277 1020.09 L64.0042 1020.09 L64.0042 1026.33 L16.4842 1026.33 Z" fill="#000000" fill-rule="nonzero" fill-opacity="1" /><path clip-path="url(#clip990)" d="M32.4621 956.531 Q32.4621 961.242 36.1542 963.979 Q39.8145 966.716 46.212 966.716 Q52.6095 966.716 56.3017 964.011 Q59.9619 961.273 59.9619 956.531 Q59.9619 951.852 56.2698 949.115 Q52.5777 946.378 46.212 946.378 Q39.8781 946.378 36.186 949.115 Q32.4621 951.852 32.4621 956.531 M27.4968 956.531 Q27.4968 948.892 32.4621 944.532 Q37.4273 940.171 46.212 940.171 Q54.9649 940.171 59.9619 944.532 Q64.9272 948.892 64.9272 956.531 Q64.9272 964.202 59.9619 968.562 Q54.9649 972.891 46.212 972.891 Q37.4273 972.891 32.4621 968.562 Q27.4968 964.202 27.4968 956.531 Z" fill="#000000" fill-rule="nonzero" fill-opacity="1" /><path clip-path="url(#clip990)" d="M33.7671 907.006 L14.479 907.006 L14.479 901.149 L64.0042 901.149 L64.0042 907.006 L58.657 907.006 Q61.8398 908.852 63.3994 911.685 Q64.9272 914.486 64.9272 918.432 Q64.9272 924.893 59.771 928.968 Q54.6147 933.01 46.212 933.01 Q37.8093 933.01 32.6531 928.968 Q27.4968 924.893 27.4968 918.432 Q27.4968 914.486 29.0564 911.685 Q30.5842 908.852 33.7671 907.006 M46.212 926.962 Q52.6732 926.962 56.3653 924.321 Q60.0256 921.647 60.0256 917 Q60.0256 912.353 56.3653 909.679 Q52.6732 907.006 46.212 907.006 Q39.7508 907.006 36.0905 909.679 Q32.3984 912.353 32.3984 917 Q32.3984 921.647 36.0905 924.321 Q39.7508 926.962 46.212 926.962 Z" fill="#000000" fill-rule="nonzero" fill-opacity="1" /><path clip-path="url(#clip990)" d="M49.9359 889.691 L28.3562 889.691 L28.3562 883.835 L49.7131 883.835 Q54.7739 883.835 57.3202 881.861 Q59.8346 879.888 59.8346 875.941 Q59.8346 871.199 56.8109 868.461 Q53.7872 865.692 48.5673 865.692 L28.3562 865.692 L28.3562 859.836 L64.0042 859.836 L64.0042 865.692 L58.5296 865.692 Q61.7762 867.825 63.3676 870.658 Q64.9272 873.459 64.9272 877.182 Q64.9272 883.325 61.1078 886.508 Q57.2883 889.691 49.9359 889.691 M27.4968 874.954 L27.4968 874.954 Z" fill="#000000" fill-rule="nonzero" fill-opacity="1" /><path clip-path="url(#clip990)" d="M14.479 847.773 L14.479 841.916 L64.0042 841.916 L64.0042 847.773 L14.479 847.773 Z" fill="#000000" fill-rule="nonzero" fill-opacity="1" /><path clip-path="url(#clip990)" d="M44.7161 799.171 L47.5806 799.171 L47.5806 826.098 Q53.6281 825.716 56.8109 822.469 Q59.9619 819.191 59.9619 813.366 Q59.9619 809.992 59.1344 806.841 Q58.3069 803.659 56.6518 800.539 L62.1899 800.539 Q63.5267 803.69 64.227 807.001 Q64.9272 810.311 64.9272 813.716 Q64.9272 822.246 59.9619 827.244 Q54.9967 832.209 46.5303 832.209 Q37.7774 832.209 32.6531 827.498 Q27.4968 822.756 27.4968 814.735 Q27.4968 807.542 32.1438 803.372 Q36.7589 799.171 44.7161 799.171 M42.9973 805.027 Q38.1912 805.091 35.3266 807.733 Q32.4621 810.343 32.4621 814.671 Q32.4621 819.573 35.2312 822.533 Q38.0002 825.461 43.0292 825.907 L42.9973 805.027 Z" fill="#000000" fill-rule="nonzero" fill-opacity="1" /><path clip-path="url(#clip990)" d="M16.4842 768.584 L16.4842 741.275 L21.895 741.275 L21.895 762.154 L35.8996 762.154 L35.8996 743.312 L41.3104 743.312 L41.3104 762.154 L64.0042 762.154 L64.0042 768.584 L16.4842 768.584 Z" fill="#000000" fill-rule="nonzero" fill-opacity="1" /><path clip-path="url(#clip990)" d="M33.8307 715.43 Q33.2578 716.417 33.0032 717.594 Q32.7167 718.74 32.7167 720.141 Q32.7167 725.106 35.9632 727.779 Q39.1779 730.421 45.2253 730.421 L64.0042 730.421 L64.0042 736.309 L28.3562 736.309 L28.3562 730.421 L33.8944 730.421 Q30.6479 728.575 29.0883 725.615 Q27.4968 722.655 27.4968 718.422 Q27.4968 717.817 27.5923 717.085 Q27.656 716.353 27.8151 715.462 L33.8307 715.43 Z" fill="#000000" fill-rule="nonzero" fill-opacity="1" /><path clip-path="url(#clip990)" d="M46.0847 693.086 Q46.0847 700.184 47.7079 702.921 Q49.3312 705.659 53.2461 705.659 Q56.3653 705.659 58.2114 703.621 Q60.0256 701.553 60.0256 698.02 Q60.0256 693.15 56.5881 690.222 Q53.1188 687.262 47.3897 687.262 L46.0847 687.262 L46.0847 693.086 M43.6657 681.405 L64.0042 681.405 L64.0042 687.262 L58.5933 687.262 Q61.8398 689.267 63.3994 692.259 Q64.9272 695.251 64.9272 699.579 Q64.9272 705.054 61.8716 708.3 Q58.7843 711.515 53.6281 711.515 Q47.6125 711.515 44.5569 707.505 Q41.5014 703.462 41.5014 695.473 L41.5014 687.262 L40.9285 687.262 Q36.8862 687.262 34.6901 689.935 Q32.4621 692.577 32.4621 697.383 Q32.4621 700.439 33.1941 703.335 Q33.9262 706.231 35.3903 708.905 L29.9795 708.905 Q28.7381 705.69 28.1334 702.667 Q27.4968 699.643 27.4968 696.778 Q27.4968 689.044 31.5072 685.225 Q35.5176 681.405 43.6657 681.405 Z" fill="#000000" fill-rule="nonzero" fill-opacity="1" /><path clip-path="url(#clip990)" d="M29.7248 643.688 L35.1993 643.688 Q33.8307 646.171 33.1623 648.685 Q32.4621 651.168 32.4621 653.714 Q32.4621 659.412 36.0905 662.563 Q39.6872 665.714 46.212 665.714 Q52.7369 665.714 56.3653 662.563 Q59.9619 659.412 59.9619 653.714 Q59.9619 651.168 59.2935 648.685 Q58.5933 646.171 57.2247 643.688 L62.6355 643.688 Q63.7814 646.139 64.3543 648.781 Q64.9272 651.391 64.9272 654.351 Q64.9272 662.404 59.8664 667.146 Q54.8057 671.888 46.212 671.888 Q37.491 671.888 32.4939 667.114 Q27.4968 662.308 27.4968 653.969 Q27.4968 651.264 28.0697 648.685 Q28.6108 646.107 29.7248 643.688 Z" fill="#000000" fill-rule="nonzero" fill-opacity="1" /><path clip-path="url(#clip990)" d="M18.2347 627.71 L28.3562 627.71 L28.3562 615.647 L32.9077 615.647 L32.9077 627.71 L52.2594 627.71 Q56.6199 627.71 57.8613 626.533 Q59.1026 625.323 59.1026 621.663 L59.1026 615.647 L64.0042 615.647 L64.0042 621.663 Q64.0042 628.443 61.4897 631.021 Q58.9434 633.599 52.2594 633.599 L32.9077 633.599 L32.9077 637.896 L28.3562 637.896 L28.3562 633.599 L18.2347 633.599 L18.2347 627.71 Z" fill="#000000" fill-rule="nonzero" fill-opacity="1" /><path clip-path="url(#clip990)" d="M28.3562 607.945 L28.3562 602.088 L64.0042 602.088 L64.0042 607.945 L28.3562 607.945 M14.479 607.945 L14.479 602.088 L21.895 602.088 L21.895 607.945 L14.479 607.945 Z" fill="#000000" fill-rule="nonzero" fill-opacity="1" /><path clip-path="url(#clip990)" d="M32.4621 576.021 Q32.4621 580.732 36.1542 583.469 Q39.8145 586.206 46.212 586.206 Q52.6095 586.206 56.3017 583.501 Q59.9619 580.763 59.9619 576.021 Q59.9619 571.342 56.2698 568.605 Q52.5777 565.868 46.212 565.868 Q39.8781 565.868 36.186 568.605 Q32.4621 571.342 32.4621 576.021 M27.4968 576.021 Q27.4968 568.382 32.4621 564.022 Q37.4273 559.661 46.212 559.661 Q54.9649 559.661 59.9619 564.022 Q64.9272 568.382 64.9272 576.021 Q64.9272 583.692 59.9619 588.052 Q54.9649 592.381 46.212 592.381 Q37.4273 592.381 32.4621 588.052 Q27.4968 583.692 27.4968 576.021 Z" fill="#000000" fill-rule="nonzero" fill-opacity="1" /><path clip-path="url(#clip990)" d="M42.4881 520.321 L64.0042 520.321 L64.0042 526.177 L42.679 526.177 Q37.6183 526.177 35.1038 528.151 Q32.5894 530.124 32.5894 534.071 Q32.5894 538.813 35.6131 541.551 Q38.6368 544.288 43.8567 544.288 L64.0042 544.288 L64.0042 550.176 L28.3562 550.176 L28.3562 544.288 L33.8944 544.288 Q30.6797 542.187 29.0883 539.354 Q27.4968 536.49 27.4968 532.766 Q27.4968 526.623 31.3163 523.472 Q35.1038 520.321 42.4881 520.321 Z" fill="#000000" fill-rule="nonzero" fill-opacity="1" /><path clip-path="url(#clip990)" d="M681.167 18.8205 L681.167 41.5461 L691.456 41.5461 Q697.168 41.5461 700.287 38.5889 Q703.406 35.6318 703.406 30.163 Q703.406 24.7348 700.287 21.7777 Q697.168 18.8205 691.456 18.8205 L681.167 18.8205 M672.984 12.096 L691.456 12.096 Q701.624 12.096 706.809 16.714 Q712.035 21.2916 712.035 30.163 Q712.035 39.1155 706.809 43.6931 Q701.624 48.2706 691.456 48.2706 L681.167 48.2706 L681.167 72.576 L672.984 72.576 L672.984 12.096 Z" fill="#000000" fill-rule="nonzero" fill-opacity="1" /><path clip-path="url(#clip990)" d="M737.312 32.4315 Q731.317 32.4315 727.833 37.1306 Q724.349 41.7891 724.349 49.9314 Q724.349 58.0738 727.793 62.7728 Q731.276 67.4314 737.312 67.4314 Q743.267 67.4314 746.751 62.7323 Q750.235 58.0333 750.235 49.9314 Q750.235 41.8701 746.751 37.1711 Q743.267 32.4315 737.312 32.4315 M737.312 26.1121 Q747.034 26.1121 752.584 32.4315 Q758.134 38.7509 758.134 49.9314 Q758.134 61.0714 752.584 67.4314 Q747.034 73.7508 737.312 73.7508 Q727.55 73.7508 722 67.4314 Q716.491 61.0714 716.491 49.9314 Q716.491 38.7509 722 32.4315 Q727.55 26.1121 737.312 26.1121 Z" fill="#000000" fill-rule="nonzero" fill-opacity="1" /><path clip-path="url(#clip990)" d="M777.7 65.7705 L777.7 89.8329 L770.206 89.8329 L770.206 27.2059 L777.7 27.2059 L777.7 34.0924 Q780.049 30.0415 783.614 28.0971 Q787.219 26.1121 792.202 26.1121 Q800.466 26.1121 805.611 32.6746 Q810.796 39.2371 810.796 49.9314 Q810.796 60.6258 805.611 67.1883 Q800.466 73.7508 792.202 73.7508 Q787.219 73.7508 783.614 71.8063 Q780.049 69.8214 777.7 65.7705 M803.058 49.9314 Q803.058 41.7081 799.656 37.0496 Q796.293 32.3505 790.379 32.3505 Q784.465 32.3505 781.062 37.0496 Q777.7 41.7081 777.7 49.9314 Q777.7 58.1548 781.062 62.8538 Q784.465 67.5124 790.379 67.5124 Q796.293 67.5124 799.656 62.8538 Q803.058 58.1548 803.058 49.9314 Z" fill="#000000" fill-rule="nonzero" fill-opacity="1" /><path clip-path="url(#clip990)" d="M822.381 54.671 L822.381 27.2059 L829.835 27.2059 L829.835 54.3874 Q829.835 60.8284 832.347 64.0691 Q834.858 67.2693 839.881 67.2693 Q845.917 67.2693 849.401 63.421 Q852.925 59.5726 852.925 52.9291 L852.925 27.2059 L860.379 27.2059 L860.379 72.576 L852.925 72.576 L852.925 65.6084 Q850.211 69.7404 846.606 71.7658 Q843.041 73.7508 838.301 73.7508 Q830.483 73.7508 826.432 68.8897 Q822.381 64.0286 822.381 54.671 M841.137 26.1121 L841.137 26.1121 Z" fill="#000000" fill-rule="nonzero" fill-opacity="1" /><path clip-path="url(#clip990)" d="M875.732 9.54393 L883.185 9.54393 L883.185 72.576 L875.732 72.576 L875.732 9.54393 Z" fill="#000000" fill-rule="nonzero" fill-opacity="1" /><path clip-path="url(#clip990)" d="M919.4 49.7694 Q910.367 49.7694 906.883 51.8354 Q903.399 53.9013 903.399 58.8839 Q903.399 62.8538 905.992 65.2034 Q908.625 67.5124 913.122 67.5124 Q919.319 67.5124 923.046 63.1374 Q926.814 58.7219 926.814 51.4303 L926.814 49.7694 L919.4 49.7694 M934.267 46.6907 L934.267 72.576 L926.814 72.576 L926.814 65.6895 Q924.262 69.8214 920.454 71.8063 Q916.646 73.7508 911.137 73.7508 Q904.169 73.7508 900.037 69.8619 Q895.946 65.9325 895.946 59.3701 Q895.946 51.7138 901.05 47.825 Q906.194 43.9361 916.362 43.9361 L926.814 43.9361 L926.814 43.2069 Q926.814 38.0623 923.411 35.2672 Q920.049 32.4315 913.932 32.4315 Q910.043 32.4315 906.357 33.3632 Q902.67 34.295 899.267 36.1584 L899.267 29.2718 Q903.359 27.692 907.207 26.9223 Q911.056 26.1121 914.701 26.1121 Q924.545 26.1121 929.406 31.2163 Q934.267 36.3204 934.267 46.6907 Z" fill="#000000" fill-rule="nonzero" fill-opacity="1" /><path clip-path="url(#clip990)" d="M956.993 14.324 L956.993 27.2059 L972.346 27.2059 L972.346 32.9987 L956.993 32.9987 L956.993 57.6282 Q956.993 63.1779 958.492 64.7578 Q960.031 66.3376 964.69 66.3376 L972.346 66.3376 L972.346 72.576 L964.69 72.576 Q956.061 72.576 952.78 69.3758 Q949.499 66.1351 949.499 57.6282 L949.499 32.9987 L944.03 32.9987 L944.03 27.2059 L949.499 27.2059 L949.499 14.324 L956.993 14.324 Z" fill="#000000" fill-rule="nonzero" fill-opacity="1" /><path clip-path="url(#clip990)" d="M982.149 27.2059 L989.603 27.2059 L989.603 72.576 L982.149 72.576 L982.149 27.2059 M982.149 9.54393 L989.603 9.54393 L989.603 18.9825 L982.149 18.9825 L982.149 9.54393 Z" fill="#000000" fill-rule="nonzero" fill-opacity="1" /><path clip-path="url(#clip990)" d="M1022.78 32.4315 Q1016.78 32.4315 1013.3 37.1306 Q1009.82 41.7891 1009.82 49.9314 Q1009.82 58.0738 1013.26 62.7728 Q1016.74 67.4314 1022.78 67.4314 Q1028.73 67.4314 1032.22 62.7323 Q1035.7 58.0333 1035.7 49.9314 Q1035.7 41.8701 1032.22 37.1711 Q1028.73 32.4315 1022.78 32.4315 M1022.78 26.1121 Q1032.5 26.1121 1038.05 32.4315 Q1043.6 38.7509 1043.6 49.9314 Q1043.6 61.0714 1038.05 67.4314 Q1032.5 73.7508 1022.78 73.7508 Q1013.02 73.7508 1007.47 67.4314 Q1001.96 61.0714 1001.96 49.9314 Q1001.96 38.7509 1007.47 32.4315 Q1013.02 26.1121 1022.78 26.1121 Z" fill="#000000" fill-rule="nonzero" fill-opacity="1" /><path clip-path="url(#clip990)" d="M1093.67 45.1919 L1093.67 72.576 L1086.22 72.576 L1086.22 45.4349 Q1086.22 38.994 1083.71 35.7938 Q1081.19 32.5936 1076.17 32.5936 Q1070.13 32.5936 1066.65 36.4419 Q1063.17 40.2903 1063.17 46.9338 L1063.17 72.576 L1055.67 72.576 L1055.67 27.2059 L1063.17 27.2059 L1063.17 34.2544 Q1065.84 30.163 1069.45 28.1376 Q1073.09 26.1121 1077.83 26.1121 Q1085.65 26.1121 1089.66 30.9732 Q1093.67 35.7938 1093.67 45.1919 Z" fill="#000000" fill-rule="nonzero" fill-opacity="1" /><path clip-path="url(#clip990)" d="M1135.23 12.096 L1169.99 12.096 L1169.99 18.9825 L1143.42 18.9825 L1143.42 36.8065 L1167.4 36.8065 L1167.4 43.6931 L1143.42 43.6931 L1143.42 72.576 L1135.23 72.576 L1135.23 12.096 Z" fill="#000000" fill-rule="nonzero" fill-opacity="1" /><path clip-path="url(#clip990)" d="M1202.88 34.1734 Q1201.63 33.4443 1200.13 33.1202 Q1198.67 32.7556 1196.89 32.7556 Q1190.57 32.7556 1187.17 36.8875 Q1183.8 40.9789 1183.8 48.6757 L1183.8 72.576 L1176.31 72.576 L1176.31 27.2059 L1183.8 27.2059 L1183.8 34.2544 Q1186.15 30.1225 1189.92 28.1376 Q1193.69 26.1121 1199.07 26.1121 Q1199.84 26.1121 1200.78 26.2337 Q1201.71 26.3147 1202.84 26.5172 L1202.88 34.1734 Z" fill="#000000" fill-rule="nonzero" fill-opacity="1" /><path clip-path="url(#clip990)" d="M1231.32 49.7694 Q1222.29 49.7694 1218.8 51.8354 Q1215.32 53.9013 1215.32 58.8839 Q1215.32 62.8538 1217.91 65.2034 Q1220.54 67.5124 1225.04 67.5124 Q1231.24 67.5124 1234.97 63.1374 Q1238.73 58.7219 1238.73 51.4303 L1238.73 49.7694 L1231.32 49.7694 M1246.19 46.6907 L1246.19 72.576 L1238.73 72.576 L1238.73 65.6895 Q1236.18 69.8214 1232.37 71.8063 Q1228.57 73.7508 1223.06 73.7508 Q1216.09 73.7508 1211.96 69.8619 Q1207.87 65.9325 1207.87 59.3701 Q1207.87 51.7138 1212.97 47.825 Q1218.11 43.9361 1228.28 43.9361 L1238.73 43.9361 L1238.73 43.2069 Q1238.73 38.0623 1235.33 35.2672 Q1231.97 32.4315 1225.85 32.4315 Q1221.96 32.4315 1218.28 33.3632 Q1214.59 34.295 1211.19 36.1584 L1211.19 29.2718 Q1215.28 27.692 1219.13 26.9223 Q1222.98 26.1121 1226.62 26.1121 Q1236.46 26.1121 1241.33 31.2163 Q1246.19 36.3204 1246.19 46.6907 Z" fill="#000000" fill-rule="nonzero" fill-opacity="1" /><path clip-path="url(#clip990)" d="M1294.19 28.9478 L1294.19 35.9153 Q1291.03 34.1734 1287.83 33.3227 Q1284.67 32.4315 1281.43 32.4315 Q1274.18 32.4315 1270.17 37.0496 Q1266.16 41.6271 1266.16 49.9314 Q1266.16 58.2358 1270.17 62.8538 Q1274.18 67.4314 1281.43 67.4314 Q1284.67 67.4314 1287.83 66.5807 Q1291.03 65.6895 1294.19 63.9476 L1294.19 70.8341 Q1291.07 72.2924 1287.71 73.0216 Q1284.39 73.7508 1280.62 73.7508 Q1270.37 73.7508 1264.33 67.3098 Q1258.3 60.8689 1258.3 49.9314 Q1258.3 38.832 1264.38 32.472 Q1270.49 26.1121 1281.11 26.1121 Q1284.55 26.1121 1287.83 26.8413 Q1291.11 27.5299 1294.19 28.9478 Z" fill="#000000" fill-rule="nonzero" fill-opacity="1" /><path clip-path="url(#clip990)" d="M1314.53 14.324 L1314.53 27.2059 L1329.88 27.2059 L1329.88 32.9987 L1314.53 32.9987 L1314.53 57.6282 Q1314.53 63.1779 1316.02 64.7578 Q1317.56 66.3376 1322.22 66.3376 L1329.88 66.3376 L1329.88 72.576 L1322.22 72.576 Q1313.59 72.576 1310.31 69.3758 Q1307.03 66.1351 1307.03 57.6282 L1307.03 32.9987 L1301.56 32.9987 L1301.56 27.2059 L1307.03 27.2059 L1307.03 14.324 L1314.53 14.324 Z" fill="#000000" fill-rule="nonzero" fill-opacity="1" /><path clip-path="url(#clip990)" d="M1339.68 27.2059 L1347.14 27.2059 L1347.14 72.576 L1339.68 72.576 L1339.68 27.2059 M1339.68 9.54393 L1347.14 9.54393 L1347.14 18.9825 L1339.68 18.9825 L1339.68 9.54393 Z" fill="#000000" fill-rule="nonzero" fill-opacity="1" /><path clip-path="url(#clip990)" d="M1380.31 32.4315 Q1374.32 32.4315 1370.83 37.1306 Q1367.35 41.7891 1367.35 49.9314 Q1367.35 58.0738 1370.79 62.7728 Q1374.28 67.4314 1380.31 67.4314 Q1386.27 67.4314 1389.75 62.7323 Q1393.23 58.0333 1393.23 49.9314 Q1393.23 41.8701 1389.75 37.1711 Q1386.27 32.4315 1380.31 32.4315 M1380.31 26.1121 Q1390.03 26.1121 1395.58 32.4315 Q1401.13 38.7509 1401.13 49.9314 Q1401.13 61.0714 1395.58 67.4314 Q1390.03 73.7508 1380.31 73.7508 Q1370.55 73.7508 1365 67.4314 Q1359.49 61.0714 1359.49 49.9314 Q1359.49 38.7509 1365 32.4315 Q1370.55 26.1121 1380.31 26.1121 Z" fill="#000000" fill-rule="nonzero" fill-opacity="1" /><path clip-path="url(#clip990)" d="M1451.2 45.1919 L1451.2 72.576 L1443.75 72.576 L1443.75 45.4349 Q1443.75 38.994 1441.24 35.7938 Q1438.73 32.5936 1433.7 32.5936 Q1427.67 32.5936 1424.18 36.4419 Q1420.7 40.2903 1420.7 46.9338 L1420.7 72.576 L1413.21 72.576 L1413.21 27.2059 L1420.7 27.2059 L1420.7 34.2544 Q1423.37 30.163 1426.98 28.1376 Q1430.62 26.1121 1435.36 26.1121 Q1443.18 26.1121 1447.19 30.9732 Q1451.2 35.7938 1451.2 45.1919 Z" fill="#000000" fill-rule="nonzero" fill-opacity="1" /><path clip-path="url(#clip990)" d="M1487.09 27.2059 L1494.99 27.2059 L1509.17 65.2844 L1523.35 27.2059 L1531.25 27.2059 L1514.24 72.576 L1504.11 72.576 L1487.09 27.2059 Z" fill="#000000" fill-rule="nonzero" fill-opacity="1" /><path clip-path="url(#clip990)" d="M1570.46 28.5427 L1570.46 35.5912 Q1567.3 33.9709 1563.9 33.1607 Q1560.5 32.3505 1556.85 32.3505 Q1551.3 32.3505 1548.51 34.0519 Q1545.75 35.7533 1545.75 39.156 Q1545.75 41.7486 1547.74 43.2475 Q1549.72 44.7058 1555.72 46.0426 L1558.27 46.6097 Q1566.21 48.3111 1569.53 51.4303 Q1572.89 54.509 1572.89 60.0587 Q1572.89 66.3781 1567.87 70.0644 Q1562.89 73.7508 1554.14 73.7508 Q1550.49 73.7508 1546.52 73.0216 Q1542.59 72.3329 1538.22 70.9151 L1538.22 63.2184 Q1542.35 65.3654 1546.36 66.4591 Q1550.37 67.5124 1554.3 67.5124 Q1559.56 67.5124 1562.4 65.73 Q1565.24 63.9071 1565.24 60.6258 Q1565.24 57.5877 1563.17 55.9673 Q1561.14 54.3469 1554.22 52.8481 L1551.63 52.2405 Q1544.7 50.7821 1541.62 47.7845 Q1538.54 44.7463 1538.54 39.4801 Q1538.54 33.0797 1543.08 29.5959 Q1547.61 26.1121 1555.96 26.1121 Q1560.09 26.1121 1563.74 26.7198 Q1567.38 27.3274 1570.46 28.5427 Z" fill="#000000" fill-rule="nonzero" fill-opacity="1" /><path clip-path="url(#clip990)" d="M1656.75 16.7545 L1656.75 25.383 Q1652.61 21.5346 1647.92 19.6307 Q1643.26 17.7268 1637.99 17.7268 Q1627.62 17.7268 1622.11 24.0867 Q1616.6 30.4061 1616.6 42.3968 Q1616.6 54.3469 1622.11 60.7069 Q1627.62 67.0263 1637.99 67.0263 Q1643.26 67.0263 1647.92 65.1223 Q1652.61 63.2184 1656.75 59.3701 L1656.75 67.9175 Q1652.45 70.8341 1647.63 72.2924 Q1642.85 73.7508 1637.5 73.7508 Q1623.77 73.7508 1615.87 65.3654 Q1607.97 56.9395 1607.97 42.3968 Q1607.97 27.8135 1615.87 19.4281 Q1623.77 11.0023 1637.5 11.0023 Q1642.93 11.0023 1647.71 12.4606 Q1652.53 13.8784 1656.75 16.7545 Z" fill="#000000" fill-rule="nonzero" fill-opacity="1" /><path clip-path="url(#clip990)" d="M1668.29 54.671 L1668.29 27.2059 L1675.74 27.2059 L1675.74 54.3874 Q1675.74 60.8284 1678.26 64.0691 Q1680.77 67.2693 1685.79 67.2693 Q1691.83 67.2693 1695.31 63.421 Q1698.83 59.5726 1698.83 52.9291 L1698.83 27.2059 L1706.29 27.2059 L1706.29 72.576 L1698.83 72.576 L1698.83 65.6084 Q1696.12 69.7404 1692.52 71.7658 Q1688.95 73.7508 1684.21 73.7508 Q1676.39 73.7508 1672.34 68.8897 Q1668.29 64.0286 1668.29 54.671 M1687.05 26.1121 L1687.05 26.1121 Z" fill="#000000" fill-rule="nonzero" fill-opacity="1" /><path clip-path="url(#clip990)" d="M1729.01 14.324 L1729.01 27.2059 L1744.37 27.2059 L1744.37 32.9987 L1729.01 32.9987 L1729.01 57.6282 Q1729.01 63.1779 1730.51 64.7578 Q1732.05 66.3376 1736.71 66.3376 L1744.37 66.3376 L1744.37 72.576 L1736.71 72.576 Q1728.08 72.576 1724.8 69.3758 Q1721.52 66.1351 1721.52 57.6282 L1721.52 32.9987 L1716.05 32.9987 L1716.05 27.2059 L1721.52 27.2059 L1721.52 14.324 L1729.01 14.324 Z" fill="#000000" fill-rule="nonzero" fill-opacity="1" /><path clip-path="url(#clip990)" d="M1761.54 14.324 L1761.54 27.2059 L1776.9 27.2059 L1776.9 32.9987 L1761.54 32.9987 L1761.54 57.6282 Q1761.54 63.1779 1763.04 64.7578 Q1764.58 66.3376 1769.24 66.3376 L1776.9 66.3376 L1776.9 72.576 L1769.24 72.576 Q1760.61 72.576 1757.33 69.3758 Q1754.05 66.1351 1754.05 57.6282 L1754.05 32.9987 L1748.58 32.9987 L1748.58 27.2059 L1754.05 27.2059 L1754.05 14.324 L1761.54 14.324 Z" fill="#000000" fill-rule="nonzero" fill-opacity="1" /><path clip-path="url(#clip990)" d="M1786.7 27.2059 L1794.15 27.2059 L1794.15 72.576 L1786.7 72.576 L1786.7 27.2059 M1786.7 9.54393 L1794.15 9.54393 L1794.15 18.9825 L1786.7 18.9825 L1786.7 9.54393 Z" fill="#000000" fill-rule="nonzero" fill-opacity="1" /><path clip-path="url(#clip990)" d="M1847.46 45.1919 L1847.46 72.576 L1840.01 72.576 L1840.01 45.4349 Q1840.01 38.994 1837.5 35.7938 Q1834.99 32.5936 1829.96 32.5936 Q1823.93 32.5936 1820.44 36.4419 Q1816.96 40.2903 1816.96 46.9338 L1816.96 72.576 L1809.47 72.576 L1809.47 27.2059 L1816.96 27.2059 L1816.96 34.2544 Q1819.63 30.163 1823.24 28.1376 Q1826.88 26.1121 1831.62 26.1121 Q1839.44 26.1121 1843.45 30.9732 Q1847.46 35.7938 1847.46 45.1919 Z" fill="#000000" fill-rule="nonzero" fill-opacity="1" /><path clip-path="url(#clip990)" d="M1892.18 49.3643 Q1892.18 41.2625 1888.82 36.8065 Q1885.5 32.3505 1879.46 32.3505 Q1873.47 32.3505 1870.11 36.8065 Q1866.79 41.2625 1866.79 49.3643 Q1866.79 57.4256 1870.11 61.8816 Q1873.47 66.3376 1879.46 66.3376 Q1885.5 66.3376 1888.82 61.8816 Q1892.18 57.4256 1892.18 49.3643 M1899.64 66.9452 Q1899.64 78.5308 1894.49 84.1616 Q1889.35 89.8329 1878.74 89.8329 Q1874.81 89.8329 1871.32 89.2252 Q1867.84 88.6581 1864.56 87.4428 L1864.56 80.1917 Q1867.84 81.9741 1871.04 82.8248 Q1874.24 83.6755 1877.56 83.6755 Q1884.89 83.6755 1888.54 79.8271 Q1892.18 76.0193 1892.18 68.282 L1892.18 64.5957 Q1889.88 68.6061 1886.27 70.5911 Q1882.66 72.576 1877.64 72.576 Q1869.3 72.576 1864.19 66.2161 Q1859.09 59.8562 1859.09 49.3643 Q1859.09 38.832 1864.19 32.472 Q1869.3 26.1121 1877.64 26.1121 Q1882.66 26.1121 1886.27 28.0971 Q1889.88 30.082 1892.18 34.0924 L1892.18 27.2059 L1899.64 27.2059 L1899.64 66.9452 Z" fill="#000000" fill-rule="nonzero" fill-opacity="1" /><polyline clip-path="url(#clip992)" style="stroke:#fb8d58; stroke-linecap:round; stroke-linejoin:round; stroke-width:16; stroke-opacity:1; fill:none" points="280.231,348.705 300.556,354.825 320.881,361.631 341.206,368.897 361.53,376.493 381.855,384.345 402.18,392.403 422.505,400.616 442.83,408.988 463.155,417.496 483.48,426.126 503.804,434.87 524.129,443.693 544.454,452.622 564.779,461.646 585.104,470.762 605.429,479.937 625.753,489.205 646.078,498.556 666.403,507.979 686.728,517.472 707.053,527.048 727.378,536.703 747.703,546.42 768.027,556.219 788.352,566.098 808.677,576.048 829.002,586.076 849.327,596.187 869.652,606.378 889.977,616.647 910.301,627.003 930.626,637.448 950.951,647.976 971.276,658.597 991.601,669.312 1011.93,680.122 1032.25,691.031 1052.58,702.04 1072.9,713.158 1093.23,724.382 1113.55,735.714 1133.87,747.169 1154.2,758.738 1174.52,770.426 1194.85,782.253 1215.17,794.204 1235.5,806.287 1255.82,818.522 1276.15,830.892 1296.47,843.416 1316.8,856.099 1337.12,868.933 1357.45,881.944 1377.77,895.123 1398.1,908.469 1418.42,922.019 1438.75,935.745 1459.07,949.661 1479.4,963.8 1499.72,978.128 1520.05,992.684 1540.37,1007.46 1560.7,1022.45 1581.02,1037.71 1601.35,1053.18 1621.67,1068.92 1642,1084.92 1662.32,1101.18 1682.65,1117.74 1702.97,1134.57 1723.3,1151.71 1743.62,1169.15 1763.95,1186.91 1784.27,1205.01 1804.59,1223.41 1824.92,1242.12 1845.24,1261.06 1865.57,1280.14 1885.89,1299.15 1906.22,1317.85 1926.54,1335.85 1946.87,1352.7 1967.19,1367.96 1987.52,1381.23 2007.84,1392.28 2028.17,1401.08 2048.49,1407.8 2068.82,1412.73 2089.14,1416.22 2109.47,1418.63 2129.79,1420.24 2150.12,1421.3 2170.44,1421.99 2190.77,1422.44 2211.09,1422.71 2231.42,1422.89 2251.74,1423 2272.07,1423.07 2292.39,1423.11 "/>
<polyline clip-path="url(#clip992)" style="stroke:#ffffbe; stroke-linecap:round; stroke-linejoin:round; stroke-width:16; stroke-opacity:1; fill:none" points="280.231,1197.95 300.556,1191.83 320.881,1185.02 341.206,1177.75 361.53,1170.16 381.855,1162.31 402.18,1154.25 422.505,1146.04 442.83,1137.66 463.155,1129.16 483.48,1120.53 503.804,1111.78 524.129,1102.96 544.454,1094.03 564.779,1085.01 585.104,1075.89 605.429,1066.72 625.753,1057.45 646.078,1048.1 666.403,1038.67 686.728,1029.18 707.053,1019.6 727.378,1009.95 747.703,1000.23 768.027,990.433 788.352,980.554 808.677,970.604 829.002,960.576 849.327,950.465 869.652,940.274 889.977,930.005 910.301,919.648 930.626,909.204 950.951,898.676 971.276,888.055 991.601,877.34 1011.93,866.53 1032.25,855.621 1052.58,844.612 1072.9,833.494 1093.23,822.27 1113.55,810.938 1133.87,799.483 1154.2,787.914 1174.52,776.226 1194.85,764.398 1215.17,752.448 1235.5,740.365 1255.82,728.13 1276.15,715.76 1296.47,703.236 1316.8,690.553 1337.12,677.718 1357.45,664.708 1377.77,651.529 1398.1,638.183 1418.42,624.633 1438.75,610.907 1459.07,596.991 1479.4,582.852 1499.72,568.524 1520.05,553.968 1540.37,539.193 1560.7,524.204 1581.02,508.947 1601.35,493.468 1621.67,477.729 1642,461.728 1662.32,445.477 1682.65,428.914 1702.97,412.086 1723.3,394.945 1743.62,377.501 1763.95,359.739 1784.27,341.643 1804.59,323.246 1824.92,304.528 1845.24,285.597 1865.57,266.511 1885.89,247.501 1906.22,228.797 1926.54,210.803 1946.87,193.949 1967.19,178.693 1987.52,165.427 2007.84,154.376 2028.17,145.57 2048.49,138.851 2068.82,133.922 2089.14,130.429 2109.47,128.025 2129.79,126.41 2150.12,125.347 2170.44,124.658 2190.77,124.217 2211.09,123.937 2231.42,123.761 2251.74,123.651 2272.07,123.583 2292.39,123.54 "/>
<path clip-path="url(#clip990)" d="M1069.09 322.316 L1503.53 322.316 L1503.53 166.796 L1069.09 166.796  Z" fill="#ffffff" fill-rule="evenodd" fill-opacity="1"/>
<polyline clip-path="url(#clip990)" style="stroke:#000000; stroke-linecap:round; stroke-linejoin:round; stroke-width:4; stroke-opacity:1; fill:none" points="1069.09,322.316 1503.53,322.316 1503.53,166.796 1069.09,166.796 1069.09,322.316 "/>
<polyline clip-path="url(#clip990)" style="stroke:#fb8d58; stroke-linecap:round; stroke-linejoin:round; stroke-width:16; stroke-opacity:1; fill:none" points="1092.79,218.636 1234.98,218.636 "/>
<path clip-path="url(#clip990)" d="M1263.35 205.198 L1263.35 218.184 L1269.23 218.184 Q1272.5 218.184 1274.28 216.495 Q1276.06 214.805 1276.06 211.68 Q1276.06 208.578 1274.28 206.888 Q1272.5 205.198 1269.23 205.198 L1263.35 205.198 M1258.68 201.356 L1269.23 201.356 Q1275.04 201.356 1278.01 203.995 Q1280.99 206.61 1280.99 211.68 Q1280.99 216.795 1278.01 219.411 Q1275.04 222.027 1269.23 222.027 L1263.35 222.027 L1263.35 235.916 L1258.68 235.916 L1258.68 201.356 Z" fill="#000000" fill-rule="nonzero" fill-opacity="1" /><path clip-path="url(#clip990)" d="M1287.08 199.897 L1291.34 199.897 L1291.34 235.916 L1287.08 235.916 L1287.08 199.897 Z" fill="#000000" fill-rule="nonzero" fill-opacity="1" /><path clip-path="url(#clip990)" d="M1312.03 222.883 Q1306.87 222.883 1304.88 224.064 Q1302.89 225.244 1302.89 228.092 Q1302.89 230.36 1304.37 231.703 Q1305.88 233.022 1308.45 233.022 Q1311.99 233.022 1314.12 230.522 Q1316.27 227.999 1316.27 223.832 L1316.27 222.883 L1312.03 222.883 M1320.53 221.124 L1320.53 235.916 L1316.27 235.916 L1316.27 231.981 Q1314.81 234.342 1312.64 235.476 Q1310.46 236.587 1307.31 236.587 Q1303.33 236.587 1300.97 234.365 Q1298.63 232.119 1298.63 228.369 Q1298.63 223.994 1301.55 221.772 Q1304.49 219.55 1310.3 219.55 L1316.27 219.55 L1316.27 219.133 Q1316.27 216.194 1314.33 214.596 Q1312.41 212.976 1308.91 212.976 Q1306.69 212.976 1304.58 213.508 Q1302.47 214.041 1300.53 215.106 L1300.53 211.17 Q1302.87 210.268 1305.07 209.828 Q1307.27 209.365 1309.35 209.365 Q1314.97 209.365 1317.75 212.282 Q1320.53 215.198 1320.53 221.124 Z" fill="#000000" fill-rule="nonzero" fill-opacity="1" /><path clip-path="url(#clip990)" d="M1345.83 210.754 L1345.83 214.782 Q1344.03 213.856 1342.08 213.393 Q1340.14 212.93 1338.05 212.93 Q1334.88 212.93 1333.28 213.902 Q1331.71 214.874 1331.71 216.819 Q1331.71 218.3 1332.84 219.157 Q1333.98 219.99 1337.41 220.754 L1338.86 221.078 Q1343.4 222.05 1345.3 223.832 Q1347.22 225.592 1347.22 228.763 Q1347.22 232.374 1344.35 234.481 Q1341.5 236.587 1336.5 236.587 Q1334.42 236.587 1332.15 236.17 Q1329.91 235.777 1327.41 234.967 L1327.41 230.569 Q1329.77 231.795 1332.06 232.42 Q1334.35 233.022 1336.59 233.022 Q1339.6 233.022 1341.22 232.004 Q1342.84 230.962 1342.84 229.087 Q1342.84 227.351 1341.66 226.425 Q1340.51 225.499 1336.55 224.643 L1335.07 224.295 Q1331.11 223.462 1329.35 221.749 Q1327.59 220.013 1327.59 217.004 Q1327.59 213.346 1330.18 211.356 Q1332.78 209.365 1337.54 209.365 Q1339.91 209.365 1341.99 209.712 Q1344.07 210.059 1345.83 210.754 Z" fill="#000000" fill-rule="nonzero" fill-opacity="1" /><path clip-path="url(#clip990)" d="M1374.19 214.967 Q1375.78 212.096 1378.01 210.731 Q1380.23 209.365 1383.24 209.365 Q1387.29 209.365 1389.49 212.212 Q1391.69 215.036 1391.69 220.268 L1391.69 235.916 L1387.4 235.916 L1387.4 220.407 Q1387.4 216.68 1386.09 214.874 Q1384.77 213.069 1382.06 213.069 Q1378.75 213.069 1376.83 215.268 Q1374.9 217.467 1374.9 221.263 L1374.9 235.916 L1370.62 235.916 L1370.62 220.407 Q1370.62 216.657 1369.3 214.874 Q1367.98 213.069 1365.23 213.069 Q1361.97 213.069 1360.04 215.291 Q1358.12 217.49 1358.12 221.263 L1358.12 235.916 L1353.84 235.916 L1353.84 209.99 L1358.12 209.99 L1358.12 214.018 Q1359.58 211.633 1361.62 210.499 Q1363.65 209.365 1366.46 209.365 Q1369.28 209.365 1371.25 210.8 Q1373.24 212.235 1374.19 214.967 Z" fill="#000000" fill-rule="nonzero" fill-opacity="1" /><path clip-path="url(#clip990)" d="M1400.18 209.99 L1404.44 209.99 L1404.44 235.916 L1400.18 235.916 L1400.18 209.99 M1400.18 199.897 L1404.44 199.897 L1404.44 205.291 L1400.18 205.291 L1400.18 199.897 Z" fill="#000000" fill-rule="nonzero" fill-opacity="1" /><path clip-path="url(#clip990)" d="M1430.41 213.925 L1430.41 199.897 L1434.67 199.897 L1434.67 235.916 L1430.41 235.916 L1430.41 232.027 Q1429.07 234.342 1427.01 235.476 Q1424.97 236.587 1422.1 236.587 Q1417.4 236.587 1414.44 232.837 Q1411.5 229.087 1411.5 222.976 Q1411.5 216.865 1414.44 213.115 Q1417.4 209.365 1422.1 209.365 Q1424.97 209.365 1427.01 210.499 Q1429.07 211.61 1430.41 213.925 M1415.9 222.976 Q1415.9 227.675 1417.82 230.36 Q1419.77 233.022 1423.15 233.022 Q1426.53 233.022 1428.47 230.36 Q1430.41 227.675 1430.41 222.976 Q1430.41 218.277 1428.47 215.615 Q1426.53 212.93 1423.15 212.93 Q1419.77 212.93 1417.82 215.615 Q1415.9 218.277 1415.9 222.976 Z" fill="#000000" fill-rule="nonzero" fill-opacity="1" /><path clip-path="url(#clip990)" d="M1459.93 231.981 L1467.57 231.981 L1467.57 205.615 L1459.26 207.282 L1459.26 203.022 L1467.52 201.356 L1472.2 201.356 L1472.2 231.981 L1479.83 231.981 L1479.83 235.916 L1459.93 235.916 L1459.93 231.981 Z" fill="#000000" fill-rule="nonzero" fill-opacity="1" /><polyline clip-path="url(#clip990)" style="stroke:#ffffbe; stroke-linecap:round; stroke-linejoin:round; stroke-width:16; stroke-opacity:1; fill:none" points="1092.79,270.476 1234.98,270.476 "/>
<path clip-path="url(#clip990)" d="M1263.35 257.038 L1263.35 270.024 L1269.23 270.024 Q1272.5 270.024 1274.28 268.335 Q1276.06 266.645 1276.06 263.52 Q1276.06 260.418 1274.28 258.728 Q1272.5 257.038 1269.23 257.038 L1263.35 257.038 M1258.68 253.196 L1269.23 253.196 Q1275.04 253.196 1278.01 255.835 Q1280.99 258.45 1280.99 263.52 Q1280.99 268.635 1278.01 271.251 Q1275.04 273.867 1269.23 273.867 L1263.35 273.867 L1263.35 287.756 L1258.68 287.756 L1258.68 253.196 Z" fill="#000000" fill-rule="nonzero" fill-opacity="1" /><path clip-path="url(#clip990)" d="M1287.08 251.737 L1291.34 251.737 L1291.34 287.756 L1287.08 287.756 L1287.08 251.737 Z" fill="#000000" fill-rule="nonzero" fill-opacity="1" /><path clip-path="url(#clip990)" d="M1312.03 274.723 Q1306.87 274.723 1304.88 275.904 Q1302.89 277.084 1302.89 279.932 Q1302.89 282.2 1304.37 283.543 Q1305.88 284.862 1308.45 284.862 Q1311.99 284.862 1314.12 282.362 Q1316.27 279.839 1316.27 275.672 L1316.27 274.723 L1312.03 274.723 M1320.53 272.964 L1320.53 287.756 L1316.27 287.756 L1316.27 283.821 Q1314.81 286.182 1312.64 287.316 Q1310.46 288.427 1307.31 288.427 Q1303.33 288.427 1300.97 286.205 Q1298.63 283.959 1298.63 280.209 Q1298.63 275.834 1301.55 273.612 Q1304.49 271.39 1310.3 271.39 L1316.27 271.39 L1316.27 270.973 Q1316.27 268.034 1314.33 266.436 Q1312.41 264.816 1308.91 264.816 Q1306.69 264.816 1304.58 265.348 Q1302.47 265.881 1300.53 266.946 L1300.53 263.01 Q1302.87 262.108 1305.07 261.668 Q1307.27 261.205 1309.35 261.205 Q1314.97 261.205 1317.75 264.122 Q1320.53 267.038 1320.53 272.964 Z" fill="#000000" fill-rule="nonzero" fill-opacity="1" /><path clip-path="url(#clip990)" d="M1345.83 262.594 L1345.83 266.622 Q1344.03 265.696 1342.08 265.233 Q1340.14 264.77 1338.05 264.77 Q1334.88 264.77 1333.28 265.742 Q1331.71 266.714 1331.71 268.659 Q1331.71 270.14 1332.84 270.997 Q1333.98 271.83 1337.41 272.594 L1338.86 272.918 Q1343.4 273.89 1345.3 275.672 Q1347.22 277.432 1347.22 280.603 Q1347.22 284.214 1344.35 286.321 Q1341.5 288.427 1336.5 288.427 Q1334.42 288.427 1332.15 288.01 Q1329.91 287.617 1327.41 286.807 L1327.41 282.409 Q1329.77 283.635 1332.06 284.26 Q1334.35 284.862 1336.59 284.862 Q1339.6 284.862 1341.22 283.844 Q1342.84 282.802 1342.84 280.927 Q1342.84 279.191 1341.66 278.265 Q1340.51 277.339 1336.55 276.483 L1335.07 276.135 Q1331.11 275.302 1329.35 273.589 Q1327.59 271.853 1327.59 268.844 Q1327.59 265.186 1330.18 263.196 Q1332.78 261.205 1337.54 261.205 Q1339.91 261.205 1341.99 261.552 Q1344.07 261.899 1345.83 262.594 Z" fill="#000000" fill-rule="nonzero" fill-opacity="1" /><path clip-path="url(#clip990)" d="M1374.19 266.807 Q1375.78 263.936 1378.01 262.571 Q1380.23 261.205 1383.24 261.205 Q1387.29 261.205 1389.49 264.052 Q1391.69 266.876 1391.69 272.108 L1391.69 287.756 L1387.4 287.756 L1387.4 272.247 Q1387.4 268.52 1386.09 266.714 Q1384.77 264.909 1382.06 264.909 Q1378.75 264.909 1376.83 267.108 Q1374.9 269.307 1374.9 273.103 L1374.9 287.756 L1370.62 287.756 L1370.62 272.247 Q1370.62 268.497 1369.3 266.714 Q1367.98 264.909 1365.23 264.909 Q1361.97 264.909 1360.04 267.131 Q1358.12 269.33 1358.12 273.103 L1358.12 287.756 L1353.84 287.756 L1353.84 261.83 L1358.12 261.83 L1358.12 265.858 Q1359.58 263.473 1361.62 262.339 Q1363.65 261.205 1366.46 261.205 Q1369.28 261.205 1371.25 262.64 Q1373.24 264.075 1374.19 266.807 Z" fill="#000000" fill-rule="nonzero" fill-opacity="1" /><path clip-path="url(#clip990)" d="M1400.18 261.83 L1404.44 261.83 L1404.44 287.756 L1400.18 287.756 L1400.18 261.83 M1400.18 251.737 L1404.44 251.737 L1404.44 257.131 L1400.18 257.131 L1400.18 251.737 Z" fill="#000000" fill-rule="nonzero" fill-opacity="1" /><path clip-path="url(#clip990)" d="M1430.41 265.765 L1430.41 251.737 L1434.67 251.737 L1434.67 287.756 L1430.41 287.756 L1430.41 283.867 Q1429.07 286.182 1427.01 287.316 Q1424.97 288.427 1422.1 288.427 Q1417.4 288.427 1414.44 284.677 Q1411.5 280.927 1411.5 274.816 Q1411.5 268.705 1414.44 264.955 Q1417.4 261.205 1422.1 261.205 Q1424.97 261.205 1427.01 262.339 Q1429.07 263.45 1430.41 265.765 M1415.9 274.816 Q1415.9 279.515 1417.82 282.2 Q1419.77 284.862 1423.15 284.862 Q1426.53 284.862 1428.47 282.2 Q1430.41 279.515 1430.41 274.816 Q1430.41 270.117 1428.47 267.455 Q1426.53 264.77 1423.15 264.77 Q1419.77 264.77 1417.82 267.455 Q1415.9 270.117 1415.9 274.816 Z" fill="#000000" fill-rule="nonzero" fill-opacity="1" /><path clip-path="url(#clip990)" d="M1463.15 283.821 L1479.46 283.821 L1479.46 287.756 L1457.52 287.756 L1457.52 283.821 Q1460.18 281.066 1464.77 276.436 Q1469.37 271.784 1470.55 270.441 Q1472.8 267.918 1473.68 266.182 Q1474.58 264.423 1474.58 262.733 Q1474.58 259.978 1472.64 258.242 Q1470.71 256.506 1467.61 256.506 Q1465.41 256.506 1462.96 257.27 Q1460.53 258.034 1457.75 259.585 L1457.75 254.862 Q1460.58 253.728 1463.03 253.149 Q1465.48 252.571 1467.52 252.571 Q1472.89 252.571 1476.08 255.256 Q1479.28 257.941 1479.28 262.432 Q1479.28 264.561 1478.47 266.483 Q1477.68 268.381 1475.58 270.973 Q1475 271.645 1471.9 274.862 Q1468.79 278.057 1463.15 283.821 Z" fill="#000000" fill-rule="nonzero" fill-opacity="1" /></svg>
