<?xml version="1.0" encoding="utf-8"?>
<svg xmlns="http://www.w3.org/2000/svg" xmlns:xlink="http://www.w3.org/1999/xlink" width="600" height="400" viewBox="0 0 2400 1600">
<defs>
  <clipPath id="clip330">
    <rect x="0" y="0" width="2400" height="1600"/>
  </clipPath>
</defs>
<path clip-path="url(#clip330)" d="M0 1600 L2400 1600 L2400 0 L0 0  Z" fill="#ffffff" fill-rule="evenodd" fill-opacity="1"/>
<defs>
  <clipPath id="clip331">
    <rect x="480" y="0" width="1681" height="1600"/>
  </clipPath>
</defs>
<path clip-path="url(#clip330)" d="M219.38 1423.18 L2352.76 1423.18 L2352.76 123.472 L219.38 123.472  Z" fill="#ffffff" fill-rule="evenodd" fill-opacity="1"/>
<defs>
  <clipPath id="clip332">
    <rect x="219" y="123" width="2134" height="1301"/>
  </clipPath>
</defs>
<polyline clip-path="url(#clip332)" style="stroke:#000000; stroke-linecap:round; stroke-linejoin:round; stroke-width:2; stroke-opacity:0.1; fill:none" points="279.759,1423.18 279.759,123.472 "/>
<polyline clip-path="url(#clip332)" style="stroke:#000000; stroke-linecap:round; stroke-linejoin:round; stroke-width:2; stroke-opacity:0.1; fill:none" points="2292.38,1423.18 2292.38,123.472 "/>
<polyline clip-path="url(#clip330)" style="stroke:#000000; stroke-linecap:round; stroke-linejoin:round; stroke-width:4; stroke-opacity:1; fill:none" points="219.38,1423.18 2352.76,1423.18 "/>
<polyline clip-path="url(#clip330)" style="stroke:#000000; stroke-linecap:round; stroke-linejoin:round; stroke-width:4; stroke-opacity:1; fill:none" points="279.759,1423.18 279.759,1404.28 "/>
<polyline clip-path="url(#clip330)" style="stroke:#000000; stroke-linecap:round; stroke-linejoin:round; stroke-width:4; stroke-opacity:1; fill:none" points="2292.38,1423.18 2292.38,1404.28 "/>
<path clip-path="url(#clip330)" d="M279.759 1454.1 Q276.148 1454.1 274.319 1457.66 Q272.513 1461.2 272.513 1468.33 Q272.513 1475.44 274.319 1479.01 Q276.148 1482.55 279.759 1482.55 Q283.393 1482.55 285.199 1479.01 Q287.027 1475.44 287.027 1468.33 Q287.027 1461.2 285.199 1457.66 Q283.393 1454.1 279.759 1454.1 M279.759 1450.39 Q285.569 1450.39 288.624 1455 Q291.703 1459.58 291.703 1468.33 Q291.703 1477.06 288.624 1481.67 Q285.569 1486.25 279.759 1486.25 Q273.949 1486.25 270.87 1481.67 Q267.814 1477.06 267.814 1468.33 Q267.814 1459.58 270.87 1455 Q273.949 1450.39 279.759 1450.39 Z" fill="#000000" fill-rule="nonzero" fill-opacity="1" /><path clip-path="url(#clip330)" d="M2267.08 1451.02 L2285.43 1451.02 L2285.43 1454.96 L2271.36 1454.96 L2271.36 1463.43 Q2272.38 1463.08 2273.4 1462.92 Q2274.41 1462.73 2275.43 1462.73 Q2281.22 1462.73 2284.6 1465.9 Q2287.98 1469.08 2287.98 1474.49 Q2287.98 1480.07 2284.51 1483.17 Q2281.03 1486.25 2274.72 1486.25 Q2272.54 1486.25 2270.27 1485.88 Q2268.03 1485.51 2265.62 1484.77 L2265.62 1480.07 Q2267.7 1481.2 2269.92 1481.76 Q2272.15 1482.32 2274.62 1482.32 Q2278.63 1482.32 2280.97 1480.21 Q2283.3 1478.1 2283.3 1474.49 Q2283.3 1470.88 2280.97 1468.77 Q2278.63 1466.67 2274.62 1466.67 Q2272.75 1466.67 2270.87 1467.08 Q2269.02 1467.5 2267.08 1468.38 L2267.08 1451.02 Z" fill="#000000" fill-rule="nonzero" fill-opacity="1" /><path clip-path="url(#clip330)" d="M2307.19 1454.1 Q2303.58 1454.1 2301.75 1457.66 Q2299.95 1461.2 2299.95 1468.33 Q2299.95 1475.44 2301.75 1479.01 Q2303.58 1482.55 2307.19 1482.55 Q2310.83 1482.55 2312.63 1479.01 Q2314.46 1475.44 2314.46 1468.33 Q2314.46 1461.2 2312.63 1457.66 Q2310.83 1454.1 2307.19 1454.1 M2307.19 1450.39 Q2313 1450.39 2316.06 1455 Q2319.14 1459.58 2319.14 1468.33 Q2319.14 1477.06 2316.06 1481.67 Q2313 1486.25 2307.19 1486.25 Q2301.38 1486.25 2298.3 1481.67 Q2295.25 1477.06 2295.25 1468.33 Q2295.25 1459.58 2298.3 1455 Q2301.38 1450.39 2307.19 1450.39 Z" fill="#000000" fill-rule="nonzero" fill-opacity="1" /><path clip-path="url(#clip330)" d="M1096.62 1525.81 L1096.62 1543.66 L1104.71 1543.66 Q1109.2 1543.66 1111.65 1541.34 Q1114.1 1539.02 1114.1 1534.72 Q1114.1 1530.45 1111.65 1528.13 Q1109.2 1525.81 1104.71 1525.81 L1096.62 1525.81 M1090.2 1520.52 L1104.71 1520.52 Q1112.7 1520.52 1116.77 1524.15 Q1120.88 1527.75 1120.88 1534.72 Q1120.88 1541.75 1116.77 1545.35 Q1112.7 1548.95 1104.71 1548.95 L1096.62 1548.95 L1096.62 1568.04 L1090.2 1568.04 L1090.2 1520.52 Z" fill="#000000" fill-rule="nonzero" fill-opacity="1" /><path clip-path="url(#clip330)" d="M1158.88 1546.53 L1158.88 1568.04 L1153.02 1568.04 L1153.02 1546.72 Q1153.02 1541.66 1151.05 1539.14 Q1149.08 1536.63 1145.13 1536.63 Q1140.39 1536.63 1137.65 1539.65 Q1134.91 1542.68 1134.91 1547.9 L1134.91 1568.04 L1129.03 1568.04 L1129.03 1518.52 L1134.91 1518.52 L1134.91 1537.93 Q1137.02 1534.72 1139.85 1533.13 Q1142.71 1531.54 1146.44 1531.54 Q1152.58 1531.54 1155.73 1535.36 Q1158.88 1539.14 1158.88 1546.53 Z" fill="#000000" fill-rule="nonzero" fill-opacity="1" /><path clip-path="url(#clip330)" d="M1170.56 1532.4 L1176.42 1532.4 L1176.42 1568.04 L1170.56 1568.04 L1170.56 1532.4 M1170.56 1518.52 L1176.42 1518.52 L1176.42 1525.93 L1170.56 1525.93 L1170.56 1518.52 Z" fill="#000000" fill-rule="nonzero" fill-opacity="1" /><path clip-path="url(#clip330)" d="M1199.08 1520.52 L1204.49 1520.52 L1187.94 1574.09 L1182.53 1574.09 L1199.08 1520.52 Z" fill="#000000" fill-rule="nonzero" fill-opacity="1" /><path clip-path="url(#clip330)" d="M1210.89 1520.52 L1217.32 1520.52 L1217.32 1540.61 L1238.64 1520.52 L1246.92 1520.52 L1223.33 1542.68 L1248.61 1568.04 L1240.14 1568.04 L1217.32 1545.16 L1217.32 1568.04 L1210.89 1568.04 L1210.89 1520.52 Z" fill="#000000" fill-rule="nonzero" fill-opacity="1" /><path clip-path="url(#clip330)" d="M1260.06 1525.81 L1260.06 1562.76 L1267.83 1562.76 Q1277.67 1562.76 1282.22 1558.3 Q1286.8 1553.85 1286.8 1544.24 Q1286.8 1534.69 1282.22 1530.26 Q1277.67 1525.81 1267.83 1525.81 L1260.06 1525.81 M1253.63 1520.52 L1266.84 1520.52 Q1280.66 1520.52 1287.12 1526.28 Q1293.58 1532.01 1293.58 1544.24 Q1293.58 1556.52 1287.09 1562.28 Q1280.59 1568.04 1266.84 1568.04 L1253.63 1568.04 L1253.63 1520.52 Z" fill="#000000" fill-rule="nonzero" fill-opacity="1" /><path clip-path="url(#clip330)" d="M1347.08 1545.76 Q1349.15 1546.46 1351.09 1548.76 Q1353.07 1551.05 1355.04 1555.06 L1361.57 1568.04 L1354.66 1568.04 L1348.58 1555.85 Q1346.22 1551.08 1344 1549.52 Q1341.8 1547.96 1337.98 1547.96 L1330.98 1547.96 L1330.98 1568.04 L1324.55 1568.04 L1324.55 1520.52 L1339.06 1520.52 Q1347.21 1520.52 1351.22 1523.93 Q1355.23 1527.34 1355.23 1534.21 Q1355.23 1538.7 1353.13 1541.66 Q1351.06 1544.62 1347.08 1545.76 M1330.98 1525.81 L1330.98 1542.68 L1339.06 1542.68 Q1343.71 1542.68 1346.06 1540.54 Q1348.45 1538.38 1348.45 1534.21 Q1348.45 1530.04 1346.06 1527.94 Q1343.71 1525.81 1339.06 1525.81 L1330.98 1525.81 Z" fill="#000000" fill-rule="nonzero" fill-opacity="1" /><path clip-path="url(#clip330)" d="M1384.35 1550.12 Q1377.26 1550.12 1374.52 1551.75 Q1371.78 1553.37 1371.78 1557.29 Q1371.78 1560.4 1373.82 1562.25 Q1375.89 1564.07 1379.42 1564.07 Q1384.29 1564.07 1387.22 1560.63 Q1390.18 1557.16 1390.18 1551.43 L1390.18 1550.12 L1384.35 1550.12 M1396.04 1547.71 L1396.04 1568.04 L1390.18 1568.04 L1390.18 1562.63 Q1388.17 1565.88 1385.18 1567.44 Q1382.19 1568.97 1377.86 1568.97 Q1372.39 1568.97 1369.14 1565.91 Q1365.93 1562.82 1365.93 1557.67 Q1365.93 1551.65 1369.94 1548.6 Q1373.98 1545.54 1381.97 1545.54 L1390.18 1545.54 L1390.18 1544.97 Q1390.18 1540.93 1387.51 1538.73 Q1384.86 1536.5 1380.06 1536.5 Q1377 1536.5 1374.11 1537.23 Q1371.21 1537.97 1368.54 1539.43 L1368.54 1534.02 Q1371.75 1532.78 1374.77 1532.17 Q1377.8 1531.54 1380.66 1531.54 Q1388.4 1531.54 1392.22 1535.55 Q1396.04 1539.56 1396.04 1547.71 Z" fill="#000000" fill-rule="nonzero" fill-opacity="1" /><path clip-path="url(#clip330)" d="M1413.89 1522.27 L1413.89 1532.4 L1425.95 1532.4 L1425.95 1536.95 L1413.89 1536.95 L1413.89 1556.3 Q1413.89 1560.66 1415.07 1561.9 Q1416.28 1563.14 1419.94 1563.14 L1425.95 1563.14 L1425.95 1568.04 L1419.94 1568.04 Q1413.16 1568.04 1410.58 1565.53 Q1408 1562.98 1408 1556.3 L1408 1536.95 L1403.71 1536.95 L1403.71 1532.4 L1408 1532.4 L1408 1522.27 L1413.89 1522.27 Z" fill="#000000" fill-rule="nonzero" fill-opacity="1" /><path clip-path="url(#clip330)" d="M1433.66 1532.4 L1439.51 1532.4 L1439.51 1568.04 L1433.66 1568.04 L1433.66 1532.4 M1433.66 1518.52 L1439.51 1518.52 L1439.51 1525.93 L1433.66 1525.93 L1433.66 1518.52 Z" fill="#000000" fill-rule="nonzero" fill-opacity="1" /><path clip-path="url(#clip330)" d="M1465.58 1536.5 Q1460.87 1536.5 1458.13 1540.19 Q1455.4 1543.85 1455.4 1550.25 Q1455.4 1556.65 1458.1 1560.34 Q1460.84 1564 1465.58 1564 Q1470.26 1564 1473 1560.31 Q1475.73 1556.62 1475.73 1550.25 Q1475.73 1543.92 1473 1540.23 Q1470.26 1536.5 1465.58 1536.5 M1465.58 1531.54 Q1473.22 1531.54 1477.58 1536.5 Q1481.94 1541.47 1481.94 1550.25 Q1481.94 1559 1477.58 1564 Q1473.22 1568.97 1465.58 1568.97 Q1457.91 1568.97 1453.55 1564 Q1449.22 1559 1449.22 1550.25 Q1449.22 1541.47 1453.55 1536.5 Q1457.91 1531.54 1465.58 1531.54 Z" fill="#000000" fill-rule="nonzero" fill-opacity="1" /><polyline clip-path="url(#clip332)" style="stroke:#000000; stroke-linecap:round; stroke-linejoin:round; stroke-width:2; stroke-opacity:0.1; fill:none" points="219.38,1423.18 2352.76,1423.18 "/>
<polyline clip-path="url(#clip332)" style="stroke:#000000; stroke-linecap:round; stroke-linejoin:round; stroke-width:2; stroke-opacity:0.1; fill:none" points="219.38,773.326 2352.76,773.326 "/>
<polyline clip-path="url(#clip332)" style="stroke:#000000; stroke-linecap:round; stroke-linejoin:round; stroke-width:2; stroke-opacity:0.1; fill:none" points="219.38,123.472 2352.76,123.472 "/>
<polyline clip-path="url(#clip330)" style="stroke:#000000; stroke-linecap:round; stroke-linejoin:round; stroke-width:4; stroke-opacity:1; fill:none" points="219.38,1423.18 219.38,123.472 "/>
<polyline clip-path="url(#clip330)" style="stroke:#000000; stroke-linecap:round; stroke-linejoin:round; stroke-width:4; stroke-opacity:1; fill:none" points="219.38,1423.18 238.278,1423.18 "/>
<polyline clip-path="url(#clip330)" style="stroke:#000000; stroke-linecap:round; stroke-linejoin:round; stroke-width:4; stroke-opacity:1; fill:none" points="219.38,773.326 238.278,773.326 "/>
<polyline clip-path="url(#clip330)" style="stroke:#000000; stroke-linecap:round; stroke-linejoin:round; stroke-width:4; stroke-opacity:1; fill:none" points="219.38,123.472 238.278,123.472 "/>
<path clip-path="url(#clip330)" d="M126.205 1408.98 Q122.593 1408.98 120.765 1412.54 Q118.959 1416.08 118.959 1423.21 Q118.959 1430.32 120.765 1433.89 Q122.593 1437.43 126.205 1437.43 Q129.839 1437.43 131.644 1433.89 Q133.473 1430.32 133.473 1423.21 Q133.473 1416.08 131.644 1412.54 Q129.839 1408.98 126.205 1408.98 M126.205 1405.27 Q132.015 1405.27 135.07 1409.88 Q138.149 1414.46 138.149 1423.21 Q138.149 1431.94 135.07 1436.55 Q132.015 1441.13 126.205 1441.13 Q120.394 1441.13 117.316 1436.55 Q114.26 1431.94 114.26 1423.21 Q114.26 1414.46 117.316 1409.88 Q120.394 1405.27 126.205 1405.27 Z" fill="#000000" fill-rule="nonzero" fill-opacity="1" /><path clip-path="url(#clip330)" d="M146.366 1434.58 L151.251 1434.58 L151.251 1440.46 L146.366 1440.46 L146.366 1434.58 Z" fill="#000000" fill-rule="nonzero" fill-opacity="1" /><path clip-path="url(#clip330)" d="M171.436 1408.98 Q167.825 1408.98 165.996 1412.54 Q164.19 1416.08 164.19 1423.21 Q164.19 1430.32 165.996 1433.89 Q167.825 1437.43 171.436 1437.43 Q175.07 1437.43 176.876 1433.89 Q178.704 1430.32 178.704 1423.21 Q178.704 1416.08 176.876 1412.54 Q175.07 1408.98 171.436 1408.98 M171.436 1405.27 Q177.246 1405.27 180.301 1409.88 Q183.38 1414.46 183.38 1423.21 Q183.38 1431.94 180.301 1436.55 Q177.246 1441.13 171.436 1441.13 Q165.626 1441.13 162.547 1436.55 Q159.491 1431.94 159.491 1423.21 Q159.491 1414.46 162.547 1409.88 Q165.626 1405.27 171.436 1405.27 Z" fill="#000000" fill-rule="nonzero" fill-opacity="1" /><path clip-path="url(#clip330)" d="M127.2 759.125 Q123.589 759.125 121.76 762.689 Q119.955 766.231 119.955 773.361 Q119.955 780.467 121.76 784.032 Q123.589 787.574 127.2 787.574 Q130.834 787.574 132.64 784.032 Q134.468 780.467 134.468 773.361 Q134.468 766.231 132.64 762.689 Q130.834 759.125 127.2 759.125 M127.2 755.421 Q133.01 755.421 136.066 760.027 Q139.144 764.611 139.144 773.361 Q139.144 782.088 136.066 786.694 Q133.01 791.277 127.2 791.277 Q121.39 791.277 118.311 786.694 Q115.256 782.088 115.256 773.361 Q115.256 764.611 118.311 760.027 Q121.39 755.421 127.2 755.421 Z" fill="#000000" fill-rule="nonzero" fill-opacity="1" /><path clip-path="url(#clip330)" d="M147.362 784.726 L152.246 784.726 L152.246 790.606 L147.362 790.606 L147.362 784.726 Z" fill="#000000" fill-rule="nonzero" fill-opacity="1" /><path clip-path="url(#clip330)" d="M162.477 756.046 L180.834 756.046 L180.834 759.981 L166.76 759.981 L166.76 768.453 Q167.778 768.106 168.797 767.944 Q169.815 767.759 170.834 767.759 Q176.621 767.759 180.001 770.93 Q183.38 774.101 183.38 779.518 Q183.38 785.097 179.908 788.199 Q176.436 791.277 170.116 791.277 Q167.94 791.277 165.672 790.907 Q163.427 790.537 161.019 789.796 L161.019 785.097 Q163.102 786.231 165.325 786.787 Q167.547 787.342 170.024 787.342 Q174.028 787.342 176.366 785.236 Q178.704 783.129 178.704 779.518 Q178.704 775.907 176.366 773.801 Q174.028 771.694 170.024 771.694 Q168.149 771.694 166.274 772.111 Q164.422 772.527 162.477 773.407 L162.477 756.046 Z" fill="#000000" fill-rule="nonzero" fill-opacity="1" /><path clip-path="url(#clip330)" d="M117.015 136.817 L124.654 136.817 L124.654 110.451 L116.343 112.118 L116.343 107.859 L124.607 106.192 L129.283 106.192 L129.283 136.817 L136.922 136.817 L136.922 140.752 L117.015 140.752 L117.015 136.817 Z" fill="#000000" fill-rule="nonzero" fill-opacity="1" /><path clip-path="url(#clip330)" d="M146.366 134.873 L151.251 134.873 L151.251 140.752 L146.366 140.752 L146.366 134.873 Z" fill="#000000" fill-rule="nonzero" fill-opacity="1" /><path clip-path="url(#clip330)" d="M171.436 109.271 Q167.825 109.271 165.996 112.836 Q164.19 116.377 164.19 123.507 Q164.19 130.613 165.996 134.178 Q167.825 137.72 171.436 137.72 Q175.07 137.72 176.876 134.178 Q178.704 130.613 178.704 123.507 Q178.704 116.377 176.876 112.836 Q175.07 109.271 171.436 109.271 M171.436 105.567 Q177.246 105.567 180.301 110.174 Q183.38 114.757 183.38 123.507 Q183.38 132.234 180.301 136.84 Q177.246 141.423 171.436 141.423 Q165.626 141.423 162.547 136.84 Q159.491 132.234 159.491 123.507 Q159.491 114.757 162.547 110.174 Q165.626 105.567 171.436 105.567 Z" fill="#000000" fill-rule="nonzero" fill-opacity="1" /><path clip-path="url(#clip330)" d="M20.1444 1216.19 L26.9239 1216.19 Q23.9002 1219.43 22.4043 1223.13 Q20.9083 1226.79 20.9083 1230.92 Q20.9083 1239.07 25.9054 1243.4 Q30.8707 1247.73 40.2919 1247.73 Q49.6813 1247.73 54.6784 1243.4 Q59.6436 1239.07 59.6436 1230.92 Q59.6436 1226.79 58.1477 1223.13 Q56.6518 1219.43 53.6281 1216.19 L60.3439 1216.19 Q62.6355 1219.56 63.7814 1223.35 Q64.9272 1227.11 64.9272 1231.31 Q64.9272 1242.1 58.3387 1248.3 Q51.7183 1254.51 40.2919 1254.51 Q28.8336 1254.51 22.2451 1248.3 Q15.6248 1242.1 15.6248 1231.31 Q15.6248 1227.04 16.7706 1223.29 Q17.8846 1219.5 20.1444 1216.19 Z" fill="#000000" fill-rule="nonzero" fill-opacity="1" /><path clip-path="url(#clip330)" d="M32.4621 1192.7 Q32.4621 1197.41 36.1542 1200.15 Q39.8145 1202.88 46.212 1202.88 Q52.6095 1202.88 56.3017 1200.18 Q59.9619 1197.44 59.9619 1192.7 Q59.9619 1188.02 56.2698 1185.28 Q52.5777 1182.55 46.212 1182.55 Q39.8781 1182.55 36.186 1185.28 Q32.4621 1188.02 32.4621 1192.7 M27.4968 1192.7 Q27.4968 1185.06 32.4621 1180.7 Q37.4273 1176.34 46.212 1176.34 Q54.9649 1176.34 59.9619 1180.7 Q64.9272 1185.06 64.9272 1192.7 Q64.9272 1200.37 59.9619 1204.73 Q54.9649 1209.06 46.212 1209.06 Q37.4273 1209.06 32.4621 1204.73 Q27.4968 1200.37 27.4968 1192.7 Z" fill="#000000" fill-rule="nonzero" fill-opacity="1" /><path clip-path="url(#clip330)" d="M42.4881 1137 L64.0042 1137 L64.0042 1142.86 L42.679 1142.86 Q37.6183 1142.86 35.1038 1144.83 Q32.5894 1146.8 32.5894 1150.75 Q32.5894 1155.49 35.6131 1158.23 Q38.6368 1160.97 43.8567 1160.97 L64.0042 1160.97 L64.0042 1166.85 L28.3562 1166.85 L28.3562 1160.97 L33.8944 1160.97 Q30.6797 1158.87 29.0883 1156.03 Q27.4968 1153.17 27.4968 1149.44 Q27.4968 1143.3 31.3163 1140.15 Q35.1038 1137 42.4881 1137 Z" fill="#000000" fill-rule="nonzero" fill-opacity="1" /><path clip-path="url(#clip330)" d="M28.3562 1129.52 L28.3562 1123.31 L58.275 1112.17 L28.3562 1101.03 L28.3562 1094.83 L64.0042 1108.19 L64.0042 1116.15 L28.3562 1129.52 Z" fill="#000000" fill-rule="nonzero" fill-opacity="1" /><path clip-path="url(#clip330)" d="M44.7161 1056.25 L47.5806 1056.25 L47.5806 1083.18 Q53.6281 1082.79 56.8109 1079.55 Q59.9619 1076.27 59.9619 1070.45 Q59.9619 1067.07 59.1344 1063.92 Q58.3069 1060.74 56.6518 1057.62 L62.1899 1057.62 Q63.5267 1060.77 64.227 1064.08 Q64.9272 1067.39 64.9272 1070.8 Q64.9272 1079.33 59.9619 1084.32 Q54.9967 1089.29 46.5303 1089.29 Q37.7774 1089.29 32.6531 1084.58 Q27.4968 1079.83 27.4968 1071.81 Q27.4968 1064.62 32.1438 1060.45 Q36.7589 1056.25 44.7161 1056.25 M42.9973 1062.11 Q38.1912 1062.17 35.3266 1064.81 Q32.4621 1067.42 32.4621 1071.75 Q32.4621 1076.65 35.2312 1079.61 Q38.0002 1082.54 43.0292 1082.99 L42.9973 1062.11 Z" fill="#000000" fill-rule="nonzero" fill-opacity="1" /><path clip-path="url(#clip330)" d="M33.8307 1025.98 Q33.2578 1026.97 33.0032 1028.15 Q32.7167 1029.29 32.7167 1030.69 Q32.7167 1035.66 35.9632 1038.33 Q39.1779 1040.97 45.2253 1040.97 L64.0042 1040.97 L64.0042 1046.86 L28.3562 1046.86 L28.3562 1040.97 L33.8944 1040.97 Q30.6479 1039.13 29.0883 1036.17 Q27.4968 1033.21 27.4968 1028.97 Q27.4968 1028.37 27.5923 1027.64 Q27.656 1026.9 27.8151 1026.01 L33.8307 1025.98 Z" fill="#000000" fill-rule="nonzero" fill-opacity="1" /><path clip-path="url(#clip330)" d="M29.4065 997.112 L34.9447 997.112 Q33.6716 999.595 33.035 1002.27 Q32.3984 1004.94 32.3984 1007.81 Q32.3984 1012.17 33.7352 1014.36 Q35.072 1016.53 37.7456 1016.53 Q39.7826 1016.53 40.9603 1014.97 Q42.1061 1013.41 43.1565 1008.7 L43.6021 1006.69 Q44.9389 1000.45 47.3897 997.844 Q49.8086 995.203 54.1691 995.203 Q59.1344 995.203 62.0308 999.149 Q64.9272 1003.06 64.9272 1009.94 Q64.9272 1012.8 64.3543 1015.92 Q63.8132 1019.01 62.6992 1022.45 L56.6518 1022.45 Q58.3387 1019.2 59.198 1016.05 Q60.0256 1012.9 60.0256 1009.81 Q60.0256 1005.67 58.6251 1003.45 Q57.1929 1001.22 54.6147 1001.22 Q52.2276 1001.22 50.9545 1002.84 Q49.6813 1004.43 48.5037 1009.88 L48.0262 1011.91 Q46.8804 1017.36 44.5251 1019.77 Q42.138 1022.19 38.0002 1022.19 Q32.9713 1022.19 30.2341 1018.63 Q27.4968 1015.06 27.4968 1008.51 Q27.4968 1005.26 27.9743 1002.4 Q28.4517 999.531 29.4065 997.112 Z" fill="#000000" fill-rule="nonzero" fill-opacity="1" /><path clip-path="url(#clip330)" d="M28.3562 985.877 L28.3562 980.02 L64.0042 980.02 L64.0042 985.877 L28.3562 985.877 M14.479 985.877 L14.479 980.02 L21.895 980.02 L21.895 985.877 L14.479 985.877 Z" fill="#000000" fill-rule="nonzero" fill-opacity="1" /><path clip-path="url(#clip330)" d="M32.4621 953.953 Q32.4621 958.664 36.1542 961.401 Q39.8145 964.138 46.212 964.138 Q52.6095 964.138 56.3017 961.433 Q59.9619 958.695 59.9619 953.953 Q59.9619 949.274 56.2698 946.537 Q52.5777 943.8 46.212 943.8 Q39.8781 943.8 36.186 946.537 Q32.4621 949.274 32.4621 953.953 M27.4968 953.953 Q27.4968 946.314 32.4621 941.954 Q37.4273 937.593 46.212 937.593 Q54.9649 937.593 59.9619 941.954 Q64.9272 946.314 64.9272 953.953 Q64.9272 961.624 59.9619 965.984 Q54.9649 970.313 46.212 970.313 Q37.4273 970.313 32.4621 965.984 Q27.4968 961.624 27.4968 953.953 Z" fill="#000000" fill-rule="nonzero" fill-opacity="1" /><path clip-path="url(#clip330)" d="M42.4881 898.253 L64.0042 898.253 L64.0042 904.109 L42.679 904.109 Q37.6183 904.109 35.1038 906.083 Q32.5894 908.056 32.5894 912.003 Q32.5894 916.745 35.6131 919.483 Q38.6368 922.22 43.8567 922.22 L64.0042 922.22 L64.0042 928.108 L28.3562 928.108 L28.3562 922.22 L33.8944 922.22 Q30.6797 920.119 29.0883 917.286 Q27.4968 914.422 27.4968 910.698 Q27.4968 904.555 31.3163 901.404 Q35.1038 898.253 42.4881 898.253 Z" fill="#000000" fill-rule="nonzero" fill-opacity="1" /><path clip-path="url(#clip330)" d="M16.4842 865.597 L16.4842 835.551 L21.895 835.551 L21.895 859.168 L35.9632 859.168 L35.9632 836.537 L41.3741 836.537 L41.3741 859.168 L58.5933 859.168 L58.5933 834.978 L64.0042 834.978 L64.0042 865.597 L16.4842 865.597 Z" fill="#000000" fill-rule="nonzero" fill-opacity="1" /><path clip-path="url(#clip330)" d="M14.479 806.619 L19.3487 806.619 L19.3487 812.22 Q19.3487 815.371 20.6219 816.613 Q21.895 817.822 25.2052 817.822 L28.3562 817.822 L28.3562 808.178 L32.9077 808.178 L32.9077 817.822 L64.0042 817.822 L64.0042 823.711 L32.9077 823.711 L32.9077 829.312 L28.3562 829.312 L28.3562 823.711 L25.8736 823.711 Q19.9216 823.711 17.2162 820.941 Q14.479 818.172 14.479 812.157 L14.479 806.619 Z" fill="#000000" fill-rule="nonzero" fill-opacity="1" /><path clip-path="url(#clip330)" d="M14.479 783.67 L19.3487 783.67 L19.3487 789.272 Q19.3487 792.423 20.6219 793.664 Q21.895 794.874 25.2052 794.874 L28.3562 794.874 L28.3562 785.23 L32.9077 785.23 L32.9077 794.874 L64.0042 794.874 L64.0042 800.762 L32.9077 800.762 L32.9077 806.364 L28.3562 806.364 L28.3562 800.762 L25.8736 800.762 Q19.9216 800.762 17.2162 797.993 Q14.479 795.224 14.479 789.208 L14.479 783.67 Z" fill="#000000" fill-rule="nonzero" fill-opacity="1" /><path clip-path="url(#clip330)" d="M28.3562 778.769 L28.3562 772.912 L64.0042 772.912 L64.0042 778.769 L28.3562 778.769 M14.479 778.769 L14.479 772.912 L21.895 772.912 L21.895 778.769 L14.479 778.769 Z" fill="#000000" fill-rule="nonzero" fill-opacity="1" /><path clip-path="url(#clip330)" d="M29.7248 735.004 L35.1993 735.004 Q33.8307 737.487 33.1623 740.002 Q32.4621 742.484 32.4621 745.03 Q32.4621 750.728 36.0905 753.879 Q39.6872 757.03 46.212 757.03 Q52.7369 757.03 56.3653 753.879 Q59.9619 750.728 59.9619 745.03 Q59.9619 742.484 59.2935 740.002 Q58.5933 737.487 57.2247 735.004 L62.6355 735.004 Q63.7814 737.455 64.3543 740.097 Q64.9272 742.707 64.9272 745.667 Q64.9272 753.72 59.8664 758.462 Q54.8057 763.205 46.212 763.205 Q37.491 763.205 32.4939 758.43 Q27.4968 753.624 27.4968 745.285 Q27.4968 742.58 28.0697 740.002 Q28.6108 737.423 29.7248 735.004 Z" fill="#000000" fill-rule="nonzero" fill-opacity="1" /><path clip-path="url(#clip330)" d="M28.3562 724.819 L28.3562 718.963 L64.0042 718.963 L64.0042 724.819 L28.3562 724.819 M14.479 724.819 L14.479 718.963 L21.895 718.963 L21.895 724.819 L14.479 724.819 Z" fill="#000000" fill-rule="nonzero" fill-opacity="1" /><path clip-path="url(#clip330)" d="M44.7161 676.217 L47.5806 676.217 L47.5806 703.144 Q53.6281 702.762 56.8109 699.516 Q59.9619 696.237 59.9619 690.413 Q59.9619 687.039 59.1344 683.888 Q58.3069 680.705 56.6518 677.586 L62.1899 677.586 Q63.5267 680.737 64.227 684.047 Q64.9272 687.357 64.9272 690.763 Q64.9272 699.293 59.9619 704.29 Q54.9967 709.255 46.5303 709.255 Q37.7774 709.255 32.6531 704.545 Q27.4968 699.802 27.4968 691.781 Q27.4968 684.588 32.1438 680.418 Q36.7589 676.217 44.7161 676.217 M42.9973 682.074 Q38.1912 682.137 35.3266 684.779 Q32.4621 687.389 32.4621 691.718 Q32.4621 696.619 35.2312 699.579 Q38.0002 702.507 43.0292 702.953 L42.9973 682.074 Z" fill="#000000" fill-rule="nonzero" fill-opacity="1" /><path clip-path="url(#clip330)" d="M42.4881 636.973 L64.0042 636.973 L64.0042 642.829 L42.679 642.829 Q37.6183 642.829 35.1038 644.802 Q32.5894 646.776 32.5894 650.722 Q32.5894 655.465 35.6131 658.202 Q38.6368 660.939 43.8567 660.939 L64.0042 660.939 L64.0042 666.828 L28.3562 666.828 L28.3562 660.939 L33.8944 660.939 Q30.6797 658.839 29.0883 656.006 Q27.4968 653.141 27.4968 649.418 Q27.4968 643.275 31.3163 640.124 Q35.1038 636.973 42.4881 636.973 Z" fill="#000000" fill-rule="nonzero" fill-opacity="1" /><path clip-path="url(#clip330)" d="M29.7248 599.638 L35.1993 599.638 Q33.8307 602.12 33.1623 604.635 Q32.4621 607.117 32.4621 609.664 Q32.4621 615.361 36.0905 618.512 Q39.6872 621.663 46.212 621.663 Q52.7369 621.663 56.3653 618.512 Q59.9619 615.361 59.9619 609.664 Q59.9619 607.117 59.2935 604.635 Q58.5933 602.12 57.2247 599.638 L62.6355 599.638 Q63.7814 602.088 64.3543 604.73 Q64.9272 607.34 64.9272 610.3 Q64.9272 618.353 59.8664 623.095 Q54.8057 627.838 46.212 627.838 Q37.491 627.838 32.4939 623.063 Q27.4968 618.257 27.4968 609.918 Q27.4968 607.213 28.0697 604.635 Q28.6108 602.057 29.7248 599.638 Z" fill="#000000" fill-rule="nonzero" fill-opacity="1" /><path clip-path="url(#clip330)" d="M67.3143 574.62 Q73.68 577.103 75.6216 579.458 Q77.5631 581.814 77.5631 585.76 L77.5631 590.439 L72.6615 590.439 L72.6615 587.002 Q72.6615 584.583 71.5157 583.246 Q70.3699 581.909 66.1048 580.286 L63.4312 579.236 L28.3562 593.654 L28.3562 587.447 L56.238 576.307 L28.3562 565.167 L28.3562 558.961 L67.3143 574.62 Z" fill="#000000" fill-rule="nonzero" fill-opacity="1" /><path clip-path="url(#clip330)" d="M14.5426 516.088 Q21.8632 520.353 29.0246 522.422 Q36.186 524.491 43.5384 524.491 Q50.8908 524.491 58.1159 522.422 Q65.3091 520.321 72.5979 516.088 L72.5979 521.18 Q65.1182 525.955 57.8931 528.342 Q50.668 530.697 43.5384 530.697 Q36.4406 530.697 29.2474 528.342 Q22.0542 525.986 14.5426 521.18 L14.5426 516.088 Z" fill="#000000" fill-rule="nonzero" fill-opacity="1" /><path clip-path="url(#clip330)" d="M21.7677 498.041 L39.6235 498.041 L39.6235 489.957 Q39.6235 485.469 37.3 483.018 Q34.9765 480.567 30.6797 480.567 Q26.4147 480.567 24.0912 483.018 Q21.7677 485.469 21.7677 489.957 L21.7677 498.041 M16.4842 504.47 L16.4842 489.957 Q16.4842 481.968 20.1126 477.894 Q23.7092 473.788 30.6797 473.788 Q37.7138 473.788 41.3104 477.894 Q44.907 481.968 44.907 489.957 L44.907 498.041 L64.0042 498.041 L64.0042 504.47 L16.4842 504.47 Z" fill="#000000" fill-rule="nonzero" fill-opacity="1" /><path clip-path="url(#clip330)" d="M16.4842 455.009 L16.4842 449.598 L70.0516 466.149 L70.0516 471.56 L16.4842 455.009 Z" fill="#000000" fill-rule="nonzero" fill-opacity="1" /><path clip-path="url(#clip330)" d="M14.479 443.996 L14.479 430.501 L19.0304 430.501 L19.0304 438.14 L68.0464 438.14 L68.0464 430.501 L72.5979 430.501 L72.5979 443.996 L14.479 443.996 Z" fill="#000000" fill-rule="nonzero" fill-opacity="1" /><path clip-path="url(#clip330)" d="M41.7242 395.235 Q42.4244 393.166 44.7161 391.224 Q47.0077 389.251 51.0181 387.278 L64.0042 380.753 L64.0042 387.66 L51.8138 393.739 Q47.0395 396.094 45.48 398.322 Q43.9204 400.518 43.9204 404.338 L43.9204 411.34 L64.0042 411.34 L64.0042 417.769 L16.4842 417.769 L16.4842 403.256 Q16.4842 395.108 19.8898 391.097 Q23.2955 387.087 30.1704 387.087 Q34.6582 387.087 37.6183 389.187 Q40.5784 391.256 41.7242 395.235 M21.7677 411.34 L38.6368 411.34 L38.6368 403.256 Q38.6368 398.609 36.5043 396.253 Q34.34 393.866 30.1704 393.866 Q26.0009 393.866 23.9002 396.253 Q21.7677 398.609 21.7677 403.256 L21.7677 411.34 Z" fill="#000000" fill-rule="nonzero" fill-opacity="1" /><path clip-path="url(#clip330)" d="M20.7174 358.155 Q20.7174 363.12 25.6189 365.634 Q30.4887 368.117 40.2919 368.117 Q50.0633 368.117 54.9649 365.634 Q59.8346 363.12 59.8346 358.155 Q59.8346 353.158 54.9649 350.675 Q50.0633 348.16 40.2919 348.16 Q30.4887 348.16 25.6189 350.675 Q20.7174 353.158 20.7174 358.155 M15.6248 358.155 Q15.6248 350.166 21.9587 345.964 Q28.2607 341.731 40.2919 341.731 Q52.2913 341.731 58.6251 345.964 Q64.9272 350.166 64.9272 358.155 Q64.9272 366.144 58.6251 370.377 Q52.2913 374.578 40.2919 374.578 Q28.2607 374.578 21.9587 370.377 Q15.6248 366.144 15.6248 358.155 Z" fill="#000000" fill-rule="nonzero" fill-opacity="1" /><path clip-path="url(#clip330)" d="M14.479 317.573 L72.5979 317.573 L72.5979 331.069 L68.0464 331.069 L68.0464 323.461 L19.0304 323.461 L19.0304 331.069 L14.479 331.069 L14.479 317.573 Z" fill="#000000" fill-rule="nonzero" fill-opacity="1" /><path clip-path="url(#clip330)" d="M14.5426 306.752 L14.5426 301.659 Q22.0542 296.885 29.2474 294.529 Q36.4406 292.142 43.5384 292.142 Q50.668 292.142 57.8931 294.529 Q65.1182 296.885 72.5979 301.659 L72.5979 306.752 Q65.3091 302.518 58.1159 300.449 Q50.8908 298.349 43.5384 298.349 Q36.186 298.349 29.0246 300.449 Q21.8632 302.518 14.5426 306.752 Z" fill="#000000" fill-rule="nonzero" fill-opacity="1" /><path clip-path="url(#clip330)" d="M952.8 12.096 L960.983 12.096 L960.983 36.8875 L990.717 36.8875 L990.717 12.096 L998.899 12.096 L998.899 72.576 L990.717 72.576 L990.717 43.7741 L960.983 43.7741 L960.983 72.576 L952.8 72.576 L952.8 12.096 Z" fill="#000000" fill-rule="nonzero" fill-opacity="1" /><path clip-path="url(#clip330)" d="M1014.86 27.2059 L1022.31 27.2059 L1022.31 72.576 L1014.86 72.576 L1014.86 27.2059 M1014.86 9.54393 L1022.31 9.54393 L1022.31 18.9825 L1014.86 18.9825 L1014.86 9.54393 Z" fill="#000000" fill-rule="nonzero" fill-opacity="1" /><path clip-path="url(#clip330)" d="M1037.91 9.54393 L1045.36 9.54393 L1045.36 72.576 L1037.91 72.576 L1037.91 9.54393 Z" fill="#000000" fill-rule="nonzero" fill-opacity="1" /><path clip-path="url(#clip330)" d="M1060.96 9.54393 L1068.41 9.54393 L1068.41 72.576 L1060.96 72.576 L1060.96 9.54393 Z" fill="#000000" fill-rule="nonzero" fill-opacity="1" /><path clip-path="url(#clip330)" d="M1080.24 46.5287 L1102.08 46.5287 L1102.08 53.1722 L1080.24 53.1722 L1080.24 46.5287 Z" fill="#000000" fill-rule="nonzero" fill-opacity="1" /><path clip-path="url(#clip330)" d="M1114.27 12.096 L1122.45 12.096 L1122.45 65.6895 L1151.9 65.6895 L1151.9 72.576 L1114.27 72.576 L1114.27 12.096 Z" fill="#000000" fill-rule="nonzero" fill-opacity="1" /><path clip-path="url(#clip330)" d="M1160.17 27.2059 L1167.62 27.2059 L1167.62 72.576 L1160.17 72.576 L1160.17 27.2059 M1160.17 9.54393 L1167.62 9.54393 L1167.62 18.9825 L1160.17 18.9825 L1160.17 9.54393 Z" fill="#000000" fill-rule="nonzero" fill-opacity="1" /><path clip-path="url(#clip330)" d="M1182.93 9.54393 L1190.43 9.54393 L1190.43 46.7717 L1212.67 27.2059 L1222.19 27.2059 L1198.12 48.4326 L1223.2 72.576 L1213.48 72.576 L1190.43 50.4176 L1190.43 72.576 L1182.93 72.576 L1182.93 9.54393 Z" fill="#000000" fill-rule="nonzero" fill-opacity="1" /><path clip-path="url(#clip330)" d="M1267.11 48.0275 L1267.11 51.6733 L1232.84 51.6733 Q1233.33 59.3701 1237.46 63.421 Q1241.63 67.4314 1249.04 67.4314 Q1253.34 67.4314 1257.35 66.3781 Q1261.4 65.3249 1265.37 63.2184 L1265.37 70.267 Q1261.36 71.9684 1257.14 72.8596 Q1252.93 73.7508 1248.6 73.7508 Q1237.74 73.7508 1231.38 67.4314 Q1225.06 61.1119 1225.06 50.3365 Q1225.06 39.1965 1231.06 32.6746 Q1237.09 26.1121 1247.3 26.1121 Q1256.46 26.1121 1261.76 32.0264 Q1267.11 37.9003 1267.11 48.0275 M1259.66 45.84 Q1259.58 39.7232 1256.21 36.0774 Q1252.89 32.4315 1247.38 32.4315 Q1241.14 32.4315 1237.38 35.9558 Q1233.65 39.4801 1233.08 45.8805 L1259.66 45.84 Z" fill="#000000" fill-rule="nonzero" fill-opacity="1" /><path clip-path="url(#clip330)" d="M1306.04 12.096 L1314.22 12.096 L1314.22 37.6572 L1341.36 12.096 L1351.9 12.096 L1321.88 40.2903 L1354.04 72.576 L1343.27 72.576 L1314.22 43.45 L1314.22 72.576 L1306.04 72.576 L1306.04 12.096 Z" fill="#000000" fill-rule="nonzero" fill-opacity="1" /><path clip-path="url(#clip330)" d="M1360.12 27.2059 L1367.57 27.2059 L1367.57 72.576 L1360.12 72.576 L1360.12 27.2059 M1360.12 9.54393 L1367.57 9.54393 L1367.57 18.9825 L1360.12 18.9825 L1360.12 9.54393 Z" fill="#000000" fill-rule="nonzero" fill-opacity="1" /><path clip-path="url(#clip330)" d="M1420.88 45.1919 L1420.88 72.576 L1413.43 72.576 L1413.43 45.4349 Q1413.43 38.994 1410.92 35.7938 Q1408.41 32.5936 1403.38 32.5936 Q1397.35 32.5936 1393.86 36.4419 Q1390.38 40.2903 1390.38 46.9338 L1390.38 72.576 L1382.88 72.576 L1382.88 27.2059 L1390.38 27.2059 L1390.38 34.2544 Q1393.05 30.163 1396.66 28.1376 Q1400.3 26.1121 1405.04 26.1121 Q1412.86 26.1121 1416.87 30.9732 Q1420.88 35.7938 1420.88 45.1919 Z" fill="#000000" fill-rule="nonzero" fill-opacity="1" /><path clip-path="url(#clip330)" d="M1474.56 48.0275 L1474.56 51.6733 L1440.29 51.6733 Q1440.77 59.3701 1444.9 63.421 Q1449.08 67.4314 1456.49 67.4314 Q1460.78 67.4314 1464.79 66.3781 Q1468.84 65.3249 1472.81 63.2184 L1472.81 70.267 Q1468.8 71.9684 1464.59 72.8596 Q1460.38 73.7508 1456.04 73.7508 Q1445.19 73.7508 1438.83 67.4314 Q1432.51 61.1119 1432.51 50.3365 Q1432.51 39.1965 1438.5 32.6746 Q1444.54 26.1121 1454.75 26.1121 Q1463.9 26.1121 1469.21 32.0264 Q1474.56 37.9003 1474.56 48.0275 M1467.1 45.84 Q1467.02 39.7232 1463.66 36.0774 Q1460.34 32.4315 1454.83 32.4315 Q1448.59 32.4315 1444.82 35.9558 Q1441.1 39.4801 1440.53 45.8805 L1467.1 45.84 Z" fill="#000000" fill-rule="nonzero" fill-opacity="1" /><path clip-path="url(#clip330)" d="M1494.16 14.324 L1494.16 27.2059 L1509.52 27.2059 L1509.52 32.9987 L1494.16 32.9987 L1494.16 57.6282 Q1494.16 63.1779 1495.66 64.7578 Q1497.2 66.3376 1501.86 66.3376 L1509.52 66.3376 L1509.52 72.576 L1501.86 72.576 Q1493.23 72.576 1489.95 69.3758 Q1486.67 66.1351 1486.67 57.6282 L1486.67 32.9987 L1481.2 32.9987 L1481.2 27.2059 L1486.67 27.2059 L1486.67 14.324 L1494.16 14.324 Z" fill="#000000" fill-rule="nonzero" fill-opacity="1" /><path clip-path="url(#clip330)" d="M1519.32 27.2059 L1526.77 27.2059 L1526.77 72.576 L1519.32 72.576 L1519.32 27.2059 M1519.32 9.54393 L1526.77 9.54393 L1526.77 18.9825 L1519.32 18.9825 L1519.32 9.54393 Z" fill="#000000" fill-rule="nonzero" fill-opacity="1" /><path clip-path="url(#clip330)" d="M1575.02 28.9478 L1575.02 35.9153 Q1571.86 34.1734 1568.66 33.3227 Q1565.5 32.4315 1562.26 32.4315 Q1555.01 32.4315 1551 37.0496 Q1546.99 41.6271 1546.99 49.9314 Q1546.99 58.2358 1551 62.8538 Q1555.01 67.4314 1562.26 67.4314 Q1565.5 67.4314 1568.66 66.5807 Q1571.86 65.6895 1575.02 63.9476 L1575.02 70.8341 Q1571.9 72.2924 1568.54 73.0216 Q1565.22 73.7508 1561.45 73.7508 Q1551.2 73.7508 1545.16 67.3098 Q1539.13 60.8689 1539.13 49.9314 Q1539.13 38.832 1545.2 32.472 Q1551.32 26.1121 1561.93 26.1121 Q1565.38 26.1121 1568.66 26.8413 Q1571.94 27.5299 1575.02 28.9478 Z" fill="#000000" fill-rule="nonzero" fill-opacity="1" /><path clip-path="url(#clip330)" d="M1616.91 28.5427 L1616.91 35.5912 Q1613.75 33.9709 1610.34 33.1607 Q1606.94 32.3505 1603.29 32.3505 Q1597.74 32.3505 1594.95 34.0519 Q1592.19 35.7533 1592.19 39.156 Q1592.19 41.7486 1594.18 43.2475 Q1596.16 44.7058 1602.16 46.0426 L1604.71 46.6097 Q1612.65 48.3111 1615.97 51.4303 Q1619.34 54.509 1619.34 60.0587 Q1619.34 66.3781 1614.31 70.0644 Q1609.33 73.7508 1600.58 73.7508 Q1596.93 73.7508 1592.96 73.0216 Q1589.04 72.3329 1584.66 70.9151 L1584.66 63.2184 Q1588.79 65.3654 1592.8 66.4591 Q1596.81 67.5124 1600.74 67.5124 Q1606.01 67.5124 1608.84 65.73 Q1611.68 63.9071 1611.68 60.6258 Q1611.68 57.5877 1609.61 55.9673 Q1607.59 54.3469 1600.66 52.8481 L1598.07 52.2405 Q1591.14 50.7821 1588.06 47.7845 Q1584.98 44.7463 1584.98 39.4801 Q1584.98 33.0797 1589.52 29.5959 Q1594.06 26.1121 1602.4 26.1121 Q1606.54 26.1121 1610.18 26.7198 Q1613.83 27.3274 1616.91 28.5427 Z" fill="#000000" fill-rule="nonzero" fill-opacity="1" /><polyline clip-path="url(#clip332)" style="stroke:#d6181c; stroke-linecap:round; stroke-linejoin:round; stroke-width:16; stroke-opacity:1; fill:none" points="279.759,1423.18 281.397,1372.36 283.035,1325.37 284.672,1281.78 286.31,1241.25 287.948,1203.45 289.586,1168.13 290.405,1151.32 291.224,1135.05 292.043,1119.28 292.862,1103.99 294.755,1070.4 296.648,1039.02 298.541,1009.66 300.434,982.13 302.327,956.254 304.221,931.893 306.114,908.916 308.007,887.209 309.9,866.67 311.793,847.207 313.686,828.737 315.579,811.186 319.365,778.581 323.152,748.927 326.938,721.842 330.724,697.005 334.51,674.148 338.296,653.043 342.083,633.496 345.869,615.341 349.655,598.433 353.441,582.65 357.227,567.881 361.014,554.033 364.8,541.022 368.586,528.775 376.158,506.315 383.731,486.215 391.303,468.119 398.876,451.743 406.448,436.853 414.02,423.255 423.122,408.395 432.223,394.939 441.325,382.697 450.426,371.511 468.629,351.806 486.832,335.001 502.222,322.609 517.612,311.589 533.002,301.724 548.392,292.843 581.829,276.3 615.265,262.701 646.09,252.145 676.915,243.077 709.963,234.675 743.011,227.376 781.3,220.033 819.59,213.66 887.643,204.19 947.321,197.385 1012.38,191.162 1077.84,185.878 1150.2,180.919 1219.05,176.881 1290.64,173.243 1350.91,170.545 1424.48,167.622 1491.88,165.246 1554.13,163.268 1617.19,161.446 1687.86,159.593 1751.9,158.064 1825.21,156.465 1893.1,155.11 1960.03,153.879 2025.01,152.773 2091.62,151.719 2164.61,150.648 2270.63,149.229 2292.38,148.957 "/>
<polyline clip-path="url(#clip332)" style="stroke:#fcad60; stroke-linecap:round; stroke-linejoin:round; stroke-width:16; stroke-opacity:1; fill:none" points="279.759,1423.18 281.397,1421.19 283.035,1415.82 284.672,1407.8 286.31,1397.71 287.948,1386.03 289.586,1373.13 291.224,1359.3 292.862,1344.79 300.434,1273.51 308.007,1202.16 311.793,1167.93 315.579,1135.01 319.365,1103.49 323.152,1073.4 326.938,1044.73 330.724,1017.45 334.51,991.507 338.296,966.838 342.083,943.379 345.869,921.064 349.655,899.826 353.441,879.603 357.227,860.334 361.014,841.96 364.8,824.429 368.586,807.687 376.158,776.388 383.731,747.717 391.303,721.375 398.876,697.102 406.448,674.673 414.02,653.892 423.122,630.858 432.223,609.706 441.325,590.22 450.426,572.214 459.527,555.528 468.629,540.025 477.73,525.585 486.832,512.103 502.222,491.235 517.612,472.478 533.002,455.53 548.392,440.142 565.111,424.958 581.829,411.157 598.547,398.559 615.265,387.015 646.09,368.079 676.915,351.676 709.963,336.364 743.011,322.974 781.3,309.421 819.59,297.589 853.617,288.269 887.643,279.895 917.482,273.222 947.321,267.094 1012.38,255.327 1077.84,245.287 1150.2,235.826 1219.05,228.095 1290.64,221.109 1350.91,215.912 1424.48,210.272 1491.88,205.677 1554.13,201.845 1617.19,198.311 1687.86,194.711 1751.9,191.735 1825.21,188.619 1893.1,185.978 1960.03,183.575 2025.01,181.413 2091.62,179.352 2164.61,177.256 2270.63,174.476 2292.38,173.941 "/>
<polyline clip-path="url(#clip332)" style="stroke:#ffffbe; stroke-linecap:round; stroke-linejoin:round; stroke-width:16; stroke-opacity:1; fill:none" points="279.759,1423.18 281.397,1423.18 283.035,1423.14 284.672,1423 286.31,1422.68 287.948,1422.12 289.586,1421.25 291.224,1420.04 292.862,1418.45 296.648,1413.26 300.434,1405.94 304.221,1396.65 308.007,1385.59 311.793,1373.05 315.579,1359.29 319.365,1344.54 323.152,1329.04 330.724,1296.52 338.296,1262.95 345.869,1229.2 353.441,1195.84 361.014,1163.26 368.586,1131.71 376.158,1101.31 383.731,1072.14 391.303,1044.23 398.876,1017.56 406.448,992.111 414.02,967.843 423.122,940.168 432.223,914.035 441.325,889.35 450.426,866.022 459.527,843.958 468.629,823.074 477.73,803.289 486.832,784.527 502.222,754.936 517.612,727.766 533.002,702.751 548.392,679.657 565.111,656.51 581.829,635.164 598.547,615.423 615.265,597.119 630.677,581.388 646.09,566.651 661.503,552.818 676.915,539.811 709.963,514.384 743.011,491.853 781.3,468.766 819.59,448.38 853.617,432.171 887.643,417.492 917.482,405.717 947.321,394.845 979.853,383.903 1012.38,373.806 1045.11,364.406 1077.84,355.684 1150.2,338.468 1219.05,324.296 1290.64,311.41 1350.91,301.777 1424.48,291.274 1491.88,282.682 1554.13,275.492 1617.19,268.84 1687.86,262.045 1751.9,256.413 1825.21,250.501 1893.1,245.478 1960.03,240.899 2025.01,236.771 2091.62,232.829 2164.61,228.814 2270.63,223.479 2292.38,222.451 "/>
<polyline clip-path="url(#clip332)" style="stroke:#abdda3; stroke-linecap:round; stroke-linejoin:round; stroke-width:16; stroke-opacity:1; fill:none" points="279.759,1423.18 283.035,1423.18 286.31,1423.18 289.586,1423.18 292.862,1423.16 300.434,1422.95 308.007,1422.09 315.579,1420.04 323.152,1416.36 330.724,1410.84 338.296,1403.43 345.869,1394.23 353.441,1383.41 361.014,1371.2 368.586,1357.81 376.158,1343.47 383.731,1328.37 398.876,1296.59 414.02,1263.66 432.223,1223.73 450.426,1184.34 468.629,1146.1 486.832,1109.36 502.222,1079.6 517.612,1051.1 533.002,1023.85 548.392,997.833 565.111,970.938 581.829,945.404 598.547,921.167 615.265,898.156 630.677,877.97 646.09,858.713 661.503,840.334 676.915,822.783 693.439,804.832 709.963,787.722 726.487,771.402 743.011,755.823 762.156,738.64 781.3,722.325 800.445,706.819 819.59,692.066 853.617,667.549 887.643,644.999 917.482,626.67 947.321,609.556 979.853,592.149 1012.38,575.923 1045.11,560.676 1077.84,546.408 1114.02,531.664 1150.2,517.9 1184.63,505.628 1219.05,494.089 1290.64,472.173 1350.91,455.621 1424.48,437.412 1491.88,422.389 1554.13,409.73 1617.19,397.95 1687.86,385.843 1751.9,375.756 1825.21,365.115 1893.1,356.03 1960.03,347.716 2025.01,340.192 2091.62,332.985 2164.61,325.617 2270.63,315.791 2292.38,313.892 "/>
<polyline clip-path="url(#clip332)" style="stroke:#2b83b9; stroke-linecap:round; stroke-linejoin:round; stroke-width:16; stroke-opacity:1; fill:none" points="279.759,1423.18 283.035,1423.18 286.31,1423.18 289.586,1423.18 292.862,1423.18 323.152,1423.14 353.441,1421.96 368.586,1419.89 383.731,1416.26 398.876,1410.85 414.02,1403.6 423.122,1398.39 432.223,1392.57 441.325,1386.19 450.426,1379.29 468.629,1364.11 486.832,1347.41 517.612,1316.66 548.392,1283.98 581.829,1247.55 615.265,1211.09 646.09,1178.03 676.915,1145.83 709.963,1112.49 743.011,1080.51 781.3,1045.25 819.59,1011.91 853.617,983.867 887.643,957.256 917.482,935.049 947.321,913.847 979.853,891.821 1012.38,870.868 1045.11,850.811 1077.84,831.717 1114.02,811.657 1150.2,792.629 1184.63,775.418 1219.05,759.023 1290.64,727.32 1350.91,702.887 1424.48,675.521 1491.88,652.559 1554.13,632.94 1617.19,614.462 1687.86,595.25 1751.9,579.069 1825.21,561.832 1893.1,546.977 1960.03,533.271 2025.01,520.776 2091.62,508.724 2164.61,496.322 2270.63,479.652 2292.38,476.413 "/>
<path clip-path="url(#clip330)" d="M1915.37 1379.86 L2281.64 1379.86 L2281.64 1068.82 L1915.37 1068.82  Z" fill="#ffffff" fill-rule="evenodd" fill-opacity="1"/>
<polyline clip-path="url(#clip330)" style="stroke:#000000; stroke-linecap:round; stroke-linejoin:round; stroke-width:4; stroke-opacity:1; fill:none" points="1915.37,1379.86 2281.64,1379.86 2281.64,1068.82 1915.37,1068.82 1915.37,1379.86 "/>
<polyline clip-path="url(#clip330)" style="stroke:#d6181c; stroke-linecap:round; stroke-linejoin:round; stroke-width:16; stroke-opacity:1; fill:none" points="1939.07,1120.66 2081.3,1120.66 "/>
<path clip-path="url(#clip330)" d="M2126.71 1122.29 L2126.71 1137.94 L2122.45 1137.94 L2122.45 1122.43 Q2122.45 1118.75 2121.02 1116.92 Q2119.58 1115.09 2116.71 1115.09 Q2113.26 1115.09 2111.27 1117.29 Q2109.28 1119.49 2109.28 1123.28 L2109.28 1137.94 L2105 1137.94 L2105 1112.01 L2109.28 1112.01 L2109.28 1116.04 Q2110.81 1113.7 2112.87 1112.54 Q2114.95 1111.39 2117.66 1111.39 Q2122.13 1111.39 2124.42 1114.16 Q2126.71 1116.92 2126.71 1122.29 Z" fill="#000000" fill-rule="nonzero" fill-opacity="1" /><path clip-path="url(#clip330)" d="M2150.83 1116.41 L2180.51 1116.41 L2180.51 1120.3 L2150.83 1120.3 L2150.83 1116.41 M2150.83 1125.85 L2180.51 1125.85 L2180.51 1129.79 L2150.83 1129.79 L2150.83 1125.85 Z" fill="#000000" fill-rule="nonzero" fill-opacity="1" /><path clip-path="url(#clip330)" d="M2206.48 1134 L2214.12 1134 L2214.12 1107.64 L2205.81 1109.3 L2205.81 1105.04 L2214.07 1103.38 L2218.75 1103.38 L2218.75 1134 L2226.39 1134 L2226.39 1137.94 L2206.48 1137.94 L2206.48 1134 Z" fill="#000000" fill-rule="nonzero" fill-opacity="1" /><polyline clip-path="url(#clip330)" style="stroke:#fcad60; stroke-linecap:round; stroke-linejoin:round; stroke-width:16; stroke-opacity:1; fill:none" points="1939.07,1172.5 2081.3,1172.5 "/>
<path clip-path="url(#clip330)" d="M2126.71 1174.13 L2126.71 1189.78 L2122.45 1189.78 L2122.45 1174.27 Q2122.45 1170.59 2121.02 1168.76 Q2119.58 1166.93 2116.71 1166.93 Q2113.26 1166.93 2111.27 1169.13 Q2109.28 1171.33 2109.28 1175.12 L2109.28 1189.78 L2105 1189.78 L2105 1163.85 L2109.28 1163.85 L2109.28 1167.88 Q2110.81 1165.54 2112.87 1164.38 Q2114.95 1163.23 2117.66 1163.23 Q2122.13 1163.23 2124.42 1166 Q2126.71 1168.76 2126.71 1174.13 Z" fill="#000000" fill-rule="nonzero" fill-opacity="1" /><path clip-path="url(#clip330)" d="M2150.83 1168.25 L2180.51 1168.25 L2180.51 1172.14 L2150.83 1172.14 L2150.83 1168.25 M2150.83 1177.69 L2180.51 1177.69 L2180.51 1181.63 L2150.83 1181.63 L2150.83 1177.69 Z" fill="#000000" fill-rule="nonzero" fill-opacity="1" /><path clip-path="url(#clip330)" d="M2209.7 1185.84 L2226.02 1185.84 L2226.02 1189.78 L2204.07 1189.78 L2204.07 1185.84 Q2206.74 1183.09 2211.32 1178.46 Q2215.93 1173.8 2217.11 1172.46 Q2219.35 1169.94 2220.23 1168.2 Q2221.13 1166.44 2221.13 1164.75 Q2221.13 1162 2219.19 1160.26 Q2217.27 1158.53 2214.17 1158.53 Q2211.97 1158.53 2209.51 1159.29 Q2207.08 1160.05 2204.31 1161.61 L2204.31 1156.88 Q2207.13 1155.75 2209.58 1155.17 Q2212.04 1154.59 2214.07 1154.59 Q2219.44 1154.59 2222.64 1157.28 Q2225.83 1159.96 2225.83 1164.45 Q2225.83 1166.58 2225.02 1168.5 Q2224.24 1170.4 2222.13 1172.99 Q2221.55 1173.67 2218.45 1176.88 Q2215.35 1180.08 2209.7 1185.84 Z" fill="#000000" fill-rule="nonzero" fill-opacity="1" /><polyline clip-path="url(#clip330)" style="stroke:#ffffbe; stroke-linecap:round; stroke-linejoin:round; stroke-width:16; stroke-opacity:1; fill:none" points="1939.07,1224.34 2081.3,1224.34 "/>
<path clip-path="url(#clip330)" d="M2126.71 1225.97 L2126.71 1241.62 L2122.45 1241.62 L2122.45 1226.11 Q2122.45 1222.43 2121.02 1220.6 Q2119.58 1218.77 2116.71 1218.77 Q2113.26 1218.77 2111.27 1220.97 Q2109.28 1223.17 2109.28 1226.96 L2109.28 1241.62 L2105 1241.62 L2105 1215.69 L2109.28 1215.69 L2109.28 1219.72 Q2110.81 1217.38 2112.87 1216.22 Q2114.95 1215.07 2117.66 1215.07 Q2122.13 1215.07 2124.42 1217.84 Q2126.71 1220.6 2126.71 1225.97 Z" fill="#000000" fill-rule="nonzero" fill-opacity="1" /><path clip-path="url(#clip330)" d="M2150.83 1220.09 L2180.51 1220.09 L2180.51 1223.98 L2150.83 1223.98 L2150.83 1220.09 M2150.83 1229.53 L2180.51 1229.53 L2180.51 1233.47 L2150.83 1233.47 L2150.83 1229.53 Z" fill="#000000" fill-rule="nonzero" fill-opacity="1" /><path clip-path="url(#clip330)" d="M2218.52 1211.13 L2206.71 1229.58 L2218.52 1229.58 L2218.52 1211.13 M2217.29 1207.06 L2223.17 1207.06 L2223.17 1229.58 L2228.1 1229.58 L2228.1 1233.47 L2223.17 1233.47 L2223.17 1241.62 L2218.52 1241.62 L2218.52 1233.47 L2202.92 1233.47 L2202.92 1228.95 L2217.29 1207.06 Z" fill="#000000" fill-rule="nonzero" fill-opacity="1" /><polyline clip-path="url(#clip330)" style="stroke:#abdda3; stroke-linecap:round; stroke-linejoin:round; stroke-width:16; stroke-opacity:1; fill:none" points="1939.07,1276.18 2081.3,1276.18 "/>
<path clip-path="url(#clip330)" d="M2126.71 1277.81 L2126.71 1293.46 L2122.45 1293.46 L2122.45 1277.95 Q2122.45 1274.27 2121.02 1272.44 Q2119.58 1270.61 2116.71 1270.61 Q2113.26 1270.61 2111.27 1272.81 Q2109.28 1275.01 2109.28 1278.8 L2109.28 1293.46 L2105 1293.46 L2105 1267.53 L2109.28 1267.53 L2109.28 1271.56 Q2110.81 1269.22 2112.87 1268.06 Q2114.95 1266.91 2117.66 1266.91 Q2122.13 1266.91 2124.42 1269.68 Q2126.71 1272.44 2126.71 1277.81 Z" fill="#000000" fill-rule="nonzero" fill-opacity="1" /><path clip-path="url(#clip330)" d="M2150.83 1271.93 L2180.51 1271.93 L2180.51 1275.82 L2150.83 1275.82 L2150.83 1271.93 M2150.83 1281.37 L2180.51 1281.37 L2180.51 1285.31 L2150.83 1285.31 L2150.83 1281.37 Z" fill="#000000" fill-rule="nonzero" fill-opacity="1" /><path clip-path="url(#clip330)" d="M2215.67 1277.04 Q2212.34 1277.04 2210.42 1278.83 Q2208.52 1280.61 2208.52 1283.73 Q2208.52 1286.86 2210.42 1288.64 Q2212.34 1290.42 2215.67 1290.42 Q2219 1290.42 2220.93 1288.64 Q2222.85 1286.84 2222.85 1283.73 Q2222.85 1280.61 2220.93 1278.83 Q2219.03 1277.04 2215.67 1277.04 M2211 1275.05 Q2207.99 1274.31 2206.3 1272.25 Q2204.63 1270.19 2204.63 1267.23 Q2204.63 1263.09 2207.57 1260.68 Q2210.53 1258.27 2215.67 1258.27 Q2220.83 1258.27 2223.77 1260.68 Q2226.71 1263.09 2226.71 1267.23 Q2226.71 1270.19 2225.02 1272.25 Q2223.36 1274.31 2220.37 1275.05 Q2223.75 1275.84 2225.62 1278.13 Q2227.52 1280.42 2227.52 1283.73 Q2227.52 1288.76 2224.44 1291.44 Q2221.39 1294.13 2215.67 1294.13 Q2209.95 1294.13 2206.87 1291.44 Q2203.82 1288.76 2203.82 1283.73 Q2203.82 1280.42 2205.72 1278.13 Q2207.62 1275.84 2211 1275.05 M2209.28 1267.67 Q2209.28 1270.35 2210.95 1271.86 Q2212.64 1273.36 2215.67 1273.36 Q2218.68 1273.36 2220.37 1271.86 Q2222.08 1270.35 2222.08 1267.67 Q2222.08 1264.98 2220.37 1263.48 Q2218.68 1261.97 2215.67 1261.97 Q2212.64 1261.97 2210.95 1263.48 Q2209.28 1264.98 2209.28 1267.67 Z" fill="#000000" fill-rule="nonzero" fill-opacity="1" /><polyline clip-path="url(#clip330)" style="stroke:#2b83b9; stroke-linecap:round; stroke-linejoin:round; stroke-width:16; stroke-opacity:1; fill:none" points="1939.07,1328.02 2081.3,1328.02 "/>
<path clip-path="url(#clip330)" d="M2126.71 1329.65 L2126.71 1345.3 L2122.45 1345.3 L2122.45 1329.79 Q2122.45 1326.11 2121.02 1324.28 Q2119.58 1322.45 2116.71 1322.45 Q2113.26 1322.45 2111.27 1324.65 Q2109.28 1326.85 2109.28 1330.64 L2109.28 1345.3 L2105 1345.3 L2105 1319.37 L2109.28 1319.37 L2109.28 1323.4 Q2110.81 1321.06 2112.87 1319.9 Q2114.95 1318.75 2117.66 1318.75 Q2122.13 1318.75 2124.42 1321.52 Q2126.71 1324.28 2126.71 1329.65 Z" fill="#000000" fill-rule="nonzero" fill-opacity="1" /><path clip-path="url(#clip330)" d="M2150.83 1323.77 L2180.51 1323.77 L2180.51 1327.66 L2150.83 1327.66 L2150.83 1323.77 M2150.83 1333.21 L2180.51 1333.21 L2180.51 1337.15 L2150.83 1337.15 L2150.83 1333.21 Z" fill="#000000" fill-rule="nonzero" fill-opacity="1" /><path clip-path="url(#clip330)" d="M2206.48 1341.36 L2214.12 1341.36 L2214.12 1315 L2205.81 1316.66 L2205.81 1312.4 L2214.07 1310.74 L2218.75 1310.74 L2218.75 1341.36 L2226.39 1341.36 L2226.39 1345.3 L2206.48 1345.3 L2206.48 1341.36 Z" fill="#000000" fill-rule="nonzero" fill-opacity="1" /><path clip-path="url(#clip330)" d="M2246.41 1326.15 Q2243.26 1326.15 2241.41 1328.31 Q2239.58 1330.46 2239.58 1334.21 Q2239.58 1337.94 2241.41 1340.11 Q2243.26 1342.26 2246.41 1342.26 Q2249.56 1342.26 2251.39 1340.11 Q2253.24 1337.94 2253.24 1334.21 Q2253.24 1330.46 2251.39 1328.31 Q2249.56 1326.15 2246.41 1326.15 M2255.69 1311.5 L2255.69 1315.76 Q2253.93 1314.93 2252.13 1314.49 Q2250.35 1314.05 2248.59 1314.05 Q2243.96 1314.05 2241.5 1317.17 Q2239.07 1320.3 2238.73 1326.62 Q2240.09 1324.6 2242.15 1323.54 Q2244.21 1322.45 2246.69 1322.45 Q2251.9 1322.45 2254.91 1325.62 Q2257.94 1328.77 2257.94 1334.21 Q2257.94 1339.53 2254.79 1342.75 Q2251.64 1345.97 2246.41 1345.97 Q2240.42 1345.97 2237.24 1341.38 Q2234.07 1336.78 2234.07 1328.05 Q2234.07 1319.86 2237.96 1315 Q2241.85 1310.11 2248.4 1310.11 Q2250.16 1310.11 2251.94 1310.46 Q2253.75 1310.81 2255.69 1311.5 Z" fill="#000000" fill-rule="nonzero" fill-opacity="1" /></svg>
